G04 DipTrace 3.1.0.1*
G04 BoardOutline.gbr*
%MOMM*%
G04 #@! TF.FileFunction,Profile*
G04 #@! TF.Part,Single*
%ADD11C,0.14*%
%FSLAX35Y35*%
G04*
G71*
G90*
G75*
G01*
G04 BoardOutline*
%LPD*%
X20494000Y15225000D2*
D11*
X20630000D1*
X20890000D1*
X21026000D1*
X21286000D1*
X21422000D1*
X21682000D1*
X21818000D1*
X22078000D1*
X22214000D1*
X22474000D1*
X22610000D1*
X22870000D1*
X23006000D1*
X23266000D1*
X23402000D1*
X23662000D1*
X23798000D1*
X24058000D1*
X24194000D1*
X24454000D1*
X24554000D1*
Y14375000D1*
X42850000D1*
Y1900000D1*
X42250000Y1000000D1*
X1600000D1*
X1000000Y1900000D1*
Y14375000D1*
X12610000D1*
Y15225000D1*
X12710000D1*
X12970000D1*
X13106000D1*
X13366000D1*
X13502000D1*
X13762000D1*
X13898000D1*
X14158000D1*
X14294000D1*
X14554000D1*
X14690000D1*
X14950000D1*
X15086000D1*
X15346000D1*
X15482000D1*
X15742000D1*
X15878000D1*
X16138000D1*
X16274000D1*
X16534000D1*
X16670000D1*
X16930000D1*
X17066000D1*
X17326000D1*
X17462000D1*
X17722000D1*
X17858000D1*
X18118000D1*
X18254000D1*
X19838000D1*
X20098000D1*
X20234000D1*
X20494000D1*
M02*
