G04 DipTrace 3.1.0.1*
G04 BottomSilk.gbr*
%MOMM*%
G04 #@! TF.FileFunction,Legend,Bot*
G04 #@! TF.Part,Single*
%ADD12C,0.076*%
%ADD25C,0.27778*%
%ADD26C,0.66667*%
%FSLAX35Y35*%
G04*
G71*
G90*
G75*
G01*
G04 BotSilk*
%LPD*%
X37640000Y3534600D2*
D12*
X37761600D1*
X37966800D2*
X38377200D1*
X37618103Y3527000D2*
X37785210D1*
X37966800D2*
X38377200D1*
X37599779Y3519400D2*
X37804857D1*
X37966800D2*
X38377200D1*
X37585189Y3511800D2*
X37820473D1*
X37966800D2*
X38377200D1*
X37573105Y3504200D2*
X37832981D1*
X37966800D2*
X38377200D1*
X37562315Y3496600D2*
X37843173D1*
X37966800D2*
X38377200D1*
X37553050Y3489000D2*
X37851948D1*
X37966800D2*
X38377200D1*
X37545707Y3481400D2*
X37859790D1*
X37966800D2*
X38377200D1*
X37539519Y3473800D2*
X37866591D1*
X37966800D2*
X38377200D1*
X37533886Y3466200D2*
X37872178D1*
X37966800D2*
X38377200D1*
X37528933Y3458600D2*
X37876857D1*
X37966800D2*
X38377200D1*
X37524547Y3451000D2*
X37881053D1*
X37966800D2*
X38377200D1*
X37520503Y3443400D2*
X37885005D1*
X37966800D2*
X38377200D1*
X37516836Y3435800D2*
X37888841D1*
X37966800D2*
X38377200D1*
X37513719Y3428200D2*
X37892389D1*
X37966800D2*
X38377200D1*
X37511028Y3420600D2*
X37895204D1*
X37966830D2*
X38377200D1*
X37508343Y3413000D2*
X37896943D1*
X37967097D2*
X38377200D1*
X37506012Y3405400D2*
X37898070D1*
X37968065D2*
X38112404D1*
X38240400D2*
X38377200D1*
X37504531Y3397800D2*
X37632400D1*
X37769200D2*
X37899420D1*
X37969915D2*
X38114556D1*
X38240400D2*
X38377200D1*
X37503768Y3390200D2*
X37632400D1*
X37769200D2*
X37901395D1*
X37972131D2*
X38117522D1*
X38240400D2*
X38377200D1*
X37503424Y3382600D2*
X37632400D1*
X37769200D2*
X37903402D1*
X37974455D2*
X38120940D1*
X38240400D2*
X38377200D1*
X37503283Y3375000D2*
X37632400D1*
X37769200D2*
X37904749D1*
X37977247D2*
X38124593D1*
X38240400D2*
X38377200D1*
X37503230Y3367400D2*
X37632400D1*
X37769200D2*
X37905461D1*
X37980516D2*
X38128329D1*
X38240400D2*
X38377200D1*
X37503210Y3359800D2*
X37632400D1*
X37769200D2*
X37905786D1*
X37984062D2*
X38132114D1*
X38240400D2*
X38377200D1*
X37503203Y3352200D2*
X37632400D1*
X37769200D2*
X37905920D1*
X37987765D2*
X38135901D1*
X38240400D2*
X38377200D1*
X37503201Y3344600D2*
X37632400D1*
X37769200D2*
X37905971D1*
X37991519D2*
X38139675D1*
X37503200Y3337000D2*
X37632400D1*
X37769200D2*
X37905990D1*
X37995311D2*
X38143230D1*
X37503200Y3329400D2*
X37632400D1*
X37769200D2*
X37905967D1*
X37999100D2*
X38146305D1*
X37503200Y3321800D2*
X37632400D1*
X37769200D2*
X37905702D1*
X38002904D2*
X38149010D1*
X37503200Y3314200D2*
X37632400D1*
X37769200D2*
X37904734D1*
X38006697D2*
X38151956D1*
X37503230Y3306600D2*
X37632400D1*
X37769200D2*
X37902914D1*
X38010473D2*
X38155284D1*
X37503497Y3299000D2*
X37632400D1*
X37769200D2*
X37900966D1*
X38014030D2*
X38158851D1*
X37504465Y3291400D2*
X37632400D1*
X37769200D2*
X37899611D1*
X38017105D2*
X38162562D1*
X37506315Y3283800D2*
X37632400D1*
X37769200D2*
X37898639D1*
X38019810D2*
X38166318D1*
X37508561Y3276200D2*
X37897318D1*
X38022756D2*
X38170110D1*
X37511122Y3268600D2*
X37895068D1*
X38026084D2*
X38173899D1*
X37514675Y3261000D2*
X37891802D1*
X38029651D2*
X38177704D1*
X37519330Y3253400D2*
X37887372D1*
X38033362D2*
X38181497D1*
X37525001Y3245800D2*
X37881597D1*
X38037118D2*
X38185273D1*
X37532279Y3238200D2*
X37874623D1*
X38040910D2*
X38188830D1*
X37541496Y3230600D2*
X37866251D1*
X38044699D2*
X38191905D1*
X37552315Y3223000D2*
X37856219D1*
X38048504D2*
X38194610D1*
X37564000Y3215400D2*
X37845200D1*
X38052297D2*
X38197556D1*
X37552892Y3207800D2*
X37855368D1*
X38056073D2*
X38200884D1*
X37543109Y3200200D2*
X37864963D1*
X38059630D2*
X38204451D1*
X37534434Y3192600D2*
X37873035D1*
X38062705D2*
X38208162D1*
X37526641Y3185000D2*
X37879530D1*
X38065410D2*
X38211918D1*
X37520079Y3177400D2*
X37885220D1*
X38068356D2*
X38215710D1*
X37515222Y3169800D2*
X37890367D1*
X38071684D2*
X38219499D1*
X37511660Y3162200D2*
X37894229D1*
X38075251D2*
X38223304D1*
X37508591Y3154600D2*
X37896521D1*
X38078962D2*
X38227097D1*
X37506103Y3147000D2*
X37632400D1*
X37769200D2*
X37897902D1*
X38082718D2*
X38230873D1*
X37504564Y3139400D2*
X37632400D1*
X37769200D2*
X37899357D1*
X38086510D2*
X38234430D1*
X37503779Y3131800D2*
X37632400D1*
X37769200D2*
X37901372D1*
X38090299D2*
X38237505D1*
X37503428Y3124200D2*
X37632400D1*
X37769200D2*
X37903394D1*
X38094104D2*
X38240210D1*
X37503285Y3116600D2*
X37632400D1*
X37769200D2*
X37904746D1*
X38097897D2*
X38243156D1*
X37503230Y3109000D2*
X37632400D1*
X37769200D2*
X37905460D1*
X38101673D2*
X38246484D1*
X37503210Y3101400D2*
X37632400D1*
X37769200D2*
X37905785D1*
X38105230D2*
X38250051D1*
X37503203Y3093800D2*
X37632400D1*
X37769200D2*
X37905920D1*
X38108305D2*
X38253762D1*
X37503201Y3086200D2*
X37632400D1*
X37769200D2*
X37905971D1*
X38111010D2*
X38257518D1*
X37503200Y3078600D2*
X37632400D1*
X37769200D2*
X37905990D1*
X38113956D2*
X38261310D1*
X37503200Y3071000D2*
X37632400D1*
X37769200D2*
X37905997D1*
X38117284D2*
X38265099D1*
X37503200Y3063400D2*
X37632400D1*
X37769200D2*
X37905969D1*
X38120851D2*
X38268904D1*
X37503200Y3055800D2*
X37632400D1*
X37769200D2*
X37905703D1*
X38124562D2*
X38272697D1*
X37503200Y3048200D2*
X37632400D1*
X37769200D2*
X37904734D1*
X38128318D2*
X38276473D1*
X37503230Y3040600D2*
X37632400D1*
X37769200D2*
X37902914D1*
X38132110D2*
X38280030D1*
X37503497Y3033000D2*
X37632400D1*
X37769200D2*
X37900966D1*
X38135899D2*
X38283105D1*
X37504465Y3025400D2*
X37632400D1*
X37769200D2*
X37899611D1*
X38139704D2*
X38285810D1*
X37506315Y3017800D2*
X37898639D1*
X38143497D2*
X38288756D1*
X37508531Y3010200D2*
X37897318D1*
X38147273D2*
X38292084D1*
X37510855Y3002600D2*
X37895097D1*
X38150830D2*
X38295651D1*
X37513647Y2995000D2*
X37892099D1*
X38153905D2*
X38299362D1*
X37516916Y2987400D2*
X37888638D1*
X38156610D2*
X38303118D1*
X37520492Y2979800D2*
X37884713D1*
X38159556D2*
X38306910D1*
X37524462Y2972200D2*
X37880007D1*
X38162884D2*
X38310699D1*
X37529214Y2964600D2*
X37874401D1*
X38166451D2*
X38314504D1*
X37535093Y2957000D2*
X37868606D1*
X38170162D2*
X38318297D1*
X37541829Y2949400D2*
X37862942D1*
X38173918D2*
X38322073D1*
X37549076Y2941800D2*
X37856478D1*
X38177710D2*
X38325630D1*
X37556818Y2934200D2*
X37848412D1*
X38181499D2*
X38328705D1*
X37565654Y2926600D2*
X37839263D1*
X38185304D2*
X38331410D1*
X37576607Y2919000D2*
X37829114D1*
X38189121D2*
X38334380D1*
X37590401Y2911400D2*
X37816710D1*
X38193124D2*
X38337904D1*
X37606897Y2903800D2*
X37801370D1*
X38197558D2*
X38342102D1*
X37624800Y2896200D2*
X37784400D1*
X38202400D2*
X38346800D1*
X37640000Y3534600D2*
X37618103Y3527000D1*
X37599779Y3519400D1*
X37585189Y3511800D1*
X37573105Y3504200D1*
X37562315Y3496600D1*
X37553050Y3489000D1*
X37545707Y3481400D1*
X37539519Y3473800D1*
X37533886Y3466200D1*
X37528933Y3458600D1*
X37524547Y3451000D1*
X37520503Y3443400D1*
X37516836Y3435800D1*
X37513719Y3428200D1*
X37511028Y3420600D1*
X37508343Y3413000D1*
X37506012Y3405400D1*
X37504531Y3397800D1*
X37503768Y3390200D1*
X37503424Y3382600D1*
X37503283Y3375000D1*
X37503230Y3367400D1*
X37503210Y3359800D1*
X37503203Y3352200D1*
X37503201Y3344600D1*
X37503200Y3337000D1*
Y3329400D1*
Y3321800D1*
Y3314200D1*
X37503230Y3306600D1*
X37503497Y3299000D1*
X37504465Y3291400D1*
X37506315Y3283800D1*
X37508561Y3276200D1*
X37511122Y3268600D1*
X37514675Y3261000D1*
X37519330Y3253400D1*
X37525001Y3245800D1*
X37532279Y3238200D1*
X37541496Y3230600D1*
X37552315Y3223000D1*
X37564000Y3215400D1*
X37552892Y3207800D1*
X37543109Y3200200D1*
X37534434Y3192600D1*
X37526641Y3185000D1*
X37520079Y3177400D1*
X37515222Y3169800D1*
X37511660Y3162200D1*
X37508591Y3154600D1*
X37506103Y3147000D1*
X37504564Y3139400D1*
X37503779Y3131800D1*
X37503428Y3124200D1*
X37503285Y3116600D1*
X37503230Y3109000D1*
X37503210Y3101400D1*
X37503203Y3093800D1*
X37503201Y3086200D1*
X37503200Y3078600D1*
Y3071000D1*
Y3063400D1*
Y3055800D1*
Y3048200D1*
X37503230Y3040600D1*
X37503497Y3033000D1*
X37504465Y3025400D1*
X37506315Y3017800D1*
X37508531Y3010200D1*
X37510855Y3002600D1*
X37513647Y2995000D1*
X37516916Y2987400D1*
X37520492Y2979800D1*
X37524462Y2972200D1*
X37529214Y2964600D1*
X37535093Y2957000D1*
X37541829Y2949400D1*
X37549076Y2941800D1*
X37556818Y2934200D1*
X37565654Y2926600D1*
X37576607Y2919000D1*
X37590401Y2911400D1*
X37606897Y2903800D1*
X37624800Y2896200D1*
X37761600Y3534600D2*
X37785210Y3527000D1*
X37804857Y3519400D1*
X37820473Y3511800D1*
X37832981Y3504200D1*
X37843173Y3496600D1*
X37851948Y3489000D1*
X37859790Y3481400D1*
X37866591Y3473800D1*
X37872178Y3466200D1*
X37876857Y3458600D1*
X37881053Y3451000D1*
X37885005Y3443400D1*
X37888841Y3435800D1*
X37892389Y3428200D1*
X37895204Y3420600D1*
X37896943Y3413000D1*
X37898070Y3405400D1*
X37899420Y3397800D1*
X37901395Y3390200D1*
X37903402Y3382600D1*
X37904749Y3375000D1*
X37905461Y3367400D1*
X37905786Y3359800D1*
X37905920Y3352200D1*
X37905971Y3344600D1*
X37905990Y3337000D1*
X37905967Y3329400D1*
X37905702Y3321800D1*
X37904734Y3314200D1*
X37902914Y3306600D1*
X37900966Y3299000D1*
X37899611Y3291400D1*
X37898639Y3283800D1*
X37897318Y3276200D1*
X37895068Y3268600D1*
X37891802Y3261000D1*
X37887372Y3253400D1*
X37881597Y3245800D1*
X37874623Y3238200D1*
X37866251Y3230600D1*
X37856219Y3223000D1*
X37845200Y3215400D1*
X37855368Y3207800D1*
X37864963Y3200200D1*
X37873035Y3192600D1*
X37879530Y3185000D1*
X37885220Y3177400D1*
X37890367Y3169800D1*
X37894229Y3162200D1*
X37896521Y3154600D1*
X37897902Y3147000D1*
X37899357Y3139400D1*
X37901372Y3131800D1*
X37903394Y3124200D1*
X37904746Y3116600D1*
X37905460Y3109000D1*
X37905785Y3101400D1*
X37905920Y3093800D1*
X37905971Y3086200D1*
X37905990Y3078600D1*
X37905997Y3071000D1*
X37905969Y3063400D1*
X37905703Y3055800D1*
X37904734Y3048200D1*
X37902914Y3040600D1*
X37900966Y3033000D1*
X37899611Y3025400D1*
X37898639Y3017800D1*
X37897318Y3010200D1*
X37895097Y3002600D1*
X37892099Y2995000D1*
X37888638Y2987400D1*
X37884713Y2979800D1*
X37880007Y2972200D1*
X37874401Y2964600D1*
X37868606Y2957000D1*
X37862942Y2949400D1*
X37856478Y2941800D1*
X37848412Y2934200D1*
X37839263Y2926600D1*
X37829114Y2919000D1*
X37816710Y2911400D1*
X37801370Y2903800D1*
X37784400Y2896200D1*
X37966800Y3534600D2*
Y3527000D1*
Y3519400D1*
Y3511800D1*
Y3504200D1*
Y3496600D1*
Y3489000D1*
Y3481400D1*
Y3473800D1*
Y3466200D1*
Y3458600D1*
Y3451000D1*
Y3443400D1*
Y3435800D1*
Y3428200D1*
X37966830Y3420600D1*
X37967097Y3413000D1*
X37968065Y3405400D1*
X37969915Y3397800D1*
X37972131Y3390200D1*
X37974455Y3382600D1*
X37977247Y3375000D1*
X37980516Y3367400D1*
X37984062Y3359800D1*
X37987765Y3352200D1*
X37991519Y3344600D1*
X37995311Y3337000D1*
X37999100Y3329400D1*
X38002904Y3321800D1*
X38006697Y3314200D1*
X38010473Y3306600D1*
X38014030Y3299000D1*
X38017105Y3291400D1*
X38019810Y3283800D1*
X38022756Y3276200D1*
X38026084Y3268600D1*
X38029651Y3261000D1*
X38033362Y3253400D1*
X38037118Y3245800D1*
X38040910Y3238200D1*
X38044699Y3230600D1*
X38048504Y3223000D1*
X38052297Y3215400D1*
X38056073Y3207800D1*
X38059630Y3200200D1*
X38062705Y3192600D1*
X38065410Y3185000D1*
X38068356Y3177400D1*
X38071684Y3169800D1*
X38075251Y3162200D1*
X38078962Y3154600D1*
X38082718Y3147000D1*
X38086510Y3139400D1*
X38090299Y3131800D1*
X38094104Y3124200D1*
X38097897Y3116600D1*
X38101673Y3109000D1*
X38105230Y3101400D1*
X38108305Y3093800D1*
X38111010Y3086200D1*
X38113956Y3078600D1*
X38117284Y3071000D1*
X38120851Y3063400D1*
X38124562Y3055800D1*
X38128318Y3048200D1*
X38132110Y3040600D1*
X38135899Y3033000D1*
X38139704Y3025400D1*
X38143497Y3017800D1*
X38147273Y3010200D1*
X38150830Y3002600D1*
X38153905Y2995000D1*
X38156610Y2987400D1*
X38159556Y2979800D1*
X38162884Y2972200D1*
X38166451Y2964600D1*
X38170162Y2957000D1*
X38173918Y2949400D1*
X38177710Y2941800D1*
X38181499Y2934200D1*
X38185304Y2926600D1*
X38189121Y2919000D1*
X38193124Y2911400D1*
X38197558Y2903800D1*
X38202400Y2896200D1*
X38377200Y3534600D2*
Y3527000D1*
Y3519400D1*
Y3511800D1*
Y3504200D1*
Y3496600D1*
Y3489000D1*
Y3481400D1*
Y3473800D1*
Y3466200D1*
Y3458600D1*
Y3451000D1*
Y3443400D1*
Y3435800D1*
Y3428200D1*
Y3420600D1*
Y3413000D1*
Y3405400D1*
Y3397800D1*
Y3390200D1*
Y3382600D1*
Y3375000D1*
Y3367400D1*
Y3359800D1*
Y3352200D1*
X38111200Y3413000D2*
X38112404Y3405400D1*
X38114556Y3397800D1*
X38117522Y3390200D1*
X38120940Y3382600D1*
X38124593Y3375000D1*
X38128329Y3367400D1*
X38132114Y3359800D1*
X38135901Y3352200D1*
X38139675Y3344600D1*
X38143230Y3337000D1*
X38146305Y3329400D1*
X38149010Y3321800D1*
X38151956Y3314200D1*
X38155284Y3306600D1*
X38158851Y3299000D1*
X38162562Y3291400D1*
X38166318Y3283800D1*
X38170110Y3276200D1*
X38173899Y3268600D1*
X38177704Y3261000D1*
X38181497Y3253400D1*
X38185273Y3245800D1*
X38188830Y3238200D1*
X38191905Y3230600D1*
X38194610Y3223000D1*
X38197556Y3215400D1*
X38200884Y3207800D1*
X38204451Y3200200D1*
X38208162Y3192600D1*
X38211918Y3185000D1*
X38215710Y3177400D1*
X38219499Y3169800D1*
X38223304Y3162200D1*
X38227097Y3154600D1*
X38230873Y3147000D1*
X38234430Y3139400D1*
X38237505Y3131800D1*
X38240210Y3124200D1*
X38243156Y3116600D1*
X38246484Y3109000D1*
X38250051Y3101400D1*
X38253762Y3093800D1*
X38257518Y3086200D1*
X38261310Y3078600D1*
X38265099Y3071000D1*
X38268904Y3063400D1*
X38272697Y3055800D1*
X38276473Y3048200D1*
X38280030Y3040600D1*
X38283105Y3033000D1*
X38285810Y3025400D1*
X38288756Y3017800D1*
X38292084Y3010200D1*
X38295651Y3002600D1*
X38299362Y2995000D1*
X38303118Y2987400D1*
X38306910Y2979800D1*
X38310699Y2972200D1*
X38314504Y2964600D1*
X38318297Y2957000D1*
X38322073Y2949400D1*
X38325630Y2941800D1*
X38328705Y2934200D1*
X38331410Y2926600D1*
X38334380Y2919000D1*
X38337904Y2911400D1*
X38342102Y2903800D1*
X38346800Y2896200D1*
X38240400Y3413000D2*
Y3405400D1*
Y3397800D1*
Y3390200D1*
Y3382600D1*
Y3375000D1*
Y3367400D1*
Y3359800D1*
Y3352200D1*
X37632400Y3405400D2*
Y3397800D1*
Y3390200D1*
Y3382600D1*
Y3375000D1*
Y3367400D1*
Y3359800D1*
Y3352200D1*
Y3344600D1*
Y3337000D1*
Y3329400D1*
Y3321800D1*
Y3314200D1*
Y3306600D1*
Y3299000D1*
Y3291400D1*
Y3283800D1*
Y3276200D1*
X37769200Y3405400D2*
Y3397800D1*
Y3390200D1*
Y3382600D1*
Y3375000D1*
Y3367400D1*
Y3359800D1*
Y3352200D1*
Y3344600D1*
Y3337000D1*
Y3329400D1*
Y3321800D1*
Y3314200D1*
Y3306600D1*
Y3299000D1*
Y3291400D1*
Y3283800D1*
Y3276200D1*
X37632400Y3154600D2*
Y3147000D1*
Y3139400D1*
Y3131800D1*
Y3124200D1*
Y3116600D1*
Y3109000D1*
Y3101400D1*
Y3093800D1*
Y3086200D1*
Y3078600D1*
Y3071000D1*
Y3063400D1*
Y3055800D1*
Y3048200D1*
Y3040600D1*
Y3033000D1*
Y3025400D1*
Y3017800D1*
X37769200Y3154600D2*
Y3147000D1*
Y3139400D1*
Y3131800D1*
Y3124200D1*
Y3116600D1*
Y3109000D1*
Y3101400D1*
Y3093800D1*
Y3086200D1*
Y3078600D1*
Y3071000D1*
Y3063400D1*
Y3055800D1*
Y3048200D1*
Y3040600D1*
Y3033000D1*
Y3025400D1*
Y3017800D1*
X37234789Y3274303D2*
D26*
Y2968039D1*
X37088902Y3172215D2*
X37234789Y3026327D1*
X37176502Y3084615D2*
X37074414Y2968039D1*
X36941081Y3084615D2*
X36766218D1*
Y3113927D1*
X36780705Y3143239D1*
X36795193Y3157727D1*
X36824505Y3172215D1*
X36868305D1*
X36897281Y3157727D1*
X36926593Y3128415D1*
X36941081Y3084615D1*
Y3055639D1*
X36926593Y3011839D1*
X36897281Y2982864D1*
X36868305Y2968039D1*
X36824505D1*
X36795193Y2982864D1*
X36766218Y3011839D1*
X36618060Y3172215D2*
X36530797Y2968039D1*
X36559772Y2909752D1*
X36589084Y2880439D1*
X36618060Y2865952D1*
X36632884D1*
X36443197Y3172215D2*
X36530797Y2968039D1*
X36016930Y3085482D2*
D25*
X35907711D1*
X35871211Y3097836D1*
X35858857Y3109909D1*
X35846784Y3134055D1*
Y3158482D1*
X35858857Y3182629D1*
X35871211Y3194982D1*
X35907711Y3207055D1*
X36016930D1*
Y2951836D1*
X35931857Y3085482D2*
X35846784Y2951836D1*
X35791228Y3048982D2*
X35645509D1*
Y3073409D1*
X35657582Y3097836D1*
X35669655Y3109909D1*
X35694082Y3121982D1*
X35730582D1*
X35754728Y3109909D1*
X35779155Y3085482D1*
X35791228Y3048982D1*
Y3024836D1*
X35779155Y2988336D1*
X35754728Y2964190D1*
X35730582Y2951836D1*
X35694082D1*
X35669655Y2964190D1*
X35645509Y2988336D1*
X35589954Y3121982D2*
X35516954Y2951836D1*
X35444234Y3121982D1*
X35376606Y2976263D2*
X35388679Y2963909D1*
X35376606Y2951836D1*
X35364252Y2963909D1*
X35376606Y2976263D1*
X35084679Y3158202D2*
X35060252Y3170555D1*
X35023752Y3206775D1*
Y2951836D1*
M02*
