M48
METRIC,0000.00
T01C1.0
T02C4.0
%
T01
X+012840Y+014525
X+013236Y+014525
X+013632Y+014525
X+014028Y+014525
X+014424Y+014525
X+014820Y+014525
X+015216Y+014525
X+015612Y+014525
X+016008Y+014525
X+016404Y+014525
X+016800Y+014525
X+017196Y+014525
X+017592Y+014525
X+017988Y+014525
X+018384Y+014525
X+018780Y+014525
X+019176Y+014525
X+019572Y+014525
X+019968Y+014525
X+020364Y+014525
X+020760Y+014525
X+021156Y+014525
X+021552Y+014525
X+021948Y+014525
X+022344Y+014525
X+022740Y+014525
X+023136Y+014525
X+023532Y+014525
X+023928Y+014525
X+024324Y+014525
T02
X+002900Y+001375
X+001925Y+001375
X+001925Y+012975
X+002900Y+012975
X+018650Y+012975
X+018650Y+001375
X+034275Y+001375
X+035250Y+001375
X+041925Y+001375
X+041925Y+012975
X+035250Y+012975
X+034275Y+012975
T00
M30
