G04 DipTrace 3.1.0.1*
G04 BottomSilk.gbr*
%MOMM*%
G04 #@! TF.FileFunction,Legend,Bot*
G04 #@! TF.Part,Single*
%ADD12C,0.076*%
%ADD25C,0.66667*%
%ADD27C,0.33333*%
%FSLAX35Y35*%
G04*
G71*
G90*
G75*
G01*
G04 BotSilk*
%LPD*%
X33249000Y3608600D2*
D12*
X33385800D1*
X33712600D2*
X33849400D1*
X33228898Y3601000D2*
X33407697D1*
X33692498D2*
X33871297D1*
X33211434Y3593400D2*
X33425992D1*
X33675034D2*
X33889592D1*
X33196922Y3585800D2*
X33440314D1*
X33660522D2*
X33903914D1*
X33184904Y3578200D2*
X33451459D1*
X33648504D2*
X33915059D1*
X33174941Y3570600D2*
X33460696D1*
X33638541D2*
X33924296D1*
X33166478Y3563000D2*
X33468982D1*
X33630078D2*
X33932582D1*
X33159365Y3555400D2*
X33476819D1*
X33622965D2*
X33940419D1*
X33153424Y3547800D2*
X33484251D1*
X33617024D2*
X33947851D1*
X33147969Y3540200D2*
X33490887D1*
X33611569D2*
X33954487D1*
X33142668Y3532600D2*
X33496382D1*
X33606268D2*
X33959982D1*
X33137881Y3525000D2*
X33500802D1*
X33601481D2*
X33964402D1*
X33133785Y3517400D2*
X33504259D1*
X33597385D2*
X33967859D1*
X33130461Y3509800D2*
X33507089D1*
X33594061D2*
X33970689D1*
X33127683Y3502200D2*
X33509827D1*
X33591283D2*
X33973427D1*
X33124963Y3494600D2*
X33512208D1*
X33588563D2*
X33975808D1*
X33122619Y3487000D2*
X33513962D1*
X33586219D2*
X33977562D1*
X33121134Y3479400D2*
X33249000D1*
X33385800D2*
X33515697D1*
X33584734D2*
X33712600D1*
X33849400D2*
X33979297D1*
X33120369Y3471800D2*
X33249000D1*
X33385800D2*
X33517861D1*
X33583969D2*
X33712600D1*
X33849400D2*
X33981461D1*
X33120024Y3464200D2*
X33249000D1*
X33385800D2*
X33519951D1*
X33583624D2*
X33712600D1*
X33849400D2*
X33983551D1*
X33119884Y3456600D2*
X33249000D1*
X33385800D2*
X33521330D1*
X33583484D2*
X33712600D1*
X33849400D2*
X33984930D1*
X33119830Y3449000D2*
X33249000D1*
X33385800D2*
X33522054D1*
X33583430D2*
X33712600D1*
X33849400D2*
X33985654D1*
X33119810Y3441400D2*
X33249000D1*
X33385800D2*
X33522383D1*
X33583410D2*
X33712600D1*
X33849400D2*
X33985983D1*
X33119803Y3433800D2*
X33249000D1*
X33385800D2*
X33522519D1*
X33583403D2*
X33712600D1*
X33849400D2*
X33986119D1*
X33119800Y3426200D2*
X33249000D1*
X33385800D2*
X33522571D1*
X33583400D2*
X33712600D1*
X33849400D2*
X33986171D1*
X33385800Y3418600D2*
X33522590D1*
X33849400D2*
X33986190D1*
X33385800Y3411000D2*
X33522597D1*
X33849400D2*
X33986197D1*
X33385800Y3403400D2*
X33522599D1*
X33849400D2*
X33986199D1*
X33385800Y3395800D2*
X33522600D1*
X33849400D2*
X33986200D1*
X33385800Y3388200D2*
X33522600D1*
X33849400D2*
X33986200D1*
X33385800Y3380600D2*
X33522600D1*
X33849400D2*
X33986200D1*
X33385800Y3373000D2*
X33522600D1*
X33849400D2*
X33986200D1*
X33385800Y3365400D2*
X33522600D1*
X33849400D2*
X33986200D1*
X33385800Y3357800D2*
X33522600D1*
X33849400D2*
X33986200D1*
X33249000Y3350200D2*
X33522600D1*
X33712600D2*
X33986200D1*
X33227988Y3342600D2*
X33522600D1*
X33691588D2*
X33986200D1*
X33210603Y3335000D2*
X33522600D1*
X33674203D2*
X33986200D1*
X33196427Y3327400D2*
X33522600D1*
X33660027D2*
X33986200D1*
X33184664Y3319800D2*
X33522600D1*
X33648264D2*
X33986200D1*
X33174838Y3312200D2*
X33522600D1*
X33638438D2*
X33986200D1*
X33166437Y3304600D2*
X33522600D1*
X33630037D2*
X33986200D1*
X33159350Y3297000D2*
X33522600D1*
X33622950D2*
X33986200D1*
X33153419Y3289400D2*
X33522600D1*
X33617019D2*
X33986200D1*
X33147967Y3281800D2*
X33522600D1*
X33611567D2*
X33986200D1*
X33142667Y3274200D2*
X33522600D1*
X33606267D2*
X33986200D1*
X33137881Y3266600D2*
X33522600D1*
X33601481D2*
X33986200D1*
X33133785Y3259000D2*
X33522600D1*
X33597385D2*
X33986200D1*
X33130461Y3251400D2*
X33522600D1*
X33594061D2*
X33986200D1*
X33127683Y3243800D2*
X33522600D1*
X33591283D2*
X33986200D1*
X33124963Y3236200D2*
X33522600D1*
X33588563D2*
X33986200D1*
X33122619Y3228600D2*
X33522600D1*
X33586219D2*
X33986200D1*
X33121134Y3221000D2*
X33249000D1*
X33385800D2*
X33522600D1*
X33584734D2*
X33712600D1*
X33849400D2*
X33986200D1*
X33120369Y3213400D2*
X33249000D1*
X33385800D2*
X33522600D1*
X33583969D2*
X33712600D1*
X33849400D2*
X33986200D1*
X33120024Y3205800D2*
X33249000D1*
X33385800D2*
X33522600D1*
X33583624D2*
X33712600D1*
X33849400D2*
X33986200D1*
X33119884Y3198200D2*
X33249000D1*
X33385800D2*
X33522600D1*
X33583484D2*
X33712600D1*
X33849400D2*
X33986200D1*
X33119830Y3190600D2*
X33249000D1*
X33385800D2*
X33522600D1*
X33583430D2*
X33712600D1*
X33849400D2*
X33986200D1*
X33119810Y3183000D2*
X33249000D1*
X33385800D2*
X33522600D1*
X33583410D2*
X33712600D1*
X33849400D2*
X33986200D1*
X33119803Y3175400D2*
X33249000D1*
X33385800D2*
X33522600D1*
X33583403D2*
X33712600D1*
X33849400D2*
X33986200D1*
X33119801Y3167800D2*
X33249000D1*
X33385800D2*
X33522600D1*
X33583401D2*
X33712600D1*
X33849400D2*
X33986200D1*
X33119800Y3160200D2*
X33249000D1*
X33385800D2*
X33522600D1*
X33583400D2*
X33712600D1*
X33849400D2*
X33986200D1*
X33119800Y3152600D2*
X33249000D1*
X33385800D2*
X33522600D1*
X33583400D2*
X33712600D1*
X33849400D2*
X33986200D1*
X33119800Y3145000D2*
X33249000D1*
X33385800D2*
X33522600D1*
X33583400D2*
X33712600D1*
X33849400D2*
X33986200D1*
X33119800Y3137400D2*
X33249000D1*
X33385800D2*
X33522600D1*
X33583400D2*
X33712600D1*
X33849400D2*
X33986200D1*
X33119800Y3129800D2*
X33249000D1*
X33385800D2*
X33522570D1*
X33583400D2*
X33712600D1*
X33849400D2*
X33986170D1*
X33119800Y3122200D2*
X33249000D1*
X33385800D2*
X33522303D1*
X33583400D2*
X33712600D1*
X33849400D2*
X33985903D1*
X33119830Y3114600D2*
X33249000D1*
X33385800D2*
X33521335D1*
X33583430D2*
X33712600D1*
X33849400D2*
X33984935D1*
X33120097Y3107000D2*
X33249000D1*
X33385800D2*
X33519514D1*
X33583697D2*
X33712600D1*
X33849400D2*
X33983114D1*
X33121065Y3099400D2*
X33249000D1*
X33385800D2*
X33517536D1*
X33584665D2*
X33712600D1*
X33849400D2*
X33981136D1*
X33122915Y3091800D2*
X33515943D1*
X33586515D2*
X33979543D1*
X33125131Y3084200D2*
X33514240D1*
X33588731D2*
X33977840D1*
X33127455Y3076600D2*
X33511831D1*
X33591055D2*
X33975431D1*
X33130247Y3069000D2*
X33508750D1*
X33593847D2*
X33972350D1*
X33133516Y3061400D2*
X33505257D1*
X33597116D2*
X33968857D1*
X33137092Y3053800D2*
X33501349D1*
X33600692D2*
X33964949D1*
X33141062Y3046200D2*
X33496876D1*
X33604662D2*
X33960476D1*
X33145814Y3038600D2*
X33491970D1*
X33609414D2*
X33955570D1*
X33151693Y3031000D2*
X33487026D1*
X33615293D2*
X33950626D1*
X33158429Y3023400D2*
X33481491D1*
X33622029D2*
X33945091D1*
X33165676Y3015800D2*
X33474403D1*
X33629276D2*
X33938003D1*
X33173418Y3008200D2*
X33465717D1*
X33637018D2*
X33929317D1*
X33182254Y3000600D2*
X33456185D1*
X33645854D2*
X33919785D1*
X33193207Y2993000D2*
X33445847D1*
X33656807D2*
X33909447D1*
X33207001Y2985400D2*
X33433362D1*
X33670601D2*
X33896962D1*
X33223497Y2977800D2*
X33417988D1*
X33687097D2*
X33881588D1*
X33241400Y2970200D2*
X33401000D1*
X33705000D2*
X33864600D1*
X33249000Y3608600D2*
X33228898Y3601000D1*
X33211434Y3593400D1*
X33196922Y3585800D1*
X33184904Y3578200D1*
X33174941Y3570600D1*
X33166478Y3563000D1*
X33159365Y3555400D1*
X33153424Y3547800D1*
X33147969Y3540200D1*
X33142668Y3532600D1*
X33137881Y3525000D1*
X33133785Y3517400D1*
X33130461Y3509800D1*
X33127683Y3502200D1*
X33124963Y3494600D1*
X33122619Y3487000D1*
X33121134Y3479400D1*
X33120369Y3471800D1*
X33120024Y3464200D1*
X33119884Y3456600D1*
X33119830Y3449000D1*
X33119810Y3441400D1*
X33119803Y3433800D1*
X33119800Y3426200D1*
X33385800Y3608600D2*
X33407697Y3601000D1*
X33425992Y3593400D1*
X33440314Y3585800D1*
X33451459Y3578200D1*
X33460696Y3570600D1*
X33468982Y3563000D1*
X33476819Y3555400D1*
X33484251Y3547800D1*
X33490887Y3540200D1*
X33496382Y3532600D1*
X33500802Y3525000D1*
X33504259Y3517400D1*
X33507089Y3509800D1*
X33509827Y3502200D1*
X33512208Y3494600D1*
X33513962Y3487000D1*
X33515697Y3479400D1*
X33517861Y3471800D1*
X33519951Y3464200D1*
X33521330Y3456600D1*
X33522054Y3449000D1*
X33522383Y3441400D1*
X33522519Y3433800D1*
X33522571Y3426200D1*
X33522590Y3418600D1*
X33522597Y3411000D1*
X33522599Y3403400D1*
X33522600Y3395800D1*
Y3388200D1*
Y3380600D1*
Y3373000D1*
Y3365400D1*
Y3357800D1*
Y3350200D1*
Y3342600D1*
Y3335000D1*
Y3327400D1*
Y3319800D1*
Y3312200D1*
Y3304600D1*
Y3297000D1*
Y3289400D1*
Y3281800D1*
Y3274200D1*
Y3266600D1*
Y3259000D1*
Y3251400D1*
Y3243800D1*
Y3236200D1*
Y3228600D1*
Y3221000D1*
Y3213400D1*
Y3205800D1*
Y3198200D1*
Y3190600D1*
Y3183000D1*
Y3175400D1*
Y3167800D1*
Y3160200D1*
Y3152600D1*
Y3145000D1*
Y3137400D1*
X33522570Y3129800D1*
X33522303Y3122200D1*
X33521335Y3114600D1*
X33519514Y3107000D1*
X33517536Y3099400D1*
X33515943Y3091800D1*
X33514240Y3084200D1*
X33511831Y3076600D1*
X33508750Y3069000D1*
X33505257Y3061400D1*
X33501349Y3053800D1*
X33496876Y3046200D1*
X33491970Y3038600D1*
X33487026Y3031000D1*
X33481491Y3023400D1*
X33474403Y3015800D1*
X33465717Y3008200D1*
X33456185Y3000600D1*
X33445847Y2993000D1*
X33433362Y2985400D1*
X33417988Y2977800D1*
X33401000Y2970200D1*
X33712600Y3608600D2*
X33692498Y3601000D1*
X33675034Y3593400D1*
X33660522Y3585800D1*
X33648504Y3578200D1*
X33638541Y3570600D1*
X33630078Y3563000D1*
X33622965Y3555400D1*
X33617024Y3547800D1*
X33611569Y3540200D1*
X33606268Y3532600D1*
X33601481Y3525000D1*
X33597385Y3517400D1*
X33594061Y3509800D1*
X33591283Y3502200D1*
X33588563Y3494600D1*
X33586219Y3487000D1*
X33584734Y3479400D1*
X33583969Y3471800D1*
X33583624Y3464200D1*
X33583484Y3456600D1*
X33583430Y3449000D1*
X33583410Y3441400D1*
X33583403Y3433800D1*
X33583400Y3426200D1*
X33849400Y3608600D2*
X33871297Y3601000D1*
X33889592Y3593400D1*
X33903914Y3585800D1*
X33915059Y3578200D1*
X33924296Y3570600D1*
X33932582Y3563000D1*
X33940419Y3555400D1*
X33947851Y3547800D1*
X33954487Y3540200D1*
X33959982Y3532600D1*
X33964402Y3525000D1*
X33967859Y3517400D1*
X33970689Y3509800D1*
X33973427Y3502200D1*
X33975808Y3494600D1*
X33977562Y3487000D1*
X33979297Y3479400D1*
X33981461Y3471800D1*
X33983551Y3464200D1*
X33984930Y3456600D1*
X33985654Y3449000D1*
X33985983Y3441400D1*
X33986119Y3433800D1*
X33986171Y3426200D1*
X33986190Y3418600D1*
X33986197Y3411000D1*
X33986199Y3403400D1*
X33986200Y3395800D1*
Y3388200D1*
Y3380600D1*
Y3373000D1*
Y3365400D1*
Y3357800D1*
Y3350200D1*
Y3342600D1*
Y3335000D1*
Y3327400D1*
Y3319800D1*
Y3312200D1*
Y3304600D1*
Y3297000D1*
Y3289400D1*
Y3281800D1*
Y3274200D1*
Y3266600D1*
Y3259000D1*
Y3251400D1*
Y3243800D1*
Y3236200D1*
Y3228600D1*
Y3221000D1*
Y3213400D1*
Y3205800D1*
Y3198200D1*
Y3190600D1*
Y3183000D1*
Y3175400D1*
Y3167800D1*
Y3160200D1*
Y3152600D1*
Y3145000D1*
Y3137400D1*
X33986170Y3129800D1*
X33985903Y3122200D1*
X33984935Y3114600D1*
X33983114Y3107000D1*
X33981136Y3099400D1*
X33979543Y3091800D1*
X33977840Y3084200D1*
X33975431Y3076600D1*
X33972350Y3069000D1*
X33968857Y3061400D1*
X33964949Y3053800D1*
X33960476Y3046200D1*
X33955570Y3038600D1*
X33950626Y3031000D1*
X33945091Y3023400D1*
X33938003Y3015800D1*
X33929317Y3008200D1*
X33919785Y3000600D1*
X33909447Y2993000D1*
X33896962Y2985400D1*
X33881588Y2977800D1*
X33864600Y2970200D1*
X33249000Y3487000D2*
Y3479400D1*
Y3471800D1*
Y3464200D1*
Y3456600D1*
Y3449000D1*
Y3441400D1*
Y3433800D1*
Y3426200D1*
X33385800Y3487000D2*
Y3479400D1*
Y3471800D1*
Y3464200D1*
Y3456600D1*
Y3449000D1*
Y3441400D1*
Y3433800D1*
Y3426200D1*
Y3418600D1*
Y3411000D1*
Y3403400D1*
Y3395800D1*
Y3388200D1*
Y3380600D1*
Y3373000D1*
Y3365400D1*
Y3357800D1*
Y3350200D1*
X33712600Y3487000D2*
Y3479400D1*
Y3471800D1*
Y3464200D1*
Y3456600D1*
Y3449000D1*
Y3441400D1*
Y3433800D1*
Y3426200D1*
X33849400Y3487000D2*
Y3479400D1*
Y3471800D1*
Y3464200D1*
Y3456600D1*
Y3449000D1*
Y3441400D1*
Y3433800D1*
Y3426200D1*
Y3418600D1*
Y3411000D1*
Y3403400D1*
Y3395800D1*
Y3388200D1*
Y3380600D1*
Y3373000D1*
Y3365400D1*
Y3357800D1*
Y3350200D1*
X33249000D2*
X33227988Y3342600D1*
X33210603Y3335000D1*
X33196427Y3327400D1*
X33184664Y3319800D1*
X33174838Y3312200D1*
X33166437Y3304600D1*
X33159350Y3297000D1*
X33153419Y3289400D1*
X33147967Y3281800D1*
X33142667Y3274200D1*
X33137881Y3266600D1*
X33133785Y3259000D1*
X33130461Y3251400D1*
X33127683Y3243800D1*
X33124963Y3236200D1*
X33122619Y3228600D1*
X33121134Y3221000D1*
X33120369Y3213400D1*
X33120024Y3205800D1*
X33119884Y3198200D1*
X33119830Y3190600D1*
X33119810Y3183000D1*
X33119803Y3175400D1*
X33119801Y3167800D1*
X33119800Y3160200D1*
Y3152600D1*
Y3145000D1*
Y3137400D1*
Y3129800D1*
Y3122200D1*
X33119830Y3114600D1*
X33120097Y3107000D1*
X33121065Y3099400D1*
X33122915Y3091800D1*
X33125131Y3084200D1*
X33127455Y3076600D1*
X33130247Y3069000D1*
X33133516Y3061400D1*
X33137092Y3053800D1*
X33141062Y3046200D1*
X33145814Y3038600D1*
X33151693Y3031000D1*
X33158429Y3023400D1*
X33165676Y3015800D1*
X33173418Y3008200D1*
X33182254Y3000600D1*
X33193207Y2993000D1*
X33207001Y2985400D1*
X33223497Y2977800D1*
X33241400Y2970200D1*
X33712600Y3350200D2*
X33691588Y3342600D1*
X33674203Y3335000D1*
X33660027Y3327400D1*
X33648264Y3319800D1*
X33638438Y3312200D1*
X33630037Y3304600D1*
X33622950Y3297000D1*
X33617019Y3289400D1*
X33611567Y3281800D1*
X33606267Y3274200D1*
X33601481Y3266600D1*
X33597385Y3259000D1*
X33594061Y3251400D1*
X33591283Y3243800D1*
X33588563Y3236200D1*
X33586219Y3228600D1*
X33584734Y3221000D1*
X33583969Y3213400D1*
X33583624Y3205800D1*
X33583484Y3198200D1*
X33583430Y3190600D1*
X33583410Y3183000D1*
X33583403Y3175400D1*
X33583401Y3167800D1*
X33583400Y3160200D1*
Y3152600D1*
Y3145000D1*
Y3137400D1*
Y3129800D1*
Y3122200D1*
X33583430Y3114600D1*
X33583697Y3107000D1*
X33584665Y3099400D1*
X33586515Y3091800D1*
X33588731Y3084200D1*
X33591055Y3076600D1*
X33593847Y3069000D1*
X33597116Y3061400D1*
X33600692Y3053800D1*
X33604662Y3046200D1*
X33609414Y3038600D1*
X33615293Y3031000D1*
X33622029Y3023400D1*
X33629276Y3015800D1*
X33637018Y3008200D1*
X33645854Y3000600D1*
X33656807Y2993000D1*
X33670601Y2985400D1*
X33687097Y2977800D1*
X33705000Y2970200D1*
X33249000Y3228600D2*
Y3221000D1*
Y3213400D1*
Y3205800D1*
Y3198200D1*
Y3190600D1*
Y3183000D1*
Y3175400D1*
Y3167800D1*
Y3160200D1*
Y3152600D1*
Y3145000D1*
Y3137400D1*
Y3129800D1*
Y3122200D1*
Y3114600D1*
Y3107000D1*
Y3099400D1*
Y3091800D1*
X33385800Y3228600D2*
Y3221000D1*
Y3213400D1*
Y3205800D1*
Y3198200D1*
Y3190600D1*
Y3183000D1*
Y3175400D1*
Y3167800D1*
Y3160200D1*
Y3152600D1*
Y3145000D1*
Y3137400D1*
Y3129800D1*
Y3122200D1*
Y3114600D1*
Y3107000D1*
Y3099400D1*
Y3091800D1*
X33712600Y3228600D2*
Y3221000D1*
Y3213400D1*
Y3205800D1*
Y3198200D1*
Y3190600D1*
Y3183000D1*
Y3175400D1*
Y3167800D1*
Y3160200D1*
Y3152600D1*
Y3145000D1*
Y3137400D1*
Y3129800D1*
Y3122200D1*
Y3114600D1*
Y3107000D1*
Y3099400D1*
Y3091800D1*
X33849400Y3228600D2*
Y3221000D1*
Y3213400D1*
Y3205800D1*
Y3198200D1*
Y3190600D1*
Y3183000D1*
Y3175400D1*
Y3167800D1*
Y3160200D1*
Y3152600D1*
Y3145000D1*
Y3137400D1*
Y3129800D1*
Y3122200D1*
Y3114600D1*
Y3107000D1*
Y3099400D1*
Y3091800D1*
X32843789Y3348303D2*
D25*
Y3042039D1*
X32697902Y3246215D2*
X32843789Y3100327D1*
X32785502Y3158615D2*
X32683414Y3042039D1*
X32550081Y3158615D2*
X32375218D1*
Y3187927D1*
X32389705Y3217239D1*
X32404193Y3231727D1*
X32433505Y3246215D1*
X32477305D1*
X32506281Y3231727D1*
X32535593Y3202415D1*
X32550081Y3158615D1*
Y3129639D1*
X32535593Y3085839D1*
X32506281Y3056864D1*
X32477305Y3042039D1*
X32433505D1*
X32404193Y3056864D1*
X32375218Y3085839D1*
X32227060Y3246215D2*
X32139797Y3042039D1*
X32168772Y2983752D1*
X32198084Y2954439D1*
X32227060Y2939952D1*
X32241884D1*
X32052197Y3246215D2*
X32139797Y3042039D1*
X35106618Y3304503D2*
X35135593Y3333815D1*
X35179393Y3348303D1*
X35237681D1*
X35281481Y3333815D1*
X35310793Y3304503D1*
Y3275527D1*
X35295968Y3246215D1*
X35281481Y3231727D1*
X35252505Y3217239D1*
X35164905Y3187927D1*
X35135593Y3173439D1*
X35121105Y3158615D1*
X35106618Y3129639D1*
Y3085839D1*
X35135593Y3056864D1*
X35179393Y3042039D1*
X35237681D1*
X35281481Y3056864D1*
X35310793Y3085839D1*
X34973284Y3246215D2*
Y2939952D1*
Y3202415D2*
X34943972Y3231390D1*
X34914997Y3246215D1*
X34871197D1*
X34841884Y3231390D1*
X34812909Y3202415D1*
X34798084Y3158615D1*
Y3129303D1*
X34812909Y3085839D1*
X34841884Y3056527D1*
X34871197Y3042039D1*
X34914997D1*
X34943972Y3056527D1*
X34973284Y3085839D1*
X34664751Y3348303D2*
Y3042039D1*
X34531418Y3348303D2*
X34516930Y3333815D1*
X34502105Y3348303D1*
X34516930Y3363127D1*
X34531418Y3348303D1*
X34516930Y3246215D2*
Y3042039D1*
X34324972Y3348303D2*
Y3100327D1*
X34310484Y3056864D1*
X34281172Y3042039D1*
X34252197D1*
X34368772Y3246215D2*
X34266684D1*
X34227343Y2519082D2*
D27*
X34096280D1*
X34052480Y2533906D1*
X34037656Y2548394D1*
X34023168Y2577369D1*
Y2606682D1*
X34037656Y2635657D1*
X34052480Y2650482D1*
X34096280Y2664969D1*
X34227343D1*
Y2358706D1*
X34125256Y2519082D2*
X34023168Y2358706D1*
X33956501Y2475282D2*
X33781638D1*
Y2504594D1*
X33796126Y2533906D1*
X33810614Y2548394D1*
X33839926Y2562882D1*
X33883726D1*
X33912701Y2548394D1*
X33942014Y2519082D1*
X33956501Y2475282D1*
Y2446306D1*
X33942014Y2402506D1*
X33912701Y2373531D1*
X33883726Y2358706D1*
X33839926D1*
X33810614Y2373531D1*
X33781638Y2402506D1*
X33714972Y2562882D2*
X33627372Y2358706D1*
X33540108Y2562882D1*
X33458954Y2388018D2*
X33473442Y2373194D1*
X33458954Y2358706D1*
X33444129Y2373194D1*
X33458954Y2388018D1*
X33108642Y2606345D2*
X33079330Y2621169D1*
X33035530Y2664632D1*
Y2358706D1*
M02*
