G04 DipTrace 3.1.0.1*
G04 Top.gbr*
%MOMM*%
G04 #@! TF.FileFunction,Copper,L1,Top*
G04 #@! TF.Part,Single*
G04 #@! TA.AperFunction,Nonconductor*
%ADD13C,0.00033*%
G04 #@! TA.AperFunction,ComponentPad*
%ADD14R,2.6X8.5*%
%ADD15C,1.4*%
%FSLAX35Y35*%
G04*
G71*
G90*
G75*
G01*
G04 Top*
%LPD*%
D14*
X23928000Y14800000D3*
X24324000D3*
X22344000D3*
X23532000D3*
X23136000D3*
X20760000D3*
X21156000D3*
X21948000D3*
X18384000D3*
X18780000D3*
X22740000D3*
X21552000D3*
X19176000D3*
X14820000D3*
X17988000D3*
X17592000D3*
X19968000D3*
X14424000D3*
X20364000D3*
X13632000D3*
X15612000D3*
X14028000D3*
X16008000D3*
X19572000D3*
X17196000D3*
X13236000D3*
X16800000D3*
X16404000D3*
X12840000D3*
X15216000D3*
X14820000D3*
X19572000D3*
X16008000D3*
X15216000D3*
X12840000D3*
X16800000D3*
X16404000D3*
X13236000D3*
X17196000D3*
X14028000D3*
X15612000D3*
X13632000D3*
X17988000D3*
X19968000D3*
X20364000D3*
X17592000D3*
X14424000D3*
X19176000D3*
X22740000D3*
X21552000D3*
X18384000D3*
X21948000D3*
X18780000D3*
X20760000D3*
X23136000D3*
X23532000D3*
X21156000D3*
X22344000D3*
X23928000D3*
X24324000D3*
D15*
X12840000Y14525000D3*
X13236000D3*
X13632000D3*
X14028000D3*
X14424000D3*
X14820000D3*
X15216000D3*
X15612000D3*
X16008000D3*
X16404000D3*
X16800000D3*
X17196000D3*
X17592000D3*
X17988000D3*
X18384000D3*
X18780000D3*
X19176000D3*
X19572000D3*
X19968000D3*
X20364000D3*
X20760000D3*
X21156000D3*
X21552000D3*
X21948000D3*
X22344000D3*
X22740000D3*
X23136000D3*
X23532000D3*
X23928000D3*
X24324000D3*
G36*
X20040000Y4087500D2*
Y4392500D1*
X21900000D1*
Y4087500D1*
X21607500D1*
Y2837500D1*
X22232500D1*
Y4087500D1*
X21940000D1*
Y4392500D1*
X23800000D1*
Y4087500D1*
X23507500D1*
Y2837500D1*
X24132500D1*
Y4087500D1*
X23840000D1*
Y4392500D1*
X24800000D1*
Y4087500D1*
X24507500D1*
Y2837500D1*
X25132500D1*
Y4087500D1*
X24840000D1*
Y4392500D1*
X28130000D1*
Y4087500D1*
X27837500D1*
Y2837500D1*
X28462500D1*
Y4087500D1*
X28170000D1*
Y4392500D1*
X35975000D1*
Y14175000D1*
X24344000D1*
Y14375000D1*
X24304000D1*
Y14135000D1*
X35935000D1*
Y4432500D1*
X34745000D1*
Y4737500D1*
X35037500D1*
Y5987500D1*
X34412500D1*
Y4737500D1*
X34705000D1*
Y4432500D1*
X32845000D1*
Y4737500D1*
X33137500D1*
Y5987500D1*
X32512500D1*
Y4737500D1*
X32805000D1*
Y4432500D1*
X26720000D1*
Y4737500D1*
X27012500D1*
Y5987500D1*
X26387500D1*
Y4737500D1*
X26680000D1*
Y4432500D1*
X24820000D1*
Y4737500D1*
X25112500D1*
Y5987500D1*
X24487500D1*
Y4737500D1*
X24780000D1*
Y4432500D1*
X22920000D1*
Y4737500D1*
X23212500D1*
Y5987500D1*
X22587500D1*
Y4737500D1*
X22880000D1*
Y4432500D1*
X21020000D1*
Y4737500D1*
X21312500D1*
Y5987500D1*
X20687500D1*
Y4737500D1*
X20980000D1*
Y4432500D1*
X19120000D1*
Y4737500D1*
X19412500D1*
Y5987500D1*
X18787500D1*
Y4737500D1*
X19080000D1*
Y4432500D1*
X17220000D1*
Y4737500D1*
X17512500D1*
Y5987500D1*
X16887500D1*
Y4737500D1*
X17180000D1*
Y4432500D1*
X15320000D1*
Y4737500D1*
X15612500D1*
Y5987500D1*
X14987500D1*
Y4737500D1*
X15280000D1*
Y4432500D1*
X13420000D1*
Y4737500D1*
X13712500D1*
Y5987500D1*
X13087500D1*
Y4737500D1*
X13380000D1*
Y4432500D1*
X11520000D1*
Y4737500D1*
X11812500D1*
Y5987500D1*
X11187500D1*
Y4737500D1*
X11480000D1*
Y4432500D1*
X9620000D1*
Y4737500D1*
X9912500D1*
Y5987500D1*
X9287500D1*
Y4737500D1*
X9580000D1*
Y4432500D1*
X1212000D1*
Y4392500D1*
X6705000D1*
Y4087500D1*
X6412500D1*
Y2837500D1*
X7037500D1*
Y4087500D1*
X6745000D1*
Y4392500D1*
X20000000D1*
Y4087500D1*
X19707500D1*
Y2837500D1*
X20332500D1*
Y4087500D1*
X20040000D1*
G37*
G36*
X8037500Y7887500D2*
Y6637500D1*
X7745000D1*
Y6332500D1*
X9605000D1*
Y6637500D1*
X9312500D1*
Y7887500D1*
X9937500D1*
Y6637500D1*
X9645000D1*
Y6332500D1*
X11505000D1*
Y6637500D1*
X11212500D1*
Y7887500D1*
X11837500D1*
Y6637500D1*
X11545000D1*
Y6332500D1*
X13405000D1*
Y6637500D1*
X13112500D1*
Y7887500D1*
X13737500D1*
Y6637500D1*
X13445000D1*
Y6332500D1*
X15305000D1*
Y6637500D1*
X15012500D1*
Y7887500D1*
X15637500D1*
Y6637500D1*
X15345000D1*
Y6332500D1*
X17205000D1*
Y6637500D1*
X16912500D1*
Y7887500D1*
X17537500D1*
Y6637500D1*
X17245000D1*
Y6332500D1*
X19105000D1*
Y6637500D1*
X18812500D1*
Y7887500D1*
X19437500D1*
Y6637500D1*
X19145000D1*
Y6332500D1*
X21005000D1*
Y6637500D1*
X20712500D1*
Y7887500D1*
X21337500D1*
Y6637500D1*
X21045000D1*
Y6332500D1*
X22905000D1*
Y6637500D1*
X22612500D1*
Y7887500D1*
X23237500D1*
Y6637500D1*
X22945000D1*
Y6332500D1*
X24805000D1*
Y6637500D1*
X24512500D1*
Y7887500D1*
X25137500D1*
Y6637500D1*
X24845000D1*
Y6332500D1*
X26705000D1*
Y6637500D1*
X26412500D1*
Y7887500D1*
X27037500D1*
Y6637500D1*
X26745000D1*
Y6332500D1*
X30145500D1*
Y7282500D1*
X30775000D1*
Y7887500D1*
X31100000D1*
Y6637500D1*
X30775000D1*
Y7242500D1*
X30185500D1*
Y6332500D1*
X32805000D1*
Y6637500D1*
X32512500D1*
Y7887500D1*
X33137500D1*
Y6637500D1*
X32845000D1*
Y6332500D1*
X34705000D1*
Y6637500D1*
X34412500D1*
Y7887500D1*
X35037500D1*
Y6637500D1*
X34745000D1*
Y6332500D1*
X35810000D1*
Y14010000D1*
X23908000D1*
Y14375000D1*
X23948000D1*
Y14050000D1*
X35850000D1*
Y6292500D1*
X34745000D1*
X28170000D1*
Y5987500D1*
X28462500D1*
Y4737500D1*
X27837500D1*
Y5987500D1*
X28130000D1*
Y6292500D1*
X6745000D1*
Y5987500D1*
X7037500D1*
Y4737500D1*
X6412500D1*
Y5987500D1*
X6705000D1*
Y6292500D1*
X3370000D1*
Y5987500D1*
X3662500D1*
Y4737500D1*
X3037500D1*
Y5987500D1*
X3330000D1*
Y6292500D1*
X1212000D1*
Y6332500D1*
X5655000D1*
Y6637500D1*
X5362500D1*
Y7887500D1*
X5987500D1*
Y6637500D1*
X5695000D1*
Y6332500D1*
X7705000D1*
Y6637500D1*
X7412500D1*
Y7887500D1*
X8037500D1*
G37*
G36*
X7787500Y8537500D2*
Y9787500D1*
X8412500D1*
Y8537500D1*
X8120000D1*
Y8232500D1*
X9980000D1*
Y8537500D1*
X9687500D1*
Y9787500D1*
X10312500D1*
Y8537500D1*
X10020000D1*
Y8232500D1*
X11880000D1*
Y8537500D1*
X11587500D1*
Y9787500D1*
X12212500D1*
Y8537500D1*
X11920000D1*
Y8232500D1*
X13780000D1*
Y8537500D1*
X13487500D1*
Y9787500D1*
X14112500D1*
Y8537500D1*
X13820000D1*
Y8232500D1*
X15680000D1*
Y8537500D1*
X15387500D1*
Y9787500D1*
X16012500D1*
Y8537500D1*
X15720000D1*
Y8232500D1*
X17580000D1*
Y8537500D1*
X17287500D1*
Y9787500D1*
X17912500D1*
Y8537500D1*
X17620000D1*
Y8232500D1*
X19480000D1*
Y8537500D1*
X19187500D1*
Y9787500D1*
X19812500D1*
Y8537500D1*
X19520000D1*
Y8232500D1*
X21380000D1*
Y8537500D1*
X21087500D1*
Y9787500D1*
X21712500D1*
Y8537500D1*
X21420000D1*
Y8232500D1*
X23280000D1*
Y8537500D1*
X22987500D1*
Y9787500D1*
X23612500D1*
Y8537500D1*
X23320000D1*
Y8232500D1*
X25180000D1*
Y8537500D1*
X24887500D1*
Y9787500D1*
X25512500D1*
Y8537500D1*
X25220000D1*
Y8232500D1*
X27080000D1*
Y8537500D1*
X26787500D1*
Y9787500D1*
X27412500D1*
Y8537500D1*
X27120000D1*
Y8232500D1*
X28980000D1*
Y8537500D1*
X28687500D1*
Y9787500D1*
X29312500D1*
Y8537500D1*
X29020000D1*
Y8232500D1*
X30145500D1*
Y9182500D1*
X30775000D1*
Y9787500D1*
X31100000D1*
Y8537500D1*
X30775000D1*
Y9142500D1*
X30185500D1*
Y8232500D1*
X32805000D1*
Y8537500D1*
X32512500D1*
Y9787500D1*
X33137500D1*
Y8537500D1*
X32845000D1*
Y8232500D1*
X34705000D1*
Y8537500D1*
X34412500D1*
Y9787500D1*
X35037500D1*
Y8537500D1*
X34745000D1*
Y8232500D1*
X35685000D1*
Y13885000D1*
X23512000D1*
Y14375000D1*
X23552000D1*
Y13925000D1*
X35725000D1*
Y8192500D1*
X34745000D1*
X28645000D1*
Y7887500D1*
X28937500D1*
Y6637500D1*
X28312500D1*
Y7887500D1*
X28605000D1*
Y8192500D1*
X3370000D1*
Y7887500D1*
X3662500D1*
Y6637500D1*
X3037500D1*
Y7887500D1*
X3330000D1*
Y8192500D1*
X1212000D1*
Y8232500D1*
X6180000D1*
Y8537500D1*
X5887500D1*
Y9787500D1*
X6512500D1*
Y8537500D1*
X6220000D1*
Y8232500D1*
X8080000D1*
Y8537500D1*
X7787500D1*
G37*
G36*
X7837500Y11687500D2*
Y10437500D1*
X8130000D1*
Y10132500D1*
X6270000D1*
Y10437500D1*
X6562500D1*
Y11687500D1*
X5937500D1*
Y10437500D1*
X6230000D1*
Y10132500D1*
X2470000D1*
Y10437500D1*
X2762500D1*
Y11687500D1*
X2137500D1*
Y10437500D1*
X2430000D1*
Y10132500D1*
X1212000D1*
Y10092500D1*
X3330000D1*
Y9787500D1*
X3037500D1*
Y8537500D1*
X3662500D1*
Y9787500D1*
X3370000D1*
Y10092500D1*
X34745000D1*
Y10437500D1*
X35037500D1*
Y11687500D1*
X34745000D1*
Y13800000D1*
X23156000D1*
Y14375000D1*
X23116000D1*
Y13760000D1*
X34705000D1*
Y11687500D1*
X34412500D1*
Y10437500D1*
X34705000D1*
Y10132500D1*
X32845000D1*
Y10437500D1*
X33137500D1*
Y11687500D1*
X32512500D1*
Y10437500D1*
X32805000D1*
Y10132500D1*
X29070000D1*
Y10437500D1*
X29362500D1*
Y11687500D1*
X28737500D1*
Y10437500D1*
X29030000D1*
Y10132500D1*
X27170000D1*
Y10437500D1*
X27462500D1*
Y11687500D1*
X26837500D1*
Y10437500D1*
X27130000D1*
Y10132500D1*
X25270000D1*
Y10437500D1*
X25562500D1*
Y11687500D1*
X24937500D1*
Y10437500D1*
X25230000D1*
Y10132500D1*
X23370000D1*
Y10437500D1*
X23662500D1*
Y11687500D1*
X23037500D1*
Y10437500D1*
X23330000D1*
Y10132500D1*
X21470000D1*
Y10437500D1*
X21762500D1*
Y11687500D1*
X21137500D1*
Y10437500D1*
X21430000D1*
Y10132500D1*
X19570000D1*
Y10437500D1*
X19862500D1*
Y11687500D1*
X19237500D1*
Y10437500D1*
X19530000D1*
Y10132500D1*
X17670000D1*
Y10437500D1*
X17962500D1*
Y11687500D1*
X17337500D1*
Y10437500D1*
X17630000D1*
Y10132500D1*
X15770000D1*
Y10437500D1*
X16062500D1*
Y11687500D1*
X15437500D1*
Y10437500D1*
X15730000D1*
Y10132500D1*
X13870000D1*
Y10437500D1*
X14162500D1*
Y11687500D1*
X13537500D1*
Y10437500D1*
X13830000D1*
Y10132500D1*
X11970000D1*
Y10437500D1*
X12262500D1*
Y11687500D1*
X11637500D1*
Y10437500D1*
X11930000D1*
Y10132500D1*
X10070000D1*
Y10437500D1*
X10362500D1*
Y11687500D1*
X9737500D1*
Y10437500D1*
X10030000D1*
Y10132500D1*
X8170000D1*
Y10437500D1*
X8462500D1*
Y11687500D1*
X7837500D1*
G37*
G36*
X26032500Y4087500D2*
Y2837500D1*
X25332500D1*
Y4087500D1*
X26032500D1*
G37*
G36*
X20487500Y5987500D2*
Y4737500D1*
X19787500D1*
Y5987500D1*
X20487500D1*
G37*
G36*
X12887500D2*
Y4737500D1*
X12187500D1*
Y5987500D1*
X12887500D1*
G37*
G36*
X5512500Y4737500D2*
Y5987500D1*
X6212500D1*
Y4737500D1*
X5512500D1*
G37*
G36*
X15187500Y8537500D2*
X14487500D1*
Y9787500D1*
X15187500D1*
Y8537500D1*
G37*
G36*
X1424000Y11841500D2*
X1424497Y11832040D1*
X1425977Y11822683D1*
X1428430Y11813533D1*
X1431823Y11804690D1*
X1436123Y11796250D1*
X1441283Y11788307D1*
X1447247Y11780943D1*
X1453943Y11774247D1*
X1461307Y11768283D1*
X1469250Y11763123D1*
X1477690Y11758823D1*
X1486533Y11755430D1*
X1495683Y11752977D1*
X1505040Y11751497D1*
X1514500Y11751000D1*
X3158000D1*
X34017000D1*
X34303667D1*
X34313127Y11751497D1*
X34322483Y11752980D1*
X34331633Y11755433D1*
X34340477Y11758830D1*
X34348917Y11763130D1*
X34356863Y11768290D1*
X34364227Y11774250D1*
X34370927Y11780947D1*
X34376890Y11788310D1*
X34382053Y11796253D1*
X34386357Y11804690D1*
X34389753Y11813533D1*
X34392210Y11822683D1*
X34393697Y11832040D1*
X34394167Y11841500D1*
Y12249500D1*
X34393667Y12258960D1*
X34392183Y12268317D1*
X34389730Y12277467D1*
X34386337Y12286310D1*
X34382037Y12294753D1*
X34376877Y12302697D1*
X34370917Y12310060D1*
X34364217Y12316760D1*
X34356857Y12322723D1*
X34348913Y12327887D1*
X34340473Y12332190D1*
X34331630Y12335590D1*
X34322483Y12338043D1*
X34313127Y12339530D1*
X34303667Y12340000D1*
X33975000D1*
Y13569500D1*
X33974503Y13578960D1*
X33973020Y13588317D1*
X33970567Y13597467D1*
X33967170Y13606310D1*
X33962870Y13614753D1*
X33957710Y13622697D1*
X33951750Y13630060D1*
X33945053Y13636760D1*
X33937690Y13642723D1*
X33929747Y13647887D1*
X33921310Y13652190D1*
X33912467Y13655587D1*
X33903317Y13658043D1*
X33893960Y13659530D1*
X33884500Y13660000D1*
X22840000D1*
Y14375000D1*
X22640000D1*
Y14250000D1*
X18950000Y13275000D1*
D1*
Y12675000D1*
X18350000D1*
Y13275000D1*
X18950000D1*
X22640000Y14250000D1*
X12940000D1*
Y14375000D1*
X12740000D1*
Y13450000D1*
X4689500D1*
X4680040Y13449503D1*
X4670683Y13448023D1*
X4661533Y13445570D1*
X4652690Y13442177D1*
X4644250Y13437877D1*
X4636307Y13432717D1*
X4628943Y13426757D1*
X4622247Y13420057D1*
X4616283Y13412693D1*
X4611127Y13404750D1*
X4606827Y13396310D1*
X4603430Y13387467D1*
X4600980Y13378317D1*
X4599500Y13368960D1*
X4599000Y13359500D1*
Y12475000D1*
X1514500D1*
X1505040Y12474503D1*
X1495683Y12473023D1*
X1486533Y12470570D1*
X1477690Y12467177D1*
X1469250Y12462877D1*
X1461307Y12457717D1*
X1453943Y12451753D1*
X1447247Y12445057D1*
X1441283Y12437693D1*
X1436123Y12429750D1*
X1431823Y12421310D1*
X1428430Y12412467D1*
X1425977Y12403317D1*
X1424497Y12393960D1*
X1424000Y12384500D1*
Y11841500D1*
G37*
G36*
X29362500Y5987500D2*
Y4737500D1*
X28662500D1*
Y5987500D1*
X29362500D1*
G37*
G36*
X25487500D2*
X26187500D1*
Y4737500D1*
X25487500D1*
Y5987500D1*
G37*
G36*
X24287500Y4737500D2*
X23587500D1*
Y5987500D1*
X24287500D1*
Y4737500D1*
G37*
G36*
X21687500Y5987500D2*
X22387500D1*
Y4737500D1*
X21687500D1*
Y5987500D1*
G37*
G36*
X18587500Y4737500D2*
X17887500D1*
Y5987500D1*
X18587500D1*
Y4737500D1*
G37*
G36*
X15987500Y5987500D2*
X16687500D1*
Y4737500D1*
X15987500D1*
Y5987500D1*
G37*
G36*
X14087500D2*
X14787500D1*
Y4737500D1*
X14087500D1*
Y5987500D1*
G37*
G36*
X10987500Y4737500D2*
X10287500D1*
Y5987500D1*
X10987500D1*
Y4737500D1*
G37*
G36*
X32312500D2*
Y5987500D1*
X31612500D1*
Y4737500D1*
X32312500D1*
G37*
G36*
X34212500D2*
Y5987500D1*
X33512500D1*
Y4737500D1*
X34212500D1*
G37*
G36*
X31612500Y6637500D2*
X32312500D1*
Y7887500D1*
X31612500D1*
Y6637500D1*
G37*
G36*
X34212500Y7887500D2*
X33512500D1*
Y6637500D1*
X34212500D1*
Y7887500D1*
G37*
G36*
X32312500Y9787500D2*
X31612500D1*
Y8537500D1*
X32312500D1*
Y9787500D1*
G37*
G36*
X33512500D2*
Y8537500D1*
X34212500D1*
Y9787500D1*
X33512500D1*
G37*
G36*
X32312500Y10437500D2*
Y11687500D1*
X31612500D1*
Y10437500D1*
X32312500D1*
G37*
G36*
X34212500D2*
Y11687500D1*
X33512500D1*
Y10437500D1*
X34212500D1*
G37*
G36*
X27237500Y7887500D2*
X27937500D1*
Y6637500D1*
X27237500D1*
Y7887500D1*
G37*
G36*
X26037500Y6637500D2*
X25337500D1*
Y7887500D1*
X26037500D1*
Y6637500D1*
G37*
G36*
X23437500D2*
Y7887500D1*
X24137500D1*
Y6637500D1*
X23437500D1*
G37*
G36*
X22237500Y7887500D2*
Y6637500D1*
X21537500D1*
Y7887500D1*
X22237500D1*
G37*
G36*
X20337500Y6637500D2*
X19637500D1*
Y7887500D1*
X20337500D1*
Y6637500D1*
G37*
G36*
X18437500Y7887500D2*
Y6637500D1*
X17737500D1*
Y7887500D1*
X18437500D1*
G37*
G36*
X16537500D2*
Y6637500D1*
X15837500D1*
Y7887500D1*
X16537500D1*
G37*
G36*
X13937500Y6637500D2*
Y7887500D1*
X14637500D1*
Y6637500D1*
X13937500D1*
G37*
G36*
X12037500Y7887500D2*
X12737500D1*
Y6637500D1*
X12037500D1*
Y7887500D1*
G37*
G36*
X10137500Y6637500D2*
Y7887500D1*
X10837500D1*
Y6637500D1*
X10137500D1*
G37*
G36*
X27787500Y9787500D2*
X28487500D1*
Y8537500D1*
X27787500D1*
Y9787500D1*
G37*
G36*
X25887500D2*
X26587500D1*
Y8537500D1*
X25887500D1*
Y9787500D1*
G37*
G36*
X23987500D2*
X24687500D1*
Y8537500D1*
X23987500D1*
Y9787500D1*
G37*
G36*
X22087500D2*
X22787500D1*
Y8537500D1*
X22087500D1*
Y9787500D1*
G37*
G36*
X20187500D2*
X20887500D1*
Y8537500D1*
X20187500D1*
Y9787500D1*
G37*
G36*
X18287500D2*
X18987500D1*
Y8537500D1*
X18287500D1*
Y9787500D1*
G37*
G36*
X16387500D2*
X17087500D1*
Y8537500D1*
X16387500D1*
Y9787500D1*
G37*
G36*
X13287500Y8537500D2*
X12587500D1*
Y9787500D1*
X13287500D1*
Y8537500D1*
G37*
G36*
X11387500D2*
X10687500D1*
Y9787500D1*
X11387500D1*
Y8537500D1*
G37*
G36*
X8787500Y9787500D2*
X9487500D1*
Y8537500D1*
X8787500D1*
Y9787500D1*
G37*
G36*
X6887500D2*
X7587500D1*
Y8537500D1*
X6887500D1*
Y9787500D1*
G37*
G36*
X30262500Y11687500D2*
Y10437500D1*
X29562500D1*
Y11687500D1*
X30262500D1*
G37*
G36*
X28362500D2*
Y10437500D1*
X27662500D1*
Y11687500D1*
X28362500D1*
G37*
G36*
X25762500D2*
X26462500D1*
Y10437500D1*
X25762500D1*
Y11687500D1*
G37*
G36*
X24562500D2*
Y10437500D1*
X23862500D1*
Y11687500D1*
X24562500D1*
G37*
G36*
X22662500D2*
Y10437500D1*
X21962500D1*
Y11687500D1*
X22662500D1*
G37*
G36*
X20762500Y10437500D2*
X20062500D1*
Y11687500D1*
X20762500D1*
Y10437500D1*
G37*
G36*
X18862500D2*
X18162500D1*
Y11687500D1*
X18862500D1*
Y10437500D1*
G37*
G36*
X16962500Y11687500D2*
Y10437500D1*
X16262500D1*
Y11687500D1*
X16962500D1*
G37*
G36*
X14362500D2*
X15062500D1*
Y10437500D1*
X14362500D1*
Y11687500D1*
G37*
G36*
X12462500Y10437500D2*
Y11687500D1*
X13162500D1*
Y10437500D1*
X12462500D1*
G37*
G36*
X10562500D2*
Y11687500D1*
X11262500D1*
Y10437500D1*
X10562500D1*
G37*
G36*
X8662500Y11687500D2*
X9362500D1*
Y10437500D1*
X8662500D1*
Y11687500D1*
G37*
G36*
X29362500Y4087500D2*
Y2837500D1*
X28662500D1*
Y4087500D1*
X29362500D1*
G37*
G36*
X9087500Y4737500D2*
X8387500D1*
Y5987500D1*
X9087500D1*
Y4737500D1*
G37*
G36*
X29837500Y7887500D2*
Y6637500D1*
X29137500D1*
Y7887500D1*
X29837500D1*
G37*
G36*
X8237500Y6637500D2*
Y7887500D1*
X8937500D1*
Y6637500D1*
X8237500D1*
G37*
G36*
X6212500Y4087500D2*
X5512500D1*
Y2837500D1*
X6212500D1*
Y4087500D1*
G37*
G36*
X4987500Y9787500D2*
X5687500D1*
Y8537500D1*
X4987500D1*
Y9787500D1*
G37*
G36*
X2962500Y10437500D2*
Y11687500D1*
X3662500D1*
Y10437500D1*
X2962500D1*
G37*
G36*
X2837500Y8537500D2*
Y9787500D1*
X2137500D1*
Y8537500D1*
X2837500D1*
G37*
G36*
Y6637500D2*
Y7887500D1*
X2137500D1*
Y6637500D1*
X2837500D1*
G37*
G36*
Y4737500D2*
Y5987500D1*
X2137500D1*
Y4737500D1*
X2837500D1*
G37*
G36*
X6762500Y10437500D2*
Y11687500D1*
X7462500D1*
Y10437500D1*
X6762500D1*
G37*
G36*
X6187500Y6637500D2*
Y7887500D1*
X6887500D1*
Y6637500D1*
X6187500D1*
G37*
X33975000Y12340000D2*
D13*
X34017000D1*
G36*
X23307500Y4087500D2*
Y2837500D1*
X22607500D1*
Y4087500D1*
X23307500D1*
G37*
G36*
X21407500D2*
Y2837500D1*
X20707500D1*
Y4087500D1*
X21407500D1*
G37*
G36*
X19507500D2*
Y2837500D1*
X18807500D1*
Y4087500D1*
X19507500D1*
G37*
M02*
