G04 DipTrace 3.1.0.1*
G04 TopSilk.gbr*
%MOMM*%
G04 #@! TF.FileFunction,Legend,Top*
G04 #@! TF.Part,Single*
%ADD12C,0.076*%
%ADD25C,0.66667*%
%ADD26C,0.27778*%
%FSLAX35Y35*%
G04*
G71*
G90*
G75*
G01*
G04 TopSilk*
%LPD*%
X8226000Y3941600D2*
D12*
X8628800D1*
X8826400D2*
X8963200D1*
X9160800D2*
X9571200D1*
X9632000D2*
X10042400D1*
X8226000Y3934000D2*
X8628800D1*
X8804503D2*
X8981879D1*
X9160800D2*
X9571200D1*
X9632000D2*
X10042400D1*
X8226000Y3926400D2*
X8628800D1*
X8786208D2*
X8998964D1*
X9160800D2*
X9571200D1*
X9632000D2*
X10042400D1*
X8226000Y3918800D2*
X8628800D1*
X8771886D2*
X9014004D1*
X9160800D2*
X9571200D1*
X9632000D2*
X10042400D1*
X8226000Y3911200D2*
X8628800D1*
X8760741D2*
X9026608D1*
X9160800D2*
X9571200D1*
X9632000D2*
X10042400D1*
X8226000Y3903600D2*
X8628800D1*
X8751504D2*
X9036942D1*
X9160800D2*
X9571200D1*
X9632000D2*
X10042400D1*
X8226000Y3896000D2*
X8628800D1*
X8743248D2*
X9045590D1*
X9160800D2*
X9571200D1*
X9632000D2*
X10042400D1*
X8226000Y3888400D2*
X8628800D1*
X8735648D2*
X9052784D1*
X9160800D2*
X9571200D1*
X9632000D2*
X10042400D1*
X8226000Y3880800D2*
X8628800D1*
X8728918D2*
X9058757D1*
X9160800D2*
X9571200D1*
X9632000D2*
X10042400D1*
X8226000Y3873200D2*
X8628800D1*
X8723133D2*
X9064224D1*
X9160800D2*
X9571200D1*
X9632000D2*
X10042400D1*
X8226000Y3865600D2*
X8628800D1*
X8717767D2*
X9069530D1*
X9160800D2*
X9571200D1*
X9632000D2*
X10042400D1*
X8226000Y3858000D2*
X8628800D1*
X8712724D2*
X9074318D1*
X9160800D2*
X9571200D1*
X9632000D2*
X10042400D1*
X8226000Y3850400D2*
X8628800D1*
X8708646D2*
X9078415D1*
X9160800D2*
X9571200D1*
X9632000D2*
X10042400D1*
X8226000Y3842800D2*
X8628800D1*
X8705433D2*
X9081739D1*
X9160800D2*
X9571200D1*
X9632000D2*
X10042400D1*
X8226000Y3835200D2*
X8628800D1*
X8702506D2*
X9084517D1*
X9160800D2*
X9571200D1*
X9632000D2*
X10042400D1*
X8226000Y3827600D2*
X8628770D1*
X8700044D2*
X9087237D1*
X9160800D2*
X9571170D1*
X9632000D2*
X10042370D1*
X8226000Y3820000D2*
X8628473D1*
X8698257D2*
X9089581D1*
X9160800D2*
X9570903D1*
X9632000D2*
X10042103D1*
X8226000Y3812400D2*
X8627238D1*
X8696510D2*
X8826400D1*
X8963200D2*
X9091066D1*
X9160800D2*
X9297600D1*
X9425596D2*
X9569935D1*
X9632000D2*
X9768800D1*
X9896796D2*
X10041135D1*
X8226000Y3804800D2*
X8362800D1*
X8482906D2*
X8624419D1*
X8694341D2*
X8826400D1*
X8963200D2*
X9091831D1*
X9160800D2*
X9297600D1*
X9423444D2*
X9568085D1*
X9632000D2*
X9768800D1*
X9894644D2*
X10039285D1*
X8226000Y3797200D2*
X8362800D1*
X8479751D2*
X8620354D1*
X8692250D2*
X8826400D1*
X8963200D2*
X9092176D1*
X9160800D2*
X9297600D1*
X9420478D2*
X9565869D1*
X9632000D2*
X9768800D1*
X9891678D2*
X10037069D1*
X8226000Y3789600D2*
X8362800D1*
X8474696D2*
X8615814D1*
X8690870D2*
X8826400D1*
X8963200D2*
X9092316D1*
X9160800D2*
X9297600D1*
X9417060D2*
X9563545D1*
X9632000D2*
X9768800D1*
X9888260D2*
X10034745D1*
X8226000Y3782000D2*
X8362800D1*
X8468331D2*
X8610698D1*
X8690146D2*
X8826400D1*
X8963200D2*
X9092370D1*
X9160800D2*
X9297600D1*
X9413407D2*
X9560753D1*
X9632000D2*
X9768800D1*
X9884607D2*
X10031953D1*
X8226000Y3774400D2*
X8362800D1*
X8461265D2*
X8604637D1*
X8689817D2*
X8826400D1*
X8963200D2*
X9092390D1*
X9160800D2*
X9297600D1*
X9409671D2*
X9557484D1*
X9632000D2*
X9768800D1*
X9880871D2*
X10028684D1*
X8226000Y3766800D2*
X8362800D1*
X8453877D2*
X8597821D1*
X8689681D2*
X8826400D1*
X8963200D2*
X9092397D1*
X9160800D2*
X9297600D1*
X9405886D2*
X9553938D1*
X9632000D2*
X9768800D1*
X9877086D2*
X10025138D1*
X8226000Y3759200D2*
X8362800D1*
X8446357D2*
X8590572D1*
X8689627D2*
X8826400D1*
X8963200D2*
X9092399D1*
X9160800D2*
X9297600D1*
X9402099D2*
X9550235D1*
X9632000D2*
X9768800D1*
X9873299D2*
X10021435D1*
X8438785Y3751600D2*
X8583115D1*
X8689600D2*
X8826400D1*
X8963170D2*
X9092400D1*
X9398325D2*
X9546481D1*
X9869525D2*
X10017681D1*
X8431195Y3744000D2*
X8575570D1*
X8962903D2*
X9092400D1*
X9394770D2*
X9542689D1*
X9865970D2*
X10013889D1*
X8423598Y3736400D2*
X8567990D1*
X8961905D2*
X9092400D1*
X9391695D2*
X9538900D1*
X9862895D2*
X10010100D1*
X8416000Y3728800D2*
X8560397D1*
X8959788D2*
X9092400D1*
X9388990D2*
X9535096D1*
X9860190D2*
X10006296D1*
X8408400Y3721200D2*
X8552799D1*
X8956574D2*
X9092400D1*
X9386044D2*
X9531303D1*
X9857244D2*
X10002503D1*
X8400830Y3713600D2*
X8545200D1*
X8952163D2*
X9092370D1*
X9382716D2*
X9527527D1*
X9853916D2*
X9998727D1*
X8393527Y3706000D2*
X8537600D1*
X8946424D2*
X9092073D1*
X9379149D2*
X9523970D1*
X9850349D2*
X9995170D1*
X8387192Y3698400D2*
X8530000D1*
X8939742D2*
X9090808D1*
X9375438D2*
X9520895D1*
X9846638D2*
X9992095D1*
X8382678Y3690800D2*
X8522400D1*
X8932544D2*
X9087722D1*
X9371682D2*
X9518190D1*
X9842882D2*
X9989390D1*
X8380112Y3683200D2*
X8514800D1*
X8925106D2*
X9082718D1*
X9367890D2*
X9515244D1*
X9839090D2*
X9986444D1*
X8378872Y3675600D2*
X8529681D1*
X8917567D2*
X9076625D1*
X9364101D2*
X9511916D1*
X9835301D2*
X9983116D1*
X8378336Y3668000D2*
X8543610D1*
X8909989D2*
X9070529D1*
X9360296D2*
X9508349D1*
X9831496D2*
X9979549D1*
X8378123Y3660400D2*
X8555723D1*
X8902396D2*
X9064963D1*
X9356503D2*
X9504638D1*
X9827703D2*
X9975838D1*
X8378043Y3652800D2*
X8565888D1*
X8894799D2*
X9059391D1*
X9352727D2*
X9500882D1*
X9823927D2*
X9972082D1*
X8378015Y3645200D2*
X8574728D1*
X8887200D2*
X9053145D1*
X9349170D2*
X9497090D1*
X9820370D2*
X9968290D1*
X8378005Y3637600D2*
X8582834D1*
X8879600D2*
X9046260D1*
X9346095D2*
X9493301D1*
X9817295D2*
X9964501D1*
X8378002Y3630000D2*
X8590380D1*
X8872030D2*
X9038985D1*
X9343390D2*
X9489496D1*
X9814590D2*
X9960696D1*
X8378000Y3622400D2*
X8597062D1*
X8864697D2*
X9031520D1*
X9340444D2*
X9485703D1*
X9811644D2*
X9956903D1*
X8378000Y3614800D2*
X8602603D1*
X8858065D2*
X9023971D1*
X9337116D2*
X9481927D1*
X9808316D2*
X9953127D1*
X8378000Y3607200D2*
X8607266D1*
X8852286D2*
X9016390D1*
X9333549D2*
X9478370D1*
X9804749D2*
X9949570D1*
X8378000Y3599600D2*
X8611456D1*
X8846634D2*
X9008797D1*
X9329838D2*
X9475295D1*
X9801038D2*
X9946495D1*
X8378000Y3592000D2*
X8615406D1*
X8840360D2*
X9001199D1*
X9326082D2*
X9472590D1*
X9797282D2*
X9943790D1*
X8378000Y3584400D2*
X8619241D1*
X8833464D2*
X8993600D1*
X9322290D2*
X9469644D1*
X9793490D2*
X9940844D1*
X8378000Y3576800D2*
X8622789D1*
X8826187D2*
X8986000D1*
X9318501D2*
X9466316D1*
X9789701D2*
X9937516D1*
X8378000Y3569200D2*
X8625604D1*
X8818720D2*
X8978400D1*
X9314696D2*
X9462749D1*
X9785896D2*
X9933949D1*
X8378000Y3561600D2*
X8627313D1*
X8811171D2*
X8970830D1*
X9310903D2*
X9459038D1*
X9782103D2*
X9930238D1*
X8499600Y3554000D2*
X8628173D1*
X8803590D2*
X8963497D1*
X9307127D2*
X9455282D1*
X9778327D2*
X9926482D1*
X8499600Y3546400D2*
X8628555D1*
X8795997D2*
X8956865D1*
X9303570D2*
X9451490D1*
X9774770D2*
X9922690D1*
X8499600Y3538800D2*
X8628709D1*
X8788399D2*
X8951086D1*
X9300495D2*
X9447701D1*
X9771695D2*
X9918901D1*
X8499600Y3531200D2*
X8628768D1*
X8780800D2*
X8945434D1*
X9297790D2*
X9443896D1*
X9768990D2*
X9915096D1*
X8499600Y3523600D2*
X8628789D1*
X8773230D2*
X8939160D1*
X9294844D2*
X9440103D1*
X9766044D2*
X9911303D1*
X8499600Y3516000D2*
X8628796D1*
X8765897D2*
X8932264D1*
X9291516D2*
X9436327D1*
X9762716D2*
X9907527D1*
X8499600Y3508400D2*
X8628799D1*
X8759265D2*
X8924987D1*
X9287949D2*
X9432770D1*
X9759149D2*
X9903970D1*
X8499600Y3500800D2*
X8628800D1*
X8753486D2*
X8917520D1*
X9284238D2*
X9429695D1*
X9755438D2*
X9900895D1*
X8499600Y3493200D2*
X8628800D1*
X8747834D2*
X8909971D1*
X9280482D2*
X9426990D1*
X9751682D2*
X9898190D1*
X8226000Y3485600D2*
X8362800D1*
X8499600D2*
X8628800D1*
X8741560D2*
X8902390D1*
X9276690D2*
X9424044D1*
X9747890D2*
X9895244D1*
X8226000Y3478000D2*
X8362800D1*
X8499600D2*
X8628800D1*
X8734664D2*
X8894797D1*
X9272901D2*
X9420716D1*
X9744101D2*
X9891916D1*
X8226000Y3470400D2*
X8362800D1*
X8499600D2*
X8628800D1*
X8727387D2*
X8887199D1*
X9269096D2*
X9417149D1*
X9740296D2*
X9888349D1*
X8226030Y3462800D2*
X8362800D1*
X8499600D2*
X8628800D1*
X8719920D2*
X8879600D1*
X9265303D2*
X9413438D1*
X9736503D2*
X9884638D1*
X8226297Y3455200D2*
X8362800D1*
X8499600D2*
X8628800D1*
X8712401D2*
X8872000D1*
X9261527D2*
X9409682D1*
X9732727D2*
X9880882D1*
X8227265Y3447600D2*
X8362800D1*
X8499600D2*
X8628800D1*
X8705117D2*
X8864400D1*
X9257970D2*
X9405890D1*
X9729170D2*
X9877090D1*
X8229086Y3440000D2*
X8362800D1*
X8499600D2*
X8628770D1*
X8698789D2*
X8856800D1*
X9254895D2*
X9402101D1*
X9726095D2*
X9873301D1*
X8231064Y3432400D2*
X8362800D1*
X8499600D2*
X8628503D1*
X8694277D2*
X9107600D1*
X9252190D2*
X9398296D1*
X9723390D2*
X9869496D1*
X8232657Y3424800D2*
X8627535D1*
X8691712D2*
X9107600D1*
X9249244D2*
X9394503D1*
X9720444D2*
X9865703D1*
X8234360Y3417200D2*
X8625685D1*
X8690472D2*
X9107600D1*
X9245916D2*
X9390727D1*
X9717116D2*
X9861927D1*
X8236769Y3409600D2*
X8623469D1*
X8689936D2*
X9107600D1*
X9242349D2*
X9387170D1*
X9713549D2*
X9858370D1*
X8239850Y3402000D2*
X8621145D1*
X8689723D2*
X9107600D1*
X9238638D2*
X9384095D1*
X9709838D2*
X9855295D1*
X8243314Y3394400D2*
X8618323D1*
X8689643D2*
X9107600D1*
X9234882D2*
X9381390D1*
X9706082D2*
X9852590D1*
X8246984Y3386800D2*
X8614787D1*
X8689615D2*
X9107600D1*
X9231090D2*
X9378444D1*
X9702290D2*
X9849644D1*
X8250756Y3379200D2*
X8610272D1*
X8689605D2*
X9107600D1*
X9227301D2*
X9375116D1*
X9698501D2*
X9846316D1*
X8254810Y3371600D2*
X8604749D1*
X8689602D2*
X9107600D1*
X9223496D2*
X9371549D1*
X9694696D2*
X9842749D1*
X8259595Y3364000D2*
X8599017D1*
X8689600D2*
X9107600D1*
X9219703D2*
X9367838D1*
X9690903D2*
X9839038D1*
X8265487Y3356400D2*
X8593603D1*
X8689600D2*
X9107600D1*
X9215927D2*
X9364082D1*
X9687127D2*
X9835282D1*
X8272256Y3348800D2*
X8587844D1*
X8689600D2*
X9107600D1*
X9212370D2*
X9360290D1*
X9683570D2*
X9831490D1*
X8279772Y3341200D2*
X8580632D1*
X8689600D2*
X9107600D1*
X9209295D2*
X9356501D1*
X9680495D2*
X9827701D1*
X8288483Y3333600D2*
X8571641D1*
X8689600D2*
X9107600D1*
X9206590D2*
X9352696D1*
X9677790D2*
X9823896D1*
X8299199Y3326000D2*
X8561068D1*
X8689600D2*
X9107600D1*
X9203620D2*
X9348879D1*
X9674820D2*
X9820079D1*
X8312680Y3318400D2*
X8548325D1*
X8689600D2*
X9107600D1*
X9200096D2*
X9344876D1*
X9671296D2*
X9816076D1*
X8330154Y3310800D2*
X8531520D1*
X8689600D2*
X9107600D1*
X9195898D2*
X9340442D1*
X9667098D2*
X9811642D1*
X8352591Y3303200D2*
X8509509D1*
X8689600D2*
X9107600D1*
X9191200D2*
X9335600D1*
X9662400D2*
X9806800D1*
X8378000Y3295600D2*
X8484400D1*
X8689600D2*
X9107600D1*
X8226000Y3941600D2*
Y3934000D1*
Y3926400D1*
Y3918800D1*
Y3911200D1*
Y3903600D1*
Y3896000D1*
Y3888400D1*
Y3880800D1*
Y3873200D1*
Y3865600D1*
Y3858000D1*
Y3850400D1*
Y3842800D1*
Y3835200D1*
Y3827600D1*
Y3820000D1*
Y3812400D1*
Y3804800D1*
Y3797200D1*
Y3789600D1*
Y3782000D1*
Y3774400D1*
Y3766800D1*
Y3759200D1*
X8628800Y3941600D2*
Y3934000D1*
Y3926400D1*
Y3918800D1*
Y3911200D1*
Y3903600D1*
Y3896000D1*
Y3888400D1*
Y3880800D1*
Y3873200D1*
Y3865600D1*
Y3858000D1*
Y3850400D1*
Y3842800D1*
Y3835200D1*
X8628770Y3827600D1*
X8628473Y3820000D1*
X8627238Y3812400D1*
X8624419Y3804800D1*
X8620354Y3797200D1*
X8615814Y3789600D1*
X8610698Y3782000D1*
X8604637Y3774400D1*
X8597821Y3766800D1*
X8590572Y3759200D1*
X8583115Y3751600D1*
X8575570Y3744000D1*
X8567990Y3736400D1*
X8560397Y3728800D1*
X8552799Y3721200D1*
X8545200Y3713600D1*
X8537600Y3706000D1*
X8530000Y3698400D1*
X8522400Y3690800D1*
X8514800Y3683200D1*
X8529681Y3675600D1*
X8543610Y3668000D1*
X8555723Y3660400D1*
X8565888Y3652800D1*
X8574728Y3645200D1*
X8582834Y3637600D1*
X8590380Y3630000D1*
X8597062Y3622400D1*
X8602603Y3614800D1*
X8607266Y3607200D1*
X8611456Y3599600D1*
X8615406Y3592000D1*
X8619241Y3584400D1*
X8622789Y3576800D1*
X8625604Y3569200D1*
X8627313Y3561600D1*
X8628173Y3554000D1*
X8628555Y3546400D1*
X8628709Y3538800D1*
X8628768Y3531200D1*
X8628789Y3523600D1*
X8628796Y3516000D1*
X8628799Y3508400D1*
X8628800Y3500800D1*
Y3493200D1*
Y3485600D1*
Y3478000D1*
Y3470400D1*
Y3462800D1*
Y3455200D1*
Y3447600D1*
X8628770Y3440000D1*
X8628503Y3432400D1*
X8627535Y3424800D1*
X8625685Y3417200D1*
X8623469Y3409600D1*
X8621145Y3402000D1*
X8618323Y3394400D1*
X8614787Y3386800D1*
X8610272Y3379200D1*
X8604749Y3371600D1*
X8599017Y3364000D1*
X8593603Y3356400D1*
X8587844Y3348800D1*
X8580632Y3341200D1*
X8571641Y3333600D1*
X8561068Y3326000D1*
X8548325Y3318400D1*
X8531520Y3310800D1*
X8509509Y3303200D1*
X8484400Y3295600D1*
X8826400Y3941600D2*
X8804503Y3934000D1*
X8786208Y3926400D1*
X8771886Y3918800D1*
X8760741Y3911200D1*
X8751504Y3903600D1*
X8743248Y3896000D1*
X8735648Y3888400D1*
X8728918Y3880800D1*
X8723133Y3873200D1*
X8717767Y3865600D1*
X8712724Y3858000D1*
X8708646Y3850400D1*
X8705433Y3842800D1*
X8702506Y3835200D1*
X8700044Y3827600D1*
X8698257Y3820000D1*
X8696510Y3812400D1*
X8694341Y3804800D1*
X8692250Y3797200D1*
X8690870Y3789600D1*
X8690146Y3782000D1*
X8689817Y3774400D1*
X8689681Y3766800D1*
X8689627Y3759200D1*
X8689600Y3751600D1*
X8963200Y3941600D2*
X8981879Y3934000D1*
X8998964Y3926400D1*
X9014004Y3918800D1*
X9026608Y3911200D1*
X9036942Y3903600D1*
X9045590Y3896000D1*
X9052784Y3888400D1*
X9058757Y3880800D1*
X9064224Y3873200D1*
X9069530Y3865600D1*
X9074318Y3858000D1*
X9078415Y3850400D1*
X9081739Y3842800D1*
X9084517Y3835200D1*
X9087237Y3827600D1*
X9089581Y3820000D1*
X9091066Y3812400D1*
X9091831Y3804800D1*
X9092176Y3797200D1*
X9092316Y3789600D1*
X9092370Y3782000D1*
X9092390Y3774400D1*
X9092397Y3766800D1*
X9092399Y3759200D1*
X9092400Y3751600D1*
Y3744000D1*
Y3736400D1*
Y3728800D1*
Y3721200D1*
X9092370Y3713600D1*
X9092073Y3706000D1*
X9090808Y3698400D1*
X9087722Y3690800D1*
X9082718Y3683200D1*
X9076625Y3675600D1*
X9070529Y3668000D1*
X9064963Y3660400D1*
X9059391Y3652800D1*
X9053145Y3645200D1*
X9046260Y3637600D1*
X9038985Y3630000D1*
X9031520Y3622400D1*
X9023971Y3614800D1*
X9016390Y3607200D1*
X9008797Y3599600D1*
X9001199Y3592000D1*
X8993600Y3584400D1*
X8986000Y3576800D1*
X8978400Y3569200D1*
X8970830Y3561600D1*
X8963497Y3554000D1*
X8956865Y3546400D1*
X8951086Y3538800D1*
X8945434Y3531200D1*
X8939160Y3523600D1*
X8932264Y3516000D1*
X8924987Y3508400D1*
X8917520Y3500800D1*
X8909971Y3493200D1*
X8902390Y3485600D1*
X8894797Y3478000D1*
X8887199Y3470400D1*
X8879600Y3462800D1*
X8872000Y3455200D1*
X8864400Y3447600D1*
X8856800Y3440000D1*
X8849200Y3432400D1*
X9160800Y3941600D2*
Y3934000D1*
Y3926400D1*
Y3918800D1*
Y3911200D1*
Y3903600D1*
Y3896000D1*
Y3888400D1*
Y3880800D1*
Y3873200D1*
Y3865600D1*
Y3858000D1*
Y3850400D1*
Y3842800D1*
Y3835200D1*
Y3827600D1*
Y3820000D1*
Y3812400D1*
Y3804800D1*
Y3797200D1*
Y3789600D1*
Y3782000D1*
Y3774400D1*
Y3766800D1*
Y3759200D1*
X9571200Y3941600D2*
Y3934000D1*
Y3926400D1*
Y3918800D1*
Y3911200D1*
Y3903600D1*
Y3896000D1*
Y3888400D1*
Y3880800D1*
Y3873200D1*
Y3865600D1*
Y3858000D1*
Y3850400D1*
Y3842800D1*
Y3835200D1*
X9571170Y3827600D1*
X9570903Y3820000D1*
X9569935Y3812400D1*
X9568085Y3804800D1*
X9565869Y3797200D1*
X9563545Y3789600D1*
X9560753Y3782000D1*
X9557484Y3774400D1*
X9553938Y3766800D1*
X9550235Y3759200D1*
X9546481Y3751600D1*
X9542689Y3744000D1*
X9538900Y3736400D1*
X9535096Y3728800D1*
X9531303Y3721200D1*
X9527527Y3713600D1*
X9523970Y3706000D1*
X9520895Y3698400D1*
X9518190Y3690800D1*
X9515244Y3683200D1*
X9511916Y3675600D1*
X9508349Y3668000D1*
X9504638Y3660400D1*
X9500882Y3652800D1*
X9497090Y3645200D1*
X9493301Y3637600D1*
X9489496Y3630000D1*
X9485703Y3622400D1*
X9481927Y3614800D1*
X9478370Y3607200D1*
X9475295Y3599600D1*
X9472590Y3592000D1*
X9469644Y3584400D1*
X9466316Y3576800D1*
X9462749Y3569200D1*
X9459038Y3561600D1*
X9455282Y3554000D1*
X9451490Y3546400D1*
X9447701Y3538800D1*
X9443896Y3531200D1*
X9440103Y3523600D1*
X9436327Y3516000D1*
X9432770Y3508400D1*
X9429695Y3500800D1*
X9426990Y3493200D1*
X9424044Y3485600D1*
X9420716Y3478000D1*
X9417149Y3470400D1*
X9413438Y3462800D1*
X9409682Y3455200D1*
X9405890Y3447600D1*
X9402101Y3440000D1*
X9398296Y3432400D1*
X9394503Y3424800D1*
X9390727Y3417200D1*
X9387170Y3409600D1*
X9384095Y3402000D1*
X9381390Y3394400D1*
X9378444Y3386800D1*
X9375116Y3379200D1*
X9371549Y3371600D1*
X9367838Y3364000D1*
X9364082Y3356400D1*
X9360290Y3348800D1*
X9356501Y3341200D1*
X9352696Y3333600D1*
X9348879Y3326000D1*
X9344876Y3318400D1*
X9340442Y3310800D1*
X9335600Y3303200D1*
X9632000Y3941600D2*
Y3934000D1*
Y3926400D1*
Y3918800D1*
Y3911200D1*
Y3903600D1*
Y3896000D1*
Y3888400D1*
Y3880800D1*
Y3873200D1*
Y3865600D1*
Y3858000D1*
Y3850400D1*
Y3842800D1*
Y3835200D1*
Y3827600D1*
Y3820000D1*
Y3812400D1*
Y3804800D1*
Y3797200D1*
Y3789600D1*
Y3782000D1*
Y3774400D1*
Y3766800D1*
Y3759200D1*
X10042400Y3941600D2*
Y3934000D1*
Y3926400D1*
Y3918800D1*
Y3911200D1*
Y3903600D1*
Y3896000D1*
Y3888400D1*
Y3880800D1*
Y3873200D1*
Y3865600D1*
Y3858000D1*
Y3850400D1*
Y3842800D1*
Y3835200D1*
X10042370Y3827600D1*
X10042103Y3820000D1*
X10041135Y3812400D1*
X10039285Y3804800D1*
X10037069Y3797200D1*
X10034745Y3789600D1*
X10031953Y3782000D1*
X10028684Y3774400D1*
X10025138Y3766800D1*
X10021435Y3759200D1*
X10017681Y3751600D1*
X10013889Y3744000D1*
X10010100Y3736400D1*
X10006296Y3728800D1*
X10002503Y3721200D1*
X9998727Y3713600D1*
X9995170Y3706000D1*
X9992095Y3698400D1*
X9989390Y3690800D1*
X9986444Y3683200D1*
X9983116Y3675600D1*
X9979549Y3668000D1*
X9975838Y3660400D1*
X9972082Y3652800D1*
X9968290Y3645200D1*
X9964501Y3637600D1*
X9960696Y3630000D1*
X9956903Y3622400D1*
X9953127Y3614800D1*
X9949570Y3607200D1*
X9946495Y3599600D1*
X9943790Y3592000D1*
X9940844Y3584400D1*
X9937516Y3576800D1*
X9933949Y3569200D1*
X9930238Y3561600D1*
X9926482Y3554000D1*
X9922690Y3546400D1*
X9918901Y3538800D1*
X9915096Y3531200D1*
X9911303Y3523600D1*
X9907527Y3516000D1*
X9903970Y3508400D1*
X9900895Y3500800D1*
X9898190Y3493200D1*
X9895244Y3485600D1*
X9891916Y3478000D1*
X9888349Y3470400D1*
X9884638Y3462800D1*
X9880882Y3455200D1*
X9877090Y3447600D1*
X9873301Y3440000D1*
X9869496Y3432400D1*
X9865703Y3424800D1*
X9861927Y3417200D1*
X9858370Y3409600D1*
X9855295Y3402000D1*
X9852590Y3394400D1*
X9849644Y3386800D1*
X9846316Y3379200D1*
X9842749Y3371600D1*
X9839038Y3364000D1*
X9835282Y3356400D1*
X9831490Y3348800D1*
X9827701Y3341200D1*
X9823896Y3333600D1*
X9820079Y3326000D1*
X9816076Y3318400D1*
X9811642Y3310800D1*
X9806800Y3303200D1*
X8826400Y3820000D2*
Y3812400D1*
Y3804800D1*
Y3797200D1*
Y3789600D1*
Y3782000D1*
Y3774400D1*
Y3766800D1*
Y3759200D1*
Y3751600D1*
X8963200Y3820000D2*
Y3812400D1*
Y3804800D1*
Y3797200D1*
Y3789600D1*
Y3782000D1*
Y3774400D1*
Y3766800D1*
Y3759200D1*
X8963170Y3751600D1*
X8962903Y3744000D1*
X8961905Y3736400D1*
X8959788Y3728800D1*
X8956574Y3721200D1*
X8952163Y3713600D1*
X8946424Y3706000D1*
X8939742Y3698400D1*
X8932544Y3690800D1*
X8925106Y3683200D1*
X8917567Y3675600D1*
X8909989Y3668000D1*
X8902396Y3660400D1*
X8894799Y3652800D1*
X8887200Y3645200D1*
X8879600Y3637600D1*
X8872030Y3630000D1*
X8864697Y3622400D1*
X8858065Y3614800D1*
X8852286Y3607200D1*
X8846634Y3599600D1*
X8840360Y3592000D1*
X8833464Y3584400D1*
X8826187Y3576800D1*
X8818720Y3569200D1*
X8811171Y3561600D1*
X8803590Y3554000D1*
X8795997Y3546400D1*
X8788399Y3538800D1*
X8780800Y3531200D1*
X8773230Y3523600D1*
X8765897Y3516000D1*
X8759265Y3508400D1*
X8753486Y3500800D1*
X8747834Y3493200D1*
X8741560Y3485600D1*
X8734664Y3478000D1*
X8727387Y3470400D1*
X8719920Y3462800D1*
X8712401Y3455200D1*
X8705117Y3447600D1*
X8698789Y3440000D1*
X8694277Y3432400D1*
X8691712Y3424800D1*
X8690472Y3417200D1*
X8689936Y3409600D1*
X8689723Y3402000D1*
X8689643Y3394400D1*
X8689615Y3386800D1*
X8689605Y3379200D1*
X8689602Y3371600D1*
X8689600Y3364000D1*
Y3356400D1*
Y3348800D1*
Y3341200D1*
Y3333600D1*
Y3326000D1*
Y3318400D1*
Y3310800D1*
Y3303200D1*
Y3295600D1*
X9297600Y3820000D2*
Y3812400D1*
Y3804800D1*
Y3797200D1*
Y3789600D1*
Y3782000D1*
Y3774400D1*
Y3766800D1*
Y3759200D1*
X9426800Y3820000D2*
X9425596Y3812400D1*
X9423444Y3804800D1*
X9420478Y3797200D1*
X9417060Y3789600D1*
X9413407Y3782000D1*
X9409671Y3774400D1*
X9405886Y3766800D1*
X9402099Y3759200D1*
X9398325Y3751600D1*
X9394770Y3744000D1*
X9391695Y3736400D1*
X9388990Y3728800D1*
X9386044Y3721200D1*
X9382716Y3713600D1*
X9379149Y3706000D1*
X9375438Y3698400D1*
X9371682Y3690800D1*
X9367890Y3683200D1*
X9364101Y3675600D1*
X9360296Y3668000D1*
X9356503Y3660400D1*
X9352727Y3652800D1*
X9349170Y3645200D1*
X9346095Y3637600D1*
X9343390Y3630000D1*
X9340444Y3622400D1*
X9337116Y3614800D1*
X9333549Y3607200D1*
X9329838Y3599600D1*
X9326082Y3592000D1*
X9322290Y3584400D1*
X9318501Y3576800D1*
X9314696Y3569200D1*
X9310903Y3561600D1*
X9307127Y3554000D1*
X9303570Y3546400D1*
X9300495Y3538800D1*
X9297790Y3531200D1*
X9294844Y3523600D1*
X9291516Y3516000D1*
X9287949Y3508400D1*
X9284238Y3500800D1*
X9280482Y3493200D1*
X9276690Y3485600D1*
X9272901Y3478000D1*
X9269096Y3470400D1*
X9265303Y3462800D1*
X9261527Y3455200D1*
X9257970Y3447600D1*
X9254895Y3440000D1*
X9252190Y3432400D1*
X9249244Y3424800D1*
X9245916Y3417200D1*
X9242349Y3409600D1*
X9238638Y3402000D1*
X9234882Y3394400D1*
X9231090Y3386800D1*
X9227301Y3379200D1*
X9223496Y3371600D1*
X9219703Y3364000D1*
X9215927Y3356400D1*
X9212370Y3348800D1*
X9209295Y3341200D1*
X9206590Y3333600D1*
X9203620Y3326000D1*
X9200096Y3318400D1*
X9195898Y3310800D1*
X9191200Y3303200D1*
X9768800Y3820000D2*
Y3812400D1*
Y3804800D1*
Y3797200D1*
Y3789600D1*
Y3782000D1*
Y3774400D1*
Y3766800D1*
Y3759200D1*
X9898000Y3820000D2*
X9896796Y3812400D1*
X9894644Y3804800D1*
X9891678Y3797200D1*
X9888260Y3789600D1*
X9884607Y3782000D1*
X9880871Y3774400D1*
X9877086Y3766800D1*
X9873299Y3759200D1*
X9869525Y3751600D1*
X9865970Y3744000D1*
X9862895Y3736400D1*
X9860190Y3728800D1*
X9857244Y3721200D1*
X9853916Y3713600D1*
X9850349Y3706000D1*
X9846638Y3698400D1*
X9842882Y3690800D1*
X9839090Y3683200D1*
X9835301Y3675600D1*
X9831496Y3668000D1*
X9827703Y3660400D1*
X9823927Y3652800D1*
X9820370Y3645200D1*
X9817295Y3637600D1*
X9814590Y3630000D1*
X9811644Y3622400D1*
X9808316Y3614800D1*
X9804749Y3607200D1*
X9801038Y3599600D1*
X9797282Y3592000D1*
X9793490Y3584400D1*
X9789701Y3576800D1*
X9785896Y3569200D1*
X9782103Y3561600D1*
X9778327Y3554000D1*
X9774770Y3546400D1*
X9771695Y3538800D1*
X9768990Y3531200D1*
X9766044Y3523600D1*
X9762716Y3516000D1*
X9759149Y3508400D1*
X9755438Y3500800D1*
X9751682Y3493200D1*
X9747890Y3485600D1*
X9744101Y3478000D1*
X9740296Y3470400D1*
X9736503Y3462800D1*
X9732727Y3455200D1*
X9729170Y3447600D1*
X9726095Y3440000D1*
X9723390Y3432400D1*
X9720444Y3424800D1*
X9717116Y3417200D1*
X9713549Y3409600D1*
X9709838Y3402000D1*
X9706082Y3394400D1*
X9702290Y3386800D1*
X9698501Y3379200D1*
X9694696Y3371600D1*
X9690903Y3364000D1*
X9687127Y3356400D1*
X9683570Y3348800D1*
X9680495Y3341200D1*
X9677790Y3333600D1*
X9674820Y3326000D1*
X9671296Y3318400D1*
X9667098Y3310800D1*
X9662400Y3303200D1*
X8362800Y3812400D2*
Y3804800D1*
Y3797200D1*
Y3789600D1*
Y3782000D1*
Y3774400D1*
Y3766800D1*
Y3759200D1*
X8484400Y3812400D2*
X8482906Y3804800D1*
X8479751Y3797200D1*
X8474696Y3789600D1*
X8468331Y3782000D1*
X8461265Y3774400D1*
X8453877Y3766800D1*
X8446357Y3759200D1*
X8438785Y3751600D1*
X8431195Y3744000D1*
X8423598Y3736400D1*
X8416000Y3728800D1*
X8408400Y3721200D1*
X8400830Y3713600D1*
X8393527Y3706000D1*
X8387192Y3698400D1*
X8382678Y3690800D1*
X8380112Y3683200D1*
X8378872Y3675600D1*
X8378336Y3668000D1*
X8378123Y3660400D1*
X8378043Y3652800D1*
X8378015Y3645200D1*
X8378005Y3637600D1*
X8378002Y3630000D1*
X8378000Y3622400D1*
Y3614800D1*
Y3607200D1*
Y3599600D1*
Y3592000D1*
Y3584400D1*
Y3576800D1*
Y3569200D1*
Y3561600D1*
X8499600D2*
Y3554000D1*
Y3546400D1*
Y3538800D1*
Y3531200D1*
Y3523600D1*
Y3516000D1*
Y3508400D1*
Y3500800D1*
Y3493200D1*
Y3485600D1*
Y3478000D1*
Y3470400D1*
Y3462800D1*
Y3455200D1*
Y3447600D1*
Y3440000D1*
Y3432400D1*
Y3424800D1*
X8226000Y3485600D2*
Y3478000D1*
Y3470400D1*
X8226030Y3462800D1*
X8226297Y3455200D1*
X8227265Y3447600D1*
X8229086Y3440000D1*
X8231064Y3432400D1*
X8232657Y3424800D1*
X8234360Y3417200D1*
X8236769Y3409600D1*
X8239850Y3402000D1*
X8243314Y3394400D1*
X8246984Y3386800D1*
X8250756Y3379200D1*
X8254810Y3371600D1*
X8259595Y3364000D1*
X8265487Y3356400D1*
X8272256Y3348800D1*
X8279772Y3341200D1*
X8288483Y3333600D1*
X8299199Y3326000D1*
X8312680Y3318400D1*
X8330154Y3310800D1*
X8352591Y3303200D1*
X8378000Y3295600D1*
X8362800Y3485600D2*
Y3478000D1*
Y3470400D1*
Y3462800D1*
Y3455200D1*
Y3447600D1*
Y3440000D1*
Y3432400D1*
Y3424800D1*
X9107600Y3432400D2*
Y3424800D1*
Y3417200D1*
Y3409600D1*
Y3402000D1*
Y3394400D1*
Y3386800D1*
Y3379200D1*
Y3371600D1*
Y3364000D1*
Y3356400D1*
Y3348800D1*
Y3341200D1*
Y3333600D1*
Y3326000D1*
Y3318400D1*
Y3310800D1*
Y3303200D1*
Y3295600D1*
X10452347Y3375039D2*
D25*
Y3681303D1*
X10335772Y3375039D1*
X10219197Y3681303D1*
Y3375039D1*
X10658456Y3579215D2*
X10629481Y3564727D1*
X10600168Y3535415D1*
X10585681Y3491615D1*
Y3462639D1*
X10600168Y3418839D1*
X10629481Y3389864D1*
X10658456Y3375039D1*
X10702256D1*
X10731568Y3389864D1*
X10760544Y3418839D1*
X10775368Y3462639D1*
Y3491615D1*
X10760544Y3535415D1*
X10731568Y3564727D1*
X10702256Y3579215D1*
X10658456D1*
X11083565Y3681303D2*
Y3375039D1*
Y3535415D2*
X11054589Y3564727D1*
X11025277Y3579215D1*
X10981477D1*
X10952502Y3564727D1*
X10923189Y3535415D1*
X10908702Y3491615D1*
Y3462639D1*
X10923189Y3418839D1*
X10952502Y3389864D1*
X10981477Y3375039D1*
X11025277D1*
X11054589Y3389864D1*
X11083565Y3418839D1*
X11216898Y3491615D2*
X11391761D1*
Y3520927D1*
X11377274Y3550239D1*
X11362786Y3564727D1*
X11333474Y3579215D1*
X11289674D1*
X11260698Y3564727D1*
X11231386Y3535415D1*
X11216898Y3491615D1*
Y3462639D1*
X11231386Y3418839D1*
X11260698Y3389864D1*
X11289674Y3375039D1*
X11333474D1*
X11362786Y3389864D1*
X11391761Y3418839D1*
X11525095Y3681303D2*
Y3375039D1*
X11993915Y3622678D2*
X12023227Y3637503D1*
X12067027Y3680966D1*
Y3375039D1*
X13232752Y3522982D2*
D26*
X13378471D1*
Y3547409D1*
X13366398Y3571836D1*
X13354325Y3583909D1*
X13329898Y3595982D1*
X13293398D1*
X13269252Y3583909D1*
X13244825Y3559482D1*
X13232752Y3522982D1*
Y3498836D1*
X13244825Y3462336D1*
X13269252Y3438190D1*
X13293398Y3425836D1*
X13329898D1*
X13354325Y3438190D1*
X13378471Y3462336D1*
X13434027Y3595982D2*
Y3425836D1*
Y3547409D2*
X13470527Y3583909D1*
X13494954Y3595982D1*
X13531173D1*
X13555600Y3583909D1*
X13567673Y3547409D1*
Y3425836D1*
Y3547409D2*
X13604173Y3583909D1*
X13628600Y3595982D1*
X13664819D1*
X13689246Y3583909D1*
X13701600Y3547409D1*
Y3425836D1*
X13902875Y3681055D2*
Y3425836D1*
Y3559482D2*
X13878729Y3583909D1*
X13854302Y3595982D1*
X13817802D1*
X13793656Y3583909D1*
X13769229Y3559482D1*
X13757156Y3522982D1*
Y3498836D1*
X13769229Y3462336D1*
X13793656Y3438190D1*
X13817802Y3425836D1*
X13854302D1*
X13878729Y3438190D1*
X13902875Y3462336D1*
X13958430Y3595982D2*
Y3474409D1*
X13970504Y3438190D1*
X13994930Y3425836D1*
X14031430D1*
X14055577Y3438190D1*
X14092077Y3474409D1*
Y3595982D2*
Y3425836D1*
X14293351Y3681055D2*
Y3425836D1*
Y3559482D2*
X14269205Y3583909D1*
X14244778Y3595982D1*
X14208278D1*
X14184132Y3583909D1*
X14159705Y3559482D1*
X14147632Y3522982D1*
Y3498836D1*
X14159705Y3462336D1*
X14184132Y3438190D1*
X14208278Y3425836D1*
X14244778D1*
X14269205Y3438190D1*
X14293351Y3462336D1*
X14348907Y3522982D2*
X14494626D1*
Y3547409D1*
X14482553Y3571836D1*
X14470480Y3583909D1*
X14446053Y3595982D1*
X14409553D1*
X14385407Y3583909D1*
X14360980Y3559482D1*
X14348907Y3522982D1*
Y3498836D1*
X14360980Y3462336D1*
X14385407Y3438190D1*
X14409553Y3425836D1*
X14446053D1*
X14470480Y3438190D1*
X14494626Y3462336D1*
X14683828Y3620129D2*
X14647328D1*
X14623182Y3608055D1*
X14610828Y3595982D1*
X14598755Y3571555D1*
Y3522982D1*
X14610828Y3510909D1*
X14635255D1*
X14683828Y3522982D1*
X14695901Y3498836D1*
X14707974D1*
X14732401Y3522982D1*
X14744474Y3583629D1*
X14732401Y3620129D1*
X14720328Y3644555D1*
X14695901Y3668702D1*
X14671755Y3680775D1*
X14623182D1*
X14598755Y3668702D1*
X14574609Y3644555D1*
X14562255Y3620129D1*
X14550182Y3583629D1*
Y3522982D1*
X14562255Y3486482D1*
X14574609Y3462336D1*
X14598755Y3437909D1*
X14623182Y3425836D1*
X14671755D1*
X14695901Y3437909D1*
X14720328Y3462336D1*
X14683828Y3632202D2*
Y3522982D1*
X14800030Y3681055D2*
Y3425836D1*
X14885103D1*
X14921603Y3438190D1*
X14946030Y3462336D1*
X14958103Y3486763D1*
X14970176Y3522982D1*
Y3583909D1*
X14958103Y3620409D1*
X14946030Y3644555D1*
X14921603Y3668982D1*
X14885103Y3681055D1*
X14800030D1*
X15025731Y3522982D2*
X15171451D1*
Y3547409D1*
X15159377Y3571836D1*
X15147304Y3583909D1*
X15122877Y3595982D1*
X15086377D1*
X15062231Y3583909D1*
X15037804Y3559482D1*
X15025731Y3522982D1*
Y3498836D1*
X15037804Y3462336D1*
X15062231Y3438190D1*
X15086377Y3425836D1*
X15122877D1*
X15147304Y3438190D1*
X15171451Y3462336D1*
X15360652Y3559482D2*
X15348579Y3583909D1*
X15312079Y3595982D1*
X15275579D1*
X15239079Y3583909D1*
X15227006Y3559482D1*
X15239079Y3535336D1*
X15263506Y3522982D1*
X15324152Y3510909D1*
X15348579Y3498836D1*
X15360652Y3474409D1*
Y3462336D1*
X15348579Y3438190D1*
X15312079Y3425836D1*
X15275579D1*
X15239079Y3438190D1*
X15227006Y3462336D1*
X15416208Y3681055D2*
Y3425836D1*
X15537781Y3595982D2*
X15416208Y3474409D1*
X15464781Y3522982D2*
X15549854Y3425836D1*
X15641909Y3681055D2*
Y3474409D1*
X15653983Y3438190D1*
X15678409Y3425836D1*
X15702556D1*
X15605409Y3595982D2*
X15690483D1*
X15758111Y3681055D2*
Y3425836D1*
Y3547409D2*
X15794611Y3583909D1*
X15819038Y3595982D1*
X15855538D1*
X15879684Y3583909D1*
X15891757Y3547409D1*
Y3425836D1*
X16007959Y3595982D2*
X15983813Y3583909D1*
X15959386Y3559482D1*
X15947313Y3522982D1*
Y3498836D1*
X15959386Y3462336D1*
X15983813Y3438190D1*
X16007959Y3425836D1*
X16044459D1*
X16068886Y3438190D1*
X16093032Y3462336D1*
X16105386Y3498836D1*
Y3522982D1*
X16093032Y3559482D1*
X16068886Y3583909D1*
X16044459Y3595982D1*
X16007959D1*
X16160942D2*
Y3425836D1*
Y3522982D2*
X16173295Y3559482D1*
X16197442Y3583909D1*
X16221868Y3595982D1*
X16258368D1*
X16313924Y3681055D2*
X16325997Y3668982D1*
X16338351Y3681055D1*
X16325997Y3693409D1*
X16313924Y3681055D1*
X16325997Y3595982D2*
Y3425836D1*
X16430406Y3681055D2*
Y3474409D1*
X16442480Y3438190D1*
X16466906Y3425836D1*
X16491053D1*
X16393906Y3595982D2*
X16478980D1*
X16558962D2*
X16631681Y3425836D1*
X16607535Y3377263D1*
X16583108Y3352836D1*
X16558962Y3340763D1*
X16546608D1*
X16704681Y3595982D2*
X16631681Y3425836D1*
X16996608Y3620129D2*
Y3632202D1*
X17008681Y3656629D1*
X17020754Y3668702D1*
X17045181Y3680775D1*
X17093754D1*
X17117900Y3668702D1*
X17129973Y3656629D1*
X17142327Y3632202D1*
Y3608055D1*
X17129973Y3583629D1*
X17105827Y3547409D1*
X16984254Y3425836D1*
X17154400D1*
X17282956Y3680775D2*
X17246456Y3668702D1*
X17222029Y3632202D1*
X17209956Y3571555D1*
Y3535055D1*
X17222029Y3474409D1*
X17246456Y3437909D1*
X17282956Y3425836D1*
X17307102D1*
X17343602Y3437909D1*
X17367748Y3474409D1*
X17380102Y3535055D1*
Y3571555D1*
X17367748Y3632202D1*
X17343602Y3668702D1*
X17307102Y3680775D1*
X17282956D1*
X17367748Y3632202D2*
X17222029Y3474409D1*
X17435657Y3632202D2*
X17460084Y3644555D1*
X17496584Y3680775D1*
Y3425836D1*
X17600713D2*
X17722286Y3680775D1*
X17552140D1*
M02*
