G04 DipTrace 3.1.0.1*
G04 Bottom.gbr*
%MOMM*%
G04 #@! TF.FileFunction,Copper,L2,Bot*
G04 #@! TF.Part,Single*
G04 #@! TA.AperFunction,Nonconductor*
%ADD13C,0.00033*%
G04 #@! TA.AperFunction,ComponentPad*
%ADD14R,2.6X8.5*%
%ADD15C,1.4*%
%FSLAX35Y35*%
G04*
G71*
G90*
G75*
G01*
G04 Bottom*
%LPD*%
D14*
X15216000Y14800000D3*
X12840000D3*
X16404000D3*
X16800000D3*
X13236000D3*
X17196000D3*
X19572000D3*
X16008000D3*
X14028000D3*
X15612000D3*
X13632000D3*
X20364000D3*
X14424000D3*
X19968000D3*
X17592000D3*
X17988000D3*
X14820000D3*
X19176000D3*
X21552000D3*
X22740000D3*
X18780000D3*
X18384000D3*
X21948000D3*
X21156000D3*
X20760000D3*
X23136000D3*
X23532000D3*
X22344000D3*
X24324000D3*
X23928000D3*
X14820000D3*
X19572000D3*
X16008000D3*
X15216000D3*
X12840000D3*
X16800000D3*
X16404000D3*
X13236000D3*
X17196000D3*
X14028000D3*
X15612000D3*
X13632000D3*
X17988000D3*
X19968000D3*
X20364000D3*
X17592000D3*
X14424000D3*
X19176000D3*
X22740000D3*
X21552000D3*
X18384000D3*
X21948000D3*
X18780000D3*
X20760000D3*
X23136000D3*
X23532000D3*
X21156000D3*
X22344000D3*
X23928000D3*
X24324000D3*
D15*
Y14525000D3*
X23928000D3*
X23532000D3*
X23136000D3*
X22740000D3*
X22344000D3*
X21948000D3*
X21552000D3*
X21156000D3*
X20760000D3*
X20364000D3*
X19968000D3*
X19572000D3*
X19176000D3*
X18780000D3*
X18384000D3*
X17988000D3*
X17592000D3*
X17196000D3*
X16800000D3*
X16404000D3*
X16008000D3*
X15612000D3*
X15216000D3*
X14820000D3*
X14424000D3*
X14028000D3*
X13632000D3*
X13236000D3*
X12840000D3*
G36*
X7027000Y10374000D2*
X6699000D1*
Y11687500D1*
Y11751000D1*
X6902000D1*
X6911460Y11751497D1*
X6920817Y11752977D1*
X6929967Y11755430D1*
X6938810Y11758827D1*
X6947250Y11763127D1*
X6955197Y11768283D1*
X6962557Y11774247D1*
X6969257Y11780943D1*
X6975217Y11788307D1*
X6980377Y11796250D1*
X6984680Y11804690D1*
X6988073Y11813533D1*
X6990527Y11822683D1*
X6992010Y11832040D1*
X6992500Y11841500D1*
Y12794500D1*
X6992003Y12803960D1*
X6990523Y12813317D1*
X6988070Y12822467D1*
X6984673Y12831310D1*
X6980373Y12839750D1*
X6975217Y12847697D1*
X6969253Y12855057D1*
X6962557Y12861757D1*
X6955193Y12867717D1*
X6947250Y12872877D1*
X6938810Y12877180D1*
X6929967Y12880573D1*
X6920817Y12883027D1*
X6911460Y12884510D1*
X6902000Y12885000D1*
X5254500D1*
X5245040Y12884503D1*
X5235683Y12883023D1*
X5226533Y12880570D1*
X5217690Y12877177D1*
X5209250Y12872877D1*
X5201307Y12867717D1*
X5193943Y12861757D1*
X5187247Y12855057D1*
X5181287Y12847697D1*
X5176127Y12839750D1*
X5171827Y12831310D1*
X5168433Y12822467D1*
X5165980Y12813317D1*
X5164500Y12803960D1*
X5164000Y12794500D1*
Y11841500D1*
X5164497Y11832040D1*
X5165977Y11822683D1*
X5168430Y11813533D1*
X5171823Y11804690D1*
X5176123Y11796250D1*
X5181283Y11788307D1*
X5187243Y11780943D1*
X5193943Y11774247D1*
X5201307Y11768283D1*
X5209250Y11763127D1*
X5217690Y11758827D1*
X5226533Y11755433D1*
X5235683Y11752980D1*
X5245040Y11751500D1*
X5254500Y11751000D1*
X5270000D1*
Y10374000D1*
X5254500D1*
X5245040Y10373503D1*
X5235683Y10372023D1*
X5226533Y10369570D1*
X5217690Y10366177D1*
X5209250Y10361877D1*
X5201307Y10356717D1*
X5193943Y10350757D1*
X5187247Y10344057D1*
X5181287Y10336693D1*
X5176127Y10328750D1*
X5171827Y10320310D1*
X5168433Y10311467D1*
X5165980Y10302317D1*
X5164500Y10292960D1*
X5164000Y10283500D1*
Y9941500D1*
X5164497Y9932040D1*
X5165977Y9922683D1*
X5168430Y9913533D1*
X5171823Y9904690D1*
X5176123Y9896250D1*
X5181283Y9888307D1*
X5187243Y9880943D1*
X5193943Y9874247D1*
X5201307Y9868287D1*
X5209250Y9863127D1*
X5217690Y9858827D1*
X5226533Y9855433D1*
X5235683Y9852980D1*
X5245040Y9851500D1*
X5254500Y9851000D1*
X5751000D1*
Y8474000D1*
X5254500D1*
X5245040Y8473503D1*
X5235683Y8472023D1*
X5226533Y8469570D1*
X5217690Y8466177D1*
X5209250Y8461877D1*
X5201307Y8456717D1*
X5193943Y8450757D1*
X5187247Y8444057D1*
X5181287Y8436697D1*
X5176127Y8428750D1*
X5171827Y8420310D1*
X5168433Y8411467D1*
X5165980Y8402317D1*
X5164500Y8392960D1*
X5164000Y8383500D1*
Y5573000D1*
X5164497Y5563540D1*
X5165977Y5554183D1*
X5168430Y5545033D1*
X5171823Y5536190D1*
X5176123Y5527750D1*
X5181283Y5519807D1*
X5187243Y5512443D1*
X5193943Y5505747D1*
X5201307Y5499787D1*
X5209250Y5494627D1*
X5217690Y5490327D1*
X5226533Y5486933D1*
X5235683Y5484480D1*
X5245040Y5483000D1*
X5254500Y5482500D1*
X5358500D1*
X5367960Y5482997D1*
X5377317Y5484477D1*
X5386467Y5486930D1*
X5395310Y5490323D1*
X5403750Y5494627D1*
X5411693Y5499783D1*
X5419057Y5505747D1*
X5425757Y5512443D1*
X5431717Y5519807D1*
X5436877Y5527750D1*
X5441177Y5536190D1*
X5444573Y5545033D1*
X5447027Y5554183D1*
X5448507Y5563540D1*
X5449000Y5573000D1*
Y6051000D1*
X6276000D1*
Y4674000D1*
X6073000D1*
X6063540Y4673503D1*
X6054183Y4672023D1*
X6045033Y4669570D1*
X6036190Y4666177D1*
X6027750Y4661877D1*
X6019807Y4656717D1*
X6012443Y4650757D1*
X6005747Y4644057D1*
X5999787Y4636697D1*
X5994627Y4628750D1*
X5990327Y4620310D1*
X5986933Y4611467D1*
X5984480Y4602317D1*
X5983000Y4592960D1*
X5982500Y4583500D1*
Y4241477D1*
X5982997Y4232017D1*
X5984480Y4222663D1*
X5986933Y4213517D1*
X5990330Y4204673D1*
X5994633Y4196237D1*
X5999790Y4188293D1*
X6005753Y4180933D1*
X6012450Y4174240D1*
X6019813Y4168280D1*
X6027757Y4163123D1*
X6036197Y4158823D1*
X6045040Y4155430D1*
X6054187Y4152980D1*
X6063543Y4151500D1*
X6073000Y4151000D1*
X6276000D1*
X6401000D1*
D1*
Y2774000D1*
X7394000D1*
Y4185500D1*
X7394497Y4194960D1*
X7395980Y4204317D1*
X7398430Y4213467D1*
X7401827Y4222310D1*
X7406127Y4230750D1*
X7411287Y4238697D1*
X7417247Y4246057D1*
X7423943Y4252757D1*
X7431307Y4258717D1*
X7439250Y4263877D1*
X7447690Y4268180D1*
X7456533Y4271573D1*
X7465683Y4274027D1*
X7475040Y4275510D1*
X7484500Y4276000D1*
Y5698160D1*
X6733660Y6449000D1*
X6089500D1*
X6080040Y6449497D1*
X6070683Y6450977D1*
X6061533Y6453430D1*
X6052690Y6456827D1*
X6044250Y6461127D1*
X6036307Y6466283D1*
X6028943Y6472247D1*
X6022243Y6478943D1*
X6016283Y6486307D1*
X6011123Y6494250D1*
X6006823Y6502690D1*
X6003427Y6511533D1*
X6000973Y6520683D1*
X5999490Y6530040D1*
X5999000Y6539500D1*
Y7985500D1*
X5999497Y7994960D1*
X6000980Y8004317D1*
X6003430Y8013467D1*
X6006827Y8022310D1*
X6011127Y8030750D1*
X6016283Y8038697D1*
X6022247Y8046057D1*
X6028943Y8052757D1*
X6036307Y8058717D1*
X6044250Y8063877D1*
X6052690Y8068177D1*
X6061533Y8071573D1*
X6070683Y8074027D1*
X6080040Y8075510D1*
X6089500Y8076000D1*
X6387803D1*
X6699000Y8387197D1*
Y9885500D1*
X6699497Y9894960D1*
X6700980Y9904317D1*
X6703430Y9913467D1*
X6706827Y9922310D1*
X6711127Y9930750D1*
X6716287Y9938697D1*
X6722247Y9946057D1*
X6728943Y9952757D1*
X6736307Y9958717D1*
X6744250Y9963877D1*
X6752690Y9968180D1*
X6761533Y9971573D1*
X6770683Y9974027D1*
X6780040Y9975510D1*
X6789500Y9976000D1*
X6992500D1*
Y10249000D1*
X6664500D1*
X6655040Y10249497D1*
X6645683Y10250977D1*
X6636533Y10253430D1*
X6627690Y10256827D1*
X6619250Y10261127D1*
X6611303Y10266283D1*
X6603943Y10272247D1*
X6597243Y10278943D1*
X6591283Y10286307D1*
X6586123Y10294250D1*
X6581823Y10302690D1*
X6578427Y10311533D1*
X6575973Y10320683D1*
X6574490Y10330040D1*
X6574000Y10339500D1*
Y10374000D1*
Y11785500D1*
X6574500Y11794960D1*
X6575980Y11804317D1*
X6578433Y11813467D1*
X6581827Y11822310D1*
X6586127Y11830750D1*
X6591287Y11838697D1*
X6597247Y11846057D1*
X6603943Y11852757D1*
X6611307Y11858717D1*
X6619250Y11863877D1*
X6627690Y11868177D1*
X6636533Y11871570D1*
X6645683Y11874023D1*
X6655040Y11875503D1*
X6664500Y11876000D1*
X6867500D1*
Y12760000D1*
X5289000D1*
Y11876000D1*
X5304500D1*
X5313960Y11875507D1*
X5323317Y11874027D1*
X5332467Y11871573D1*
X5341310Y11868177D1*
X5349750Y11863877D1*
X5357693Y11858717D1*
X5365057Y11852757D1*
X5371753Y11846057D1*
X5377717Y11838693D1*
X5382873Y11830750D1*
X5387177Y11822310D1*
X5390570Y11813467D1*
X5393023Y11804317D1*
X5394503Y11794960D1*
X5395000Y11785500D1*
Y10339500D1*
X5394507Y10330040D1*
X5393027Y10320683D1*
X5390573Y10311533D1*
X5387177Y10302690D1*
X5382877Y10294250D1*
X5377717Y10286307D1*
X5371757Y10278943D1*
X5365057Y10272247D1*
X5357697Y10266283D1*
X5349750Y10261127D1*
X5341310Y10256823D1*
X5332467Y10253430D1*
X5323317Y10250977D1*
X5313960Y10249497D1*
X5304500Y10249000D1*
X5289000D1*
Y9976000D1*
X5785500D1*
X5794960Y9975510D1*
X5804317Y9974027D1*
X5813467Y9971573D1*
X5822310Y9968177D1*
X5830750Y9963877D1*
X5838693Y9958717D1*
X5846057Y9952757D1*
X5852753Y9946057D1*
X5858717Y9938693D1*
X5863873Y9930750D1*
X5868177Y9922310D1*
X5871570Y9913467D1*
X5874023Y9904317D1*
X5875503Y9894960D1*
X5876000Y9885500D1*
Y8439500D1*
X5875510Y8430040D1*
X5874027Y8420683D1*
X5871573Y8411533D1*
X5868177Y8402690D1*
X5863877Y8394250D1*
X5858717Y8386307D1*
X5852757Y8378943D1*
X5846057Y8372247D1*
X5838697Y8366283D1*
X5830750Y8361127D1*
X5822310Y8356823D1*
X5813467Y8353430D1*
X5804317Y8350977D1*
X5794960Y8349497D1*
X5785500Y8349000D1*
X5289000D1*
Y6176000D1*
X6310500D1*
X6319960Y6175510D1*
X6329317Y6174027D1*
X6338467Y6171573D1*
X6347310Y6168177D1*
X6355750Y6163877D1*
X6363693Y6158717D1*
X6371057Y6152757D1*
X6377753Y6146057D1*
X6383717Y6138697D1*
X6388873Y6130750D1*
X6393173Y6122310D1*
X6396570Y6113467D1*
X6399023Y6104317D1*
X6400503Y6094960D1*
X6401000Y6085500D1*
Y4639500D1*
X6400510Y4630040D1*
X6399027Y4620683D1*
X6396573Y4611533D1*
X6393177Y4602690D1*
X6388877Y4594250D1*
X6383717Y4586307D1*
X6377757Y4578943D1*
X6371057Y4572247D1*
X6363697Y4566283D1*
X6355750Y4561127D1*
X6347310Y4556827D1*
X6338467Y4553430D1*
X6329317Y4550977D1*
X6319960Y4549497D1*
X6310500Y4549000D1*
X6107500D1*
Y4276000D1*
X6310500D1*
X6319970Y4275507D1*
X6329333Y4274023D1*
X6338490Y4271567D1*
X6347340Y4268163D1*
X6355787Y4263857D1*
X6363737Y4258687D1*
X6371100Y4252717D1*
X6377800Y4246007D1*
X6383760Y4238633D1*
X6388917Y4230677D1*
X6393213Y4222223D1*
X6396600Y4213367D1*
X6399043Y4204207D1*
X6400517Y4194840D1*
X6401000Y4185370D1*
Y4151000D1*
X6276000D1*
Y2774000D1*
X5449000D1*
Y4151000D1*
X5652000D1*
X5661463Y4151497D1*
X5670823Y4152980D1*
X5679977Y4155433D1*
X5688827Y4158833D1*
X5697267Y4163137D1*
X5705217Y4168300D1*
X5712580Y4174267D1*
X5719277Y4180970D1*
X5725240Y4188337D1*
X5730397Y4196287D1*
X5734697Y4204733D1*
X5738090Y4213580D1*
X5740537Y4222737D1*
X5742013Y4232097D1*
X5742500Y4241563D1*
Y4583500D1*
X5742003Y4592960D1*
X5740523Y4602317D1*
X5738070Y4611467D1*
X5734677Y4620310D1*
X5730373Y4628750D1*
X5725217Y4636693D1*
X5719253Y4644057D1*
X5712557Y4650757D1*
X5705193Y4656717D1*
X5697250Y4661877D1*
X5688810Y4666177D1*
X5679967Y4669573D1*
X5670817Y4672027D1*
X5661460Y4673507D1*
X5652000Y4674000D1*
X5449000D1*
Y5152000D1*
X5448503Y5161460D1*
X5447023Y5170817D1*
X5444570Y5179967D1*
X5441177Y5188810D1*
X5436873Y5197250D1*
X5431717Y5205193D1*
X5425753Y5212557D1*
X5419057Y5219257D1*
X5411693Y5225217D1*
X5403750Y5230377D1*
X5395310Y5234677D1*
X5386467Y5238073D1*
X5377317Y5240527D1*
X5367960Y5242007D1*
X5358500Y5242500D1*
X4924000D1*
Y10283500D1*
X4923503Y10292960D1*
X4922023Y10302317D1*
X4919570Y10311467D1*
X4916177Y10320310D1*
X4911873Y10328750D1*
X4906717Y10336693D1*
X4900753Y10344057D1*
X4894057Y10350757D1*
X4886693Y10356717D1*
X4878750Y10361877D1*
X4870310Y10366177D1*
X4861467Y10369573D1*
X4852317Y10372027D1*
X4842960Y10373507D1*
X4833500Y10374000D1*
X4818000D1*
Y11751000D1*
X4833500D1*
X4842960Y11751497D1*
X4852317Y11752977D1*
X4861467Y11755430D1*
X4870310Y11758823D1*
X4878750Y11763127D1*
X4886693Y11768283D1*
X4894057Y11774247D1*
X4900757Y11780943D1*
X4906717Y11788307D1*
X4911877Y11796250D1*
X4916177Y11804690D1*
X4919573Y11813533D1*
X4922027Y11822683D1*
X4923507Y11832040D1*
X4924000Y11841500D1*
Y12044500D1*
X4923503Y12053960D1*
X4922023Y12063317D1*
X4919570Y12072467D1*
X4916177Y12081310D1*
X4911873Y12089750D1*
X4906717Y12097693D1*
X4900753Y12105057D1*
X4894057Y12111757D1*
X4886693Y12117717D1*
X4878750Y12122877D1*
X4870310Y12127177D1*
X4861467Y12130573D1*
X4852317Y12133027D1*
X4842960Y12134507D1*
X4833500Y12135000D1*
X3523000D1*
X3513540Y12134503D1*
X3504183Y12133023D1*
X3495033Y12130570D1*
X3486190Y12127177D1*
X3477750Y12122877D1*
X3469807Y12117717D1*
X3462443Y12111757D1*
X3455747Y12105057D1*
X3449783Y12097693D1*
X3444627Y12089750D1*
X3440327Y12081310D1*
X3436930Y12072467D1*
X3434480Y12063317D1*
X3432997Y12053960D1*
X3432500Y12044500D1*
Y11841500D1*
X3432997Y11832040D1*
X3434477Y11822683D1*
X3436930Y11813533D1*
X3440323Y11804690D1*
X3444623Y11796250D1*
X3449783Y11788307D1*
X3455747Y11780943D1*
X3462443Y11774247D1*
X3469807Y11768283D1*
X3477750Y11763127D1*
X3486190Y11758827D1*
X3495033Y11755430D1*
X3504183Y11752980D1*
X3513540Y11751497D1*
X3523000Y11751000D1*
X3726000D1*
Y10374000D1*
X3523000D1*
X3513527Y10373503D1*
X3504160Y10372017D1*
X3494997Y10369560D1*
X3486143Y10366157D1*
X3477693Y10361843D1*
X3469743Y10356670D1*
X3462377Y10350693D1*
X3455677Y10343980D1*
X3449717Y10336600D1*
X3444560Y10328637D1*
X3440267Y10320180D1*
X3436883Y10311317D1*
X3434443Y10302150D1*
X3432980Y10292780D1*
X3432500Y10283303D1*
Y9941477D1*
X3432997Y9932017D1*
X3434483Y9922663D1*
X3436937Y9913517D1*
X3440330Y9904673D1*
X3444633Y9896237D1*
X3449793Y9888293D1*
X3455753Y9880933D1*
X3462453Y9874237D1*
X3469813Y9868280D1*
X3477757Y9863120D1*
X3486197Y9858823D1*
X3495040Y9855430D1*
X3504187Y9852980D1*
X3513543Y9851497D1*
X3523000Y9851000D1*
X3726000D1*
Y8474000D1*
X3523000D1*
X3513527Y8473503D1*
X3504160Y8472017D1*
X3494997Y8469560D1*
X3486143Y8466157D1*
X3477693Y8461843D1*
X3469743Y8456670D1*
X3462377Y8450693D1*
X3455677Y8443980D1*
X3449717Y8436600D1*
X3444560Y8428637D1*
X3440267Y8420180D1*
X3436883Y8411317D1*
X3434443Y8402150D1*
X3432980Y8392780D1*
X3432500Y8383303D1*
Y8041477D1*
X3432997Y8032017D1*
X3434483Y8022663D1*
X3436937Y8013517D1*
X3440330Y8004673D1*
X3444633Y7996237D1*
X3449793Y7988293D1*
X3455753Y7980933D1*
X3462453Y7974237D1*
X3469813Y7968280D1*
X3477757Y7963120D1*
X3486197Y7958823D1*
X3495040Y7955430D1*
X3504187Y7952980D1*
X3513543Y7951497D1*
X3523000Y7951000D1*
X3726000D1*
Y6574000D1*
X3523000D1*
X3513537Y6573503D1*
X3504177Y6572020D1*
X3495020Y6569567D1*
X3486173Y6566170D1*
X3477730Y6561863D1*
X3469783Y6556700D1*
X3462420Y6550733D1*
X3455723Y6544030D1*
X3449760Y6536663D1*
X3444603Y6528713D1*
X3440307Y6520267D1*
X3436913Y6511417D1*
X3434467Y6502260D1*
X3432993Y6492897D1*
X3432500Y6483433D1*
Y6141433D1*
X3433003Y6131977D1*
X3434490Y6122627D1*
X3436947Y6113483D1*
X3440343Y6104647D1*
X3444647Y6096213D1*
X3449807Y6088273D1*
X3455770Y6080917D1*
X3462467Y6074227D1*
X3469827Y6068270D1*
X3477770Y6063113D1*
X3486207Y6058817D1*
X3495047Y6055427D1*
X3504193Y6052977D1*
X3513543Y6051497D1*
X3523000Y6051000D1*
X3726000D1*
Y4674000D1*
X3523000D1*
X3513540Y4673503D1*
X3504183Y4672023D1*
X3495033Y4669570D1*
X3486190Y4666177D1*
X3477750Y4661877D1*
X3469807Y4656717D1*
X3462443Y4650757D1*
X3455747Y4644057D1*
X3449783Y4636693D1*
X3444627Y4628750D1*
X3440327Y4620310D1*
X3436930Y4611467D1*
X3434480Y4602317D1*
X3432997Y4592960D1*
X3432500Y4583500D1*
Y3975000D1*
X3557500D1*
D1*
X5324000D1*
Y4185500D1*
X5324500Y4194960D1*
X5325980Y4204317D1*
X5328433Y4213467D1*
X5331827Y4222310D1*
X5336127Y4230750D1*
X5341287Y4238697D1*
X5347247Y4246057D1*
X5353943Y4252757D1*
X5361307Y4258717D1*
X5369250Y4263877D1*
X5377690Y4268177D1*
X5386533Y4271570D1*
X5395683Y4274023D1*
X5405040Y4275503D1*
X5414500Y4276000D1*
X5617500D1*
Y4549000D1*
X5414500D1*
X5405040Y4549500D1*
X5395683Y4550980D1*
X5386533Y4553433D1*
X5377690Y4556827D1*
X5369250Y4561127D1*
X5361303Y4566287D1*
X5353943Y4572247D1*
X5347243Y4578943D1*
X5341283Y4586307D1*
X5336123Y4594250D1*
X5331823Y4602690D1*
X5328430Y4611533D1*
X5325977Y4620683D1*
X5324497Y4630040D1*
X5324000Y4639500D1*
Y5117500D1*
X4889500D1*
X4880040Y5118000D1*
X4870683Y5119480D1*
X4861533Y5121930D1*
X4852690Y5125327D1*
X4844250Y5129627D1*
X4836307Y5134783D1*
X4828943Y5140747D1*
X4822243Y5147443D1*
X4816283Y5154807D1*
X4811123Y5162750D1*
X4806823Y5171190D1*
X4803430Y5180033D1*
X4800977Y5189183D1*
X4799497Y5198540D1*
X4799000Y5208000D1*
Y10249000D1*
X4783500D1*
X4774040Y10249500D1*
X4764683Y10250980D1*
X4755533Y10253430D1*
X4746690Y10256827D1*
X4738250Y10261127D1*
X4730307Y10266283D1*
X4722943Y10272247D1*
X4716243Y10278943D1*
X4710283Y10286307D1*
X4705123Y10294250D1*
X4700823Y10302690D1*
X4697430Y10311533D1*
X4694977Y10320683D1*
X4693497Y10330040D1*
X4693000Y10339500D1*
Y11785500D1*
X4693500Y11794960D1*
X4694980Y11804317D1*
X4697430Y11813467D1*
X4700827Y11822310D1*
X4705127Y11830750D1*
X4710283Y11838693D1*
X4716247Y11846057D1*
X4722943Y11852757D1*
X4730307Y11858717D1*
X4738250Y11863877D1*
X4746690Y11868177D1*
X4755533Y11871570D1*
X4764683Y11874023D1*
X4774040Y11875503D1*
X4783500Y11876000D1*
X4799000D1*
Y12010000D1*
X3557500D1*
Y11876000D1*
X3760500D1*
X3769960Y11875507D1*
X3779317Y11874023D1*
X3788467Y11871573D1*
X3797310Y11868177D1*
X3805750Y11863877D1*
X3813693Y11858717D1*
X3821057Y11852757D1*
X3827753Y11846057D1*
X3833717Y11838693D1*
X3838873Y11830750D1*
X3843177Y11822310D1*
X3846570Y11813467D1*
X3849023Y11804317D1*
X3850503Y11794960D1*
X3851000Y11785500D1*
Y10339500D1*
X3850507Y10330040D1*
X3849023Y10320683D1*
X3846573Y10311533D1*
X3843177Y10302690D1*
X3838877Y10294250D1*
X3833717Y10286307D1*
X3827757Y10278943D1*
X3821057Y10272247D1*
X3813693Y10266283D1*
X3805750Y10261127D1*
X3797310Y10256823D1*
X3788467Y10253430D1*
X3779317Y10250977D1*
X3769960Y10249497D1*
X3760500Y10249000D1*
X3557500D1*
Y9976000D1*
X3760500D1*
X3769970Y9975507D1*
X3779333Y9974020D1*
X3788490Y9971563D1*
X3797340Y9968163D1*
X3805787Y9963853D1*
X3813737Y9958687D1*
X3821100Y9952713D1*
X3827800Y9946007D1*
X3833760Y9938633D1*
X3838917Y9930677D1*
X3843213Y9922223D1*
X3846603Y9913367D1*
X3849047Y9904207D1*
X3850517Y9894840D1*
X3851000Y9885370D1*
Y8439500D1*
X3850507Y8430040D1*
X3849023Y8420683D1*
X3846573Y8411533D1*
X3843177Y8402690D1*
X3838877Y8394250D1*
X3833717Y8386307D1*
X3827757Y8378943D1*
X3821057Y8372247D1*
X3813693Y8366283D1*
X3805750Y8361127D1*
X3797310Y8356823D1*
X3788467Y8353430D1*
X3779317Y8350977D1*
X3769960Y8349497D1*
X3760500Y8349000D1*
X3557500D1*
Y8076000D1*
X3760500D1*
X3769960Y8075507D1*
X3779317Y8074023D1*
X3788467Y8071573D1*
X3797310Y8068177D1*
X3805750Y8063877D1*
X3813693Y8058717D1*
X3821057Y8052757D1*
X3827753Y8046057D1*
X3833717Y8038693D1*
X3838873Y8030750D1*
X3843177Y8022310D1*
X3846570Y8013467D1*
X3849023Y8004317D1*
X3850503Y7994960D1*
X3851000Y7985500D1*
Y6539500D1*
X3850507Y6530040D1*
X3849023Y6520683D1*
X3846573Y6511533D1*
X3843177Y6502690D1*
X3838877Y6494250D1*
X3833717Y6486307D1*
X3827757Y6478943D1*
X3821057Y6472247D1*
X3813693Y6466283D1*
X3805750Y6461127D1*
X3797310Y6456823D1*
X3788467Y6453430D1*
X3779317Y6450977D1*
X3769960Y6449497D1*
X3760500Y6449000D1*
X3557500D1*
Y6176000D1*
X3760500D1*
X3769970Y6175507D1*
X3779333Y6174020D1*
X3788490Y6171563D1*
X3797340Y6168163D1*
X3805787Y6163853D1*
X3813737Y6158687D1*
X3821100Y6152713D1*
X3827800Y6146007D1*
X3833760Y6138633D1*
X3838917Y6130677D1*
X3843213Y6122223D1*
X3846603Y6113367D1*
X3849047Y6104207D1*
X3850517Y6094840D1*
X3851000Y6085370D1*
Y4639500D1*
X3850507Y4630040D1*
X3849023Y4620683D1*
X3846573Y4611533D1*
X3843177Y4602690D1*
X3838877Y4594250D1*
X3833717Y4586307D1*
X3827757Y4578943D1*
X3821057Y4572247D1*
X3813693Y4566283D1*
X3805750Y4561127D1*
X3797310Y4556823D1*
X3788467Y4553430D1*
X3779317Y4550977D1*
X3769960Y4549497D1*
X3760500Y4549000D1*
X3557500D1*
Y3975000D1*
X3432500D1*
X3192500D1*
Y4583500D1*
X3192003Y4592960D1*
X3190523Y4602317D1*
X3188070Y4611467D1*
X3184677Y4620310D1*
X3180373Y4628750D1*
X3175217Y4636693D1*
X3169253Y4644057D1*
X3162557Y4650757D1*
X3155193Y4656717D1*
X3147250Y4661877D1*
X3138810Y4666177D1*
X3129967Y4669573D1*
X3120817Y4672023D1*
X3111460Y4673507D1*
X3102000Y4674000D1*
X2899000D1*
Y6051000D1*
X3102000D1*
X3111460Y6051497D1*
X3120817Y6052977D1*
X3129967Y6055430D1*
X3138810Y6058823D1*
X3147250Y6063127D1*
X3155193Y6068283D1*
X3162557Y6074247D1*
X3169253Y6080943D1*
X3175217Y6088307D1*
X3180377Y6096250D1*
X3184677Y6104690D1*
X3188073Y6113533D1*
X3190523Y6122683D1*
X3192007Y6132040D1*
X3192500Y6141500D1*
Y6483500D1*
X3192003Y6492960D1*
X3190523Y6502317D1*
X3188070Y6511467D1*
X3184677Y6520310D1*
X3180377Y6528750D1*
X3175217Y6536693D1*
X3169253Y6544057D1*
X3162557Y6550757D1*
X3155193Y6556717D1*
X3147250Y6561877D1*
X3138810Y6566177D1*
X3129967Y6569573D1*
X3120817Y6572023D1*
X3111460Y6573507D1*
X3102000Y6574000D1*
X2899000D1*
Y7951000D1*
X3102000D1*
X3111463Y7951497D1*
X3120823Y7952980D1*
X3129977Y7955433D1*
X3138827Y7958830D1*
X3147267Y7963137D1*
X3155217Y7968300D1*
X3162577Y7974267D1*
X3169277Y7980970D1*
X3175240Y7988337D1*
X3180397Y7996287D1*
X3184697Y8004733D1*
X3188087Y8013580D1*
X3190537Y8022737D1*
X3192013Y8032097D1*
X3192500Y8041563D1*
Y8383500D1*
X3192003Y8392960D1*
X3190523Y8402317D1*
X3188070Y8411467D1*
X3184677Y8420310D1*
X3180373Y8428750D1*
X3175217Y8436693D1*
X3169253Y8444057D1*
X3162557Y8450753D1*
X3155193Y8456717D1*
X3147250Y8461877D1*
X3138810Y8466177D1*
X3129967Y8469573D1*
X3120817Y8472023D1*
X3111460Y8473507D1*
X3102000Y8474000D1*
X2899000D1*
Y9851000D1*
X3102000D1*
X3111463Y9851497D1*
X3120823Y9852980D1*
X3129977Y9855433D1*
X3138827Y9858830D1*
X3147267Y9863137D1*
X3155213Y9868300D1*
X3162577Y9874267D1*
X3169277Y9880970D1*
X3175240Y9888337D1*
X3180397Y9896287D1*
X3184697Y9904733D1*
X3188087Y9913580D1*
X3190537Y9922737D1*
X3192013Y9932097D1*
X3192500Y9941563D1*
Y10283500D1*
X3192003Y10292960D1*
X3190523Y10302317D1*
X3188070Y10311467D1*
X3184677Y10320310D1*
X3180373Y10328750D1*
X3175217Y10336693D1*
X3169253Y10344057D1*
X3162557Y10350753D1*
X3155193Y10356717D1*
X3147250Y10361877D1*
X3138810Y10366177D1*
X3129967Y10369573D1*
X3120817Y10372023D1*
X3111460Y10373507D1*
X3102000Y10374000D1*
X2899000D1*
Y11751000D1*
X3102000D1*
X3111460Y11751497D1*
X3120817Y11752977D1*
X3129967Y11755430D1*
X3138810Y11758823D1*
X3147250Y11763127D1*
X3155193Y11768283D1*
X3162557Y11774247D1*
X3169257Y11780943D1*
X3175217Y11788307D1*
X3180377Y11796250D1*
X3184677Y11804690D1*
X3188073Y11813533D1*
X3190523Y11822683D1*
X3192007Y11832040D1*
X3192500Y11841500D1*
Y12375000D1*
X4708500D1*
X4717960Y12375497D1*
X4727317Y12376977D1*
X4736467Y12379430D1*
X4745310Y12382823D1*
X4753750Y12387127D1*
X4761693Y12392283D1*
X4769057Y12398247D1*
X4775757Y12404943D1*
X4781717Y12412307D1*
X4786877Y12420250D1*
X4791177Y12428690D1*
X4794573Y12437533D1*
X4797027Y12446683D1*
X4798507Y12456040D1*
X4799000Y12465500D1*
Y13250000D1*
X12849500D1*
X12858960Y13250497D1*
X12868317Y13251980D1*
X12877467Y13254430D1*
X12886310Y13257827D1*
X12894753Y13262127D1*
X12902697Y13267287D1*
X12910060Y13273247D1*
X12916757Y13279947D1*
X12922720Y13287307D1*
X12927880Y13295250D1*
X12932183Y13303690D1*
X12935580Y13312533D1*
X12938033Y13321683D1*
X12939517Y13331040D1*
X12940000Y13340500D1*
Y14375000D1*
X12740000D1*
Y13450000D1*
X4689500D1*
X4680040Y13449503D1*
X4670683Y13448023D1*
X4661533Y13445570D1*
X4652690Y13442177D1*
X4644250Y13437877D1*
X4636307Y13432717D1*
X4628943Y13426757D1*
X4622247Y13420057D1*
X4616283Y13412693D1*
X4611127Y13404750D1*
X4606827Y13396310D1*
X4603430Y13387467D1*
X4600980Y13378317D1*
X4599500Y13368960D1*
X4599000Y13359500D1*
Y12575000D1*
X3158000D1*
X3148540Y12574503D1*
X3139183Y12573023D1*
X3130033Y12570570D1*
X3121190Y12567177D1*
X3112750Y12562877D1*
X3104807Y12557717D1*
X3097443Y12551753D1*
X3090747Y12545057D1*
X3084783Y12537693D1*
X3079627Y12529750D1*
X3075327Y12521310D1*
X3071930Y12512467D1*
X3069480Y12503317D1*
X3067997Y12493960D1*
X3067500Y12484500D1*
Y11876000D1*
X2864500D1*
X2855040Y11875503D1*
X2845683Y11874023D1*
X2836533Y11871570D1*
X2827690Y11868177D1*
X2819250Y11863877D1*
X2811307Y11858717D1*
X2803943Y11852753D1*
X2797247Y11846057D1*
X2791283Y11838693D1*
X2786127Y11830750D1*
X2781827Y11822310D1*
X2778430Y11813467D1*
X2775980Y11804317D1*
X2774497Y11794960D1*
X2774000Y11785500D1*
Y10339467D1*
X2774500Y10330010D1*
X2775983Y10320657D1*
X2778437Y10311510D1*
X2781833Y10302670D1*
X2786137Y10294230D1*
X2791297Y10286290D1*
X2797257Y10278930D1*
X2803953Y10272237D1*
X2811317Y10266277D1*
X2819260Y10261120D1*
X2827697Y10256820D1*
X2836540Y10253430D1*
X2845687Y10250977D1*
X2855043Y10249497D1*
X2864500Y10249000D1*
X3067500D1*
Y9976000D1*
X2864500D1*
X2855040Y9975503D1*
X2845683Y9974023D1*
X2836533Y9971570D1*
X2827690Y9968177D1*
X2819250Y9963877D1*
X2811307Y9958717D1*
X2803943Y9952753D1*
X2797247Y9946057D1*
X2791283Y9938693D1*
X2786127Y9930750D1*
X2781827Y9922310D1*
X2778430Y9913467D1*
X2775980Y9904317D1*
X2774497Y9894960D1*
X2774000Y9885500D1*
Y8439500D1*
X2774497Y8430040D1*
X2775977Y8420683D1*
X2778430Y8411533D1*
X2781823Y8402690D1*
X2786123Y8394250D1*
X2791283Y8386307D1*
X2797247Y8378943D1*
X2803943Y8372247D1*
X2811307Y8366283D1*
X2819250Y8361127D1*
X2827690Y8356827D1*
X2836533Y8353430D1*
X2845683Y8350980D1*
X2855040Y8349497D1*
X2864500Y8349000D1*
X3067500D1*
Y8076000D1*
X2864500D1*
X2855037Y8075503D1*
X2845680Y8074023D1*
X2836527Y8071570D1*
X2827683Y8068173D1*
X2819240Y8063870D1*
X2811297Y8058710D1*
X2803933Y8052743D1*
X2797233Y8046043D1*
X2791273Y8038680D1*
X2786113Y8030730D1*
X2781817Y8022287D1*
X2778423Y8013440D1*
X2775973Y8004290D1*
X2774493Y7994930D1*
X2774000Y7985467D1*
Y6539467D1*
X2774500Y6530010D1*
X2775983Y6520657D1*
X2778437Y6511510D1*
X2781833Y6502670D1*
X2786137Y6494230D1*
X2791297Y6486290D1*
X2797257Y6478930D1*
X2803953Y6472237D1*
X2811317Y6466277D1*
X2819260Y6461120D1*
X2827697Y6456820D1*
X2836540Y6453430D1*
X2845690Y6450977D1*
X2855043Y6449497D1*
X2864500Y6449000D1*
X3067500D1*
Y6176000D1*
X2864500D1*
X2855040Y6175503D1*
X2845683Y6174023D1*
X2836533Y6171570D1*
X2827690Y6168177D1*
X2819250Y6163877D1*
X2811307Y6158717D1*
X2803943Y6152757D1*
X2797247Y6146057D1*
X2791283Y6138693D1*
X2786127Y6130750D1*
X2781827Y6122310D1*
X2778430Y6113467D1*
X2775980Y6104317D1*
X2774497Y6094960D1*
X2774000Y6085500D1*
Y4639467D1*
X2774500Y4630010D1*
X2775983Y4620657D1*
X2778437Y4611510D1*
X2781833Y4602670D1*
X2786137Y4594230D1*
X2791297Y4586290D1*
X2797257Y4578930D1*
X2803953Y4572237D1*
X2811317Y4566277D1*
X2819260Y4561120D1*
X2827697Y4556820D1*
X2836540Y4553430D1*
X2845687Y4550977D1*
X2855043Y4549497D1*
X2864500Y4549000D1*
X3067500D1*
Y3940500D1*
X3067997Y3931040D1*
X3069477Y3921683D1*
X3071930Y3912533D1*
X3075323Y3903690D1*
X3079623Y3895250D1*
X3084783Y3887307D1*
X3090747Y3879943D1*
X3097443Y3873247D1*
X3104807Y3867283D1*
X3112750Y3862127D1*
X3121190Y3857827D1*
X3130033Y3854430D1*
X3139183Y3851980D1*
X3148540Y3850497D1*
X3158000Y3850000D1*
X5324000D1*
Y2739500D1*
X5324497Y2730040D1*
X5325977Y2720683D1*
X5328430Y2711533D1*
X5331823Y2702690D1*
X5336123Y2694250D1*
X5341283Y2686307D1*
X5347243Y2678943D1*
X5353943Y2672247D1*
X5361303Y2666287D1*
X5369250Y2661127D1*
X5377690Y2656827D1*
X5386533Y2653433D1*
X5395683Y2650980D1*
X5405040Y2649500D1*
X5414500Y2649000D1*
X6310500D1*
X7500000D1*
X8005500D1*
X8014960Y2649497D1*
X8024317Y2650980D1*
X8033467Y2653430D1*
X8042310Y2656827D1*
X8050750Y2661127D1*
X8058697Y2666287D1*
X8066057Y2672247D1*
X8072757Y2678943D1*
X8078717Y2686307D1*
X8083877Y2694250D1*
X8088180Y2702690D1*
X8091573Y2711533D1*
X8094027Y2720683D1*
X8095510Y2730040D1*
X8096000Y2739500D1*
Y3850000D1*
Y3975000D1*
D1*
X8492500D1*
Y4549000D1*
X8289500D1*
X8280040Y4549503D1*
X8270683Y4550983D1*
X8261533Y4553433D1*
X8252690Y4556827D1*
X8244250Y4561127D1*
X8236303Y4566287D1*
X8228943Y4572247D1*
X8222243Y4578943D1*
X8216283Y4586307D1*
X8211123Y4594250D1*
X8206823Y4602690D1*
X8203427Y4611533D1*
X8200977Y4620683D1*
X8199497Y4630040D1*
X8199000Y4639500D1*
Y6085500D1*
X8199503Y6094960D1*
X8200983Y6104317D1*
X8203433Y6113467D1*
X8206827Y6122310D1*
X8211127Y6130750D1*
X8216287Y6138697D1*
X8222247Y6146057D1*
X8228943Y6152757D1*
X8236307Y6158717D1*
X8244250Y6163877D1*
X8252690Y6168177D1*
X8261533Y6171573D1*
X8270683Y6174023D1*
X8280040Y6175503D1*
X8289500Y6176000D1*
X8492500D1*
Y6449000D1*
X8139500D1*
X8130040Y6449503D1*
X8120683Y6450983D1*
X8111533Y6453433D1*
X8102690Y6456827D1*
X8094250Y6461127D1*
X8086303Y6466287D1*
X8078943Y6472247D1*
X8072243Y6478943D1*
X8066283Y6486307D1*
X8061123Y6494250D1*
X8056823Y6502690D1*
X8053430Y6511533D1*
X8050977Y6520683D1*
X8049497Y6530040D1*
X8049000Y6539500D1*
Y7985500D1*
X8049503Y7994960D1*
X8050983Y8004317D1*
X8053433Y8013467D1*
X8056827Y8022310D1*
X8061127Y8030750D1*
X8066287Y8038697D1*
X8072247Y8046057D1*
X8078943Y8052757D1*
X8086307Y8058717D1*
X8094250Y8063877D1*
X8102690Y8068177D1*
X8111533Y8071573D1*
X8120683Y8074023D1*
X8130040Y8075503D1*
X8139500Y8076000D1*
X8599000D1*
Y9885500D1*
X8599503Y9894960D1*
X8600983Y9904317D1*
X8603433Y9913467D1*
X8606827Y9922310D1*
X8611127Y9930750D1*
X8616287Y9938697D1*
X8622247Y9946057D1*
X8628943Y9952757D1*
X8636307Y9958717D1*
X8644250Y9963877D1*
X8652690Y9968177D1*
X8661533Y9971573D1*
X8670683Y9974023D1*
X8680040Y9975503D1*
X8689500Y9976000D1*
X8892500D1*
Y10249000D1*
X8564500D1*
X8555040Y10249503D1*
X8545683Y10250983D1*
X8536533Y10253433D1*
X8527690Y10256827D1*
X8519250Y10261127D1*
X8511303Y10266287D1*
X8503943Y10272247D1*
X8497243Y10278943D1*
X8491283Y10286307D1*
X8486123Y10294250D1*
X8481823Y10302690D1*
X8478427Y10311533D1*
X8475977Y10320683D1*
X8474497Y10330040D1*
X8474000Y10339500D1*
Y11785500D1*
X8474503Y11794960D1*
X8475983Y11804317D1*
X8478433Y11813467D1*
X8481827Y11822310D1*
X8486127Y11830750D1*
X8491287Y11838697D1*
X8497247Y11846057D1*
X8503943Y11852757D1*
X8511307Y11858717D1*
X8519250Y11863877D1*
X8527690Y11868177D1*
X8536533Y11871573D1*
X8545683Y11874023D1*
X8555040Y11875503D1*
X8564500Y11876000D1*
X8767500D1*
Y12635000D1*
X7357500D1*
Y11876000D1*
X7560500D1*
X7569960Y11875510D1*
X7579317Y11874027D1*
X7588467Y11871573D1*
X7597310Y11868180D1*
X7605750Y11863877D1*
X7613693Y11858717D1*
X7621057Y11852757D1*
X7627753Y11846057D1*
X7633713Y11838697D1*
X7638873Y11830750D1*
X7643173Y11822310D1*
X7646570Y11813467D1*
X7649020Y11804317D1*
X7650503Y11794960D1*
X7651000Y11785500D1*
Y10339500D1*
X7650510Y10330040D1*
X7649027Y10320683D1*
X7646573Y10311533D1*
X7643180Y10302690D1*
X7638877Y10294250D1*
X7633717Y10286307D1*
X7627757Y10278943D1*
X7621057Y10272247D1*
X7613697Y10266287D1*
X7605750Y10261127D1*
X7597310Y10256827D1*
X7588467Y10253430D1*
X7579317Y10250980D1*
X7569960Y10249497D1*
X7560500Y10249000D1*
X7482500D1*
Y9976000D1*
X7685500D1*
X7694960Y9975510D1*
X7704317Y9974027D1*
X7713467Y9971573D1*
X7722310Y9968180D1*
X7730750Y9963877D1*
X7738693Y9958717D1*
X7746057Y9952757D1*
X7752753Y9946057D1*
X7758713Y9938697D1*
X7763873Y9930750D1*
X7768173Y9922310D1*
X7771570Y9913467D1*
X7774020Y9904317D1*
X7775503Y9894960D1*
X7776000Y9885500D1*
Y8439500D1*
X7775510Y8430040D1*
X7774027Y8420683D1*
X7771573Y8411533D1*
X7768180Y8402690D1*
X7763877Y8394250D1*
X7758717Y8386307D1*
X7752757Y8378943D1*
X7746057Y8372247D1*
X7738697Y8366287D1*
X7730750Y8361127D1*
X7722310Y8356827D1*
X7713467Y8353430D1*
X7704317Y8350980D1*
X7694960Y8349497D1*
X7685500Y8349000D1*
X7337197D1*
X7076000Y8087803D1*
Y6795483D1*
X7795000Y6076483D1*
X8005500Y5865983D1*
Y4276000D1*
X8014960Y4275510D1*
X8024317Y4274027D1*
X8033467Y4271573D1*
X8042310Y4268180D1*
X8050750Y4263877D1*
X8058693Y4258717D1*
X8066057Y4252757D1*
X8072753Y4246057D1*
X8078713Y4238697D1*
X8083873Y4230750D1*
X8088173Y4222310D1*
X8091570Y4213467D1*
X8094020Y4204317D1*
X8095503Y4194960D1*
X8096000Y4185500D1*
Y3975000D1*
Y3850000D1*
X24057500D1*
Y2739500D1*
X24057993Y2730040D1*
X24059473Y2720683D1*
X24061927Y2711533D1*
X24065320Y2702690D1*
X24069620Y2694250D1*
X24074780Y2686307D1*
X24080743Y2678947D1*
X24087440Y2672250D1*
X24094803Y2666290D1*
X24102750Y2661133D1*
X24111190Y2656833D1*
X24120033Y2653443D1*
X24129183Y2650993D1*
X24138540Y2649517D1*
X24148000Y2649000D1*
X29460500D1*
X29469960Y2649497D1*
X29479317Y2650980D1*
X29488467Y2653433D1*
X29497310Y2656830D1*
X29505753Y2661130D1*
X29513697Y2666290D1*
X29521060Y2672250D1*
X29527760Y2678947D1*
X29533723Y2686310D1*
X29538883Y2694253D1*
X29543187Y2702690D1*
X29546587Y2711533D1*
X29549043Y2720683D1*
X29550527Y2730040D1*
X29551000Y2739500D1*
Y3850000D1*
X35984570D1*
X35994027Y3850507D1*
X36003377Y3851993D1*
X36012520Y3854453D1*
X36021360Y3857850D1*
X36029793Y3862153D1*
X36037733Y3867317D1*
X36045090Y3873277D1*
X36051783Y3879973D1*
X36057740Y3887333D1*
X36062900Y3895273D1*
X36067200Y3903710D1*
X36070593Y3912547D1*
X36073047Y3921693D1*
X36074533Y3931043D1*
X36075000Y3940500D1*
Y14184500D1*
X36074503Y14193960D1*
X36073017Y14203317D1*
X36070567Y14212467D1*
X36067170Y14221310D1*
X36062870Y14229753D1*
X36057710Y14237697D1*
X36051750Y14245060D1*
X36045053Y14251760D1*
X36037690Y14257723D1*
X36029747Y14262887D1*
X36021307Y14267190D1*
X36012467Y14270590D1*
X36003317Y14273047D1*
X35993960Y14274533D1*
X35984500Y14275000D1*
X22840000D1*
Y14375000D1*
X22640000D1*
Y13750500D1*
Y13190337D1*
X22640507Y13180900D1*
X22642000Y13171567D1*
X22644457Y13162440D1*
X22647850Y13153620D1*
X22652147Y13145203D1*
X22657300Y13137280D1*
X22663250Y13129937D1*
X22669933Y13123257D1*
X22677277Y13117307D1*
X22685200Y13112157D1*
X22693620Y13107863D1*
X22702440Y13104470D1*
X22711567Y13102017D1*
X22720900Y13100530D1*
X22730337Y13100000D1*
X32207500D1*
Y12305500D1*
X32207993Y12296040D1*
X32209473Y12286683D1*
X32211923Y12277537D1*
X32215320Y12268693D1*
X32219620Y12260253D1*
X32224780Y12252307D1*
X32230740Y12244947D1*
X32237440Y12238250D1*
X32244803Y12232290D1*
X32252747Y12227133D1*
X32261190Y12222837D1*
X32270033Y12219447D1*
X32279183Y12217000D1*
X32288540Y12215523D1*
X32298000Y12215000D1*
X33982500D1*
Y11841500D1*
X33982993Y11832040D1*
X33984473Y11822683D1*
X33986923Y11813537D1*
X33990320Y11804693D1*
X33994620Y11796253D1*
X33999777Y11788307D1*
X34005740Y11780947D1*
X34012440Y11774250D1*
X34019803Y11768293D1*
X34027747Y11763137D1*
X34036190Y11758837D1*
X34045033Y11755447D1*
X34054183Y11753000D1*
X34063540Y11751523D1*
X34073000Y11751000D1*
X34276000D1*
Y10374000D1*
X34073000D1*
X34063527Y10373507D1*
X34054160Y10372020D1*
X34044997Y10369563D1*
X34036143Y10366160D1*
X34027697Y10361850D1*
X34019747Y10356677D1*
X34012380Y10350700D1*
X34005680Y10343983D1*
X33999723Y10336603D1*
X33994570Y10328640D1*
X33990280Y10320180D1*
X33986900Y10311317D1*
X33984467Y10302150D1*
X33983003Y10292780D1*
X33982500Y10283303D1*
Y9941500D1*
X33982993Y9932040D1*
X33984473Y9922683D1*
X33986923Y9913537D1*
X33990320Y9904693D1*
X33994620Y9896253D1*
X33999777Y9888310D1*
X34005740Y9880947D1*
X34012440Y9874250D1*
X34019803Y9868293D1*
X34027747Y9863137D1*
X34036190Y9858837D1*
X34045033Y9855447D1*
X34054183Y9853000D1*
X34063540Y9851523D1*
X34073000Y9851000D1*
X34276000D1*
Y8474000D1*
X34073000D1*
X34063527Y8473507D1*
X34054160Y8472020D1*
X34044997Y8469563D1*
X34036143Y8466160D1*
X34027697Y8461850D1*
X34019747Y8456677D1*
X34012380Y8450700D1*
X34005683Y8443983D1*
X33999723Y8436603D1*
X33994570Y8428640D1*
X33990280Y8420180D1*
X33986900Y8411317D1*
X33984467Y8402150D1*
X33983003Y8392780D1*
X33982500Y8383303D1*
Y8041500D1*
X33982993Y8032040D1*
X33984473Y8022683D1*
X33986923Y8013537D1*
X33990320Y8004693D1*
X33994620Y7996253D1*
X33999777Y7988310D1*
X34005740Y7980947D1*
X34012440Y7974250D1*
X34019803Y7968293D1*
X34027747Y7963137D1*
X34036190Y7958837D1*
X34045033Y7955447D1*
X34054183Y7953000D1*
X34063540Y7951523D1*
X34073000Y7951000D1*
X34276000D1*
Y6574000D1*
X34073000D1*
X34063537Y6573507D1*
X34054177Y6572023D1*
X34045023Y6569570D1*
X34036177Y6566173D1*
X34027733Y6561870D1*
X34019787Y6556707D1*
X34012423Y6550740D1*
X34005727Y6544033D1*
X33999770Y6536667D1*
X33994613Y6528713D1*
X33990320Y6520267D1*
X33986930Y6511417D1*
X33984487Y6502260D1*
X33983017Y6492897D1*
X33982500Y6483433D1*
Y6141433D1*
X33983000Y6131980D1*
X33984487Y6122627D1*
X33986940Y6113483D1*
X33990337Y6104647D1*
X33994640Y6096213D1*
X33999803Y6088277D1*
X34005763Y6080920D1*
X34012463Y6074230D1*
X34019823Y6068277D1*
X34027767Y6063123D1*
X34036207Y6058830D1*
X34045047Y6055443D1*
X34054193Y6052997D1*
X34063543Y6051523D1*
X34073000Y6051000D1*
X34276000D1*
X34401000D1*
D1*
Y4639500D1*
X34400533Y4630040D1*
X34399043Y4620683D1*
X34396590Y4611533D1*
X34393190Y4602693D1*
X34388887Y4594253D1*
X34383723Y4586310D1*
X34377760Y4578947D1*
X34371060Y4572250D1*
X34363697Y4566290D1*
X34355753Y4561130D1*
X34347310Y4556830D1*
X34338467Y4553433D1*
X34329317Y4550980D1*
X34319960Y4549497D1*
X34310500Y4549000D1*
X34107500D1*
Y3975000D1*
X35557170D1*
Y13660000D1*
X32332500D1*
X32207500D1*
X22840000D1*
Y13225000D1*
X32242000D1*
X32251460Y13224530D1*
X32260817Y13223043D1*
X32269967Y13220587D1*
X32278810Y13217190D1*
X32287247Y13212887D1*
X32295190Y13207723D1*
X32302553Y13201760D1*
X32309250Y13195060D1*
X32315210Y13187697D1*
X32320370Y13179753D1*
X32324670Y13171310D1*
X32328067Y13162467D1*
X32330520Y13153317D1*
X32332003Y13143960D1*
X32332500Y13134500D1*
Y12340000D1*
X34017000D1*
X34026460Y12339533D1*
X34035817Y12338043D1*
X34044967Y12335590D1*
X34053810Y12332190D1*
X34062247Y12327887D1*
X34070190Y12322723D1*
X34077553Y12316760D1*
X34084250Y12310060D1*
X34090210Y12302697D1*
X34095370Y12294753D1*
X34099670Y12286310D1*
X34103067Y12277467D1*
X34105520Y12268317D1*
X34107003Y12258960D1*
X34107500Y12249500D1*
Y11876000D1*
X34310500D1*
X34319960Y11875533D1*
X34329317Y11874043D1*
X34338467Y11871590D1*
X34347310Y11868190D1*
X34355747Y11863887D1*
X34363690Y11858723D1*
X34371053Y11852760D1*
X34377750Y11846060D1*
X34383710Y11838697D1*
X34388870Y11830753D1*
X34393170Y11822310D1*
X34396567Y11813467D1*
X34399020Y11804317D1*
X34400503Y11794960D1*
X34401000Y11785500D1*
Y10339500D1*
X34400533Y10330040D1*
X34399047Y10320683D1*
X34396590Y10311533D1*
X34393190Y10302690D1*
X34388887Y10294253D1*
X34383723Y10286310D1*
X34377760Y10278947D1*
X34371060Y10272250D1*
X34363697Y10266290D1*
X34355753Y10261130D1*
X34347310Y10256830D1*
X34338467Y10253433D1*
X34329317Y10250980D1*
X34319960Y10249497D1*
X34310500Y10249000D1*
X34107500D1*
Y9976000D1*
X34310500D1*
X34319970Y9975530D1*
X34329333Y9974040D1*
X34338490Y9971580D1*
X34347340Y9968177D1*
X34355783Y9963863D1*
X34363733Y9958693D1*
X34371097Y9952720D1*
X34377797Y9946010D1*
X34383757Y9938633D1*
X34388913Y9930677D1*
X34393210Y9922223D1*
X34396597Y9913370D1*
X34399043Y9904207D1*
X34400513Y9894840D1*
X34401000Y9885370D1*
Y9851000D1*
Y8439500D1*
X34400507Y8430040D1*
X34399027Y8420683D1*
X34396577Y8411537D1*
X34393183Y8402693D1*
X34388880Y8394253D1*
X34383723Y8386310D1*
X34377760Y8378947D1*
X34371060Y8372250D1*
X34363697Y8366293D1*
X34355753Y8361137D1*
X34347310Y8356837D1*
X34338467Y8353447D1*
X34329317Y8351000D1*
X34319960Y8349523D1*
X34310500Y8349000D1*
X34107500D1*
Y8076000D1*
X34310500D1*
X34319967Y8075507D1*
X34329333Y8074023D1*
X34338490Y8071567D1*
X34347340Y8068167D1*
X34355787Y8063860D1*
X34363733Y8058690D1*
X34371097Y8052720D1*
X34377797Y8046010D1*
X34383753Y8038637D1*
X34388907Y8030677D1*
X34393200Y8022223D1*
X34396583Y8013367D1*
X34399023Y8004207D1*
X34400490Y7994840D1*
X34401000Y7985370D1*
Y7951000D1*
Y6539500D1*
X34400507Y6530040D1*
X34399027Y6520683D1*
X34396577Y6511537D1*
X34393183Y6502693D1*
X34388880Y6494253D1*
X34383723Y6486310D1*
X34377760Y6478947D1*
X34371060Y6472250D1*
X34363697Y6466293D1*
X34355753Y6461137D1*
X34347310Y6456837D1*
X34338467Y6453447D1*
X34329317Y6451000D1*
X34319960Y6449523D1*
X34310500Y6449000D1*
X34107500D1*
Y6176000D1*
X34310500D1*
X34319967Y6175507D1*
X34329333Y6174023D1*
X34338490Y6171567D1*
X34347340Y6168167D1*
X34355787Y6163860D1*
X34363733Y6158690D1*
X34371097Y6152720D1*
X34377793Y6146010D1*
X34383753Y6138637D1*
X34388907Y6130677D1*
X34393200Y6122223D1*
X34396583Y6113367D1*
X34399023Y6104207D1*
X34400490Y6094840D1*
X34401000Y6085370D1*
Y6051000D1*
X34276000D1*
Y4674000D1*
X34073000D1*
X34063540Y4673507D1*
X34054183Y4672027D1*
X34045037Y4669577D1*
X34036193Y4666180D1*
X34027753Y4661880D1*
X34019810Y4656723D1*
X34012447Y4650760D1*
X34005750Y4644060D1*
X33999793Y4636697D1*
X33994637Y4628753D1*
X33990337Y4620310D1*
X33986947Y4611467D1*
X33984500Y4602317D1*
X33983023Y4592960D1*
X33982500Y4583500D1*
Y3975000D1*
X33742500D1*
Y4583500D1*
X33742003Y4592960D1*
X33740520Y4602317D1*
X33738067Y4611467D1*
X33734670Y4620310D1*
X33730370Y4628753D1*
X33725210Y4636697D1*
X33719250Y4644060D1*
X33712553Y4650760D1*
X33705190Y4656723D1*
X33697247Y4661887D1*
X33688807Y4666190D1*
X33679967Y4669587D1*
X33670817Y4672043D1*
X33661460Y4673530D1*
X33652000Y4674000D1*
X33449000D1*
Y6051000D1*
X33652000D1*
X33661460Y6051497D1*
X33670817Y6052980D1*
X33679967Y6055433D1*
X33688810Y6058830D1*
X33697253Y6063130D1*
X33705197Y6068290D1*
X33712560Y6074250D1*
X33719260Y6080947D1*
X33725223Y6088310D1*
X33730387Y6096253D1*
X33734690Y6104690D1*
X33738087Y6113533D1*
X33740543Y6122683D1*
X33742030Y6132040D1*
X33742500Y6141500D1*
Y6483500D1*
X33742003Y6492960D1*
X33740520Y6502317D1*
X33738067Y6511467D1*
X33734670Y6520310D1*
X33730370Y6528753D1*
X33725210Y6536697D1*
X33719250Y6544060D1*
X33712553Y6550760D1*
X33705190Y6556723D1*
X33697247Y6561887D1*
X33688810Y6566190D1*
X33679967Y6569587D1*
X33670817Y6572043D1*
X33661460Y6573530D1*
X33652000Y6574000D1*
X33449000D1*
Y7951000D1*
X33652000D1*
X33661463Y7951500D1*
X33670827Y7952983D1*
X33679980Y7955437D1*
X33688827Y7958837D1*
X33697270Y7963140D1*
X33705217Y7968303D1*
X33712583Y7974270D1*
X33719283Y7980973D1*
X33725247Y7988340D1*
X33730407Y7996287D1*
X33734710Y8004733D1*
X33738103Y8013583D1*
X33740557Y8022737D1*
X33742037Y8032097D1*
X33742500Y8041563D1*
Y8383500D1*
X33742003Y8392960D1*
X33740520Y8402317D1*
X33738067Y8411467D1*
X33734670Y8420310D1*
X33730370Y8428753D1*
X33725210Y8436697D1*
X33719250Y8444060D1*
X33712553Y8450760D1*
X33705190Y8456723D1*
X33697247Y8461887D1*
X33688810Y8466190D1*
X33679967Y8469587D1*
X33670817Y8472043D1*
X33661460Y8473530D1*
X33652000Y8474000D1*
X33449000D1*
Y9851000D1*
X33652000D1*
X33661463Y9851500D1*
X33670827Y9852983D1*
X33679980Y9855437D1*
X33688827Y9858837D1*
X33697270Y9863140D1*
X33705217Y9868303D1*
X33712583Y9874270D1*
X33719283Y9880973D1*
X33725247Y9888340D1*
X33730407Y9896287D1*
X33734707Y9904733D1*
X33738103Y9913583D1*
X33740557Y9922737D1*
X33742037Y9932097D1*
X33742500Y9941563D1*
Y10283500D1*
X33742003Y10292960D1*
X33740520Y10302317D1*
X33738067Y10311467D1*
X33734670Y10320310D1*
X33730370Y10328753D1*
X33725210Y10336697D1*
X33719250Y10344060D1*
X33712553Y10350760D1*
X33705190Y10356723D1*
X33697247Y10361887D1*
X33688810Y10366190D1*
X33679967Y10369587D1*
X33670817Y10372043D1*
X33661460Y10373530D1*
X33652000Y10374000D1*
X33449000D1*
Y11751000D1*
X33652000D1*
X33661460Y11751497D1*
X33670817Y11752980D1*
X33679967Y11755433D1*
X33688810Y11758830D1*
X33697253Y11763130D1*
X33705197Y11768290D1*
X33712560Y11774250D1*
X33719260Y11780947D1*
X33725223Y11788310D1*
X33730387Y11796253D1*
X33734690Y11804690D1*
X33738090Y11813533D1*
X33740543Y11822683D1*
X33742030Y11832040D1*
X33742500Y11841500D1*
Y11884500D1*
X33742003Y11893960D1*
X33740520Y11903317D1*
X33738067Y11912467D1*
X33734670Y11921310D1*
X33730370Y11929753D1*
X33725210Y11937697D1*
X33719250Y11945060D1*
X33712553Y11951760D1*
X33705190Y11957723D1*
X33697247Y11962887D1*
X33688810Y11967190D1*
X33679967Y11970587D1*
X33670817Y11973043D1*
X33661460Y11974530D1*
X33652000Y11975000D1*
X32173000D1*
X32163540Y11974507D1*
X32154183Y11973027D1*
X32145037Y11970577D1*
X32136193Y11967180D1*
X32127753Y11962880D1*
X32119807Y11957720D1*
X32112447Y11951760D1*
X32105750Y11945060D1*
X32099790Y11937697D1*
X32094633Y11929753D1*
X32090337Y11921310D1*
X32086947Y11912467D1*
X32084500Y11903317D1*
X32083023Y11893960D1*
X32082500Y11884500D1*
Y11841500D1*
X32082993Y11832040D1*
X32084473Y11822683D1*
X32086923Y11813533D1*
X32090320Y11804693D1*
X32094620Y11796253D1*
X32099780Y11788307D1*
X32105740Y11780947D1*
X32112440Y11774250D1*
X32119803Y11768290D1*
X32127747Y11763133D1*
X32136190Y11758837D1*
X32145033Y11755447D1*
X32154183Y11753000D1*
X32163540Y11751523D1*
X32173000Y11751000D1*
X32376000D1*
Y10374000D1*
X32173000D1*
X32163540Y10373507D1*
X32154183Y10372027D1*
X32145037Y10369577D1*
X32136193Y10366180D1*
X32127753Y10361880D1*
X32119807Y10356720D1*
X32112447Y10350760D1*
X32105750Y10344060D1*
X32099790Y10336697D1*
X32094633Y10328753D1*
X32090337Y10320310D1*
X32086947Y10311467D1*
X32084500Y10302317D1*
X32083023Y10292960D1*
X32082500Y10283500D1*
Y9941500D1*
X32082993Y9932040D1*
X32084473Y9922683D1*
X32086923Y9913533D1*
X32090320Y9904693D1*
X32094620Y9896253D1*
X32099780Y9888307D1*
X32105740Y9880947D1*
X32112440Y9874250D1*
X32119803Y9868290D1*
X32127747Y9863133D1*
X32136190Y9858837D1*
X32145033Y9855447D1*
X32154183Y9853000D1*
X32163540Y9851523D1*
X32173000Y9851000D1*
X32376000D1*
Y8474000D1*
X32173000D1*
X32163527Y8473503D1*
X32154160Y8472020D1*
X32144997Y8469563D1*
X32136143Y8466160D1*
X32127697Y8461850D1*
X32119747Y8456677D1*
X32112380Y8450700D1*
X32105680Y8443983D1*
X32099723Y8436603D1*
X32094570Y8428640D1*
X32090280Y8420180D1*
X32086900Y8411317D1*
X32084463Y8402150D1*
X32083003Y8392780D1*
X32082500Y8383303D1*
Y8041477D1*
X32082997Y8032017D1*
X32084480Y8022663D1*
X32086930Y8013517D1*
X32090327Y8004677D1*
X32094627Y7996237D1*
X32099787Y7988297D1*
X32105750Y7980937D1*
X32112447Y7974243D1*
X32119810Y7968287D1*
X32127753Y7963130D1*
X32136197Y7958833D1*
X32145037Y7955443D1*
X32154187Y7952997D1*
X32163543Y7951520D1*
X32173000Y7951000D1*
X32376000D1*
X32501000D1*
D1*
Y6539500D1*
X32500507Y6530040D1*
X32499027Y6520683D1*
X32496577Y6511537D1*
X32493180Y6502693D1*
X32488880Y6494253D1*
X32483723Y6486307D1*
X32477760Y6478947D1*
X32471060Y6472250D1*
X32463697Y6466290D1*
X32455753Y6461133D1*
X32447310Y6456837D1*
X32438467Y6453447D1*
X32429317Y6451000D1*
X32419960Y6449523D1*
X32410500Y6449000D1*
X32207500D1*
Y6176000D1*
X32410500D1*
X32419967Y6175507D1*
X32429333Y6174023D1*
X32438490Y6171567D1*
X32447340Y6168167D1*
X32455787Y6163860D1*
X32463733Y6158690D1*
X32471097Y6152720D1*
X32477797Y6146010D1*
X32483753Y6138637D1*
X32488907Y6130677D1*
X32493200Y6122223D1*
X32496587Y6113367D1*
X32499023Y6104207D1*
X32500490Y6094840D1*
X32501000Y6085370D1*
Y6051000D1*
Y4639500D1*
X32500530Y4630040D1*
X32499043Y4620683D1*
X32496587Y4611533D1*
X32493190Y4602690D1*
X32488887Y4594253D1*
X32483723Y4586310D1*
X32477760Y4578947D1*
X32471060Y4572250D1*
X32463697Y4566290D1*
X32455753Y4561130D1*
X32447310Y4556830D1*
X32438467Y4553433D1*
X32429317Y4550980D1*
X32419960Y4549497D1*
X32410500Y4549000D1*
X32207500D1*
Y3975000D1*
X33617500D1*
Y4549000D1*
X33414500D1*
X33405040Y4549523D1*
X33395683Y4551000D1*
X33386533Y4553447D1*
X33377690Y4556837D1*
X33369247Y4561137D1*
X33361303Y4566293D1*
X33353940Y4572250D1*
X33347240Y4578947D1*
X33341277Y4586307D1*
X33336120Y4594253D1*
X33331820Y4602693D1*
X33328423Y4611537D1*
X33325973Y4620683D1*
X33324493Y4630040D1*
X33324000Y4639500D1*
Y6085500D1*
X33324523Y6094960D1*
X33326000Y6104317D1*
X33328447Y6113467D1*
X33331837Y6122310D1*
X33336137Y6130753D1*
X33341293Y6138697D1*
X33347250Y6146060D1*
X33353947Y6152760D1*
X33361307Y6158723D1*
X33369253Y6163880D1*
X33377693Y6168180D1*
X33386537Y6171577D1*
X33395683Y6174027D1*
X33405040Y6175507D1*
X33414500Y6176000D1*
X33617500D1*
Y6449000D1*
X33414500D1*
X33405040Y6449523D1*
X33395683Y6451000D1*
X33386533Y6453447D1*
X33377690Y6456837D1*
X33369247Y6461137D1*
X33361303Y6466293D1*
X33353940Y6472250D1*
X33347240Y6478947D1*
X33341280Y6486307D1*
X33336120Y6494253D1*
X33331820Y6502693D1*
X33328423Y6511537D1*
X33325973Y6520683D1*
X33324493Y6530040D1*
X33324000Y6539500D1*
Y7985500D1*
X33324523Y7994960D1*
X33326000Y8004317D1*
X33328447Y8013467D1*
X33331837Y8022310D1*
X33336137Y8030753D1*
X33341293Y8038697D1*
X33347250Y8046060D1*
X33353947Y8052760D1*
X33361310Y8058723D1*
X33369253Y8063880D1*
X33377693Y8068180D1*
X33386537Y8071577D1*
X33395683Y8074027D1*
X33405040Y8075507D1*
X33414500Y8076000D1*
X33617500D1*
Y8349000D1*
X33414500D1*
X33405040Y8349523D1*
X33395683Y8351000D1*
X33386533Y8353447D1*
X33377690Y8356837D1*
X33369247Y8361137D1*
X33361303Y8366293D1*
X33353940Y8372250D1*
X33347240Y8378947D1*
X33341280Y8386307D1*
X33336120Y8394253D1*
X33331820Y8402693D1*
X33328423Y8411537D1*
X33325973Y8420683D1*
X33324493Y8430040D1*
X33324000Y8439500D1*
Y9885500D1*
X33324523Y9894960D1*
X33326000Y9904317D1*
X33328447Y9913467D1*
X33331837Y9922310D1*
X33336137Y9930753D1*
X33341293Y9938697D1*
X33347250Y9946060D1*
X33353947Y9952760D1*
X33361310Y9958723D1*
X33369253Y9963880D1*
X33377693Y9968180D1*
X33386537Y9971577D1*
X33395683Y9974027D1*
X33405040Y9975507D1*
X33414500Y9976000D1*
X33617500D1*
Y10249000D1*
X33414500D1*
X33405040Y10249523D1*
X33395683Y10251000D1*
X33386533Y10253447D1*
X33377690Y10256837D1*
X33369247Y10261137D1*
X33361303Y10266293D1*
X33353940Y10272250D1*
X33347240Y10278947D1*
X33341277Y10286307D1*
X33336120Y10294253D1*
X33331820Y10302693D1*
X33328423Y10311537D1*
X33325973Y10320683D1*
X33324493Y10330040D1*
X33324000Y10339500D1*
Y11751000D1*
X32501000D1*
Y10339500D1*
X32500530Y10330040D1*
X32499043Y10320683D1*
X32496587Y10311533D1*
X32493190Y10302690D1*
X32488887Y10294253D1*
X32483723Y10286310D1*
X32477760Y10278947D1*
X32471060Y10272250D1*
X32463697Y10266290D1*
X32455753Y10261130D1*
X32447310Y10256830D1*
X32438467Y10253433D1*
X32429317Y10250980D1*
X32419960Y10249497D1*
X32410500Y10249000D1*
X32207500D1*
Y9976000D1*
X32410500D1*
X32419970Y9975530D1*
X32429333Y9974040D1*
X32438490Y9971580D1*
X32447340Y9968177D1*
X32455787Y9963863D1*
X32463733Y9958693D1*
X32471097Y9952720D1*
X32477797Y9946010D1*
X32483757Y9938633D1*
X32488913Y9930677D1*
X32493210Y9922223D1*
X32496597Y9913370D1*
X32499043Y9904207D1*
X32500513Y9894840D1*
X32501000Y9885370D1*
Y9851000D1*
Y8439500D1*
X32500507Y8430040D1*
X32499027Y8420683D1*
X32496577Y8411537D1*
X32493180Y8402693D1*
X32488880Y8394253D1*
X32483720Y8386307D1*
X32477760Y8378947D1*
X32471060Y8372250D1*
X32463697Y8366290D1*
X32455753Y8361133D1*
X32447310Y8356837D1*
X32438467Y8353447D1*
X32429317Y8351000D1*
X32419960Y8349523D1*
X32410500Y8349000D1*
X32207500D1*
Y8076000D1*
X32410500D1*
X32419967Y8075507D1*
X32429333Y8074023D1*
X32438490Y8071567D1*
X32447340Y8068167D1*
X32455787Y8063860D1*
X32463733Y8058690D1*
X32471097Y8052720D1*
X32477797Y8046010D1*
X32483753Y8038637D1*
X32488907Y8030677D1*
X32493200Y8022223D1*
X32496587Y8013367D1*
X32499023Y8004207D1*
X32500490Y7994840D1*
X32501000Y7985370D1*
Y7951000D1*
X32376000D1*
Y6574000D1*
X32173000D1*
X32163537Y6573507D1*
X32154177Y6572023D1*
X32145023Y6569570D1*
X32136177Y6566173D1*
X32127733Y6561870D1*
X32119787Y6556707D1*
X32112423Y6550740D1*
X32105727Y6544033D1*
X32099767Y6536667D1*
X32094613Y6528713D1*
X32090317Y6520267D1*
X32086930Y6511417D1*
X32084487Y6502260D1*
X32083017Y6492897D1*
X32082500Y6483433D1*
Y6141433D1*
X32083000Y6131980D1*
X32084487Y6122627D1*
X32086940Y6113483D1*
X32090340Y6104647D1*
X32094640Y6096213D1*
X32099803Y6088277D1*
X32105763Y6080920D1*
X32112463Y6074230D1*
X32119823Y6068277D1*
X32127767Y6063123D1*
X32136207Y6058830D1*
X32145047Y6055443D1*
X32154193Y6052997D1*
X32163543Y6051520D1*
X32173000Y6051000D1*
X32376000D1*
Y4674000D1*
X32173000D1*
X32163540Y4673507D1*
X32154183Y4672027D1*
X32145037Y4669577D1*
X32136193Y4666180D1*
X32127753Y4661880D1*
X32119807Y4656720D1*
X32112447Y4650760D1*
X32105750Y4644060D1*
X32099790Y4636697D1*
X32094633Y4628753D1*
X32090337Y4620310D1*
X32086947Y4611467D1*
X32084500Y4602317D1*
X32083023Y4592960D1*
X32082500Y4583500D1*
Y3975000D1*
X31842500D1*
Y4583500D1*
X31842003Y4592960D1*
X31840520Y4602317D1*
X31838067Y4611467D1*
X31834670Y4620310D1*
X31830370Y4628753D1*
X31825210Y4636697D1*
X31819250Y4644060D1*
X31812553Y4650760D1*
X31805190Y4656723D1*
X31797247Y4661887D1*
X31788810Y4666190D1*
X31779967Y4669587D1*
X31770817Y4672043D1*
X31761460Y4673530D1*
X31752000Y4674000D1*
X31549000D1*
Y6051000D1*
X31752000D1*
X31761460Y6051497D1*
X31770817Y6052980D1*
X31779967Y6055433D1*
X31788810Y6058830D1*
X31797253Y6063130D1*
X31805197Y6068290D1*
X31812560Y6074250D1*
X31819260Y6080947D1*
X31825223Y6088310D1*
X31830387Y6096253D1*
X31834690Y6104690D1*
X31838087Y6113533D1*
X31840543Y6122683D1*
X31842030Y6132040D1*
X31842500Y6141500D1*
Y6483500D1*
X31842003Y6492960D1*
X31840520Y6502317D1*
X31838067Y6511467D1*
X31834670Y6520310D1*
X31830370Y6528753D1*
X31825210Y6536697D1*
X31819250Y6544060D1*
X31812553Y6550760D1*
X31805190Y6556723D1*
X31797247Y6561887D1*
X31788810Y6566190D1*
X31779967Y6569587D1*
X31770817Y6572043D1*
X31761460Y6573530D1*
X31752000Y6574000D1*
X31549000D1*
Y7951000D1*
X31752000D1*
X31761463Y7951497D1*
X31770827Y7952983D1*
X31779980Y7955437D1*
X31788827Y7958837D1*
X31797270Y7963140D1*
X31805217Y7968303D1*
X31812583Y7974270D1*
X31819283Y7980973D1*
X31825247Y7988340D1*
X31830407Y7996287D1*
X31834707Y8004733D1*
X31838103Y8013583D1*
X31840553Y8022737D1*
X31842037Y8032097D1*
X31842500Y8041563D1*
Y8383500D1*
X31842003Y8392960D1*
X31840520Y8402317D1*
X31838067Y8411467D1*
X31834670Y8420310D1*
X31830370Y8428753D1*
X31825210Y8436697D1*
X31819250Y8444060D1*
X31812553Y8450760D1*
X31805190Y8456723D1*
X31797247Y8461887D1*
X31788810Y8466190D1*
X31779967Y8469587D1*
X31770817Y8472043D1*
X31761460Y8473530D1*
X31752000Y8474000D1*
X31549000D1*
Y9851000D1*
X31752000D1*
X31761453Y9851497D1*
X31770803Y9852980D1*
X31779950Y9855427D1*
X31788787Y9858820D1*
X31797223Y9863113D1*
X31805167Y9868267D1*
X31812527Y9874220D1*
X31819227Y9880910D1*
X31825190Y9888260D1*
X31830353Y9896197D1*
X31834660Y9904627D1*
X31838063Y9913460D1*
X31840527Y9922603D1*
X31842020Y9931950D1*
X31842500Y9941403D1*
Y10283500D1*
X31842003Y10292960D1*
X31840520Y10302317D1*
X31838067Y10311467D1*
X31834670Y10320310D1*
X31830370Y10328753D1*
X31825210Y10336697D1*
X31819250Y10344060D1*
X31812553Y10350760D1*
X31805190Y10356723D1*
X31797247Y10361887D1*
X31788810Y10366190D1*
X31779967Y10369587D1*
X31770817Y10372043D1*
X31761460Y10373530D1*
X31752000Y10374000D1*
X31549000D1*
Y11751000D1*
X31752000D1*
X31761460Y11751497D1*
X31770817Y11752980D1*
X31779967Y11755433D1*
X31788810Y11758830D1*
X31797253Y11763130D1*
X31805197Y11768290D1*
X31812560Y11774250D1*
X31819260Y11780947D1*
X31825223Y11788310D1*
X31830387Y11796253D1*
X31834690Y11804690D1*
X31838087Y11813533D1*
X31840543Y11822683D1*
X31842030Y11832040D1*
X31842500Y11841500D1*
Y12644500D1*
X31842003Y12653960D1*
X31840520Y12663317D1*
X31838067Y12672467D1*
X31834670Y12681310D1*
X31830370Y12689753D1*
X31825210Y12697697D1*
X31819250Y12705060D1*
X31812553Y12711760D1*
X31805190Y12717723D1*
X31797247Y12722887D1*
X31788810Y12727190D1*
X31779967Y12730587D1*
X31770817Y12733043D1*
X31761460Y12734530D1*
X31752000Y12735000D1*
X30123000D1*
X30113540Y12734507D1*
X30104183Y12733027D1*
X30095037Y12730577D1*
X30086193Y12727180D1*
X30077753Y12722880D1*
X30069807Y12717720D1*
X30062447Y12711760D1*
X30055750Y12705060D1*
X30049790Y12697697D1*
X30044633Y12689753D1*
X30040337Y12681310D1*
X30036947Y12672467D1*
X30034497Y12663317D1*
X30033020Y12653960D1*
X30032500Y12644500D1*
Y11841500D1*
X30032993Y11832040D1*
X30034473Y11822683D1*
X30036923Y11813533D1*
X30040320Y11804690D1*
X30044620Y11796253D1*
X30049780Y11788307D1*
X30055740Y11780947D1*
X30062440Y11774250D1*
X30069803Y11768290D1*
X30077747Y11763133D1*
X30086190Y11758837D1*
X30095033Y11755447D1*
X30104183Y11752997D1*
X30113540Y11751520D1*
X30123000Y11751000D1*
X30326000D1*
Y10374000D1*
X29829500D1*
X29820040Y10373507D1*
X29810683Y10372027D1*
X29801533Y10369577D1*
X29792693Y10366180D1*
X29784253Y10361880D1*
X29776307Y10356720D1*
X29768947Y10350760D1*
X29762250Y10344060D1*
X29756290Y10336697D1*
X29751133Y10328753D1*
X29746837Y10320310D1*
X29743447Y10311467D1*
X29740997Y10302317D1*
X29739520Y10292960D1*
X29739000Y10283500D1*
Y8041500D1*
X29739493Y8032040D1*
X29740973Y8022683D1*
X29743423Y8013533D1*
X29746820Y8004690D1*
X29751120Y7996253D1*
X29756280Y7988307D1*
X29762240Y7980947D1*
X29768940Y7974250D1*
X29776303Y7968290D1*
X29784247Y7963133D1*
X29792690Y7958837D1*
X29801533Y7955447D1*
X29810683Y7952997D1*
X29820040Y7951520D1*
X29829500Y7951000D1*
X29901000D1*
Y6574000D1*
X29404500D1*
X29395040Y6573507D1*
X29385683Y6572027D1*
X29376537Y6569577D1*
X29367693Y6566180D1*
X29359253Y6561880D1*
X29351307Y6556720D1*
X29343947Y6550760D1*
X29337250Y6544060D1*
X29331290Y6536697D1*
X29326133Y6528753D1*
X29321837Y6520310D1*
X29318443Y6511467D1*
X29315997Y6502317D1*
X29314520Y6492960D1*
X29314000Y6483500D1*
Y6141500D1*
X29314493Y6132040D1*
X29315973Y6122683D1*
X29318423Y6113533D1*
X29321820Y6104690D1*
X29326120Y6096253D1*
X29331280Y6088307D1*
X29337240Y6080947D1*
X29343940Y6074250D1*
X29351303Y6068290D1*
X29359247Y6063133D1*
X29367690Y6058837D1*
X29376533Y6055443D1*
X29385683Y6052997D1*
X29395040Y6051520D1*
X29404500Y6051000D1*
X29426000D1*
X29551000D1*
D1*
Y4639500D1*
X29550507Y4630040D1*
X29549027Y4620683D1*
X29546577Y4611533D1*
X29543180Y4602690D1*
X29538880Y4594253D1*
X29533720Y4586307D1*
X29527760Y4578947D1*
X29521060Y4572250D1*
X29513697Y4566290D1*
X29505753Y4561133D1*
X29497310Y4556837D1*
X29488467Y4553443D1*
X29479317Y4550997D1*
X29469960Y4549520D1*
X29460500Y4549000D1*
X29257500D1*
Y4276000D1*
X29460500D1*
X29469960Y4275507D1*
X29479317Y4274027D1*
X29488467Y4271577D1*
X29497310Y4268180D1*
X29505747Y4263880D1*
X29513693Y4258720D1*
X29521053Y4252760D1*
X29527750Y4246060D1*
X29533710Y4238697D1*
X29538867Y4230753D1*
X29543163Y4222310D1*
X29546557Y4213467D1*
X29549003Y4204317D1*
X29550480Y4194960D1*
X29551000Y4185500D1*
Y3975000D1*
X31717500D1*
Y4549000D1*
X31514500D1*
X31505040Y4549497D1*
X31495683Y4550980D1*
X31486533Y4553433D1*
X31477690Y4556830D1*
X31469247Y4561130D1*
X31461303Y4566290D1*
X31453940Y4572250D1*
X31447240Y4578947D1*
X31441277Y4586310D1*
X31436113Y4594253D1*
X31431810Y4602690D1*
X31428413Y4611533D1*
X31425957Y4620683D1*
X31424470Y4630040D1*
X31424000Y4639500D1*
Y6085500D1*
X31424497Y6094960D1*
X31425980Y6104317D1*
X31428433Y6113467D1*
X31431830Y6122310D1*
X31436130Y6130753D1*
X31441290Y6138697D1*
X31447250Y6146060D1*
X31453947Y6152760D1*
X31461310Y6158723D1*
X31469253Y6163887D1*
X31477690Y6168190D1*
X31486533Y6171587D1*
X31495683Y6174043D1*
X31505040Y6175530D1*
X31514500Y6176000D1*
X31717500D1*
Y6449000D1*
X31514500D1*
X31505040Y6449497D1*
X31495683Y6450980D1*
X31486533Y6453433D1*
X31477690Y6456830D1*
X31469247Y6461130D1*
X31461303Y6466290D1*
X31453940Y6472250D1*
X31447240Y6478947D1*
X31441277Y6486310D1*
X31436117Y6494253D1*
X31431810Y6502690D1*
X31428413Y6511533D1*
X31425957Y6520683D1*
X31424470Y6530040D1*
X31424000Y6539500D1*
Y7985500D1*
X31424497Y7994960D1*
X31425980Y8004317D1*
X31428433Y8013467D1*
X31431830Y8022310D1*
X31436130Y8030753D1*
X31441290Y8038697D1*
X31447250Y8046060D1*
X31453947Y8052760D1*
X31461310Y8058723D1*
X31469253Y8063887D1*
X31477693Y8068190D1*
X31486533Y8071587D1*
X31495683Y8074043D1*
X31505040Y8075530D1*
X31514500Y8076000D1*
X31717500D1*
Y8349000D1*
X31514500D1*
X31505040Y8349520D1*
X31495683Y8351000D1*
X31486533Y8353447D1*
X31477690Y8356837D1*
X31469247Y8361133D1*
X31461303Y8366290D1*
X31453940Y8372250D1*
X31447240Y8378947D1*
X31441280Y8386307D1*
X31436120Y8394253D1*
X31431820Y8402693D1*
X31428423Y8411533D1*
X31425973Y8420683D1*
X31424493Y8430040D1*
X31424000Y8439500D1*
Y9885500D1*
X31424520Y9894960D1*
X31426000Y9904317D1*
X31428447Y9913467D1*
X31431837Y9922310D1*
X31436133Y9930753D1*
X31441290Y9938697D1*
X31447250Y9946060D1*
X31453947Y9952760D1*
X31461307Y9958720D1*
X31469253Y9963880D1*
X31477693Y9968180D1*
X31486537Y9971577D1*
X31495683Y9974027D1*
X31505040Y9975507D1*
X31514500Y9976000D1*
X31717500D1*
Y10249000D1*
X31514500D1*
X31505040Y10249520D1*
X31495683Y10251000D1*
X31486533Y10253447D1*
X31477690Y10256837D1*
X31469247Y10261133D1*
X31461303Y10266290D1*
X31453940Y10272250D1*
X31447240Y10278947D1*
X31441280Y10286307D1*
X31436120Y10294253D1*
X31431820Y10302693D1*
X31428423Y10311533D1*
X31425973Y10320683D1*
X31424493Y10330040D1*
X31424000Y10339500D1*
Y11785500D1*
X31424520Y11794960D1*
X31426000Y11804317D1*
X31428447Y11813467D1*
X31431837Y11822310D1*
X31436133Y11830753D1*
X31441290Y11838697D1*
X31447250Y11846060D1*
X31453947Y11852760D1*
X31461307Y11858720D1*
X31469253Y11863880D1*
X31477693Y11868180D1*
X31486537Y11871577D1*
X31495683Y11874027D1*
X31505040Y11875507D1*
X31514500Y11876000D1*
X31717500D1*
Y12610000D1*
X30157500D1*
Y11876000D1*
X30360500D1*
X30369960Y11875530D1*
X30379317Y11874043D1*
X30388467Y11871587D1*
X30397310Y11868187D1*
X30405747Y11863883D1*
X30413690Y11858723D1*
X30421053Y11852760D1*
X30427750Y11846060D1*
X30433710Y11838697D1*
X30438870Y11830753D1*
X30443170Y11822310D1*
X30446567Y11813467D1*
X30449020Y11804317D1*
X30450503Y11794960D1*
X30451000Y11785500D1*
Y10339500D1*
X30450530Y10330040D1*
X30449043Y10320683D1*
X30446587Y10311533D1*
X30443190Y10302690D1*
X30438883Y10294253D1*
X30433723Y10286310D1*
X30427760Y10278947D1*
X30421060Y10272250D1*
X30413697Y10266290D1*
X30405753Y10261130D1*
X30397310Y10256830D1*
X30388467Y10253433D1*
X30379317Y10250980D1*
X30369960Y10249497D1*
X30360500Y10249000D1*
X29864000D1*
Y8076000D1*
X29935500D1*
X29944960Y8075530D1*
X29954317Y8074043D1*
X29963467Y8071587D1*
X29972310Y8068187D1*
X29980747Y8063883D1*
X29988690Y8058723D1*
X29996053Y8052760D1*
X30002750Y8046060D1*
X30008710Y8038697D1*
X30013870Y8030753D1*
X30018170Y8022310D1*
X30021567Y8013467D1*
X30024020Y8004317D1*
X30025503Y7994960D1*
X30026000Y7985500D1*
Y6539500D1*
X30025530Y6530040D1*
X30024043Y6520683D1*
X30021587Y6511533D1*
X30018187Y6502690D1*
X30013883Y6494253D1*
X30008723Y6486310D1*
X30002760Y6478947D1*
X29996060Y6472250D1*
X29988697Y6466290D1*
X29980753Y6461130D1*
X29972310Y6456830D1*
X29963467Y6453433D1*
X29954317Y6450980D1*
X29944960Y6449497D1*
X29935500Y6449000D1*
X29460500D1*
Y6176000D1*
X29469970Y6175527D1*
X29479333Y6174037D1*
X29488490Y6171577D1*
X29497340Y6168173D1*
X29505787Y6163863D1*
X29513733Y6158693D1*
X29521097Y6152720D1*
X29527797Y6146010D1*
X29533757Y6138633D1*
X29538913Y6130677D1*
X29543210Y6122223D1*
X29546597Y6113370D1*
X29549043Y6104207D1*
X29550513Y6094840D1*
X29551000Y6085370D1*
Y6051000D1*
X29426000D1*
Y4674000D1*
X29223000D1*
X29213540Y4673507D1*
X29204183Y4672027D1*
X29195033Y4669573D1*
X29186190Y4666180D1*
X29177753Y4661880D1*
X29169807Y4656720D1*
X29162447Y4650760D1*
X29155750Y4644060D1*
X29149790Y4636697D1*
X29144633Y4628753D1*
X29140337Y4620310D1*
X29136943Y4611467D1*
X29134497Y4602317D1*
X29133020Y4592960D1*
X29132500Y4583500D1*
Y4241500D1*
X29132993Y4232040D1*
X29134473Y4222683D1*
X29136927Y4213533D1*
X29140320Y4204690D1*
X29144620Y4196253D1*
X29149780Y4188307D1*
X29155740Y4180947D1*
X29162440Y4174250D1*
X29169803Y4168290D1*
X29177747Y4163133D1*
X29186190Y4158837D1*
X29195033Y4155443D1*
X29204183Y4152997D1*
X29213540Y4151520D1*
X29223000Y4151000D1*
X29426000D1*
Y2774000D1*
X28599000D1*
X28474000D1*
D1*
Y4185500D1*
X28474520Y4194960D1*
X28475997Y4204317D1*
X28478443Y4213467D1*
X28481837Y4222310D1*
X28486133Y4230753D1*
X28491290Y4238697D1*
X28497250Y4246060D1*
X28503947Y4252760D1*
X28511307Y4258720D1*
X28519253Y4263880D1*
X28527690Y4268180D1*
X28536533Y4271573D1*
X28545683Y4274027D1*
X28555040Y4275507D1*
X28564500Y4276000D1*
X28767500D1*
Y4549000D1*
X28564500D1*
X28555040Y4549520D1*
X28545683Y4550997D1*
X28536533Y4553443D1*
X28527690Y4556837D1*
X28519247Y4561133D1*
X28511303Y4566290D1*
X28503940Y4572250D1*
X28497240Y4578947D1*
X28491280Y4586307D1*
X28486120Y4594253D1*
X28481820Y4602690D1*
X28478427Y4611533D1*
X28475973Y4620683D1*
X28474493Y4630040D1*
X28474000Y4639500D1*
Y6085500D1*
X28474520Y6094960D1*
X28475997Y6104317D1*
X28478443Y6113467D1*
X28481837Y6122310D1*
X28486133Y6130753D1*
X28491290Y6138697D1*
X28497250Y6146060D1*
X28503947Y6152760D1*
X28511307Y6158720D1*
X28519253Y6163880D1*
X28527690Y6168180D1*
X28536533Y6171573D1*
X28545683Y6174027D1*
X28555040Y6175507D1*
X28564500Y6176000D1*
X28949000D1*
Y7985500D1*
X28949520Y7994960D1*
X28950997Y8004317D1*
X28953443Y8013467D1*
X28956837Y8022310D1*
X28961133Y8030753D1*
X28966290Y8038697D1*
X28972250Y8046060D1*
X28978947Y8052760D1*
X28986307Y8058720D1*
X28994253Y8063880D1*
X29002693Y8068180D1*
X29011537Y8071573D1*
X29020683Y8074027D1*
X29030040Y8075507D1*
X29039500Y8076000D1*
X29374000D1*
Y11785500D1*
X29374520Y11794960D1*
X29375997Y11804317D1*
X29378443Y11813467D1*
X29381837Y11822310D1*
X29386133Y11830753D1*
X29391290Y11838697D1*
X29397250Y11846060D1*
X29403947Y11852760D1*
X29411307Y11858720D1*
X29419253Y11863880D1*
X29427693Y11868180D1*
X29436533Y11871573D1*
X29445683Y11874027D1*
X29455040Y11875507D1*
X29464500Y11876000D1*
X29667500D1*
Y12485000D1*
X28257500D1*
Y11876000D1*
X28460500D1*
X28469960Y11875527D1*
X28479317Y11874040D1*
X28488467Y11871587D1*
X28497310Y11868187D1*
X28505747Y11863883D1*
X28513693Y11858723D1*
X28521053Y11852760D1*
X28527750Y11846060D1*
X28533710Y11838697D1*
X28538870Y11830750D1*
X28543170Y11822310D1*
X28546567Y11813467D1*
X28549020Y11804317D1*
X28550503Y11794960D1*
X28551000Y11785500D1*
Y10339500D1*
X28550527Y10330040D1*
X28549040Y10320683D1*
X28546587Y10311533D1*
X28543187Y10302690D1*
X28538883Y10294253D1*
X28533723Y10286307D1*
X28527760Y10278947D1*
X28521060Y10272250D1*
X28513697Y10266290D1*
X28505753Y10261130D1*
X28497310Y10256830D1*
X28488467Y10253433D1*
X28479317Y10250980D1*
X28469960Y10249497D1*
X28460500Y10249000D1*
X28382500D1*
Y9976000D1*
X28585500D1*
X28594960Y9975527D1*
X28604317Y9974040D1*
X28613467Y9971587D1*
X28622310Y9968187D1*
X28630747Y9963883D1*
X28638693Y9958723D1*
X28646053Y9952760D1*
X28652750Y9946060D1*
X28658710Y9938697D1*
X28663870Y9930753D1*
X28668170Y9922310D1*
X28671567Y9913467D1*
X28674020Y9904317D1*
X28675503Y9894960D1*
X28676000Y9885500D1*
Y8439500D1*
X28675527Y8430040D1*
X28674040Y8420683D1*
X28671587Y8411533D1*
X28668187Y8402690D1*
X28663883Y8394253D1*
X28658723Y8386307D1*
X28652760Y8378947D1*
X28646060Y8372250D1*
X28638697Y8366290D1*
X28630753Y8361130D1*
X28622310Y8356830D1*
X28613467Y8353433D1*
X28604317Y8350980D1*
X28594960Y8349497D1*
X28585500Y8349000D1*
X28126000D1*
Y6539500D1*
X28125527Y6530040D1*
X28124040Y6520683D1*
X28121587Y6511533D1*
X28118187Y6502690D1*
X28113883Y6494253D1*
X28108723Y6486307D1*
X28102760Y6478947D1*
X28096060Y6472250D1*
X28088697Y6466290D1*
X28080753Y6461130D1*
X28072310Y6456830D1*
X28063467Y6453433D1*
X28054317Y6450980D1*
X28044960Y6449497D1*
X28035500Y6449000D1*
X27539000D1*
Y3308000D1*
X27538527Y3298540D1*
X27537040Y3289183D1*
X27534587Y3280033D1*
X27531187Y3271190D1*
X27526883Y3262753D1*
X27521723Y3254807D1*
X27515760Y3247447D1*
X27509060Y3240750D1*
X27501697Y3234790D1*
X27493753Y3229630D1*
X27485310Y3225330D1*
X27476467Y3221933D1*
X27467317Y3219480D1*
X27457960Y3217997D1*
X27448500Y3217500D1*
X26051000D1*
Y2774000D1*
X28474000D1*
X28599000D1*
Y4151000D1*
X28802000D1*
X28811460Y4151497D1*
X28820817Y4152980D1*
X28829967Y4155433D1*
X28838810Y4158830D1*
X28847253Y4163130D1*
X28855197Y4168290D1*
X28862560Y4174250D1*
X28869260Y4180947D1*
X28875223Y4188310D1*
X28880383Y4196253D1*
X28884687Y4204690D1*
X28888087Y4213533D1*
X28890540Y4222683D1*
X28892027Y4232040D1*
X28892500Y4241500D1*
Y4583500D1*
X28892003Y4592960D1*
X28890520Y4602317D1*
X28888067Y4611467D1*
X28884670Y4620310D1*
X28880370Y4628753D1*
X28875210Y4636697D1*
X28869250Y4644060D1*
X28862553Y4650760D1*
X28855190Y4656723D1*
X28847247Y4661883D1*
X28838810Y4666187D1*
X28829967Y4669587D1*
X28820817Y4672040D1*
X28811460Y4673527D1*
X28802000Y4674000D1*
X28599000D1*
Y6051000D1*
X28983500D1*
X28992960Y6051497D1*
X29002317Y6052980D1*
X29011467Y6055433D1*
X29020310Y6058830D1*
X29028753Y6063130D1*
X29036697Y6068290D1*
X29044060Y6074250D1*
X29050760Y6080947D1*
X29056723Y6088310D1*
X29061883Y6096253D1*
X29066187Y6104690D1*
X29069587Y6113533D1*
X29072040Y6122683D1*
X29073527Y6132040D1*
X29074000Y6141500D1*
Y7951000D1*
X29408500D1*
X29417960Y7951497D1*
X29427317Y7952980D1*
X29436467Y7955433D1*
X29445310Y7958830D1*
X29453753Y7963130D1*
X29461697Y7968290D1*
X29469060Y7974250D1*
X29475760Y7980947D1*
X29481723Y7988310D1*
X29486883Y7996253D1*
X29491187Y8004690D1*
X29494587Y8013533D1*
X29497043Y8022683D1*
X29498527Y8032040D1*
X29499000Y8041500D1*
Y11751000D1*
X29702000D1*
X29711460Y11751497D1*
X29720817Y11752980D1*
X29729967Y11755433D1*
X29738810Y11758830D1*
X29747253Y11763130D1*
X29755197Y11768290D1*
X29762560Y11774250D1*
X29769260Y11780947D1*
X29775223Y11788310D1*
X29780383Y11796253D1*
X29784687Y11804690D1*
X29788087Y11813533D1*
X29790543Y11822683D1*
X29792027Y11832040D1*
X29792500Y11841500D1*
Y12519500D1*
X29792003Y12528960D1*
X29790520Y12538317D1*
X29788067Y12547467D1*
X29784670Y12556310D1*
X29780370Y12564753D1*
X29775210Y12572697D1*
X29769250Y12580060D1*
X29762553Y12586760D1*
X29755190Y12592723D1*
X29747247Y12597883D1*
X29738810Y12602187D1*
X29729967Y12605587D1*
X29720817Y12608043D1*
X29711460Y12609527D1*
X29702000Y12610000D1*
X28223000D1*
X28213540Y12609507D1*
X28204183Y12608027D1*
X28195033Y12605573D1*
X28186190Y12602180D1*
X28177753Y12597880D1*
X28169807Y12592720D1*
X28162447Y12586760D1*
X28155750Y12580060D1*
X28149790Y12572697D1*
X28144633Y12564753D1*
X28140337Y12556310D1*
X28136943Y12547467D1*
X28134497Y12538317D1*
X28133020Y12528960D1*
X28132500Y12519500D1*
Y11841500D1*
X28132993Y11832040D1*
X28134473Y11822683D1*
X28136927Y11813533D1*
X28140320Y11804690D1*
X28144620Y11796250D1*
X28149780Y11788307D1*
X28155740Y11780947D1*
X28162440Y11774250D1*
X28169803Y11768290D1*
X28177747Y11763133D1*
X28186190Y11758837D1*
X28195033Y11755443D1*
X28204183Y11752997D1*
X28213540Y11751520D1*
X28223000Y11751000D1*
X28426000D1*
Y10374000D1*
X28348000D1*
X28338537Y10373507D1*
X28329177Y10372023D1*
X28320023Y10369570D1*
X28311177Y10366173D1*
X28302733Y10361870D1*
X28294787Y10356707D1*
X28287423Y10350737D1*
X28280727Y10344033D1*
X28274767Y10336667D1*
X28269610Y10328713D1*
X28265317Y10320267D1*
X28261927Y10311417D1*
X28259483Y10302260D1*
X28258013Y10292897D1*
X28257500Y10283433D1*
Y9941383D1*
X28258007Y9931930D1*
X28259497Y9922587D1*
X28261953Y9913447D1*
X28265353Y9904613D1*
X28269660Y9896183D1*
X28274820Y9888250D1*
X28280783Y9880900D1*
X28287480Y9874213D1*
X28294840Y9868263D1*
X28302783Y9863113D1*
X28311217Y9858823D1*
X28320057Y9855437D1*
X28329200Y9852993D1*
X28338547Y9851517D1*
X28348000Y9851000D1*
X28551000D1*
Y8474000D1*
X28091500D1*
X28082040Y8473507D1*
X28072683Y8472027D1*
X28063533Y8469573D1*
X28054693Y8466180D1*
X28046253Y8461880D1*
X28038307Y8456720D1*
X28030947Y8450760D1*
X28024250Y8444060D1*
X28018290Y8436697D1*
X28013133Y8428753D1*
X28008837Y8420310D1*
X28005443Y8411467D1*
X28002997Y8402317D1*
X28001520Y8392960D1*
X28001000Y8383500D1*
Y6574000D1*
X27504500D1*
X27495040Y6573507D1*
X27485683Y6572027D1*
X27476533Y6569573D1*
X27467690Y6566180D1*
X27459253Y6561880D1*
X27451307Y6556720D1*
X27443947Y6550760D1*
X27437250Y6544060D1*
X27431290Y6536697D1*
X27426133Y6528753D1*
X27421837Y6520310D1*
X27418443Y6511467D1*
X27415997Y6502317D1*
X27414517Y6492960D1*
X27414000Y6483500D1*
Y3342500D1*
X26016500D1*
X26007040Y3342007D1*
X25997683Y3340527D1*
X25988533Y3338073D1*
X25979690Y3334680D1*
X25971250Y3330380D1*
X25963307Y3325220D1*
X25955947Y3319260D1*
X25949250Y3312560D1*
X25943290Y3305197D1*
X25938133Y3297253D1*
X25933833Y3288810D1*
X25930443Y3279967D1*
X25927993Y3270817D1*
X25926517Y3261460D1*
X25926000Y3252000D1*
Y2774000D1*
X25099000D1*
Y4151000D1*
X25926000D1*
Y3673000D1*
X25926493Y3663540D1*
X25927973Y3654183D1*
X25930427Y3645033D1*
X25933820Y3636190D1*
X25938120Y3627750D1*
X25943280Y3619807D1*
X25949240Y3612447D1*
X25955940Y3605750D1*
X25963303Y3599790D1*
X25971247Y3594633D1*
X25979690Y3590333D1*
X25988533Y3586943D1*
X25997683Y3584493D1*
X26007040Y3583017D1*
X26016500Y3582500D1*
X27083500D1*
X27092960Y3582997D1*
X27102317Y3584480D1*
X27111467Y3586933D1*
X27120310Y3590330D1*
X27128753Y3594630D1*
X27136697Y3599790D1*
X27144060Y3605750D1*
X27150760Y3612447D1*
X27156723Y3619807D1*
X27161883Y3627753D1*
X27166187Y3636190D1*
X27169583Y3645033D1*
X27172040Y3654183D1*
X27173527Y3663540D1*
X27174000Y3673000D1*
Y7951000D1*
X27633500D1*
X27642960Y7951497D1*
X27652317Y7952980D1*
X27661467Y7955433D1*
X27670310Y7958830D1*
X27678753Y7963130D1*
X27686697Y7968290D1*
X27694060Y7974250D1*
X27700760Y7980947D1*
X27706723Y7988307D1*
X27711883Y7996253D1*
X27716187Y8004690D1*
X27719587Y8013533D1*
X27722040Y8022683D1*
X27723527Y8032040D1*
X27724000Y8041500D1*
Y9851000D1*
X27927000D1*
X27936460Y9851497D1*
X27945817Y9852980D1*
X27954967Y9855433D1*
X27963810Y9858830D1*
X27972253Y9863130D1*
X27980197Y9868290D1*
X27987560Y9874250D1*
X27994260Y9880947D1*
X28000223Y9888307D1*
X28005383Y9896253D1*
X28009687Y9904690D1*
X28013087Y9913533D1*
X28015540Y9922683D1*
X28017027Y9932040D1*
X28017500Y9941500D1*
Y10283500D1*
X28016980Y10292963D1*
X28015503Y10302327D1*
X28013053Y10311480D1*
X28009657Y10320327D1*
X28005357Y10328773D1*
X28000193Y10336720D1*
X27994227Y10344083D1*
X27987527Y10350783D1*
X27980157Y10356747D1*
X27972207Y10361903D1*
X27963760Y10366203D1*
X27954910Y10369593D1*
X27945757Y10372037D1*
X27936393Y10373513D1*
X27926930Y10374000D1*
X27599000D1*
Y11751000D1*
X27802000D1*
X27811460Y11751517D1*
X27820817Y11752997D1*
X27829967Y11755443D1*
X27838810Y11758837D1*
X27847253Y11763133D1*
X27855197Y11768290D1*
X27862560Y11774250D1*
X27869260Y11780947D1*
X27875220Y11788307D1*
X27880380Y11796250D1*
X27884680Y11804690D1*
X27888073Y11813533D1*
X27890527Y11822683D1*
X27892007Y11832040D1*
X27892500Y11841500D1*
Y12394500D1*
X27891983Y12403960D1*
X27890503Y12413317D1*
X27888057Y12422467D1*
X27884663Y12431310D1*
X27880367Y12439753D1*
X27875210Y12447697D1*
X27869250Y12455060D1*
X27862553Y12461760D1*
X27855193Y12467720D1*
X27847250Y12472880D1*
X27838810Y12477180D1*
X27829967Y12480573D1*
X27820817Y12483027D1*
X27811460Y12484507D1*
X27802000Y12485000D1*
X26323000D1*
X26313540Y12484527D1*
X26304183Y12483040D1*
X26295033Y12480583D1*
X26286190Y12477187D1*
X26277753Y12472883D1*
X26269807Y12467723D1*
X26262447Y12461760D1*
X26255750Y12455060D1*
X26249790Y12447697D1*
X26244630Y12439750D1*
X26240330Y12431310D1*
X26236933Y12422467D1*
X26234480Y12413317D1*
X26232997Y12403960D1*
X26232500Y12394500D1*
Y11841500D1*
X26232973Y11832040D1*
X26234460Y11822683D1*
X26236917Y11813533D1*
X26240313Y11804690D1*
X26244617Y11796253D1*
X26249777Y11788307D1*
X26255740Y11780947D1*
X26262440Y11774250D1*
X26269803Y11768290D1*
X26277750Y11763130D1*
X26286190Y11758830D1*
X26295033Y11755433D1*
X26304183Y11752980D1*
X26313540Y11751497D1*
X26323000Y11751000D1*
X26526000D1*
Y10374000D1*
X26448000D1*
X26438537Y10373527D1*
X26429177Y10372037D1*
X26420023Y10369580D1*
X26411177Y10366180D1*
X26402733Y10361873D1*
X26394787Y10356707D1*
X26387423Y10350737D1*
X26380727Y10344033D1*
X26374767Y10336663D1*
X26369607Y10328713D1*
X26365310Y10320267D1*
X26361917Y10311417D1*
X26359470Y10302260D1*
X26357990Y10292897D1*
X26357500Y10283433D1*
Y9941383D1*
X26357987Y9931930D1*
X26359480Y9922583D1*
X26361943Y9913443D1*
X26365350Y9904613D1*
X26369657Y9896183D1*
X26374820Y9888250D1*
X26380783Y9880900D1*
X26387480Y9874213D1*
X26394840Y9868260D1*
X26402783Y9863110D1*
X26411217Y9858817D1*
X26420057Y9855427D1*
X26429200Y9852977D1*
X26438547Y9851497D1*
X26448000Y9851000D1*
X26651000D1*
Y8474000D1*
X26191500D1*
X26182040Y8473527D1*
X26172683Y8472040D1*
X26163533Y8469583D1*
X26154690Y8466187D1*
X26146253Y8461883D1*
X26138307Y8456723D1*
X26130947Y8450760D1*
X26124250Y8444060D1*
X26118290Y8436697D1*
X26113130Y8428750D1*
X26108830Y8420310D1*
X26105433Y8411467D1*
X26102980Y8402317D1*
X26101497Y8392960D1*
X26101000Y8383500D1*
Y6574000D1*
X26048000D1*
X26038530Y6573523D1*
X26029163Y6572033D1*
X26020003Y6569573D1*
X26011150Y6566167D1*
X26002703Y6561857D1*
X25994753Y6556683D1*
X25987387Y6550707D1*
X25980690Y6543993D1*
X25974730Y6536613D1*
X25969573Y6528653D1*
X25965277Y6520197D1*
X25961890Y6511337D1*
X25959450Y6502173D1*
X25957980Y6492803D1*
X25957500Y6483330D1*
Y6141477D1*
X25957977Y6132017D1*
X25959463Y6122663D1*
X25961923Y6113517D1*
X25965320Y6104677D1*
X25969623Y6096237D1*
X25974787Y6088297D1*
X25980750Y6080937D1*
X25987450Y6074243D1*
X25994810Y6068283D1*
X26002757Y6063127D1*
X26011197Y6058827D1*
X26020037Y6055433D1*
X26029187Y6052980D1*
X26038540Y6051497D1*
X26048000Y6051000D1*
X26251000D1*
X26376000D1*
D1*
Y4720483D1*
X27049000Y4047483D1*
Y7985500D1*
X27049517Y7994960D1*
X27050997Y8004317D1*
X27053443Y8013467D1*
X27056837Y8022310D1*
X27061133Y8030753D1*
X27066290Y8038697D1*
X27072250Y8046060D1*
X27078947Y8052760D1*
X27086307Y8058720D1*
X27094253Y8063880D1*
X27102690Y8068180D1*
X27111533Y8071573D1*
X27120683Y8074027D1*
X27130040Y8075507D1*
X27139500Y8076000D1*
X27599000D1*
Y9885500D1*
X27599517Y9894960D1*
X27600997Y9904317D1*
X27603443Y9913467D1*
X27606837Y9922310D1*
X27611133Y9930753D1*
X27616290Y9938697D1*
X27622250Y9946060D1*
X27628947Y9952760D1*
X27636307Y9958720D1*
X27644253Y9963880D1*
X27652690Y9968180D1*
X27661533Y9971573D1*
X27670683Y9974027D1*
X27680040Y9975507D1*
X27689500Y9976000D1*
X27892500D1*
Y10249000D1*
X27564500D1*
X27555040Y10249517D1*
X27545683Y10250997D1*
X27536533Y10253443D1*
X27527690Y10256837D1*
X27519247Y10261133D1*
X27511303Y10266290D1*
X27503940Y10272250D1*
X27497240Y10278947D1*
X27491280Y10286307D1*
X27486120Y10294250D1*
X27481820Y10302690D1*
X27478427Y10311533D1*
X27475973Y10320683D1*
X27474493Y10330040D1*
X27474000Y10339500D1*
Y11785500D1*
X27474517Y11794960D1*
X27475997Y11804317D1*
X27478443Y11813467D1*
X27481837Y11822310D1*
X27486133Y11830753D1*
X27491290Y11838697D1*
X27497250Y11846060D1*
X27503947Y11852760D1*
X27511307Y11858720D1*
X27519253Y11863880D1*
X27527690Y11868180D1*
X27536533Y11871573D1*
X27545683Y11874027D1*
X27555040Y11875507D1*
X27564500Y11876000D1*
X27767500D1*
Y12360000D1*
X26357500D1*
Y11876000D1*
X26560500D1*
X26569960Y11875527D1*
X26579317Y11874040D1*
X26588467Y11871583D1*
X26597310Y11868187D1*
X26605747Y11863883D1*
X26613693Y11858723D1*
X26621053Y11852760D1*
X26627750Y11846060D1*
X26633710Y11838697D1*
X26638870Y11830750D1*
X26643170Y11822310D1*
X26646567Y11813467D1*
X26649020Y11804317D1*
X26650503Y11794960D1*
X26651000Y11785500D1*
Y10339500D1*
X26650527Y10330040D1*
X26649040Y10320683D1*
X26646583Y10311533D1*
X26643187Y10302690D1*
X26638883Y10294253D1*
X26633723Y10286307D1*
X26627760Y10278947D1*
X26621060Y10272250D1*
X26613697Y10266290D1*
X26605750Y10261130D1*
X26597310Y10256830D1*
X26588467Y10253433D1*
X26579317Y10250980D1*
X26569960Y10249497D1*
X26560500Y10249000D1*
X26482500D1*
Y9976000D1*
X26685500D1*
X26694960Y9975527D1*
X26704317Y9974040D1*
X26713467Y9971583D1*
X26722310Y9968187D1*
X26730747Y9963883D1*
X26738693Y9958723D1*
X26746053Y9952760D1*
X26752750Y9946060D1*
X26758710Y9938697D1*
X26763870Y9930750D1*
X26768170Y9922310D1*
X26771567Y9913467D1*
X26774020Y9904317D1*
X26775503Y9894960D1*
X26776000Y9885500D1*
Y8439500D1*
X26775527Y8430040D1*
X26774040Y8420683D1*
X26771583Y8411533D1*
X26768187Y8402690D1*
X26763883Y8394253D1*
X26758723Y8386307D1*
X26752760Y8378947D1*
X26746060Y8372250D1*
X26738697Y8366290D1*
X26730750Y8361130D1*
X26722310Y8356830D1*
X26713467Y8353433D1*
X26704317Y8350980D1*
X26694960Y8349497D1*
X26685500Y8349000D1*
X26226000D1*
Y6539500D1*
X26225527Y6530040D1*
X26224040Y6520683D1*
X26221583Y6511533D1*
X26218187Y6502690D1*
X26213883Y6494253D1*
X26208723Y6486307D1*
X26202760Y6478947D1*
X26196060Y6472250D1*
X26188697Y6466290D1*
X26180753Y6461130D1*
X26172310Y6456830D1*
X26163467Y6453433D1*
X26154317Y6450980D1*
X26144960Y6449497D1*
X26135500Y6449000D1*
X26082500D1*
Y6176000D1*
X26285500D1*
X26294970Y6175523D1*
X26304333Y6174037D1*
X26313490Y6171577D1*
X26322340Y6168173D1*
X26330787Y6163863D1*
X26338733Y6158693D1*
X26346097Y6152720D1*
X26352797Y6146007D1*
X26358757Y6138633D1*
X26363913Y6130677D1*
X26368210Y6122223D1*
X26371600Y6113370D1*
X26374043Y6104207D1*
X26375517Y6094840D1*
X26376000Y6085370D1*
Y6051000D1*
X26251000D1*
Y4668707D1*
X26816420Y4103283D1*
X26646717Y3933580D1*
X25906293Y4674000D1*
X25424000D1*
Y6051000D1*
X25627000D1*
X25636463Y6051517D1*
X25645823Y6052997D1*
X25654977Y6055447D1*
X25663827Y6058840D1*
X25672270Y6063143D1*
X25680217Y6068303D1*
X25687580Y6074270D1*
X25694280Y6080970D1*
X25700243Y6088337D1*
X25705400Y6096287D1*
X25709700Y6104733D1*
X25713090Y6113583D1*
X25715537Y6122737D1*
X25717013Y6132097D1*
X25717500Y6141563D1*
Y6483500D1*
X25717003Y6492960D1*
X25715520Y6502317D1*
X25713067Y6511467D1*
X25709670Y6520310D1*
X25705370Y6528750D1*
X25700213Y6536697D1*
X25694250Y6544060D1*
X25687553Y6550760D1*
X25680193Y6556723D1*
X25672247Y6561883D1*
X25663810Y6566187D1*
X25654967Y6569583D1*
X25645817Y6572040D1*
X25636460Y6573523D1*
X25627000Y6574000D1*
X25274000D1*
Y7951000D1*
X25733500D1*
X25742960Y7951497D1*
X25752317Y7952980D1*
X25761467Y7955433D1*
X25770310Y7958830D1*
X25778750Y7963130D1*
X25786697Y7968287D1*
X25794060Y7974250D1*
X25800760Y7980947D1*
X25806723Y7988307D1*
X25811883Y7996253D1*
X25816187Y8004690D1*
X25819583Y8013533D1*
X25822040Y8022683D1*
X25823523Y8032040D1*
X25824000Y8041500D1*
Y9851000D1*
X26027000D1*
X26036460Y9851497D1*
X26045817Y9852980D1*
X26054967Y9855433D1*
X26063810Y9858830D1*
X26072250Y9863130D1*
X26080197Y9868287D1*
X26087560Y9874250D1*
X26094260Y9880947D1*
X26100223Y9888307D1*
X26105383Y9896253D1*
X26109687Y9904690D1*
X26113083Y9913533D1*
X26115540Y9922683D1*
X26117027Y9932040D1*
X26117500Y9941500D1*
Y10283500D1*
X26117003Y10292963D1*
X26115517Y10302327D1*
X26113063Y10311480D1*
X26109663Y10320327D1*
X26105360Y10328773D1*
X26100197Y10336720D1*
X26094230Y10344083D1*
X26087527Y10350783D1*
X26080157Y10356747D1*
X26072207Y10361907D1*
X26063760Y10366207D1*
X26054913Y10369603D1*
X26045757Y10372053D1*
X26036393Y10373533D1*
X26026930Y10374000D1*
X25699000D1*
Y11751000D1*
X25902000D1*
X25911460Y11751497D1*
X25920817Y11752980D1*
X25929967Y11755433D1*
X25938810Y11758830D1*
X25947250Y11763130D1*
X25955197Y11768287D1*
X25962560Y11774250D1*
X25969260Y11780947D1*
X25975223Y11788307D1*
X25980383Y11796253D1*
X25984687Y11804690D1*
X25988083Y11813533D1*
X25990540Y11822683D1*
X25992027Y11832040D1*
X25992500Y11841500D1*
Y12269500D1*
X25992003Y12278960D1*
X25990520Y12288317D1*
X25988067Y12297467D1*
X25984670Y12306310D1*
X25980370Y12314750D1*
X25975213Y12322697D1*
X25969250Y12330060D1*
X25962553Y12336760D1*
X25955193Y12342723D1*
X25947247Y12347883D1*
X25938810Y12352187D1*
X25929967Y12355583D1*
X25920817Y12358040D1*
X25911460Y12359527D1*
X25902000Y12360000D1*
X24423000D1*
X24413540Y12359507D1*
X24404183Y12358027D1*
X24395033Y12355573D1*
X24386190Y12352180D1*
X24377750Y12347880D1*
X24369807Y12342720D1*
X24362447Y12336760D1*
X24355750Y12330060D1*
X24349790Y12322697D1*
X24344633Y12314753D1*
X24340333Y12306310D1*
X24336943Y12297467D1*
X24334493Y12288317D1*
X24333017Y12278960D1*
X24332500Y12269500D1*
Y11841500D1*
X24332993Y11832040D1*
X24334473Y11822683D1*
X24336927Y11813533D1*
X24340320Y11804690D1*
X24344620Y11796250D1*
X24349780Y11788307D1*
X24355743Y11780947D1*
X24362440Y11774250D1*
X24369803Y11768290D1*
X24377750Y11763133D1*
X24386190Y11758833D1*
X24395033Y11755443D1*
X24404183Y11752993D1*
X24413540Y11751517D1*
X24423000Y11751000D1*
X24626000D1*
Y10374000D1*
X24548000D1*
X24538537Y10373507D1*
X24529177Y10372023D1*
X24520023Y10369570D1*
X24511177Y10366173D1*
X24502733Y10361870D1*
X24494787Y10356703D1*
X24487423Y10350737D1*
X24480727Y10344033D1*
X24474767Y10336663D1*
X24469610Y10328713D1*
X24465313Y10320267D1*
X24461927Y10311417D1*
X24459483Y10302260D1*
X24458010Y10292897D1*
X24457500Y10283433D1*
Y9941383D1*
X24458007Y9931930D1*
X24459497Y9922583D1*
X24461953Y9913447D1*
X24465357Y9904613D1*
X24469660Y9896183D1*
X24474820Y9888250D1*
X24480783Y9880900D1*
X24487480Y9874213D1*
X24494840Y9868263D1*
X24502783Y9863113D1*
X24511217Y9858820D1*
X24520057Y9855433D1*
X24529200Y9852990D1*
X24538547Y9851513D1*
X24548000Y9851000D1*
X24751000D1*
Y8474000D1*
X24291500D1*
X24282040Y8473507D1*
X24272683Y8472027D1*
X24263533Y8469573D1*
X24254690Y8466180D1*
X24246250Y8461880D1*
X24238307Y8456720D1*
X24230947Y8450757D1*
X24224250Y8444060D1*
X24218290Y8436697D1*
X24213133Y8428753D1*
X24208833Y8420310D1*
X24205443Y8411467D1*
X24202993Y8402317D1*
X24201517Y8392960D1*
X24201000Y8383500D1*
Y6574000D1*
X24148000D1*
X24138530Y6573503D1*
X24129163Y6572020D1*
X24120003Y6569563D1*
X24111150Y6566160D1*
X24102703Y6561850D1*
X24094753Y6556680D1*
X24087387Y6550707D1*
X24080690Y6543993D1*
X24074730Y6536613D1*
X24069577Y6528653D1*
X24065283Y6520197D1*
X24061900Y6511337D1*
X24059463Y6502173D1*
X24058000Y6492803D1*
X24057500Y6483330D1*
Y6141477D1*
X24057997Y6132017D1*
X24059480Y6122663D1*
X24061933Y6113517D1*
X24065327Y6104677D1*
X24069630Y6096237D1*
X24074790Y6088297D1*
X24080750Y6080937D1*
X24087450Y6074243D1*
X24094810Y6068283D1*
X24102757Y6063127D1*
X24111197Y6058830D1*
X24120037Y6055440D1*
X24129187Y6052993D1*
X24138543Y6051517D1*
X24148000Y6051000D1*
X24351000D1*
X24476000D1*
D1*
Y6085370D1*
X24475497Y6094840D1*
X24474030Y6104207D1*
X24471590Y6113367D1*
X24468203Y6122223D1*
X24463910Y6130677D1*
X24458757Y6138633D1*
X24452797Y6146007D1*
X24446097Y6152717D1*
X24438733Y6158690D1*
X24430787Y6163857D1*
X24422340Y6168167D1*
X24413490Y6171567D1*
X24404333Y6174020D1*
X24394967Y6175503D1*
X24385500Y6176000D1*
X24182500D1*
Y6449000D1*
X24235500D1*
X24244960Y6449497D1*
X24254317Y6450980D1*
X24263467Y6453433D1*
X24272310Y6456827D1*
X24280750Y6461130D1*
X24288697Y6466287D1*
X24296060Y6472250D1*
X24302760Y6478947D1*
X24308723Y6486307D1*
X24313883Y6494253D1*
X24318187Y6502690D1*
X24321583Y6511533D1*
X24324037Y6520683D1*
X24325523Y6530040D1*
X24326000Y6539500D1*
Y8349000D1*
X24785500D1*
X24794960Y8349497D1*
X24804317Y8350980D1*
X24813467Y8353433D1*
X24822310Y8356827D1*
X24830750Y8361130D1*
X24838697Y8366287D1*
X24846060Y8372250D1*
X24852760Y8378947D1*
X24858723Y8386307D1*
X24863883Y8394253D1*
X24868187Y8402690D1*
X24871583Y8411533D1*
X24874040Y8420683D1*
X24875523Y8430040D1*
X24876000Y8439500D1*
Y9885500D1*
X24875503Y9894960D1*
X24874020Y9904317D1*
X24871567Y9913467D1*
X24868173Y9922310D1*
X24863870Y9930750D1*
X24858713Y9938697D1*
X24852750Y9946060D1*
X24846053Y9952760D1*
X24838693Y9958723D1*
X24830747Y9963883D1*
X24822310Y9968187D1*
X24813467Y9971583D1*
X24804317Y9974040D1*
X24794960Y9975523D1*
X24785500Y9976000D1*
X24582500D1*
Y10249000D1*
X24660500D1*
X24669960Y10249497D1*
X24679317Y10250980D1*
X24688467Y10253433D1*
X24697310Y10256827D1*
X24705750Y10261130D1*
X24713697Y10266287D1*
X24721060Y10272250D1*
X24727760Y10278947D1*
X24733723Y10286307D1*
X24738883Y10294250D1*
X24743187Y10302690D1*
X24746583Y10311533D1*
X24749040Y10320683D1*
X24750523Y10330040D1*
X24751000Y10339500D1*
Y11785500D1*
X24750503Y11794960D1*
X24749020Y11804317D1*
X24746567Y11813467D1*
X24743173Y11822310D1*
X24738870Y11830750D1*
X24733713Y11838697D1*
X24727750Y11846060D1*
X24721053Y11852760D1*
X24713693Y11858723D1*
X24705750Y11863883D1*
X24697310Y11868187D1*
X24688467Y11871583D1*
X24679317Y11874040D1*
X24669960Y11875523D1*
X24660500Y11876000D1*
X24457500D1*
Y12235000D1*
X25867500D1*
Y11876000D1*
X25664500D1*
X25655040Y11875507D1*
X25645683Y11874027D1*
X25636533Y11871573D1*
X25627690Y11868180D1*
X25619250Y11863880D1*
X25611307Y11858720D1*
X25603947Y11852760D1*
X25597250Y11846060D1*
X25591290Y11838697D1*
X25586133Y11830753D1*
X25581833Y11822310D1*
X25578443Y11813467D1*
X25575993Y11804317D1*
X25574517Y11794960D1*
X25574000Y11785500D1*
Y10339500D1*
X25574493Y10330040D1*
X25575973Y10320683D1*
X25578427Y10311533D1*
X25581820Y10302690D1*
X25586120Y10294250D1*
X25591280Y10286307D1*
X25597240Y10278947D1*
X25603940Y10272250D1*
X25611303Y10266290D1*
X25619247Y10261133D1*
X25627690Y10256833D1*
X25636533Y10253443D1*
X25645683Y10250993D1*
X25655040Y10249517D1*
X25664500Y10249000D1*
X25992500D1*
Y9976000D1*
X25789500D1*
X25780040Y9975507D1*
X25770683Y9974027D1*
X25761533Y9971573D1*
X25752690Y9968180D1*
X25744250Y9963880D1*
X25736307Y9958720D1*
X25728947Y9952760D1*
X25722250Y9946060D1*
X25716290Y9938697D1*
X25711133Y9930753D1*
X25706833Y9922310D1*
X25703443Y9913467D1*
X25700993Y9904317D1*
X25699517Y9894960D1*
X25699000Y9885500D1*
Y8076000D1*
X25239500D1*
X25230040Y8075507D1*
X25220683Y8074027D1*
X25211533Y8071573D1*
X25202690Y8068180D1*
X25194250Y8063880D1*
X25186307Y8058720D1*
X25178947Y8052760D1*
X25172250Y8046060D1*
X25166290Y8038697D1*
X25161133Y8030753D1*
X25156833Y8022310D1*
X25153443Y8013467D1*
X25150993Y8004317D1*
X25149517Y7994960D1*
X25149000Y7985500D1*
Y6539500D1*
X25149493Y6530040D1*
X25150973Y6520683D1*
X25153427Y6511533D1*
X25156820Y6502690D1*
X25161120Y6494250D1*
X25166280Y6486307D1*
X25172240Y6478947D1*
X25178940Y6472250D1*
X25186303Y6466290D1*
X25194247Y6461133D1*
X25202690Y6456833D1*
X25211533Y6453443D1*
X25220683Y6450993D1*
X25230040Y6449517D1*
X25239500Y6449000D1*
X25592500D1*
Y6176000D1*
X25389500D1*
X25380040Y6175507D1*
X25370683Y6174027D1*
X25361533Y6171573D1*
X25352690Y6168180D1*
X25344250Y6163880D1*
X25336307Y6158720D1*
X25328947Y6152760D1*
X25322250Y6146060D1*
X25316290Y6138697D1*
X25311133Y6130753D1*
X25306833Y6122310D1*
X25303443Y6113467D1*
X25300993Y6104317D1*
X25299517Y6094960D1*
X25299000Y6085500D1*
Y4639500D1*
X25299493Y4630040D1*
X25300973Y4620683D1*
X25303427Y4611533D1*
X25306820Y4602690D1*
X25311120Y4594250D1*
X25316280Y4586307D1*
X25322240Y4578947D1*
X25328940Y4572250D1*
X25336303Y4566290D1*
X25344247Y4561133D1*
X25352690Y4556833D1*
X25361533Y4553443D1*
X25370683Y4550993D1*
X25380040Y4549517D1*
X25389500Y4549000D1*
X25854517D1*
X26696017Y3707500D1*
X26051000D1*
Y4185500D1*
X26050503Y4194960D1*
X26049020Y4204317D1*
X26046567Y4213467D1*
X26043170Y4222310D1*
X26038870Y4230750D1*
X26033710Y4238697D1*
X26027750Y4246060D1*
X26021053Y4252760D1*
X26013693Y4258723D1*
X26005747Y4263883D1*
X25997310Y4268187D1*
X25988467Y4271583D1*
X25979317Y4274040D1*
X25969960Y4275527D1*
X25960500Y4276000D1*
X25064500D1*
X25055040Y4275507D1*
X25045683Y4274027D1*
X25036533Y4271573D1*
X25027690Y4268180D1*
X25019250Y4263880D1*
X25011307Y4258720D1*
X25003947Y4252760D1*
X24997250Y4246060D1*
X24991290Y4238697D1*
X24986133Y4230753D1*
X24981833Y4222310D1*
X24978443Y4213467D1*
X24975993Y4204317D1*
X24974517Y4194960D1*
X24974000Y4185500D1*
Y2774000D1*
X24182500D1*
Y4549000D1*
X24385500D1*
X24394960Y4549517D1*
X24404317Y4550993D1*
X24413467Y4553443D1*
X24422310Y4556833D1*
X24430753Y4561133D1*
X24438697Y4566290D1*
X24446060Y4572250D1*
X24452760Y4578947D1*
X24458720Y4586307D1*
X24463880Y4594250D1*
X24468180Y4602690D1*
X24471573Y4611533D1*
X24474027Y4620683D1*
X24475507Y4630040D1*
X24476000Y4639500D1*
Y6051000D1*
X24351000D1*
Y4674000D1*
X24148000D1*
X24138540Y4673507D1*
X24129183Y4672027D1*
X24120033Y4669573D1*
X24111190Y4666180D1*
X24102750Y4661880D1*
X24094807Y4656720D1*
X24087447Y4650757D1*
X24080750Y4644060D1*
X24074790Y4636697D1*
X24069633Y4628753D1*
X24065333Y4620310D1*
X24061943Y4611467D1*
X24059493Y4602317D1*
X24058017Y4592960D1*
X24057500Y4583500D1*
Y3975000D1*
X23817500D1*
Y4583500D1*
X23817003Y4592960D1*
X23815520Y4602317D1*
X23813067Y4611467D1*
X23809673Y4620310D1*
X23805370Y4628750D1*
X23800213Y4636697D1*
X23794250Y4644060D1*
X23787553Y4650760D1*
X23780193Y4656720D1*
X23772250Y4661883D1*
X23763810Y4666187D1*
X23754967Y4669583D1*
X23745817Y4672037D1*
X23736460Y4673523D1*
X23727000Y4674000D1*
X23524000D1*
Y6051000D1*
X23727000D1*
X23736463Y6051497D1*
X23745823Y6052983D1*
X23754980Y6055437D1*
X23763827Y6058833D1*
X23772270Y6063140D1*
X23780217Y6068303D1*
X23787580Y6074270D1*
X23794280Y6080970D1*
X23800243Y6088337D1*
X23805403Y6096287D1*
X23809703Y6104733D1*
X23813097Y6113580D1*
X23815550Y6122737D1*
X23817030Y6132097D1*
X23817500Y6141563D1*
Y6483500D1*
X23817003Y6492960D1*
X23815520Y6502317D1*
X23813067Y6511467D1*
X23809673Y6520310D1*
X23805370Y6528750D1*
X23800213Y6536697D1*
X23794250Y6544060D1*
X23787553Y6550760D1*
X23780193Y6556720D1*
X23772250Y6561883D1*
X23763810Y6566187D1*
X23754967Y6569583D1*
X23745817Y6572037D1*
X23736460Y6573523D1*
X23727000Y6574000D1*
X23374000D1*
Y7951000D1*
X23833500D1*
X23842960Y7951497D1*
X23852317Y7952980D1*
X23861467Y7955433D1*
X23870310Y7958827D1*
X23878750Y7963130D1*
X23886697Y7968287D1*
X23894060Y7974250D1*
X23900760Y7980947D1*
X23906720Y7988307D1*
X23911883Y7996250D1*
X23916187Y8004690D1*
X23919583Y8013533D1*
X23922037Y8022683D1*
X23923523Y8032040D1*
X23924000Y8041500D1*
Y9851000D1*
X24127000D1*
X24136460Y9851497D1*
X24145817Y9852980D1*
X24154967Y9855433D1*
X24163810Y9858827D1*
X24172250Y9863130D1*
X24180197Y9868287D1*
X24187560Y9874250D1*
X24194260Y9880947D1*
X24200220Y9888307D1*
X24205383Y9896250D1*
X24209687Y9904690D1*
X24213083Y9913533D1*
X24215537Y9922683D1*
X24217023Y9932040D1*
X24217500Y9941500D1*
Y10283500D1*
X24217003Y10292957D1*
X24215523Y10302307D1*
X24213073Y10311453D1*
X24209680Y10320293D1*
X24205383Y10328730D1*
X24200230Y10336673D1*
X24194273Y10344033D1*
X24187580Y10350733D1*
X24180227Y10356697D1*
X24172290Y10361860D1*
X24163857Y10366163D1*
X24155020Y10369567D1*
X24145877Y10372027D1*
X24136527Y10373517D1*
X24127070Y10374000D1*
X23799000D1*
Y11751000D1*
X24002000D1*
X24011460Y11751497D1*
X24020817Y11752980D1*
X24029967Y11755433D1*
X24038810Y11758827D1*
X24047250Y11763130D1*
X24055197Y11768287D1*
X24062560Y11774250D1*
X24069260Y11780947D1*
X24075220Y11788307D1*
X24080383Y11796250D1*
X24084687Y11804690D1*
X24088083Y11813533D1*
X24090537Y11822683D1*
X24092023Y11832040D1*
X24092500Y11841500D1*
Y12144500D1*
X24092003Y12153960D1*
X24090520Y12163317D1*
X24088067Y12172467D1*
X24084673Y12181310D1*
X24080370Y12189750D1*
X24075213Y12197697D1*
X24069250Y12205060D1*
X24062553Y12211760D1*
X24055193Y12217720D1*
X24047250Y12222883D1*
X24038810Y12227187D1*
X24029967Y12230583D1*
X24020817Y12233037D1*
X24011460Y12234523D1*
X24002000Y12235000D1*
X22523000D1*
X22513540Y12234507D1*
X22504183Y12233023D1*
X22495033Y12230573D1*
X22486190Y12227180D1*
X22477750Y12222880D1*
X22469807Y12217720D1*
X22462447Y12211757D1*
X22455750Y12205060D1*
X22449790Y12197697D1*
X22444633Y12189750D1*
X22440333Y12181310D1*
X22436940Y12172467D1*
X22434493Y12163317D1*
X22433013Y12153960D1*
X22432500Y12144500D1*
Y11841457D1*
X22433000Y11832000D1*
X22434483Y11822650D1*
X22436937Y11813503D1*
X22440333Y11804663D1*
X22444633Y11796227D1*
X22449797Y11788287D1*
X22455757Y11780930D1*
X22462457Y11774237D1*
X22469817Y11768280D1*
X22477760Y11763123D1*
X22486200Y11758830D1*
X22495040Y11755440D1*
X22504190Y11752990D1*
X22513543Y11751513D1*
X22523000Y11751000D1*
X22726000D1*
Y10374000D1*
X22648000D1*
X22638537Y10373507D1*
X22629177Y10372023D1*
X22620023Y10369570D1*
X22611177Y10366173D1*
X22602733Y10361867D1*
X22594787Y10356703D1*
X22587423Y10350737D1*
X22580727Y10344033D1*
X22574767Y10336663D1*
X22569610Y10328713D1*
X22565313Y10320267D1*
X22561923Y10311417D1*
X22559480Y10302260D1*
X22558007Y10292897D1*
X22557500Y10283433D1*
Y9941383D1*
X22558007Y9931930D1*
X22559497Y9922583D1*
X22561957Y9913447D1*
X22565357Y9904613D1*
X22569660Y9896183D1*
X22574823Y9888250D1*
X22580783Y9880900D1*
X22587480Y9874213D1*
X22594840Y9868260D1*
X22602783Y9863113D1*
X22611217Y9858820D1*
X22620057Y9855433D1*
X22629200Y9852990D1*
X22638547Y9851513D1*
X22648000Y9851000D1*
X22851000D1*
Y8474000D1*
X22391500D1*
X22382040Y8473507D1*
X22372683Y8472023D1*
X22363533Y8469573D1*
X22354690Y8466180D1*
X22346250Y8461880D1*
X22338307Y8456720D1*
X22330947Y8450757D1*
X22324250Y8444060D1*
X22318290Y8436697D1*
X22313133Y8428750D1*
X22308833Y8420310D1*
X22305440Y8411467D1*
X22302993Y8402317D1*
X22301513Y8392960D1*
X22301000Y8383500D1*
Y6574000D1*
X22248000D1*
X22238530Y6573503D1*
X22229163Y6572020D1*
X22220003Y6569563D1*
X22211150Y6566160D1*
X22202703Y6561850D1*
X22194753Y6556680D1*
X22187387Y6550707D1*
X22180690Y6543993D1*
X22174730Y6536613D1*
X22169577Y6528653D1*
X22165283Y6520197D1*
X22161900Y6511337D1*
X22159463Y6502173D1*
X22157997Y6492803D1*
X22157500Y6483330D1*
Y6141477D1*
X22157997Y6132017D1*
X22159480Y6122663D1*
X22161933Y6113517D1*
X22165327Y6104677D1*
X22169630Y6096237D1*
X22174790Y6088297D1*
X22180750Y6080937D1*
X22187450Y6074240D1*
X22194810Y6068283D1*
X22202757Y6063127D1*
X22211197Y6058830D1*
X22220037Y6055440D1*
X22229187Y6052990D1*
X22238543Y6051513D1*
X22248000Y6051000D1*
X22451000D1*
X22576000D1*
D1*
Y4639500D1*
X22575523Y4630040D1*
X22574037Y4620683D1*
X22571583Y4611533D1*
X22568183Y4602690D1*
X22563883Y4594250D1*
X22558720Y4586307D1*
X22552760Y4578947D1*
X22546060Y4572250D1*
X22538697Y4566287D1*
X22530750Y4561130D1*
X22522310Y4556827D1*
X22513467Y4553433D1*
X22504317Y4550980D1*
X22494960Y4549497D1*
X22485500Y4549000D1*
X22282500D1*
Y3975000D1*
X23692500D1*
Y4549000D1*
X23489500D1*
X23480040Y4549513D1*
X23470683Y4550993D1*
X23461533Y4553440D1*
X23452690Y4556833D1*
X23444250Y4561133D1*
X23436303Y4566290D1*
X23428940Y4572250D1*
X23422243Y4578947D1*
X23416280Y4586307D1*
X23411120Y4594250D1*
X23406820Y4602690D1*
X23403427Y4611533D1*
X23400973Y4620683D1*
X23399493Y4630040D1*
X23399000Y4639500D1*
Y6085500D1*
X23399513Y6094960D1*
X23400993Y6104317D1*
X23403440Y6113467D1*
X23406833Y6122310D1*
X23411133Y6130750D1*
X23416290Y6138697D1*
X23422250Y6146060D1*
X23428947Y6152757D1*
X23436307Y6158720D1*
X23444250Y6163880D1*
X23452690Y6168180D1*
X23461533Y6171573D1*
X23470683Y6174027D1*
X23480040Y6175507D1*
X23489500Y6176000D1*
X23692500D1*
Y6449000D1*
X23339500D1*
X23330040Y6449513D1*
X23320683Y6450993D1*
X23311533Y6453440D1*
X23302690Y6456833D1*
X23294250Y6461133D1*
X23286303Y6466290D1*
X23278940Y6472250D1*
X23272243Y6478947D1*
X23266280Y6486307D1*
X23261120Y6494250D1*
X23256820Y6502690D1*
X23253427Y6511533D1*
X23250977Y6520683D1*
X23249493Y6530040D1*
X23249000Y6539500D1*
Y7985500D1*
X23249513Y7994960D1*
X23250993Y8004317D1*
X23253440Y8013467D1*
X23256833Y8022310D1*
X23261133Y8030750D1*
X23266290Y8038697D1*
X23272250Y8046060D1*
X23278947Y8052757D1*
X23286307Y8058720D1*
X23294250Y8063880D1*
X23302690Y8068180D1*
X23311533Y8071573D1*
X23320683Y8074027D1*
X23330040Y8075507D1*
X23339500Y8076000D1*
X23799000D1*
Y9885500D1*
X23799517Y9894960D1*
X23800993Y9904317D1*
X23803443Y9913467D1*
X23806833Y9922310D1*
X23811133Y9930750D1*
X23816290Y9938697D1*
X23822250Y9946060D1*
X23828947Y9952757D1*
X23836307Y9958720D1*
X23844250Y9963880D1*
X23852690Y9968180D1*
X23861533Y9971573D1*
X23870683Y9974027D1*
X23880040Y9975507D1*
X23889500Y9976000D1*
X24092500D1*
Y10249000D1*
X23764500D1*
X23755040Y10249513D1*
X23745683Y10250993D1*
X23736533Y10253443D1*
X23727690Y10256833D1*
X23719250Y10261133D1*
X23711303Y10266290D1*
X23703940Y10272250D1*
X23697243Y10278947D1*
X23691280Y10286307D1*
X23686120Y10294250D1*
X23681820Y10302690D1*
X23678427Y10311533D1*
X23675973Y10320683D1*
X23674493Y10330040D1*
X23674000Y10339500D1*
Y11785500D1*
X23674513Y11794960D1*
X23675993Y11804317D1*
X23678443Y11813467D1*
X23681833Y11822310D1*
X23686133Y11830750D1*
X23691290Y11838697D1*
X23697250Y11846060D1*
X23703947Y11852757D1*
X23711307Y11858720D1*
X23719250Y11863880D1*
X23727690Y11868180D1*
X23736533Y11871573D1*
X23745683Y11874027D1*
X23755040Y11875507D1*
X23764500Y11876000D1*
X23967500D1*
Y12110000D1*
X22557500D1*
Y11876000D1*
X22760500D1*
X22769960Y11875523D1*
X22779317Y11874037D1*
X22788467Y11871583D1*
X22797310Y11868187D1*
X22805750Y11863883D1*
X22813693Y11858720D1*
X22821053Y11852760D1*
X22827750Y11846060D1*
X22833713Y11838697D1*
X22838870Y11830750D1*
X22843173Y11822310D1*
X22846567Y11813467D1*
X22849020Y11804317D1*
X22850503Y11794960D1*
X22851000Y11785500D1*
Y10339500D1*
X22850523Y10330040D1*
X22849037Y10320683D1*
X22846583Y10311533D1*
X22843187Y10302690D1*
X22838883Y10294250D1*
X22833720Y10286307D1*
X22827760Y10278947D1*
X22821060Y10272250D1*
X22813697Y10266287D1*
X22805750Y10261130D1*
X22797310Y10256827D1*
X22788467Y10253433D1*
X22779317Y10250980D1*
X22769960Y10249497D1*
X22760500Y10249000D1*
X22682500D1*
Y9976000D1*
X22885500D1*
X22894960Y9975523D1*
X22904317Y9974037D1*
X22913467Y9971583D1*
X22922310Y9968187D1*
X22930750Y9963883D1*
X22938693Y9958720D1*
X22946053Y9952760D1*
X22952750Y9946060D1*
X22958713Y9938697D1*
X22963870Y9930750D1*
X22968173Y9922310D1*
X22971567Y9913467D1*
X22974020Y9904317D1*
X22975503Y9894960D1*
X22976000Y9885500D1*
Y8439500D1*
X22975523Y8430040D1*
X22974037Y8420683D1*
X22971583Y8411533D1*
X22968187Y8402690D1*
X22963883Y8394250D1*
X22958720Y8386307D1*
X22952760Y8378947D1*
X22946060Y8372250D1*
X22938697Y8366287D1*
X22930750Y8361130D1*
X22922310Y8356827D1*
X22913467Y8353433D1*
X22904317Y8350980D1*
X22894960Y8349497D1*
X22885500Y8349000D1*
X22426000D1*
Y6539500D1*
X22425523Y6530040D1*
X22424037Y6520683D1*
X22421583Y6511533D1*
X22418187Y6502690D1*
X22413883Y6494250D1*
X22408720Y6486307D1*
X22402760Y6478947D1*
X22396060Y6472250D1*
X22388697Y6466287D1*
X22380750Y6461130D1*
X22372310Y6456827D1*
X22363467Y6453433D1*
X22354317Y6450980D1*
X22344960Y6449497D1*
X22335500Y6449000D1*
X22282500D1*
Y6176000D1*
X22485500D1*
X22494967Y6175503D1*
X22504333Y6174020D1*
X22513490Y6171567D1*
X22522340Y6168167D1*
X22530787Y6163857D1*
X22538733Y6158690D1*
X22546100Y6152717D1*
X22552797Y6146007D1*
X22558757Y6138633D1*
X22563910Y6130677D1*
X22568207Y6122223D1*
X22571590Y6113367D1*
X22574030Y6104207D1*
X22575500Y6094840D1*
X22576000Y6085370D1*
Y6051000D1*
X22451000D1*
Y4674000D1*
X22248000D1*
X22238540Y4673507D1*
X22229183Y4672023D1*
X22220033Y4669573D1*
X22211190Y4666180D1*
X22202750Y4661880D1*
X22194807Y4656720D1*
X22187447Y4650757D1*
X22180750Y4644060D1*
X22174790Y4636697D1*
X22169630Y4628750D1*
X22165333Y4620310D1*
X22161940Y4611467D1*
X22159493Y4602317D1*
X22158013Y4592960D1*
X22157500Y4583500D1*
Y3975000D1*
X21917500D1*
Y4583500D1*
X21917003Y4592960D1*
X21915520Y4602317D1*
X21913067Y4611467D1*
X21909673Y4620310D1*
X21905370Y4628750D1*
X21900213Y4636697D1*
X21894250Y4644060D1*
X21887553Y4650757D1*
X21880193Y4656720D1*
X21872250Y4661883D1*
X21863810Y4666183D1*
X21854967Y4669583D1*
X21845817Y4672037D1*
X21836460Y4673523D1*
X21827000Y4674000D1*
X21624000D1*
Y6051000D1*
X21827000D1*
X21836463Y6051497D1*
X21845823Y6052983D1*
X21854980Y6055437D1*
X21863827Y6058833D1*
X21872270Y6063140D1*
X21880217Y6068303D1*
X21887580Y6074267D1*
X21894280Y6080970D1*
X21900243Y6088337D1*
X21905403Y6096287D1*
X21909703Y6104733D1*
X21913097Y6113580D1*
X21915547Y6122737D1*
X21917027Y6132097D1*
X21917500Y6141563D1*
Y6483500D1*
X21917003Y6492960D1*
X21915520Y6502317D1*
X21913067Y6511467D1*
X21909673Y6520310D1*
X21905370Y6528750D1*
X21900213Y6536697D1*
X21894250Y6544060D1*
X21887553Y6550757D1*
X21880193Y6556720D1*
X21872250Y6561883D1*
X21863810Y6566183D1*
X21854967Y6569583D1*
X21845817Y6572037D1*
X21836460Y6573523D1*
X21827000Y6574000D1*
X21474000D1*
Y7951000D1*
X21933500D1*
X21942960Y7951497D1*
X21952317Y7952980D1*
X21961467Y7955433D1*
X21970310Y7958827D1*
X21978750Y7963130D1*
X21986697Y7968287D1*
X21994060Y7974250D1*
X22000757Y7980947D1*
X22006720Y7988307D1*
X22011883Y7996250D1*
X22016183Y8004690D1*
X22019583Y8013533D1*
X22022037Y8022683D1*
X22023523Y8032040D1*
X22024000Y8041500D1*
Y9851000D1*
X22227000D1*
X22236460Y9851497D1*
X22245817Y9852980D1*
X22254967Y9855433D1*
X22263810Y9858827D1*
X22272250Y9863130D1*
X22280197Y9868287D1*
X22287560Y9874250D1*
X22294260Y9880947D1*
X22300220Y9888307D1*
X22305383Y9896250D1*
X22309683Y9904690D1*
X22313083Y9913533D1*
X22315537Y9922683D1*
X22317023Y9932040D1*
X22317500Y9941500D1*
Y10283500D1*
X22317003Y10292957D1*
X22315523Y10302307D1*
X22313073Y10311453D1*
X22309680Y10320293D1*
X22305383Y10328730D1*
X22300230Y10336673D1*
X22294273Y10344033D1*
X22287583Y10350733D1*
X22280227Y10356697D1*
X22272290Y10361860D1*
X22263857Y10366163D1*
X22255020Y10369563D1*
X22245877Y10372023D1*
X22236527Y10373517D1*
X22227070Y10374000D1*
X21899000D1*
Y11751000D1*
X22102000D1*
X22111460Y11751497D1*
X22120817Y11752980D1*
X22129967Y11755433D1*
X22138810Y11758827D1*
X22147250Y11763130D1*
X22155197Y11768287D1*
X22162560Y11774250D1*
X22169260Y11780947D1*
X22175220Y11788307D1*
X22180383Y11796250D1*
X22184683Y11804690D1*
X22188083Y11813533D1*
X22190537Y11822683D1*
X22192023Y11832040D1*
X22192500Y11841500D1*
Y12019500D1*
X22192003Y12028960D1*
X22190520Y12038317D1*
X22188067Y12047467D1*
X22184673Y12056310D1*
X22180370Y12064750D1*
X22175213Y12072697D1*
X22169250Y12080060D1*
X22162553Y12086757D1*
X22155193Y12092720D1*
X22147250Y12097883D1*
X22138810Y12102183D1*
X22129967Y12105583D1*
X22120817Y12108037D1*
X22111460Y12109523D1*
X22102000Y12110000D1*
X20623000D1*
X20613540Y12109507D1*
X20604183Y12108023D1*
X20595033Y12105573D1*
X20586190Y12102180D1*
X20577750Y12097880D1*
X20569807Y12092720D1*
X20562447Y12086757D1*
X20555750Y12080060D1*
X20549790Y12072697D1*
X20544630Y12064750D1*
X20540333Y12056310D1*
X20536940Y12047467D1*
X20534490Y12038317D1*
X20533013Y12028960D1*
X20532500Y12019500D1*
Y11841500D1*
X20532993Y11832040D1*
X20534477Y11822683D1*
X20536927Y11813533D1*
X20540320Y11804690D1*
X20544620Y11796250D1*
X20549780Y11788307D1*
X20555743Y11780947D1*
X20562440Y11774250D1*
X20569803Y11768290D1*
X20577750Y11763130D1*
X20586190Y11758833D1*
X20595033Y11755440D1*
X20604183Y11752990D1*
X20613540Y11751513D1*
X20623000Y11751000D1*
X20826000D1*
Y10374000D1*
X20748000D1*
X20738537Y10373507D1*
X20729177Y10372023D1*
X20720023Y10369570D1*
X20711177Y10366173D1*
X20702733Y10361867D1*
X20694787Y10356703D1*
X20687423Y10350737D1*
X20680727Y10344033D1*
X20674767Y10336663D1*
X20669610Y10328713D1*
X20665313Y10320267D1*
X20661923Y10311417D1*
X20659480Y10302260D1*
X20658007Y10292897D1*
X20657500Y10283433D1*
Y9941383D1*
X20658007Y9931930D1*
X20659497Y9922583D1*
X20661957Y9913447D1*
X20665357Y9904613D1*
X20669660Y9896183D1*
X20674823Y9888250D1*
X20680783Y9880900D1*
X20687483Y9874213D1*
X20694840Y9868260D1*
X20702783Y9863110D1*
X20711217Y9858820D1*
X20720057Y9855433D1*
X20729200Y9852987D1*
X20738547Y9851510D1*
X20748000Y9851000D1*
X20951000D1*
Y8474000D1*
X20491500D1*
X20482040Y8473507D1*
X20472683Y8472023D1*
X20463533Y8469573D1*
X20454690Y8466180D1*
X20446250Y8461880D1*
X20438307Y8456720D1*
X20430947Y8450757D1*
X20424250Y8444060D1*
X20418290Y8436697D1*
X20413130Y8428750D1*
X20408833Y8420310D1*
X20405440Y8411467D1*
X20402990Y8402317D1*
X20401513Y8392960D1*
X20401000Y8383500D1*
Y6574000D1*
X20348000D1*
X20338530Y6573503D1*
X20329163Y6572020D1*
X20320003Y6569563D1*
X20311150Y6566160D1*
X20302703Y6561850D1*
X20294753Y6556680D1*
X20287387Y6550703D1*
X20280690Y6543993D1*
X20274730Y6536613D1*
X20269573Y6528653D1*
X20265283Y6520197D1*
X20261897Y6511337D1*
X20259460Y6502173D1*
X20257997Y6492803D1*
X20257500Y6483330D1*
Y6141477D1*
X20257997Y6132017D1*
X20259480Y6122663D1*
X20261933Y6113517D1*
X20265327Y6104677D1*
X20269630Y6096237D1*
X20274790Y6088297D1*
X20280750Y6080937D1*
X20287450Y6074240D1*
X20294810Y6068283D1*
X20302757Y6063127D1*
X20311197Y6058830D1*
X20320037Y6055440D1*
X20329187Y6052990D1*
X20338543Y6051513D1*
X20348000Y6051000D1*
X20551000D1*
X20676000D1*
D1*
Y4639500D1*
X20675520Y4630040D1*
X20674037Y4620683D1*
X20671580Y4611533D1*
X20668183Y4602690D1*
X20663880Y4594250D1*
X20658720Y4586307D1*
X20652757Y4578947D1*
X20646060Y4572250D1*
X20638697Y4566287D1*
X20630750Y4561127D1*
X20622310Y4556827D1*
X20613467Y4553433D1*
X20604317Y4550980D1*
X20594960Y4549497D1*
X20585500Y4549000D1*
X20382500D1*
Y3975000D1*
X21792500D1*
Y4549000D1*
X21589500D1*
X21580040Y4549513D1*
X21570683Y4550993D1*
X21561533Y4553440D1*
X21552690Y4556833D1*
X21544250Y4561130D1*
X21536303Y4566290D1*
X21528940Y4572250D1*
X21522243Y4578947D1*
X21516280Y4586307D1*
X21511120Y4594250D1*
X21506820Y4602690D1*
X21503427Y4611533D1*
X21500977Y4620683D1*
X21499493Y4630040D1*
X21499000Y4639500D1*
Y6085500D1*
X21499513Y6094960D1*
X21500993Y6104317D1*
X21503440Y6113467D1*
X21506833Y6122310D1*
X21511130Y6130750D1*
X21516290Y6138697D1*
X21522250Y6146060D1*
X21528947Y6152757D1*
X21536307Y6158720D1*
X21544250Y6163880D1*
X21552690Y6168180D1*
X21561533Y6171573D1*
X21570683Y6174023D1*
X21580040Y6175507D1*
X21589500Y6176000D1*
X21792500D1*
Y6449000D1*
X21439500D1*
X21430040Y6449513D1*
X21420683Y6450990D1*
X21411533Y6453440D1*
X21402690Y6456833D1*
X21394250Y6461130D1*
X21386303Y6466290D1*
X21378940Y6472250D1*
X21372243Y6478947D1*
X21366280Y6486307D1*
X21361120Y6494250D1*
X21356820Y6502690D1*
X21353427Y6511533D1*
X21350977Y6520683D1*
X21349493Y6530040D1*
X21349000Y6539500D1*
Y7985500D1*
X21349513Y7994960D1*
X21350993Y8004317D1*
X21353440Y8013467D1*
X21356833Y8022310D1*
X21361130Y8030750D1*
X21366290Y8038697D1*
X21372250Y8046060D1*
X21378947Y8052757D1*
X21386307Y8058720D1*
X21394250Y8063880D1*
X21402690Y8068180D1*
X21411533Y8071573D1*
X21420683Y8074023D1*
X21430040Y8075507D1*
X21439500Y8076000D1*
X21899000D1*
Y9885500D1*
X21899513Y9894960D1*
X21900993Y9904317D1*
X21903440Y9913467D1*
X21906833Y9922310D1*
X21911130Y9930750D1*
X21916290Y9938697D1*
X21922250Y9946060D1*
X21928947Y9952757D1*
X21936307Y9958720D1*
X21944250Y9963880D1*
X21952690Y9968180D1*
X21961533Y9971573D1*
X21970683Y9974023D1*
X21980040Y9975507D1*
X21989500Y9976000D1*
X22192500D1*
Y10249000D1*
X21864500D1*
X21855040Y10249513D1*
X21845683Y10250993D1*
X21836533Y10253440D1*
X21827690Y10256833D1*
X21819250Y10261130D1*
X21811303Y10266290D1*
X21803940Y10272250D1*
X21797243Y10278947D1*
X21791280Y10286307D1*
X21786120Y10294250D1*
X21781820Y10302690D1*
X21778427Y10311533D1*
X21775977Y10320683D1*
X21774493Y10330040D1*
X21774000Y10339500D1*
Y11785500D1*
X21774513Y11794960D1*
X21775993Y11804317D1*
X21778440Y11813467D1*
X21781833Y11822310D1*
X21786130Y11830750D1*
X21791290Y11838697D1*
X21797250Y11846060D1*
X21803947Y11852757D1*
X21811307Y11858720D1*
X21819250Y11863880D1*
X21827690Y11868180D1*
X21836533Y11871573D1*
X21845683Y11874023D1*
X21855040Y11875507D1*
X21864500Y11876000D1*
X22067500D1*
Y11985000D1*
X20657500D1*
Y11876000D1*
X20860500D1*
X20869960Y11875520D1*
X20879317Y11874037D1*
X20888467Y11871580D1*
X20897310Y11868183D1*
X20905750Y11863883D1*
X20913693Y11858720D1*
X20921053Y11852757D1*
X20927750Y11846060D1*
X20933713Y11838697D1*
X20938873Y11830750D1*
X20943173Y11822310D1*
X20946567Y11813467D1*
X20949020Y11804317D1*
X20950503Y11794960D1*
X20951000Y11785500D1*
Y10339500D1*
X20950520Y10330040D1*
X20949037Y10320683D1*
X20946580Y10311533D1*
X20943183Y10302690D1*
X20938883Y10294250D1*
X20933720Y10286307D1*
X20927757Y10278947D1*
X20921060Y10272250D1*
X20913697Y10266287D1*
X20905750Y10261127D1*
X20897310Y10256827D1*
X20888467Y10253433D1*
X20879317Y10250980D1*
X20869960Y10249497D1*
X20860500Y10249000D1*
X20782500D1*
Y9976000D1*
X20985500D1*
X20994960Y9975520D1*
X21004317Y9974037D1*
X21013467Y9971580D1*
X21022310Y9968183D1*
X21030750Y9963883D1*
X21038693Y9958720D1*
X21046053Y9952757D1*
X21052750Y9946060D1*
X21058713Y9938697D1*
X21063873Y9930750D1*
X21068173Y9922310D1*
X21071567Y9913467D1*
X21074020Y9904317D1*
X21075503Y9894960D1*
X21076000Y9885500D1*
Y8439500D1*
X21075520Y8430040D1*
X21074037Y8420683D1*
X21071580Y8411533D1*
X21068183Y8402690D1*
X21063883Y8394250D1*
X21058720Y8386307D1*
X21052757Y8378947D1*
X21046060Y8372250D1*
X21038697Y8366287D1*
X21030750Y8361127D1*
X21022310Y8356827D1*
X21013467Y8353433D1*
X21004317Y8350980D1*
X20994960Y8349497D1*
X20985500Y8349000D1*
X20526000D1*
Y6539500D1*
X20525520Y6530040D1*
X20524037Y6520683D1*
X20521580Y6511533D1*
X20518183Y6502690D1*
X20513883Y6494250D1*
X20508720Y6486307D1*
X20502757Y6478947D1*
X20496060Y6472250D1*
X20488697Y6466287D1*
X20480750Y6461127D1*
X20472310Y6456827D1*
X20463467Y6453433D1*
X20454317Y6450980D1*
X20444960Y6449497D1*
X20435500Y6449000D1*
X20382500D1*
Y6176000D1*
X20585500D1*
X20594967Y6175503D1*
X20604333Y6174020D1*
X20613490Y6171567D1*
X20622340Y6168167D1*
X20630787Y6163857D1*
X20638733Y6158690D1*
X20646100Y6152717D1*
X20652797Y6146007D1*
X20658757Y6138633D1*
X20663913Y6130677D1*
X20668207Y6122223D1*
X20671593Y6113367D1*
X20674033Y6104207D1*
X20675500Y6094840D1*
X20676000Y6085370D1*
Y6051000D1*
X20551000D1*
Y4674000D1*
X20348000D1*
X20338540Y4673507D1*
X20329183Y4672023D1*
X20320033Y4669573D1*
X20311190Y4666180D1*
X20302750Y4661880D1*
X20294807Y4656720D1*
X20287447Y4650757D1*
X20280750Y4644060D1*
X20274790Y4636697D1*
X20269630Y4628750D1*
X20265333Y4620310D1*
X20261940Y4611467D1*
X20259490Y4602317D1*
X20258013Y4592960D1*
X20257500Y4583500D1*
Y3975000D1*
X20017500D1*
Y4583500D1*
X20017003Y4592960D1*
X20015520Y4602317D1*
X20013067Y4611467D1*
X20009673Y4620310D1*
X20005373Y4628750D1*
X20000213Y4636697D1*
X19994250Y4644060D1*
X19987553Y4650757D1*
X19980193Y4656720D1*
X19972250Y4661880D1*
X19963810Y4666183D1*
X19954967Y4669580D1*
X19945817Y4672037D1*
X19936460Y4673520D1*
X19927000Y4674000D1*
X19724000D1*
Y6051000D1*
X19927000D1*
X19936463Y6051497D1*
X19945823Y6052980D1*
X19954980Y6055437D1*
X19963827Y6058833D1*
X19972270Y6063140D1*
X19980217Y6068303D1*
X19987580Y6074267D1*
X19994280Y6080970D1*
X20000243Y6088337D1*
X20005403Y6096287D1*
X20009703Y6104733D1*
X20013097Y6113580D1*
X20015547Y6122737D1*
X20017027Y6132097D1*
X20017500Y6141563D1*
Y6483500D1*
X20017003Y6492960D1*
X20015520Y6502317D1*
X20013067Y6511467D1*
X20009673Y6520310D1*
X20005373Y6528750D1*
X20000213Y6536697D1*
X19994250Y6544060D1*
X19987553Y6550757D1*
X19980193Y6556720D1*
X19972250Y6561880D1*
X19963810Y6566183D1*
X19954967Y6569580D1*
X19945817Y6572037D1*
X19936460Y6573520D1*
X19927000Y6574000D1*
X19574000D1*
Y7951000D1*
X20033500D1*
X20042960Y7951497D1*
X20052317Y7952980D1*
X20061467Y7955433D1*
X20070310Y7958827D1*
X20078750Y7963127D1*
X20086697Y7968287D1*
X20094060Y7974250D1*
X20100757Y7980947D1*
X20106720Y7988307D1*
X20111880Y7996250D1*
X20116183Y8004690D1*
X20119580Y8013533D1*
X20122037Y8022683D1*
X20123520Y8032040D1*
X20124000Y8041500D1*
Y9851000D1*
X20327000D1*
X20336460Y9851497D1*
X20345817Y9852980D1*
X20354967Y9855433D1*
X20363810Y9858827D1*
X20372250Y9863127D1*
X20380197Y9868287D1*
X20387560Y9874250D1*
X20394257Y9880947D1*
X20400220Y9888307D1*
X20405380Y9896250D1*
X20409683Y9904690D1*
X20413080Y9913533D1*
X20415537Y9922683D1*
X20417020Y9932040D1*
X20417500Y9941500D1*
Y10283500D1*
X20417003Y10292963D1*
X20415520Y10302327D1*
X20413063Y10311480D1*
X20409667Y10320327D1*
X20405360Y10328773D1*
X20400197Y10336720D1*
X20394230Y10344083D1*
X20387527Y10350783D1*
X20380157Y10356747D1*
X20372207Y10361907D1*
X20363760Y10366207D1*
X20354913Y10369600D1*
X20345757Y10372047D1*
X20336393Y10373527D1*
X20326930Y10374000D1*
X19999000D1*
Y11748250D1*
X20202000D1*
X20211460Y11748747D1*
X20220817Y11750230D1*
X20229967Y11752683D1*
X20238810Y11756077D1*
X20247250Y11760377D1*
X20255197Y11765537D1*
X20262560Y11771500D1*
X20269257Y11778197D1*
X20275220Y11785557D1*
X20280380Y11793500D1*
X20284683Y11801940D1*
X20288080Y11810783D1*
X20290537Y11819933D1*
X20292020Y11829290D1*
X20292500Y11838750D1*
Y11842047D1*
Y11885047D1*
X20292003Y11894507D1*
X20290520Y11903863D1*
X20288067Y11913013D1*
X20284673Y11921857D1*
X20280373Y11930297D1*
X20275213Y11938243D1*
X20269250Y11945603D1*
X20262553Y11952303D1*
X20255193Y11958267D1*
X20247250Y11963427D1*
X20238810Y11967730D1*
X20229967Y11971127D1*
X20220817Y11973580D1*
X20211460Y11975067D1*
X20202000Y11975547D1*
X18723000D1*
X18713540Y11975050D1*
X18704183Y11973570D1*
X18695033Y11971120D1*
X18686190Y11967723D1*
X18677750Y11963423D1*
X18669807Y11958267D1*
X18662447Y11952303D1*
X18655750Y11945603D1*
X18649787Y11938243D1*
X18644630Y11930297D1*
X18640333Y11921857D1*
X18636940Y11913013D1*
X18634490Y11903863D1*
X18633010Y11894507D1*
X18632500Y11885047D1*
Y11842047D1*
X18632993Y11832587D1*
X18634477Y11823230D1*
X18636927Y11814080D1*
X18640320Y11805237D1*
X18644620Y11796797D1*
X18649780Y11788853D1*
X18655743Y11781493D1*
X18662440Y11774793D1*
X18669803Y11768833D1*
X18677750Y11763677D1*
X18686190Y11759377D1*
X18695033Y11755983D1*
X18704183Y11753537D1*
X18713540Y11752057D1*
X18723000Y11751547D1*
X18926000D1*
Y10374000D1*
X18848000D1*
X18838537Y10373503D1*
X18829177Y10372023D1*
X18820023Y10369570D1*
X18811177Y10366173D1*
X18802733Y10361867D1*
X18794787Y10356703D1*
X18787423Y10350737D1*
X18780723Y10344033D1*
X18774767Y10336663D1*
X18769610Y10328713D1*
X18765313Y10320267D1*
X18761923Y10311417D1*
X18759477Y10302260D1*
X18758003Y10292897D1*
X18757500Y10283433D1*
Y9941383D1*
X18758007Y9931930D1*
X18759497Y9922583D1*
X18761957Y9913447D1*
X18765357Y9904613D1*
X18769660Y9896183D1*
X18774823Y9888250D1*
X18780783Y9880900D1*
X18787483Y9874213D1*
X18794840Y9868260D1*
X18802783Y9863110D1*
X18811217Y9858820D1*
X18820057Y9855433D1*
X18829200Y9852987D1*
X18838547Y9851510D1*
X18848000Y9851000D1*
X19051000D1*
Y8474000D1*
X18591500D1*
X18582040Y8473507D1*
X18572683Y8472023D1*
X18563533Y8469573D1*
X18554690Y8466180D1*
X18546250Y8461880D1*
X18538307Y8456720D1*
X18530947Y8450757D1*
X18524250Y8444060D1*
X18518287Y8436697D1*
X18513130Y8428750D1*
X18508833Y8420310D1*
X18505440Y8411467D1*
X18502990Y8402317D1*
X18501510Y8392960D1*
X18501000Y8383500D1*
Y6574000D1*
X18448000D1*
X18438530Y6573503D1*
X18429163Y6572020D1*
X18420003Y6569563D1*
X18411150Y6566160D1*
X18402703Y6561850D1*
X18394753Y6556680D1*
X18387387Y6550703D1*
X18380687Y6543990D1*
X18374730Y6536613D1*
X18369573Y6528653D1*
X18365280Y6520197D1*
X18361897Y6511337D1*
X18359460Y6502173D1*
X18357993Y6492803D1*
X18357500Y6483330D1*
Y6141477D1*
X18357997Y6132017D1*
X18359480Y6122663D1*
X18361933Y6113517D1*
X18365327Y6104673D1*
X18369630Y6096237D1*
X18374790Y6088297D1*
X18380750Y6080937D1*
X18387450Y6074240D1*
X18394810Y6068283D1*
X18402757Y6063127D1*
X18411197Y6058830D1*
X18420037Y6055437D1*
X18429187Y6052990D1*
X18438543Y6051510D1*
X18448000Y6051000D1*
X18651000D1*
X18776000D1*
D1*
Y4639500D1*
X18775520Y4630040D1*
X18774033Y4620683D1*
X18771580Y4611533D1*
X18768183Y4602690D1*
X18763880Y4594250D1*
X18758720Y4586307D1*
X18752757Y4578947D1*
X18746060Y4572247D1*
X18738697Y4566287D1*
X18730750Y4561127D1*
X18722310Y4556827D1*
X18713467Y4553433D1*
X18704317Y4550980D1*
X18694960Y4549497D1*
X18685500Y4549000D1*
X18482500D1*
Y3975000D1*
X19892500D1*
Y4549000D1*
X19689500D1*
X19680040Y4549510D1*
X19670683Y4550990D1*
X19661533Y4553440D1*
X19652690Y4556833D1*
X19644250Y4561130D1*
X19636303Y4566290D1*
X19628940Y4572250D1*
X19622243Y4578947D1*
X19616280Y4586307D1*
X19611120Y4594250D1*
X19606820Y4602690D1*
X19603427Y4611533D1*
X19600977Y4620683D1*
X19599493Y4630040D1*
X19599000Y4639500D1*
Y6085500D1*
X19599510Y6094960D1*
X19600990Y6104317D1*
X19603440Y6113467D1*
X19606833Y6122310D1*
X19611130Y6130750D1*
X19616290Y6138697D1*
X19622250Y6146060D1*
X19628947Y6152757D1*
X19636307Y6158720D1*
X19644250Y6163880D1*
X19652690Y6168180D1*
X19661533Y6171573D1*
X19670683Y6174023D1*
X19680040Y6175507D1*
X19689500Y6176000D1*
X19892500D1*
Y6449000D1*
X19539500D1*
X19530040Y6449510D1*
X19520683Y6450990D1*
X19511533Y6453440D1*
X19502690Y6456833D1*
X19494250Y6461130D1*
X19486303Y6466290D1*
X19478940Y6472250D1*
X19472243Y6478947D1*
X19466280Y6486307D1*
X19461120Y6494250D1*
X19456820Y6502690D1*
X19453427Y6511533D1*
X19450977Y6520683D1*
X19449493Y6530040D1*
X19449000Y6539500D1*
Y7985500D1*
X19449510Y7994960D1*
X19450990Y8004317D1*
X19453440Y8013467D1*
X19456833Y8022310D1*
X19461130Y8030750D1*
X19466290Y8038697D1*
X19472250Y8046060D1*
X19478947Y8052757D1*
X19486307Y8058720D1*
X19494250Y8063880D1*
X19502690Y8068180D1*
X19511533Y8071573D1*
X19520683Y8074023D1*
X19530040Y8075507D1*
X19539500Y8076000D1*
X19999000D1*
Y9885500D1*
X19999513Y9894960D1*
X20000990Y9904317D1*
X20003440Y9913467D1*
X20006833Y9922310D1*
X20011130Y9930750D1*
X20016290Y9938697D1*
X20022250Y9946060D1*
X20028947Y9952757D1*
X20036307Y9958720D1*
X20044250Y9963880D1*
X20052690Y9968180D1*
X20061533Y9971573D1*
X20070683Y9974023D1*
X20080040Y9975507D1*
X20089500Y9976000D1*
X20292500D1*
Y10249000D1*
X19964500D1*
X19955040Y10249510D1*
X19945683Y10250990D1*
X19936533Y10253440D1*
X19927690Y10256833D1*
X19919250Y10261130D1*
X19911303Y10266290D1*
X19903940Y10272250D1*
X19897243Y10278947D1*
X19891280Y10286307D1*
X19886120Y10294250D1*
X19881820Y10302690D1*
X19878427Y10311533D1*
X19875977Y10320683D1*
X19874493Y10330040D1*
X19874000Y10339500D1*
Y11751547D1*
X19051000D1*
Y10374547D1*
Y10374000D1*
Y10339500D1*
X19050520Y10330040D1*
X19049033Y10320683D1*
X19046580Y10311533D1*
X19043183Y10302690D1*
X19038880Y10294250D1*
X19033720Y10286307D1*
X19027757Y10278947D1*
X19021060Y10272247D1*
X19013697Y10266287D1*
X19005750Y10261127D1*
X18997310Y10256827D1*
X18988467Y10253433D1*
X18979317Y10250980D1*
X18969960Y10249497D1*
X18960500Y10249000D1*
X18882500D1*
Y9976000D1*
X19085500D1*
X19094960Y9975520D1*
X19104317Y9974033D1*
X19113467Y9971580D1*
X19122310Y9968183D1*
X19130750Y9963880D1*
X19138693Y9958720D1*
X19146053Y9952757D1*
X19152753Y9946060D1*
X19158713Y9938697D1*
X19163873Y9930750D1*
X19168173Y9922310D1*
X19171567Y9913467D1*
X19174020Y9904317D1*
X19175503Y9894960D1*
X19176000Y9885500D1*
Y8439500D1*
X19175520Y8430040D1*
X19174033Y8420683D1*
X19171580Y8411533D1*
X19168183Y8402690D1*
X19163880Y8394250D1*
X19158720Y8386307D1*
X19152757Y8378947D1*
X19146060Y8372247D1*
X19138697Y8366287D1*
X19130750Y8361127D1*
X19122310Y8356827D1*
X19113467Y8353433D1*
X19104317Y8350980D1*
X19094960Y8349497D1*
X19085500Y8349000D1*
X18626000D1*
Y6539500D1*
X18625520Y6530040D1*
X18624033Y6520683D1*
X18621580Y6511533D1*
X18618183Y6502690D1*
X18613880Y6494250D1*
X18608720Y6486307D1*
X18602757Y6478947D1*
X18596060Y6472247D1*
X18588697Y6466287D1*
X18580750Y6461127D1*
X18572310Y6456827D1*
X18563467Y6453433D1*
X18554317Y6450980D1*
X18544960Y6449497D1*
X18535500Y6449000D1*
X18482500D1*
Y6176000D1*
X18685500D1*
X18694967Y6175503D1*
X18704333Y6174020D1*
X18713490Y6171567D1*
X18722340Y6168163D1*
X18730787Y6163857D1*
X18738733Y6158690D1*
X18746100Y6152717D1*
X18752797Y6146007D1*
X18758757Y6138633D1*
X18763913Y6130677D1*
X18768207Y6122223D1*
X18771593Y6113367D1*
X18774033Y6104207D1*
X18775503Y6094840D1*
X18776000Y6085370D1*
Y6051000D1*
X18651000D1*
Y4674000D1*
X18448000D1*
X18438540Y4673507D1*
X18429183Y4672023D1*
X18420033Y4669573D1*
X18411190Y4666180D1*
X18402750Y4661880D1*
X18394807Y4656720D1*
X18387447Y4650757D1*
X18380750Y4644060D1*
X18374787Y4636697D1*
X18369630Y4628750D1*
X18365330Y4620310D1*
X18361940Y4611467D1*
X18359490Y4602317D1*
X18358010Y4592960D1*
X18357500Y4583500D1*
Y3975000D1*
X18117500D1*
Y4583500D1*
X18117003Y4592960D1*
X18115520Y4602317D1*
X18113067Y4611467D1*
X18109673Y4620310D1*
X18105373Y4628750D1*
X18100213Y4636697D1*
X18094253Y4644060D1*
X18087553Y4650757D1*
X18080193Y4656720D1*
X18072250Y4661880D1*
X18063810Y4666183D1*
X18054967Y4669580D1*
X18045817Y4672033D1*
X18036460Y4673520D1*
X18027000Y4674000D1*
X17824000D1*
Y6051000D1*
X18027000D1*
X18036463Y6051497D1*
X18045823Y6052980D1*
X18054980Y6055437D1*
X18063827Y6058833D1*
X18072270Y6063137D1*
X18080217Y6068300D1*
X18087580Y6074267D1*
X18094280Y6080970D1*
X18100243Y6088337D1*
X18105400Y6096287D1*
X18109700Y6104733D1*
X18113097Y6113580D1*
X18115547Y6122737D1*
X18117023Y6132097D1*
X18117500Y6141563D1*
Y6483500D1*
X18117003Y6492960D1*
X18115520Y6502317D1*
X18113067Y6511467D1*
X18109673Y6520310D1*
X18105373Y6528750D1*
X18100213Y6536697D1*
X18094253Y6544060D1*
X18087553Y6550757D1*
X18080193Y6556720D1*
X18072250Y6561880D1*
X18063810Y6566183D1*
X18054967Y6569580D1*
X18045817Y6572033D1*
X18036460Y6573520D1*
X18027000Y6574000D1*
X17674000D1*
Y7951000D1*
X18133500D1*
X18142960Y7951497D1*
X18152317Y7952980D1*
X18161467Y7955433D1*
X18170310Y7958827D1*
X18178750Y7963127D1*
X18186697Y7968287D1*
X18194060Y7974247D1*
X18200757Y7980947D1*
X18206720Y7988307D1*
X18211880Y7996250D1*
X18216183Y8004690D1*
X18219580Y8013533D1*
X18222033Y8022683D1*
X18223520Y8032040D1*
X18224000Y8041500D1*
Y9851000D1*
X18427000D1*
X18436460Y9851497D1*
X18445817Y9852980D1*
X18454967Y9855433D1*
X18463810Y9858827D1*
X18472250Y9863127D1*
X18480197Y9868287D1*
X18487560Y9874247D1*
X18494257Y9880947D1*
X18500220Y9888307D1*
X18505380Y9896250D1*
X18509683Y9904690D1*
X18513080Y9913533D1*
X18515533Y9922683D1*
X18517020Y9932040D1*
X18517500Y9941500D1*
Y10283500D1*
X18517003Y10292963D1*
X18515520Y10302327D1*
X18513063Y10311480D1*
X18509667Y10320327D1*
X18505360Y10328770D1*
X18500197Y10336720D1*
X18494230Y10344083D1*
X18487527Y10350783D1*
X18480160Y10356747D1*
X18472207Y10361903D1*
X18463760Y10366203D1*
X18454913Y10369597D1*
X18445757Y10372047D1*
X18436393Y10373527D1*
X18426930Y10374000D1*
X18099000D1*
Y11751000D1*
X18302000D1*
X18311460Y11751497D1*
X18320817Y11752980D1*
X18329967Y11755433D1*
X18338810Y11758827D1*
X18347250Y11763127D1*
X18355197Y11768287D1*
X18362560Y11774247D1*
X18369257Y11780947D1*
X18375220Y11788307D1*
X18380380Y11796250D1*
X18384683Y11804690D1*
X18388080Y11813533D1*
X18390533Y11822683D1*
X18392020Y11832040D1*
X18392500Y11841500D1*
Y12044500D1*
X18392003Y12053960D1*
X18390520Y12063317D1*
X18388067Y12072467D1*
X18384673Y12081310D1*
X18380373Y12089750D1*
X18375213Y12097697D1*
X18369253Y12105060D1*
X18362553Y12111757D1*
X18355193Y12117720D1*
X18347250Y12122880D1*
X18338810Y12127183D1*
X18329967Y12130580D1*
X18320817Y12133033D1*
X18311460Y12134520D1*
X18302000Y12135000D1*
X16823000D1*
X16813540Y12134507D1*
X16804183Y12133023D1*
X16795033Y12130573D1*
X16786190Y12127180D1*
X16777750Y12122877D1*
X16769807Y12117720D1*
X16762447Y12111757D1*
X16755747Y12105060D1*
X16749787Y12097697D1*
X16744630Y12089750D1*
X16740330Y12081310D1*
X16736937Y12072467D1*
X16734490Y12063317D1*
X16733010Y12053960D1*
X16732500Y12044500D1*
Y11841500D1*
X16732993Y11832040D1*
X16734477Y11822683D1*
X16736927Y11813533D1*
X16740320Y11804690D1*
X16744623Y11796250D1*
X16749780Y11788307D1*
X16755743Y11780947D1*
X16762440Y11774247D1*
X16769803Y11768287D1*
X16777750Y11763130D1*
X16786190Y11758830D1*
X16795033Y11755437D1*
X16804183Y11752990D1*
X16813540Y11751510D1*
X16823000Y11751000D1*
X17026000D1*
Y10374000D1*
X16948000D1*
X16938537Y10373503D1*
X16929177Y10372023D1*
X16920023Y10369570D1*
X16911177Y10366170D1*
X16902733Y10361867D1*
X16894787Y10356703D1*
X16887423Y10350737D1*
X16880723Y10344033D1*
X16874763Y10336663D1*
X16869607Y10328713D1*
X16865310Y10320267D1*
X16861923Y10311417D1*
X16859477Y10302260D1*
X16858003Y10292897D1*
X16857500Y10283433D1*
Y9941383D1*
X16858007Y9931930D1*
X16859497Y9922583D1*
X16861957Y9913447D1*
X16865357Y9904613D1*
X16869660Y9896183D1*
X16874823Y9888250D1*
X16880783Y9880900D1*
X16887483Y9874210D1*
X16894843Y9868260D1*
X16902783Y9863110D1*
X16911220Y9858817D1*
X16920057Y9855430D1*
X16929200Y9852987D1*
X16938547Y9851510D1*
X16948000Y9851000D1*
X17151000D1*
Y8474000D1*
X16691500D1*
X16682040Y8473507D1*
X16672683Y8472023D1*
X16663533Y8469573D1*
X16654690Y8466180D1*
X16646250Y8461877D1*
X16638307Y8456720D1*
X16630947Y8450757D1*
X16624247Y8444060D1*
X16618287Y8436697D1*
X16613130Y8428750D1*
X16608830Y8420310D1*
X16605437Y8411467D1*
X16602990Y8402317D1*
X16601510Y8392960D1*
X16601000Y8383500D1*
Y6574000D1*
X16548000D1*
X16538530Y6573503D1*
X16529163Y6572020D1*
X16520003Y6569563D1*
X16511150Y6566160D1*
X16502703Y6561850D1*
X16494753Y6556680D1*
X16487387Y6550703D1*
X16480687Y6543990D1*
X16474727Y6536613D1*
X16469573Y6528653D1*
X16465280Y6520197D1*
X16461897Y6511337D1*
X16459457Y6502173D1*
X16457993Y6492803D1*
X16457500Y6483330D1*
Y6141477D1*
X16457997Y6132017D1*
X16459480Y6122663D1*
X16461933Y6113517D1*
X16465330Y6104673D1*
X16469630Y6096237D1*
X16474790Y6088297D1*
X16480750Y6080937D1*
X16487450Y6074240D1*
X16494810Y6068283D1*
X16502757Y6063127D1*
X16511197Y6058827D1*
X16520037Y6055437D1*
X16529187Y6052987D1*
X16538543Y6051510D1*
X16548000Y6051000D1*
X16751000D1*
X16876000D1*
D1*
Y4639500D1*
X16875517Y4630040D1*
X16874033Y4620683D1*
X16871580Y4611533D1*
X16868183Y4602690D1*
X16863880Y4594250D1*
X16858720Y4586307D1*
X16852757Y4578947D1*
X16846057Y4572247D1*
X16838697Y4566287D1*
X16830750Y4561127D1*
X16822310Y4556827D1*
X16813467Y4553433D1*
X16804317Y4550980D1*
X16794960Y4549497D1*
X16785500Y4549000D1*
X16582500D1*
Y3975000D1*
X17992500D1*
Y4549000D1*
X17789500D1*
X17780040Y4549510D1*
X17770683Y4550990D1*
X17761533Y4553440D1*
X17752690Y4556830D1*
X17744250Y4561130D1*
X17736303Y4566287D1*
X17728940Y4572250D1*
X17722243Y4578947D1*
X17716280Y4586307D1*
X17711120Y4594250D1*
X17706820Y4602690D1*
X17703427Y4611533D1*
X17700977Y4620683D1*
X17699493Y4630040D1*
X17699000Y4639500D1*
Y6085500D1*
X17699510Y6094960D1*
X17700990Y6104317D1*
X17703440Y6113467D1*
X17706830Y6122310D1*
X17711130Y6130750D1*
X17716287Y6138697D1*
X17722250Y6146060D1*
X17728947Y6152757D1*
X17736307Y6158720D1*
X17744250Y6163880D1*
X17752690Y6168180D1*
X17761533Y6171573D1*
X17770683Y6174023D1*
X17780040Y6175507D1*
X17789500Y6176000D1*
X17992500D1*
Y6449000D1*
X17639500D1*
X17630040Y6449510D1*
X17620683Y6450990D1*
X17611533Y6453440D1*
X17602690Y6456830D1*
X17594250Y6461130D1*
X17586303Y6466287D1*
X17578940Y6472247D1*
X17572243Y6478947D1*
X17566280Y6486307D1*
X17561123Y6494250D1*
X17556820Y6502690D1*
X17553427Y6511533D1*
X17550977Y6520683D1*
X17549493Y6530040D1*
X17549000Y6539500D1*
Y7985500D1*
X17549510Y7994960D1*
X17550990Y8004317D1*
X17553440Y8013467D1*
X17556830Y8022310D1*
X17561130Y8030750D1*
X17566287Y8038697D1*
X17572250Y8046060D1*
X17578947Y8052757D1*
X17586307Y8058720D1*
X17594250Y8063880D1*
X17602690Y8068180D1*
X17611533Y8071573D1*
X17620683Y8074023D1*
X17630040Y8075507D1*
X17639500Y8076000D1*
X18099000D1*
Y9885500D1*
X18099510Y9894960D1*
X18100990Y9904317D1*
X18103440Y9913467D1*
X18106830Y9922310D1*
X18111130Y9930750D1*
X18116287Y9938697D1*
X18122250Y9946060D1*
X18128947Y9952757D1*
X18136307Y9958720D1*
X18144250Y9963880D1*
X18152690Y9968180D1*
X18161533Y9971573D1*
X18170683Y9974023D1*
X18180040Y9975507D1*
X18189500Y9976000D1*
X18392500D1*
Y10249000D1*
X18064500D1*
X18055040Y10249510D1*
X18045683Y10250990D1*
X18036533Y10253440D1*
X18027690Y10256830D1*
X18019250Y10261130D1*
X18011303Y10266287D1*
X18003940Y10272250D1*
X17997243Y10278947D1*
X17991280Y10286307D1*
X17986120Y10294250D1*
X17981820Y10302690D1*
X17978427Y10311533D1*
X17975977Y10320683D1*
X17974493Y10330040D1*
X17974000Y10339500D1*
Y11785500D1*
X17974510Y11794960D1*
X17975990Y11804317D1*
X17978440Y11813467D1*
X17981830Y11822310D1*
X17986130Y11830750D1*
X17991287Y11838697D1*
X17997250Y11846060D1*
X18003947Y11852757D1*
X18011307Y11858720D1*
X18019250Y11863880D1*
X18027690Y11868180D1*
X18036533Y11871573D1*
X18045683Y11874023D1*
X18055040Y11875507D1*
X18064500Y11876000D1*
X18267500D1*
Y12010000D1*
X16857500D1*
Y11876000D1*
X17060500D1*
X17069960Y11875517D1*
X17079317Y11874033D1*
X17088467Y11871580D1*
X17097310Y11868183D1*
X17105750Y11863880D1*
X17113693Y11858720D1*
X17121053Y11852757D1*
X17127753Y11846057D1*
X17133713Y11838697D1*
X17138873Y11830750D1*
X17143173Y11822310D1*
X17146567Y11813467D1*
X17149020Y11804317D1*
X17150503Y11794960D1*
X17151000Y11785500D1*
Y10339500D1*
X17150517Y10330040D1*
X17149033Y10320683D1*
X17146580Y10311533D1*
X17143183Y10302690D1*
X17138880Y10294250D1*
X17133720Y10286307D1*
X17127757Y10278947D1*
X17121060Y10272247D1*
X17113697Y10266287D1*
X17105750Y10261127D1*
X17097310Y10256827D1*
X17088467Y10253433D1*
X17079317Y10250980D1*
X17069960Y10249497D1*
X17060500Y10249000D1*
X16982500D1*
Y9976000D1*
X17185500D1*
X17194960Y9975517D1*
X17204317Y9974033D1*
X17213467Y9971580D1*
X17222310Y9968183D1*
X17230750Y9963880D1*
X17238693Y9958720D1*
X17246053Y9952757D1*
X17252753Y9946057D1*
X17258713Y9938697D1*
X17263873Y9930750D1*
X17268173Y9922310D1*
X17271567Y9913467D1*
X17274020Y9904317D1*
X17275503Y9894960D1*
X17276000Y9885500D1*
Y8439500D1*
X17275517Y8430040D1*
X17274033Y8420683D1*
X17271580Y8411533D1*
X17268183Y8402690D1*
X17263880Y8394250D1*
X17258720Y8386307D1*
X17252757Y8378947D1*
X17246060Y8372247D1*
X17238697Y8366287D1*
X17230750Y8361127D1*
X17222310Y8356827D1*
X17213467Y8353433D1*
X17204317Y8350980D1*
X17194960Y8349497D1*
X17185500Y8349000D1*
X16726000D1*
Y6539500D1*
X16725517Y6530040D1*
X16724033Y6520683D1*
X16721580Y6511533D1*
X16718183Y6502690D1*
X16713880Y6494250D1*
X16708720Y6486307D1*
X16702757Y6478947D1*
X16696060Y6472247D1*
X16688697Y6466287D1*
X16680750Y6461127D1*
X16672310Y6456827D1*
X16663467Y6453433D1*
X16654317Y6450980D1*
X16644960Y6449497D1*
X16635500Y6449000D1*
X16582500D1*
Y6176000D1*
X16785500D1*
X16794967Y6175503D1*
X16804333Y6174020D1*
X16813490Y6171567D1*
X16822340Y6168163D1*
X16830787Y6163857D1*
X16838733Y6158690D1*
X16846100Y6152717D1*
X16852797Y6146007D1*
X16858757Y6138633D1*
X16863913Y6130677D1*
X16868207Y6122223D1*
X16871593Y6113367D1*
X16874033Y6104207D1*
X16875503Y6094840D1*
X16876000Y6085370D1*
Y6051000D1*
X16751000D1*
Y4674000D1*
X16548000D1*
X16538540Y4673507D1*
X16529183Y4672023D1*
X16520033Y4669573D1*
X16511190Y4666180D1*
X16502750Y4661877D1*
X16494807Y4656720D1*
X16487447Y4650757D1*
X16480747Y4644060D1*
X16474787Y4636697D1*
X16469630Y4628750D1*
X16465330Y4620310D1*
X16461937Y4611467D1*
X16459487Y4602317D1*
X16458010Y4592960D1*
X16457500Y4583500D1*
Y3975000D1*
X16217500D1*
Y4583500D1*
X16217003Y4592960D1*
X16215520Y4602317D1*
X16213067Y4611467D1*
X16209673Y4620310D1*
X16205373Y4628750D1*
X16200213Y4636697D1*
X16194253Y4644057D1*
X16187553Y4650757D1*
X16180193Y4656720D1*
X16172250Y4661880D1*
X16163810Y4666183D1*
X16154967Y4669580D1*
X16145817Y4672033D1*
X16136460Y4673517D1*
X16127000Y4674000D1*
X15924000D1*
Y6051000D1*
X16127000D1*
X16136463Y6051497D1*
X16145823Y6052980D1*
X16154980Y6055437D1*
X16163827Y6058833D1*
X16172270Y6063137D1*
X16180217Y6068300D1*
X16187580Y6074267D1*
X16194280Y6080970D1*
X16200240Y6088337D1*
X16205400Y6096287D1*
X16209700Y6104733D1*
X16213093Y6113580D1*
X16215543Y6122737D1*
X16217023Y6132097D1*
X16217500Y6141563D1*
Y6483500D1*
X16217003Y6492960D1*
X16215520Y6502317D1*
X16213067Y6511467D1*
X16209673Y6520310D1*
X16205373Y6528750D1*
X16200213Y6536697D1*
X16194253Y6544057D1*
X16187553Y6550757D1*
X16180193Y6556720D1*
X16172250Y6561880D1*
X16163810Y6566183D1*
X16154967Y6569580D1*
X16145817Y6572033D1*
X16136460Y6573517D1*
X16127000Y6574000D1*
X15774000D1*
Y7951000D1*
X16233500D1*
X16242960Y7951497D1*
X16252317Y7952980D1*
X16261467Y7955433D1*
X16270310Y7958827D1*
X16278750Y7963127D1*
X16286697Y7968287D1*
X16294057Y7974247D1*
X16300757Y7980947D1*
X16306720Y7988307D1*
X16311880Y7996250D1*
X16316183Y8004690D1*
X16319580Y8013533D1*
X16322033Y8022683D1*
X16323517Y8032040D1*
X16324000Y8041500D1*
Y9851000D1*
X16527000D1*
X16536460Y9851497D1*
X16545817Y9852980D1*
X16554967Y9855433D1*
X16563810Y9858827D1*
X16572250Y9863127D1*
X16580197Y9868287D1*
X16587557Y9874247D1*
X16594257Y9880947D1*
X16600220Y9888307D1*
X16605380Y9896250D1*
X16609683Y9904690D1*
X16613080Y9913533D1*
X16615533Y9922683D1*
X16617017Y9932040D1*
X16617500Y9941500D1*
Y10283500D1*
X16616990Y10292963D1*
X16615510Y10302327D1*
X16613057Y10311480D1*
X16609663Y10320327D1*
X16605360Y10328770D1*
X16600197Y10336720D1*
X16594230Y10344083D1*
X16587527Y10350783D1*
X16580160Y10356743D1*
X16572207Y10361903D1*
X16563760Y10366200D1*
X16554913Y10369590D1*
X16545757Y10372037D1*
X16536393Y10373513D1*
X16526930Y10374000D1*
X16199000D1*
Y11751000D1*
X16402000D1*
X16411460Y11751510D1*
X16420817Y11752987D1*
X16429967Y11755437D1*
X16438810Y11758830D1*
X16447250Y11763130D1*
X16455197Y11768287D1*
X16462560Y11774247D1*
X16469257Y11780947D1*
X16475220Y11788307D1*
X16480377Y11796250D1*
X16484680Y11804690D1*
X16488073Y11813533D1*
X16490523Y11822683D1*
X16492007Y11832040D1*
X16492500Y11841500D1*
Y12169500D1*
X16491990Y12178960D1*
X16490513Y12188317D1*
X16488063Y12197467D1*
X16484670Y12206310D1*
X16480370Y12214750D1*
X16475213Y12222697D1*
X16469253Y12230060D1*
X16462553Y12236757D1*
X16455193Y12242720D1*
X16447250Y12247877D1*
X16438810Y12252180D1*
X16429967Y12255573D1*
X16420817Y12258023D1*
X16411460Y12259507D1*
X16402000Y12260000D1*
X14923000D1*
X14913540Y12259517D1*
X14904183Y12258033D1*
X14895033Y12255577D1*
X14886190Y12252183D1*
X14877750Y12247880D1*
X14869807Y12242720D1*
X14862447Y12236757D1*
X14855747Y12230057D1*
X14849787Y12222697D1*
X14844627Y12214750D1*
X14840327Y12206310D1*
X14836930Y12197467D1*
X14834480Y12188317D1*
X14832997Y12178960D1*
X14832500Y12169500D1*
Y11841500D1*
X14832993Y11832040D1*
X14834477Y11822683D1*
X14836927Y11813533D1*
X14840323Y11804690D1*
X14844623Y11796250D1*
X14849780Y11788307D1*
X14855743Y11780947D1*
X14862443Y11774247D1*
X14869803Y11768287D1*
X14877750Y11763130D1*
X14886190Y11758830D1*
X14895033Y11755437D1*
X14904183Y11752987D1*
X14913540Y11751507D1*
X14923000Y11751000D1*
X15126000D1*
Y10374000D1*
X15048000D1*
X15038537Y10373503D1*
X15029177Y10372023D1*
X15020023Y10369570D1*
X15011173Y10366170D1*
X15002733Y10361867D1*
X14994787Y10356703D1*
X14987423Y10350737D1*
X14980723Y10344033D1*
X14974763Y10336663D1*
X14969607Y10328713D1*
X14965310Y10320267D1*
X14961920Y10311417D1*
X14959477Y10302260D1*
X14958000Y10292897D1*
X14957500Y10283433D1*
Y9941383D1*
X14958007Y9931930D1*
X14959497Y9922583D1*
X14961957Y9913447D1*
X14965357Y9904613D1*
X14969660Y9896183D1*
X14974823Y9888250D1*
X14980787Y9880900D1*
X14987483Y9874210D1*
X14994843Y9868260D1*
X15002783Y9863110D1*
X15011220Y9858817D1*
X15020057Y9855430D1*
X15029200Y9852983D1*
X15038547Y9851507D1*
X15048000Y9851000D1*
X15251000D1*
Y8474000D1*
X14791500D1*
X14782040Y8473507D1*
X14772683Y8472023D1*
X14763533Y8469573D1*
X14754690Y8466177D1*
X14746250Y8461877D1*
X14738307Y8456720D1*
X14730947Y8450757D1*
X14724247Y8444057D1*
X14718287Y8436697D1*
X14713130Y8428750D1*
X14708830Y8420310D1*
X14705437Y8411467D1*
X14702987Y8402317D1*
X14701507Y8392960D1*
X14701000Y8383500D1*
Y6574000D1*
X14648000D1*
X14638530Y6573503D1*
X14629163Y6572020D1*
X14620003Y6569563D1*
X14611150Y6566160D1*
X14602703Y6561850D1*
X14594753Y6556680D1*
X14587387Y6550703D1*
X14580687Y6543990D1*
X14574727Y6536613D1*
X14569573Y6528653D1*
X14565280Y6520197D1*
X14561897Y6511337D1*
X14559457Y6502173D1*
X14557990Y6492803D1*
X14557500Y6483330D1*
Y6141477D1*
X14557997Y6132017D1*
X14559480Y6122663D1*
X14561933Y6113517D1*
X14565330Y6104673D1*
X14569630Y6096237D1*
X14574790Y6088293D1*
X14580753Y6080937D1*
X14587450Y6074240D1*
X14594813Y6068280D1*
X14602757Y6063127D1*
X14611197Y6058827D1*
X14620040Y6055437D1*
X14629187Y6052987D1*
X14638543Y6051507D1*
X14648000Y6051000D1*
X14851000D1*
X14976000D1*
D1*
Y4639500D1*
X14975517Y4630040D1*
X14974033Y4620683D1*
X14971577Y4611533D1*
X14968183Y4602690D1*
X14963880Y4594250D1*
X14958720Y4586307D1*
X14952757Y4578947D1*
X14946057Y4572247D1*
X14938697Y4566287D1*
X14930750Y4561127D1*
X14922310Y4556827D1*
X14913467Y4553430D1*
X14904317Y4550980D1*
X14894960Y4549497D1*
X14885500Y4549000D1*
X14682500D1*
Y3975000D1*
X16092500D1*
Y4549000D1*
X15889500D1*
X15880040Y4549507D1*
X15870683Y4550987D1*
X15861533Y4553437D1*
X15852690Y4556830D1*
X15844250Y4561130D1*
X15836303Y4566287D1*
X15828940Y4572247D1*
X15822243Y4578947D1*
X15816280Y4586307D1*
X15811123Y4594250D1*
X15806820Y4602690D1*
X15803427Y4611533D1*
X15800977Y4620683D1*
X15799493Y4630040D1*
X15799000Y4639500D1*
Y6085500D1*
X15799507Y6094960D1*
X15800987Y6104317D1*
X15803437Y6113467D1*
X15806830Y6122310D1*
X15811130Y6130750D1*
X15816287Y6138697D1*
X15822247Y6146060D1*
X15828947Y6152757D1*
X15836307Y6158720D1*
X15844250Y6163877D1*
X15852690Y6168180D1*
X15861533Y6171573D1*
X15870683Y6174023D1*
X15880040Y6175507D1*
X15889500Y6176000D1*
X16092500D1*
Y6449000D1*
X15739500D1*
X15730040Y6449507D1*
X15720683Y6450987D1*
X15711533Y6453437D1*
X15702690Y6456830D1*
X15694250Y6461130D1*
X15686303Y6466287D1*
X15678943Y6472247D1*
X15672243Y6478947D1*
X15666280Y6486307D1*
X15661123Y6494250D1*
X15656820Y6502690D1*
X15653427Y6511533D1*
X15650977Y6520683D1*
X15649493Y6530040D1*
X15649000Y6539500D1*
Y7985500D1*
X15649507Y7994960D1*
X15650987Y8004317D1*
X15653437Y8013467D1*
X15656830Y8022310D1*
X15661130Y8030750D1*
X15666287Y8038697D1*
X15672247Y8046057D1*
X15678947Y8052757D1*
X15686307Y8058720D1*
X15694250Y8063877D1*
X15702690Y8068180D1*
X15711533Y8071573D1*
X15720683Y8074023D1*
X15730040Y8075507D1*
X15739500Y8076000D1*
X16199000D1*
Y9885500D1*
X16199510Y9894960D1*
X16200987Y9904317D1*
X16203437Y9913467D1*
X16206830Y9922310D1*
X16211130Y9930750D1*
X16216287Y9938697D1*
X16222247Y9946060D1*
X16228947Y9952757D1*
X16236307Y9958720D1*
X16244250Y9963877D1*
X16252690Y9968180D1*
X16261533Y9971573D1*
X16270683Y9974023D1*
X16280040Y9975507D1*
X16289500Y9976000D1*
X16492500D1*
Y10249000D1*
X16164500D1*
X16155040Y10249510D1*
X16145683Y10250987D1*
X16136533Y10253437D1*
X16127690Y10256830D1*
X16119250Y10261130D1*
X16111303Y10266287D1*
X16103943Y10272247D1*
X16097243Y10278947D1*
X16091280Y10286307D1*
X16086123Y10294250D1*
X16081820Y10302690D1*
X16078427Y10311533D1*
X16075977Y10320683D1*
X16074493Y10330040D1*
X16074000Y10339500D1*
Y11785500D1*
X16074510Y11794960D1*
X16075987Y11804317D1*
X16078437Y11813467D1*
X16081830Y11822310D1*
X16086130Y11830750D1*
X16091287Y11838697D1*
X16097247Y11846057D1*
X16103947Y11852757D1*
X16111307Y11858720D1*
X16119250Y11863877D1*
X16127690Y11868180D1*
X16136533Y11871573D1*
X16145683Y11874023D1*
X16155040Y11875507D1*
X16164500Y11876000D1*
X16367500D1*
Y12135000D1*
X14957500D1*
Y11876000D1*
X15160500D1*
X15169960Y11875517D1*
X15179317Y11874033D1*
X15188467Y11871577D1*
X15197310Y11868183D1*
X15205750Y11863880D1*
X15213693Y11858720D1*
X15221053Y11852757D1*
X15227753Y11846057D1*
X15233713Y11838697D1*
X15238873Y11830750D1*
X15243173Y11822310D1*
X15246570Y11813467D1*
X15249020Y11804317D1*
X15250503Y11794960D1*
X15251000Y11785500D1*
Y10339500D1*
X15250517Y10330040D1*
X15249033Y10320683D1*
X15246580Y10311533D1*
X15243183Y10302690D1*
X15238880Y10294250D1*
X15233720Y10286307D1*
X15227757Y10278947D1*
X15221057Y10272247D1*
X15213697Y10266287D1*
X15205750Y10261127D1*
X15197310Y10256827D1*
X15188467Y10253430D1*
X15179317Y10250980D1*
X15169960Y10249497D1*
X15160500Y10249000D1*
X15082500D1*
Y9976000D1*
X15285500D1*
X15294960Y9975517D1*
X15304317Y9974033D1*
X15313467Y9971580D1*
X15322310Y9968183D1*
X15330750Y9963880D1*
X15338693Y9958720D1*
X15346053Y9952757D1*
X15352753Y9946057D1*
X15358713Y9938697D1*
X15363873Y9930750D1*
X15368173Y9922310D1*
X15371570Y9913467D1*
X15374020Y9904317D1*
X15375503Y9894960D1*
X15376000Y9885500D1*
Y8439500D1*
X15375517Y8430040D1*
X15374033Y8420683D1*
X15371580Y8411533D1*
X15368183Y8402690D1*
X15363880Y8394250D1*
X15358720Y8386307D1*
X15352757Y8378947D1*
X15346057Y8372247D1*
X15338697Y8366287D1*
X15330750Y8361127D1*
X15322310Y8356827D1*
X15313467Y8353430D1*
X15304317Y8350980D1*
X15294960Y8349497D1*
X15285500Y8349000D1*
X14826000D1*
Y6539500D1*
X14825517Y6530040D1*
X14824033Y6520683D1*
X14821577Y6511533D1*
X14818183Y6502690D1*
X14813880Y6494250D1*
X14808720Y6486307D1*
X14802757Y6478947D1*
X14796057Y6472247D1*
X14788697Y6466287D1*
X14780750Y6461127D1*
X14772310Y6456827D1*
X14763467Y6453430D1*
X14754317Y6450980D1*
X14744960Y6449497D1*
X14735500Y6449000D1*
X14682500D1*
Y6176000D1*
X14885500D1*
X14894967Y6175503D1*
X14904333Y6174020D1*
X14913490Y6171563D1*
X14922340Y6168163D1*
X14930787Y6163857D1*
X14938737Y6158687D1*
X14946100Y6152717D1*
X14952797Y6146007D1*
X14958757Y6138633D1*
X14963913Y6130677D1*
X14968210Y6122223D1*
X14971593Y6113367D1*
X14974037Y6104207D1*
X14975507Y6094840D1*
X14976000Y6085370D1*
Y6051000D1*
X14851000D1*
Y4674000D1*
X14648000D1*
X14638540Y4673507D1*
X14629183Y4672023D1*
X14620033Y4669573D1*
X14611190Y4666177D1*
X14602750Y4661877D1*
X14594807Y4656720D1*
X14587447Y4650757D1*
X14580747Y4644057D1*
X14574787Y4636697D1*
X14569630Y4628750D1*
X14565330Y4620310D1*
X14561937Y4611467D1*
X14559487Y4602317D1*
X14558007Y4592960D1*
X14557500Y4583500D1*
Y3975000D1*
X14317500D1*
Y4583500D1*
X14317003Y4592960D1*
X14315520Y4602317D1*
X14313070Y4611467D1*
X14309673Y4620310D1*
X14305373Y4628750D1*
X14300213Y4636697D1*
X14294253Y4644057D1*
X14287553Y4650757D1*
X14280193Y4656720D1*
X14272250Y4661880D1*
X14263810Y4666180D1*
X14254967Y4669577D1*
X14245817Y4672030D1*
X14236460Y4673517D1*
X14227000Y4674000D1*
X14024000D1*
Y6051000D1*
X14227000D1*
X14236463Y6051497D1*
X14245823Y6052980D1*
X14254977Y6055437D1*
X14263827Y6058833D1*
X14272270Y6063137D1*
X14280217Y6068300D1*
X14287580Y6074267D1*
X14294280Y6080970D1*
X14300240Y6088337D1*
X14305400Y6096287D1*
X14309700Y6104733D1*
X14313093Y6113580D1*
X14315543Y6122737D1*
X14317020Y6132097D1*
X14317500Y6141563D1*
Y6483500D1*
X14317003Y6492960D1*
X14315520Y6502317D1*
X14313070Y6511467D1*
X14309673Y6520310D1*
X14305373Y6528750D1*
X14300213Y6536697D1*
X14294253Y6544057D1*
X14287553Y6550757D1*
X14280193Y6556720D1*
X14272250Y6561880D1*
X14263810Y6566180D1*
X14254967Y6569577D1*
X14245817Y6572030D1*
X14236460Y6573517D1*
X14227000Y6574000D1*
X13874000D1*
Y7951000D1*
X14333500D1*
X14342960Y7951497D1*
X14352317Y7952980D1*
X14361467Y7955430D1*
X14370310Y7958827D1*
X14378750Y7963127D1*
X14386697Y7968287D1*
X14394057Y7974247D1*
X14400757Y7980947D1*
X14406720Y7988307D1*
X14411880Y7996250D1*
X14416180Y8004690D1*
X14419577Y8013533D1*
X14422030Y8022683D1*
X14423517Y8032040D1*
X14424000Y8041500D1*
Y9851000D1*
X14627000D1*
X14636460Y9851497D1*
X14645817Y9852980D1*
X14654967Y9855430D1*
X14663810Y9858827D1*
X14672250Y9863127D1*
X14680197Y9868287D1*
X14687557Y9874247D1*
X14694257Y9880947D1*
X14700220Y9888307D1*
X14705380Y9896250D1*
X14709683Y9904690D1*
X14713077Y9913533D1*
X14715533Y9922683D1*
X14717017Y9932040D1*
X14717500Y9941500D1*
Y10283500D1*
X14717003Y10292963D1*
X14715520Y10302327D1*
X14713063Y10311480D1*
X14709667Y10320327D1*
X14705360Y10328770D1*
X14700197Y10336720D1*
X14694230Y10344083D1*
X14687527Y10350783D1*
X14680160Y10356743D1*
X14672207Y10361903D1*
X14663763Y10366203D1*
X14654913Y10369597D1*
X14645757Y10372043D1*
X14636393Y10373523D1*
X14626930Y10374000D1*
X14299000D1*
Y11751000D1*
X14502000D1*
X14511460Y11751497D1*
X14520817Y11752980D1*
X14529967Y11755430D1*
X14538810Y11758827D1*
X14547250Y11763127D1*
X14555197Y11768287D1*
X14562557Y11774247D1*
X14569257Y11780947D1*
X14575220Y11788307D1*
X14580380Y11796250D1*
X14584683Y11804690D1*
X14588077Y11813533D1*
X14590533Y11822683D1*
X14592017Y11832040D1*
X14592500Y11841500D1*
Y12294500D1*
X14592003Y12303960D1*
X14590520Y12313317D1*
X14588070Y12322467D1*
X14584673Y12331310D1*
X14580373Y12339750D1*
X14575213Y12347697D1*
X14569253Y12355057D1*
X14562553Y12361757D1*
X14555193Y12367720D1*
X14547250Y12372880D1*
X14538810Y12377180D1*
X14529967Y12380577D1*
X14520817Y12383030D1*
X14511460Y12384517D1*
X14502000Y12385000D1*
X13023000D1*
X13013540Y12384507D1*
X13004183Y12383023D1*
X12995033Y12380573D1*
X12986190Y12377177D1*
X12977750Y12372877D1*
X12969807Y12367717D1*
X12962447Y12361757D1*
X12955747Y12355057D1*
X12949787Y12347697D1*
X12944630Y12339750D1*
X12940330Y12331310D1*
X12936937Y12322467D1*
X12934487Y12313317D1*
X12933007Y12303960D1*
X12932500Y12294500D1*
Y11841500D1*
X12932993Y11832040D1*
X12934477Y11822683D1*
X12936927Y11813533D1*
X12940323Y11804690D1*
X12944623Y11796250D1*
X12949783Y11788307D1*
X12955743Y11780947D1*
X12962443Y11774247D1*
X12969803Y11768287D1*
X12977750Y11763130D1*
X12986190Y11758830D1*
X12995033Y11755437D1*
X13004183Y11752987D1*
X13013540Y11751507D1*
X13023000Y11751000D1*
X13226000D1*
Y10374000D1*
X13148000D1*
X13138537Y10373503D1*
X13129177Y10372023D1*
X13120023Y10369570D1*
X13111173Y10366170D1*
X13102733Y10361867D1*
X13094787Y10356703D1*
X13087423Y10350737D1*
X13080723Y10344030D1*
X13074763Y10336663D1*
X13069607Y10328713D1*
X13065310Y10320267D1*
X13061920Y10311417D1*
X13059473Y10302260D1*
X13058000Y10292897D1*
X13057500Y10283433D1*
Y9941383D1*
X13058007Y9931930D1*
X13059497Y9922583D1*
X13061957Y9913443D1*
X13065357Y9904613D1*
X13069663Y9896183D1*
X13074823Y9888250D1*
X13080787Y9880900D1*
X13087483Y9874210D1*
X13094843Y9868260D1*
X13102783Y9863110D1*
X13111220Y9858817D1*
X13120057Y9855430D1*
X13129200Y9852983D1*
X13138547Y9851507D1*
X13148000Y9851000D1*
X13351000D1*
Y8474000D1*
X12891500D1*
X12882040Y8473507D1*
X12872683Y8472023D1*
X12863533Y8469573D1*
X12854690Y8466177D1*
X12846250Y8461877D1*
X12838307Y8456717D1*
X12830947Y8450757D1*
X12824247Y8444057D1*
X12818287Y8436697D1*
X12813130Y8428750D1*
X12808830Y8420310D1*
X12805437Y8411467D1*
X12802987Y8402317D1*
X12801507Y8392960D1*
X12801000Y8383500D1*
Y6574000D1*
X12748000D1*
X12738530Y6573503D1*
X12729163Y6572020D1*
X12720003Y6569563D1*
X12711150Y6566160D1*
X12702703Y6561850D1*
X12694753Y6556677D1*
X12687387Y6550703D1*
X12680687Y6543990D1*
X12674727Y6536613D1*
X12669573Y6528653D1*
X12665280Y6520197D1*
X12661893Y6511337D1*
X12659457Y6502173D1*
X12657990Y6492803D1*
X12657500Y6483330D1*
Y6141477D1*
X12657997Y6132017D1*
X12659480Y6122663D1*
X12661933Y6113517D1*
X12665330Y6104673D1*
X12669630Y6096237D1*
X12674790Y6088293D1*
X12680753Y6080937D1*
X12687450Y6074240D1*
X12694813Y6068280D1*
X12702757Y6063123D1*
X12711197Y6058827D1*
X12720040Y6055433D1*
X12729187Y6052987D1*
X12738543Y6051507D1*
X12748000Y6051000D1*
X12951000D1*
X13076000D1*
D1*
Y4639500D1*
X13075513Y4630040D1*
X13074030Y4620683D1*
X13071577Y4611533D1*
X13068180Y4602690D1*
X13063880Y4594250D1*
X13058720Y4586307D1*
X13052757Y4578947D1*
X13046057Y4572247D1*
X13038697Y4566287D1*
X13030750Y4561127D1*
X13022310Y4556827D1*
X13013467Y4553430D1*
X13004317Y4550980D1*
X12994960Y4549497D1*
X12985500Y4549000D1*
X12782500D1*
Y3975000D1*
X14192500D1*
Y4549000D1*
X13989500D1*
X13980040Y4549507D1*
X13970683Y4550987D1*
X13961533Y4553437D1*
X13952690Y4556830D1*
X13944250Y4561130D1*
X13936303Y4566287D1*
X13928943Y4572247D1*
X13922243Y4578947D1*
X13916280Y4586307D1*
X13911123Y4594250D1*
X13906823Y4602690D1*
X13903427Y4611533D1*
X13900977Y4620683D1*
X13899493Y4630040D1*
X13899000Y4639500D1*
Y6085500D1*
X13899507Y6094960D1*
X13900987Y6104317D1*
X13903437Y6113467D1*
X13906830Y6122310D1*
X13911130Y6130750D1*
X13916287Y6138697D1*
X13922247Y6146057D1*
X13928947Y6152757D1*
X13936307Y6158720D1*
X13944250Y6163877D1*
X13952690Y6168177D1*
X13961533Y6171573D1*
X13970683Y6174023D1*
X13980040Y6175507D1*
X13989500Y6176000D1*
X14192500D1*
Y6449000D1*
X13839500D1*
X13830040Y6449507D1*
X13820683Y6450987D1*
X13811533Y6453437D1*
X13802690Y6456830D1*
X13794250Y6461130D1*
X13786303Y6466287D1*
X13778943Y6472247D1*
X13772243Y6478947D1*
X13766283Y6486307D1*
X13761123Y6494250D1*
X13756823Y6502690D1*
X13753427Y6511533D1*
X13750977Y6520683D1*
X13749497Y6530040D1*
X13749000Y6539500D1*
Y7985500D1*
X13749507Y7994960D1*
X13750987Y8004317D1*
X13753437Y8013467D1*
X13756830Y8022310D1*
X13761130Y8030750D1*
X13766287Y8038697D1*
X13772247Y8046057D1*
X13778947Y8052757D1*
X13786307Y8058717D1*
X13794250Y8063877D1*
X13802690Y8068177D1*
X13811533Y8071573D1*
X13820683Y8074023D1*
X13830040Y8075507D1*
X13839500Y8076000D1*
X14299000D1*
Y9885500D1*
X14299507Y9894960D1*
X14300987Y9904317D1*
X14303437Y9913467D1*
X14306830Y9922310D1*
X14311130Y9930750D1*
X14316287Y9938697D1*
X14322247Y9946057D1*
X14328947Y9952757D1*
X14336307Y9958720D1*
X14344250Y9963877D1*
X14352690Y9968177D1*
X14361533Y9971573D1*
X14370683Y9974023D1*
X14380040Y9975507D1*
X14389500Y9976000D1*
X14592500D1*
Y10249000D1*
X14264500D1*
X14255040Y10249507D1*
X14245683Y10250987D1*
X14236533Y10253437D1*
X14227690Y10256830D1*
X14219250Y10261130D1*
X14211303Y10266287D1*
X14203943Y10272247D1*
X14197243Y10278947D1*
X14191280Y10286307D1*
X14186123Y10294250D1*
X14181823Y10302690D1*
X14178427Y10311533D1*
X14175977Y10320683D1*
X14174493Y10330040D1*
X14174000Y10339500D1*
Y11785500D1*
X14174507Y11794960D1*
X14175987Y11804317D1*
X14178437Y11813467D1*
X14181830Y11822310D1*
X14186130Y11830750D1*
X14191287Y11838697D1*
X14197247Y11846057D1*
X14203947Y11852757D1*
X14211307Y11858720D1*
X14219250Y11863877D1*
X14227690Y11868177D1*
X14236533Y11871573D1*
X14245683Y11874023D1*
X14255040Y11875507D1*
X14264500Y11876000D1*
X14467500D1*
Y12260000D1*
X13057500D1*
Y11876000D1*
X13260500D1*
X13269960Y11875513D1*
X13279317Y11874030D1*
X13288467Y11871577D1*
X13297310Y11868180D1*
X13305750Y11863880D1*
X13313693Y11858720D1*
X13321053Y11852757D1*
X13327753Y11846057D1*
X13333713Y11838697D1*
X13338873Y11830750D1*
X13343173Y11822310D1*
X13346570Y11813467D1*
X13349020Y11804317D1*
X13350503Y11794960D1*
X13351000Y11785500D1*
Y10339500D1*
X13350513Y10330040D1*
X13349030Y10320683D1*
X13346577Y10311533D1*
X13343180Y10302690D1*
X13338880Y10294250D1*
X13333720Y10286307D1*
X13327757Y10278947D1*
X13321057Y10272247D1*
X13313697Y10266287D1*
X13305750Y10261127D1*
X13297310Y10256827D1*
X13288467Y10253430D1*
X13279317Y10250980D1*
X13269960Y10249497D1*
X13260500Y10249000D1*
X13182500D1*
Y9976000D1*
X13385500D1*
X13394960Y9975513D1*
X13404317Y9974030D1*
X13413467Y9971577D1*
X13422310Y9968180D1*
X13430750Y9963880D1*
X13438693Y9958720D1*
X13446053Y9952757D1*
X13452753Y9946057D1*
X13458713Y9938697D1*
X13463873Y9930750D1*
X13468173Y9922310D1*
X13471570Y9913467D1*
X13474020Y9904317D1*
X13475503Y9894960D1*
X13476000Y9885500D1*
Y8439500D1*
X13475513Y8430040D1*
X13474030Y8420683D1*
X13471577Y8411533D1*
X13468180Y8402690D1*
X13463880Y8394250D1*
X13458720Y8386307D1*
X13452757Y8378947D1*
X13446057Y8372247D1*
X13438697Y8366287D1*
X13430750Y8361127D1*
X13422310Y8356827D1*
X13413467Y8353430D1*
X13404317Y8350980D1*
X13394960Y8349497D1*
X13385500Y8349000D1*
X12926000D1*
Y6539500D1*
X12925513Y6530040D1*
X12924030Y6520683D1*
X12921577Y6511533D1*
X12918180Y6502690D1*
X12913880Y6494250D1*
X12908720Y6486307D1*
X12902757Y6478947D1*
X12896057Y6472247D1*
X12888697Y6466287D1*
X12880750Y6461127D1*
X12872310Y6456827D1*
X12863467Y6453430D1*
X12854317Y6450980D1*
X12844960Y6449497D1*
X12835500Y6449000D1*
X12782500D1*
Y6176000D1*
X12985500D1*
X12994967Y6175503D1*
X13004333Y6174020D1*
X13013490Y6171563D1*
X13022340Y6168163D1*
X13030787Y6163857D1*
X13038737Y6158687D1*
X13046100Y6152717D1*
X13052800Y6146007D1*
X13058760Y6138633D1*
X13063913Y6130677D1*
X13068210Y6122223D1*
X13071597Y6113367D1*
X13074037Y6104207D1*
X13075507Y6094840D1*
X13076000Y6085370D1*
Y6051000D1*
X12951000D1*
Y4674000D1*
X12748000D1*
X12738540Y4673507D1*
X12729183Y4672023D1*
X12720033Y4669573D1*
X12711190Y4666177D1*
X12702750Y4661877D1*
X12694807Y4656717D1*
X12687447Y4650757D1*
X12680747Y4644057D1*
X12674787Y4636697D1*
X12669630Y4628750D1*
X12665330Y4620310D1*
X12661937Y4611467D1*
X12659487Y4602317D1*
X12658007Y4592960D1*
X12657500Y4583500D1*
Y3975000D1*
X12417500D1*
Y4583500D1*
X12417003Y4592960D1*
X12415520Y4602317D1*
X12413070Y4611467D1*
X12409673Y4620310D1*
X12405373Y4628750D1*
X12400213Y4636697D1*
X12394253Y4644057D1*
X12387553Y4650757D1*
X12380193Y4656720D1*
X12372250Y4661880D1*
X12363810Y4666180D1*
X12354967Y4669577D1*
X12345817Y4672030D1*
X12336460Y4673513D1*
X12327000Y4674000D1*
X12124000D1*
Y6051000D1*
X12327000D1*
X12336463Y6051497D1*
X12345823Y6052980D1*
X12354977Y6055433D1*
X12363827Y6058833D1*
X12372270Y6063137D1*
X12380217Y6068300D1*
X12387580Y6074267D1*
X12394280Y6080970D1*
X12400240Y6088337D1*
X12405400Y6096287D1*
X12409700Y6104733D1*
X12413093Y6113580D1*
X12415540Y6122737D1*
X12417020Y6132097D1*
X12417500Y6141563D1*
Y6483500D1*
X12417003Y6492960D1*
X12415520Y6502317D1*
X12413070Y6511467D1*
X12409673Y6520310D1*
X12405373Y6528750D1*
X12400213Y6536697D1*
X12394253Y6544057D1*
X12387553Y6550757D1*
X12380193Y6556720D1*
X12372250Y6561880D1*
X12363810Y6566180D1*
X12354967Y6569577D1*
X12345817Y6572030D1*
X12336460Y6573513D1*
X12327000Y6574000D1*
X11974000D1*
Y7951000D1*
X12433500D1*
X12442960Y7951497D1*
X12452317Y7952980D1*
X12461467Y7955430D1*
X12470310Y7958827D1*
X12478750Y7963127D1*
X12486697Y7968287D1*
X12494057Y7974247D1*
X12500757Y7980947D1*
X12506720Y7988307D1*
X12511880Y7996250D1*
X12516180Y8004690D1*
X12519577Y8013533D1*
X12522030Y8022683D1*
X12523513Y8032040D1*
X12524000Y8041500D1*
Y9851000D1*
X12727000D1*
X12736460Y9851497D1*
X12745817Y9852980D1*
X12754967Y9855430D1*
X12763810Y9858827D1*
X12772250Y9863127D1*
X12780197Y9868287D1*
X12787557Y9874247D1*
X12794257Y9880947D1*
X12800220Y9888307D1*
X12805380Y9896250D1*
X12809680Y9904690D1*
X12813077Y9913533D1*
X12815530Y9922683D1*
X12817013Y9932040D1*
X12817500Y9941500D1*
Y10283500D1*
X12817003Y10292963D1*
X12815520Y10302327D1*
X12813063Y10311480D1*
X12809667Y10320327D1*
X12805360Y10328770D1*
X12800197Y10336720D1*
X12794230Y10344083D1*
X12787527Y10350783D1*
X12780160Y10356743D1*
X12772210Y10361903D1*
X12763763Y10366203D1*
X12754913Y10369593D1*
X12745757Y10372043D1*
X12736393Y10373520D1*
X12726930Y10374000D1*
X12399000D1*
Y11751000D1*
X12602000D1*
X12611460Y11751497D1*
X12620817Y11752980D1*
X12629967Y11755430D1*
X12638810Y11758827D1*
X12647250Y11763127D1*
X12655197Y11768287D1*
X12662557Y11774247D1*
X12669257Y11780947D1*
X12675220Y11788307D1*
X12680380Y11796250D1*
X12684680Y11804690D1*
X12688077Y11813533D1*
X12690530Y11822683D1*
X12692013Y11832040D1*
X12692500Y11841500D1*
Y12419500D1*
X12692003Y12428960D1*
X12690520Y12438317D1*
X12688070Y12447467D1*
X12684673Y12456310D1*
X12680373Y12464750D1*
X12675213Y12472697D1*
X12669253Y12480057D1*
X12662553Y12486757D1*
X12655193Y12492720D1*
X12647250Y12497880D1*
X12638810Y12502180D1*
X12629967Y12505577D1*
X12620817Y12508030D1*
X12611460Y12509513D1*
X12602000Y12510000D1*
X11123000D1*
X11113540Y12509503D1*
X11104183Y12508023D1*
X11095033Y12505573D1*
X11086190Y12502177D1*
X11077750Y12497877D1*
X11069807Y12492717D1*
X11062447Y12486757D1*
X11055747Y12480057D1*
X11049787Y12472697D1*
X11044627Y12464750D1*
X11040330Y12456310D1*
X11036937Y12447467D1*
X11034483Y12438317D1*
X11033003Y12428960D1*
X11032500Y12419500D1*
Y11841500D1*
X11032997Y11832040D1*
X11034477Y11822683D1*
X11036927Y11813533D1*
X11040323Y11804690D1*
X11044623Y11796250D1*
X11049783Y11788307D1*
X11055743Y11780943D1*
X11062443Y11774247D1*
X11069803Y11768287D1*
X11077750Y11763127D1*
X11086190Y11758830D1*
X11095033Y11755433D1*
X11104183Y11752983D1*
X11113540Y11751503D1*
X11123000Y11751000D1*
X11326000D1*
Y10374000D1*
X11248000D1*
X11238537Y10373503D1*
X11229177Y10372023D1*
X11220023Y10369567D1*
X11211173Y10366170D1*
X11202730Y10361867D1*
X11194787Y10356703D1*
X11187423Y10350737D1*
X11180723Y10344030D1*
X11174763Y10336663D1*
X11169607Y10328713D1*
X11165310Y10320267D1*
X11161920Y10311417D1*
X11159473Y10302260D1*
X11157997Y10292897D1*
X11157500Y10283433D1*
Y9941383D1*
X11158007Y9931930D1*
X11159497Y9922583D1*
X11161957Y9913443D1*
X11165357Y9904613D1*
X11169663Y9896183D1*
X11174823Y9888250D1*
X11180787Y9880900D1*
X11187483Y9874210D1*
X11194843Y9868260D1*
X11202783Y9863110D1*
X11211220Y9858817D1*
X11220057Y9855427D1*
X11229200Y9852980D1*
X11238547Y9851503D1*
X11248000Y9851000D1*
X11451000D1*
Y8474000D1*
X10991500D1*
X10982040Y8473503D1*
X10972683Y8472023D1*
X10963533Y8469573D1*
X10954690Y8466177D1*
X10946250Y8461877D1*
X10938307Y8456717D1*
X10930947Y8450757D1*
X10924247Y8444057D1*
X10918287Y8436697D1*
X10913127Y8428750D1*
X10908830Y8420310D1*
X10905433Y8411467D1*
X10902983Y8402317D1*
X10901503Y8392960D1*
X10901000Y8383500D1*
Y6574000D1*
X10848000D1*
X10838530Y6573503D1*
X10829163Y6572020D1*
X10820003Y6569563D1*
X10811150Y6566160D1*
X10802703Y6561850D1*
X10794750Y6556677D1*
X10787387Y6550703D1*
X10780687Y6543990D1*
X10774727Y6536613D1*
X10769570Y6528653D1*
X10765277Y6520197D1*
X10761893Y6511337D1*
X10759453Y6502173D1*
X10757987Y6492803D1*
X10757500Y6483330D1*
Y6141477D1*
X10757997Y6132017D1*
X10759480Y6122663D1*
X10761933Y6113517D1*
X10765330Y6104673D1*
X10769630Y6096237D1*
X10774790Y6088293D1*
X10780753Y6080937D1*
X10787450Y6074240D1*
X10794813Y6068280D1*
X10802757Y6063123D1*
X10811197Y6058827D1*
X10820040Y6055433D1*
X10829187Y6052983D1*
X10838543Y6051503D1*
X10848000Y6051000D1*
X11051000D1*
X11176000D1*
D1*
Y4639500D1*
X11175513Y4630040D1*
X11174030Y4620683D1*
X11171577Y4611533D1*
X11168180Y4602690D1*
X11163880Y4594250D1*
X11158720Y4586307D1*
X11152757Y4578947D1*
X11146057Y4572247D1*
X11138697Y4566287D1*
X11130750Y4561127D1*
X11122310Y4556827D1*
X11113467Y4553430D1*
X11104317Y4550980D1*
X11094960Y4549497D1*
X11085500Y4549000D1*
X10882500D1*
Y3975000D1*
X12292500D1*
Y4549000D1*
X12089500D1*
X12080040Y4549507D1*
X12070683Y4550987D1*
X12061533Y4553437D1*
X12052690Y4556830D1*
X12044250Y4561127D1*
X12036303Y4566287D1*
X12028943Y4572247D1*
X12022243Y4578947D1*
X12016283Y4586307D1*
X12011123Y4594250D1*
X12006823Y4602690D1*
X12003427Y4611533D1*
X12000977Y4620683D1*
X11999497Y4630040D1*
X11999000Y4639500D1*
Y6085500D1*
X11999507Y6094960D1*
X12000987Y6104317D1*
X12003437Y6113467D1*
X12006830Y6122310D1*
X12011127Y6130750D1*
X12016287Y6138697D1*
X12022247Y6146057D1*
X12028947Y6152757D1*
X12036307Y6158717D1*
X12044250Y6163877D1*
X12052690Y6168177D1*
X12061533Y6171573D1*
X12070683Y6174023D1*
X12080040Y6175503D1*
X12089500Y6176000D1*
X12292500D1*
Y6449000D1*
X11939500D1*
X11930040Y6449507D1*
X11920683Y6450987D1*
X11911533Y6453437D1*
X11902690Y6456830D1*
X11894250Y6461127D1*
X11886303Y6466287D1*
X11878943Y6472247D1*
X11872243Y6478947D1*
X11866283Y6486307D1*
X11861123Y6494250D1*
X11856823Y6502690D1*
X11853427Y6511533D1*
X11850977Y6520683D1*
X11849497Y6530040D1*
X11849000Y6539500D1*
Y7985500D1*
X11849507Y7994960D1*
X11850987Y8004317D1*
X11853437Y8013467D1*
X11856830Y8022310D1*
X11861130Y8030750D1*
X11866287Y8038697D1*
X11872247Y8046057D1*
X11878947Y8052757D1*
X11886307Y8058717D1*
X11894250Y8063877D1*
X11902690Y8068177D1*
X11911533Y8071573D1*
X11920683Y8074023D1*
X11930040Y8075503D1*
X11939500Y8076000D1*
X12399000D1*
Y9885500D1*
X12399507Y9894960D1*
X12400987Y9904317D1*
X12403437Y9913467D1*
X12406830Y9922310D1*
X12411130Y9930750D1*
X12416287Y9938697D1*
X12422247Y9946057D1*
X12428947Y9952757D1*
X12436307Y9958717D1*
X12444250Y9963877D1*
X12452690Y9968177D1*
X12461533Y9971573D1*
X12470683Y9974023D1*
X12480040Y9975503D1*
X12489500Y9976000D1*
X12692500D1*
Y10249000D1*
X12364500D1*
X12355040Y10249507D1*
X12345683Y10250987D1*
X12336533Y10253437D1*
X12327690Y10256830D1*
X12319250Y10261130D1*
X12311303Y10266287D1*
X12303943Y10272247D1*
X12297243Y10278947D1*
X12291283Y10286307D1*
X12286123Y10294250D1*
X12281823Y10302690D1*
X12278427Y10311533D1*
X12275977Y10320683D1*
X12274497Y10330040D1*
X12274000Y10339500D1*
Y11785500D1*
X12274507Y11794960D1*
X12275987Y11804317D1*
X12278437Y11813467D1*
X12281830Y11822310D1*
X12286130Y11830750D1*
X12291287Y11838697D1*
X12297247Y11846057D1*
X12303947Y11852757D1*
X12311307Y11858717D1*
X12319250Y11863877D1*
X12327690Y11868177D1*
X12336533Y11871573D1*
X12345683Y11874023D1*
X12355040Y11875503D1*
X12364500Y11876000D1*
X12567500D1*
Y12385000D1*
X11157500D1*
Y11876000D1*
X11360500D1*
X11369960Y11875513D1*
X11379317Y11874030D1*
X11388467Y11871577D1*
X11397310Y11868180D1*
X11405750Y11863880D1*
X11413693Y11858720D1*
X11421053Y11852757D1*
X11427753Y11846057D1*
X11433713Y11838697D1*
X11438873Y11830750D1*
X11443173Y11822310D1*
X11446570Y11813467D1*
X11449020Y11804317D1*
X11450503Y11794960D1*
X11451000Y11785500D1*
Y10339500D1*
X11450513Y10330040D1*
X11449030Y10320683D1*
X11446577Y10311533D1*
X11443180Y10302690D1*
X11438880Y10294250D1*
X11433720Y10286307D1*
X11427757Y10278947D1*
X11421057Y10272247D1*
X11413697Y10266287D1*
X11405750Y10261127D1*
X11397310Y10256827D1*
X11388467Y10253430D1*
X11379317Y10250980D1*
X11369960Y10249497D1*
X11360500Y10249000D1*
X11282500D1*
Y9976000D1*
X11485500D1*
X11494960Y9975513D1*
X11504317Y9974030D1*
X11513467Y9971577D1*
X11522310Y9968180D1*
X11530750Y9963880D1*
X11538693Y9958720D1*
X11546053Y9952757D1*
X11552753Y9946057D1*
X11558713Y9938697D1*
X11563873Y9930750D1*
X11568173Y9922310D1*
X11571570Y9913467D1*
X11574020Y9904317D1*
X11575503Y9894960D1*
X11576000Y9885500D1*
Y8439500D1*
X11575513Y8430040D1*
X11574030Y8420683D1*
X11571577Y8411533D1*
X11568180Y8402690D1*
X11563880Y8394250D1*
X11558720Y8386307D1*
X11552757Y8378947D1*
X11546057Y8372247D1*
X11538697Y8366287D1*
X11530750Y8361127D1*
X11522310Y8356827D1*
X11513467Y8353430D1*
X11504317Y8350980D1*
X11494960Y8349497D1*
X11485500Y8349000D1*
X11026000D1*
Y6539500D1*
X11025513Y6530040D1*
X11024030Y6520683D1*
X11021577Y6511533D1*
X11018180Y6502690D1*
X11013880Y6494250D1*
X11008720Y6486307D1*
X11002757Y6478947D1*
X10996057Y6472247D1*
X10988697Y6466287D1*
X10980750Y6461127D1*
X10972310Y6456827D1*
X10963467Y6453430D1*
X10954317Y6450980D1*
X10944960Y6449497D1*
X10935500Y6449000D1*
X10882500D1*
Y6176000D1*
X11085500D1*
X11094967Y6175503D1*
X11104333Y6174020D1*
X11113490Y6171563D1*
X11122340Y6168163D1*
X11130787Y6163857D1*
X11138737Y6158687D1*
X11146100Y6152717D1*
X11152800Y6146007D1*
X11158760Y6138633D1*
X11163917Y6130677D1*
X11168210Y6122223D1*
X11171597Y6113367D1*
X11174040Y6104207D1*
X11175507Y6094840D1*
X11176000Y6085370D1*
Y6051000D1*
X11051000D1*
Y4674000D1*
X10848000D1*
X10838540Y4673503D1*
X10829183Y4672023D1*
X10820033Y4669573D1*
X10811190Y4666177D1*
X10802750Y4661877D1*
X10794807Y4656717D1*
X10787443Y4650757D1*
X10780747Y4644057D1*
X10774787Y4636697D1*
X10769627Y4628750D1*
X10765330Y4620310D1*
X10761933Y4611467D1*
X10759483Y4602317D1*
X10758003Y4592960D1*
X10757500Y4583500D1*
Y3975000D1*
X10517500D1*
Y4583500D1*
X10517003Y4592960D1*
X10515520Y4602317D1*
X10513070Y4611467D1*
X10509673Y4620310D1*
X10505373Y4628750D1*
X10500213Y4636697D1*
X10494253Y4644057D1*
X10487557Y4650757D1*
X10480193Y4656720D1*
X10472250Y4661880D1*
X10463810Y4666180D1*
X10454967Y4669577D1*
X10445817Y4672030D1*
X10436460Y4673513D1*
X10427000Y4674000D1*
X10224000D1*
Y6051000D1*
X10427000D1*
X10436463Y6051497D1*
X10445823Y6052980D1*
X10454977Y6055433D1*
X10463827Y6058833D1*
X10472270Y6063137D1*
X10480217Y6068300D1*
X10487580Y6074267D1*
X10494280Y6080970D1*
X10500240Y6088337D1*
X10505400Y6096287D1*
X10509700Y6104733D1*
X10513090Y6113580D1*
X10515540Y6122737D1*
X10517017Y6132097D1*
X10517500Y6141563D1*
Y6483500D1*
X10517003Y6492960D1*
X10515520Y6502317D1*
X10513070Y6511467D1*
X10509673Y6520310D1*
X10505373Y6528750D1*
X10500213Y6536697D1*
X10494253Y6544057D1*
X10487557Y6550757D1*
X10480193Y6556720D1*
X10472250Y6561880D1*
X10463810Y6566180D1*
X10454967Y6569577D1*
X10445817Y6572030D1*
X10436460Y6573513D1*
X10427000Y6574000D1*
X10074000D1*
Y7951000D1*
X10533500D1*
X10542960Y7951497D1*
X10552317Y7952980D1*
X10561467Y7955430D1*
X10570310Y7958827D1*
X10578750Y7963127D1*
X10586697Y7968287D1*
X10594057Y7974247D1*
X10600757Y7980943D1*
X10606720Y7988307D1*
X10611880Y7996250D1*
X10616180Y8004690D1*
X10619577Y8013533D1*
X10622030Y8022683D1*
X10623513Y8032040D1*
X10624000Y8041500D1*
Y9851000D1*
X10827000D1*
X10836460Y9851497D1*
X10845817Y9852980D1*
X10854967Y9855430D1*
X10863810Y9858827D1*
X10872250Y9863127D1*
X10880197Y9868287D1*
X10887557Y9874247D1*
X10894257Y9880947D1*
X10900220Y9888307D1*
X10905380Y9896250D1*
X10909680Y9904690D1*
X10913077Y9913533D1*
X10915530Y9922683D1*
X10917013Y9932040D1*
X10917500Y9941500D1*
Y10283500D1*
X10917003Y10292957D1*
X10915523Y10302307D1*
X10913073Y10311453D1*
X10909683Y10320293D1*
X10905387Y10328730D1*
X10900230Y10336673D1*
X10894277Y10344033D1*
X10887583Y10350730D1*
X10880227Y10356693D1*
X10872290Y10361853D1*
X10863857Y10366160D1*
X10855020Y10369560D1*
X10845877Y10372017D1*
X10836527Y10373507D1*
X10827070Y10374000D1*
X10499000D1*
Y11751000D1*
X10702000D1*
X10711460Y11751497D1*
X10720817Y11752980D1*
X10729967Y11755430D1*
X10738810Y11758827D1*
X10747250Y11763127D1*
X10755197Y11768287D1*
X10762557Y11774247D1*
X10769257Y11780943D1*
X10775220Y11788307D1*
X10780380Y11796250D1*
X10784680Y11804690D1*
X10788077Y11813533D1*
X10790530Y11822683D1*
X10792013Y11832040D1*
X10792500Y11841500D1*
Y12544500D1*
X10792003Y12553960D1*
X10790520Y12563317D1*
X10788070Y12572467D1*
X10784673Y12581310D1*
X10780373Y12589750D1*
X10775213Y12597697D1*
X10769253Y12605057D1*
X10762557Y12611757D1*
X10755193Y12617720D1*
X10747250Y12622880D1*
X10738810Y12627180D1*
X10729967Y12630577D1*
X10720817Y12633030D1*
X10711460Y12634513D1*
X10702000Y12635000D1*
X9223000D1*
X9213540Y12634503D1*
X9204183Y12633023D1*
X9195033Y12630573D1*
X9186190Y12627177D1*
X9177750Y12622877D1*
X9169807Y12617717D1*
X9162443Y12611757D1*
X9155747Y12605057D1*
X9149787Y12597697D1*
X9144627Y12589750D1*
X9140327Y12581310D1*
X9136933Y12572467D1*
X9134483Y12563317D1*
X9133003Y12553960D1*
X9132500Y12544500D1*
Y11841500D1*
X9132997Y11832040D1*
X9134477Y11822683D1*
X9136927Y11813533D1*
X9140323Y11804690D1*
X9144623Y11796250D1*
X9149783Y11788307D1*
X9155743Y11780943D1*
X9162443Y11774247D1*
X9169803Y11768287D1*
X9177750Y11763127D1*
X9186190Y11758827D1*
X9195033Y11755433D1*
X9204183Y11752983D1*
X9213540Y11751503D1*
X9223000Y11751000D1*
X9426000D1*
Y10374000D1*
X9348000D1*
X9338537Y10373503D1*
X9329177Y10372020D1*
X9320023Y10369567D1*
X9311173Y10366170D1*
X9302730Y10361867D1*
X9294783Y10356703D1*
X9287423Y10350737D1*
X9280723Y10344030D1*
X9274763Y10336663D1*
X9269607Y10328713D1*
X9265307Y10320267D1*
X9261917Y10311417D1*
X9259473Y10302260D1*
X9257997Y10292897D1*
X9257500Y10283433D1*
Y9941383D1*
X9258007Y9931930D1*
X9259497Y9922583D1*
X9261957Y9913443D1*
X9265357Y9904613D1*
X9269663Y9896183D1*
X9274823Y9888250D1*
X9280787Y9880897D1*
X9287483Y9874210D1*
X9294843Y9868260D1*
X9302783Y9863107D1*
X9311220Y9858813D1*
X9320057Y9855427D1*
X9329200Y9852980D1*
X9338547Y9851503D1*
X9348000Y9851000D1*
X9551000D1*
Y8474000D1*
X9091500D1*
X9082040Y8473503D1*
X9072683Y8472023D1*
X9063533Y8469573D1*
X9054690Y8466177D1*
X9046250Y8461877D1*
X9038307Y8456717D1*
X9030943Y8450757D1*
X9024247Y8444057D1*
X9018287Y8436697D1*
X9013127Y8428750D1*
X9008827Y8420310D1*
X9005433Y8411467D1*
X9002983Y8402317D1*
X9001503Y8392960D1*
X9001000Y8383500D1*
Y6574000D1*
X8948000D1*
X8938530Y6573503D1*
X8929163Y6572020D1*
X8920003Y6569560D1*
X8911150Y6566160D1*
X8902700Y6561850D1*
X8894750Y6556677D1*
X8887387Y6550703D1*
X8880687Y6543990D1*
X8874727Y6536613D1*
X8869570Y6528653D1*
X8865277Y6520197D1*
X8861893Y6511337D1*
X8859453Y6502173D1*
X8857987Y6492803D1*
X8857500Y6483330D1*
Y6141477D1*
X8857997Y6132017D1*
X8859480Y6122663D1*
X8861933Y6113517D1*
X8865330Y6104673D1*
X8869630Y6096237D1*
X8874790Y6088293D1*
X8880753Y6080937D1*
X8887450Y6074240D1*
X8894813Y6068280D1*
X8902757Y6063123D1*
X8911197Y6058823D1*
X8920040Y6055433D1*
X8929187Y6052983D1*
X8938543Y6051503D1*
X8948000Y6051000D1*
X9151000D1*
X9276000D1*
D1*
Y4639500D1*
X9275510Y4630040D1*
X9274027Y4620683D1*
X9271577Y4611533D1*
X9268180Y4602690D1*
X9263877Y4594250D1*
X9258717Y4586307D1*
X9252757Y4578943D1*
X9246057Y4572247D1*
X9238697Y4566287D1*
X9230750Y4561127D1*
X9222310Y4556827D1*
X9213467Y4553430D1*
X9204317Y4550980D1*
X9194960Y4549497D1*
X9185500Y4549000D1*
X8982500D1*
Y3975000D1*
X10392500D1*
Y4549000D1*
X10189500D1*
X10180040Y4549503D1*
X10170683Y4550983D1*
X10161533Y4553433D1*
X10152690Y4556827D1*
X10144250Y4561127D1*
X10136303Y4566287D1*
X10128943Y4572247D1*
X10122243Y4578943D1*
X10116283Y4586307D1*
X10111123Y4594250D1*
X10106823Y4602690D1*
X10103427Y4611533D1*
X10100977Y4620683D1*
X10099497Y4630040D1*
X10099000Y4639500D1*
Y6085500D1*
X10099503Y6094960D1*
X10100983Y6104317D1*
X10103433Y6113467D1*
X10106827Y6122310D1*
X10111127Y6130750D1*
X10116287Y6138697D1*
X10122247Y6146057D1*
X10128943Y6152757D1*
X10136307Y6158717D1*
X10144250Y6163877D1*
X10152690Y6168177D1*
X10161533Y6171573D1*
X10170683Y6174023D1*
X10180040Y6175503D1*
X10189500Y6176000D1*
X10392500D1*
Y6449000D1*
X10039500D1*
X10030040Y6449503D1*
X10020683Y6450983D1*
X10011533Y6453433D1*
X10002690Y6456827D1*
X9994250Y6461127D1*
X9986303Y6466287D1*
X9978943Y6472247D1*
X9972243Y6478943D1*
X9966283Y6486307D1*
X9961123Y6494250D1*
X9956823Y6502690D1*
X9953427Y6511533D1*
X9950977Y6520683D1*
X9949497Y6530040D1*
X9949000Y6539500D1*
Y7985500D1*
X9949503Y7994960D1*
X9950983Y8004317D1*
X9953433Y8013467D1*
X9956827Y8022310D1*
X9961127Y8030750D1*
X9966287Y8038697D1*
X9972247Y8046057D1*
X9978943Y8052757D1*
X9986307Y8058717D1*
X9994250Y8063877D1*
X10002690Y8068177D1*
X10011533Y8071573D1*
X10020683Y8074023D1*
X10030040Y8075503D1*
X10039500Y8076000D1*
X10499000D1*
Y9885500D1*
X10499503Y9894960D1*
X10500983Y9904317D1*
X10503433Y9913467D1*
X10506827Y9922310D1*
X10511127Y9930750D1*
X10516287Y9938697D1*
X10522247Y9946057D1*
X10528943Y9952757D1*
X10536307Y9958717D1*
X10544250Y9963877D1*
X10552690Y9968177D1*
X10561533Y9971573D1*
X10570683Y9974023D1*
X10580040Y9975503D1*
X10589500Y9976000D1*
X10792500D1*
Y10249000D1*
X10464500D1*
X10455040Y10249503D1*
X10445683Y10250983D1*
X10436533Y10253433D1*
X10427690Y10256827D1*
X10419250Y10261127D1*
X10411303Y10266287D1*
X10403943Y10272247D1*
X10397243Y10278943D1*
X10391283Y10286307D1*
X10386123Y10294250D1*
X10381823Y10302690D1*
X10378427Y10311533D1*
X10375977Y10320683D1*
X10374497Y10330040D1*
X10374000Y10339500D1*
Y11785500D1*
X10374503Y11794960D1*
X10375983Y11804317D1*
X10378433Y11813467D1*
X10381827Y11822310D1*
X10386127Y11830750D1*
X10391287Y11838697D1*
X10397247Y11846057D1*
X10403943Y11852757D1*
X10411307Y11858717D1*
X10419250Y11863877D1*
X10427690Y11868177D1*
X10436533Y11871573D1*
X10445683Y11874023D1*
X10455040Y11875503D1*
X10464500Y11876000D1*
X10667500D1*
Y12510000D1*
X9257500D1*
Y11876000D1*
X9460500D1*
X9469960Y11875510D1*
X9479317Y11874027D1*
X9488467Y11871577D1*
X9497310Y11868180D1*
X9505750Y11863877D1*
X9513693Y11858717D1*
X9521057Y11852757D1*
X9527753Y11846057D1*
X9533713Y11838697D1*
X9538873Y11830750D1*
X9543173Y11822310D1*
X9546570Y11813467D1*
X9549020Y11804317D1*
X9550503Y11794960D1*
X9551000Y11785500D1*
Y10339500D1*
X9550510Y10330040D1*
X9549027Y10320683D1*
X9546577Y10311533D1*
X9543180Y10302690D1*
X9538877Y10294250D1*
X9533717Y10286307D1*
X9527757Y10278943D1*
X9521057Y10272247D1*
X9513697Y10266287D1*
X9505750Y10261127D1*
X9497310Y10256827D1*
X9488467Y10253430D1*
X9479317Y10250980D1*
X9469960Y10249497D1*
X9460500Y10249000D1*
X9382500D1*
Y9976000D1*
X9585500D1*
X9594960Y9975510D1*
X9604317Y9974027D1*
X9613467Y9971577D1*
X9622310Y9968180D1*
X9630750Y9963877D1*
X9638693Y9958717D1*
X9646057Y9952757D1*
X9652753Y9946057D1*
X9658713Y9938697D1*
X9663873Y9930750D1*
X9668173Y9922310D1*
X9671570Y9913467D1*
X9674020Y9904317D1*
X9675503Y9894960D1*
X9676000Y9885500D1*
Y8439500D1*
X9675510Y8430040D1*
X9674030Y8420683D1*
X9671577Y8411533D1*
X9668180Y8402690D1*
X9663877Y8394250D1*
X9658717Y8386307D1*
X9652757Y8378943D1*
X9646057Y8372247D1*
X9638697Y8366287D1*
X9630750Y8361127D1*
X9622310Y8356827D1*
X9613467Y8353430D1*
X9604317Y8350980D1*
X9594960Y8349497D1*
X9585500Y8349000D1*
X9126000D1*
Y6539500D1*
X9125510Y6530040D1*
X9124027Y6520683D1*
X9121577Y6511533D1*
X9118180Y6502690D1*
X9113877Y6494250D1*
X9108717Y6486307D1*
X9102757Y6478943D1*
X9096057Y6472247D1*
X9088697Y6466287D1*
X9080750Y6461127D1*
X9072310Y6456827D1*
X9063467Y6453430D1*
X9054317Y6450980D1*
X9044960Y6449497D1*
X9035500Y6449000D1*
X8982500D1*
Y6176000D1*
X9185500D1*
X9194967Y6175503D1*
X9204333Y6174020D1*
X9213490Y6171563D1*
X9222340Y6168163D1*
X9230787Y6163857D1*
X9238737Y6158687D1*
X9246100Y6152717D1*
X9252800Y6146007D1*
X9258760Y6138633D1*
X9263917Y6130677D1*
X9268210Y6122223D1*
X9271597Y6113367D1*
X9274040Y6104207D1*
X9275510Y6094840D1*
X9276000Y6085370D1*
Y6051000D1*
X9151000D1*
Y4674000D1*
X8948000D1*
X8938540Y4673503D1*
X8929183Y4672023D1*
X8920033Y4669573D1*
X8911190Y4666177D1*
X8902750Y4661877D1*
X8894807Y4656717D1*
X8887443Y4650757D1*
X8880747Y4644057D1*
X8874787Y4636697D1*
X8869627Y4628750D1*
X8865327Y4620310D1*
X8861933Y4611467D1*
X8859483Y4602317D1*
X8858003Y4592960D1*
X8857500Y4583500D1*
Y3975000D1*
X8617500D1*
Y4583500D1*
X8617003Y4592960D1*
X8615520Y4602317D1*
X8613070Y4611467D1*
X8609673Y4620310D1*
X8605373Y4628750D1*
X8600213Y4636697D1*
X8594253Y4644057D1*
X8587557Y4650757D1*
X8580193Y4656717D1*
X8572250Y4661877D1*
X8563810Y4666180D1*
X8554967Y4669573D1*
X8545817Y4672027D1*
X8536460Y4673510D1*
X8527000Y4674000D1*
X8324000D1*
Y6051000D1*
X8527000D1*
X8536463Y6051497D1*
X8545823Y6052980D1*
X8554977Y6055433D1*
X8563827Y6058833D1*
X8572270Y6063137D1*
X8580217Y6068300D1*
X8587580Y6074267D1*
X8594277Y6080970D1*
X8600240Y6088337D1*
X8605400Y6096287D1*
X8609697Y6104733D1*
X8613090Y6113580D1*
X8615540Y6122737D1*
X8617017Y6132097D1*
X8617500Y6141563D1*
Y6483500D1*
X8617003Y6492960D1*
X8615520Y6502317D1*
X8613070Y6511467D1*
X8609673Y6520310D1*
X8605373Y6528750D1*
X8600213Y6536697D1*
X8594253Y6544057D1*
X8587557Y6550757D1*
X8580193Y6556717D1*
X8572250Y6561877D1*
X8563810Y6566180D1*
X8554967Y6569573D1*
X8545817Y6572027D1*
X8536460Y6573510D1*
X8527000Y6574000D1*
X8174000D1*
Y7951000D1*
X8633500D1*
X8642960Y7951497D1*
X8652317Y7952980D1*
X8661467Y7955430D1*
X8670310Y7958827D1*
X8678750Y7963127D1*
X8686697Y7968287D1*
X8694057Y7974247D1*
X8700757Y7980943D1*
X8706717Y7988307D1*
X8711877Y7996250D1*
X8716180Y8004690D1*
X8719573Y8013533D1*
X8722027Y8022683D1*
X8723510Y8032040D1*
X8724000Y8041500D1*
Y9851000D1*
X8927000D1*
X8936460Y9851497D1*
X8945817Y9852980D1*
X8954967Y9855430D1*
X8963810Y9858827D1*
X8972250Y9863127D1*
X8980197Y9868287D1*
X8987557Y9874247D1*
X8994257Y9880943D1*
X9000217Y9888307D1*
X9005377Y9896250D1*
X9009680Y9904690D1*
X9013077Y9913533D1*
X9015527Y9922683D1*
X9017010Y9932040D1*
X9017500Y9941500D1*
Y10283500D1*
X9017003Y10292957D1*
X9015523Y10302307D1*
X9013073Y10311453D1*
X9009683Y10320293D1*
X9005387Y10328730D1*
X9000230Y10336673D1*
X8994277Y10344033D1*
X8987583Y10350730D1*
X8980230Y10356693D1*
X8972290Y10361853D1*
X8963857Y10366157D1*
X8955020Y10369557D1*
X8945877Y10372017D1*
X8936527Y10373503D1*
X8927070Y10374000D1*
X8599000D1*
Y11751000D1*
X8802000D1*
X8811460Y11751497D1*
X8820817Y11752980D1*
X8829967Y11755430D1*
X8838810Y11758827D1*
X8847250Y11763127D1*
X8855197Y11768287D1*
X8862557Y11774247D1*
X8869257Y11780943D1*
X8875217Y11788307D1*
X8880377Y11796250D1*
X8884680Y11804690D1*
X8888073Y11813533D1*
X8890527Y11822683D1*
X8892010Y11832040D1*
X8892500Y11841500D1*
Y12669500D1*
X8891997Y12678960D1*
X8890517Y12688317D1*
X8888067Y12697467D1*
X8884673Y12706310D1*
X8880373Y12714750D1*
X8875213Y12722697D1*
X8869253Y12730057D1*
X8862557Y12736757D1*
X8855193Y12742717D1*
X8847250Y12747877D1*
X8838810Y12752177D1*
X8829967Y12755573D1*
X8820817Y12758023D1*
X8811460Y12759503D1*
X8802000Y12760000D1*
X7323000D1*
X7313540Y12759510D1*
X7304183Y12758027D1*
X7295033Y12755573D1*
X7286190Y12752180D1*
X7277750Y12747877D1*
X7269807Y12742717D1*
X7262443Y12736757D1*
X7255747Y12730057D1*
X7249787Y12722697D1*
X7244627Y12714750D1*
X7240327Y12706310D1*
X7236930Y12697467D1*
X7234480Y12688317D1*
X7232997Y12678960D1*
X7232500Y12669500D1*
Y11841500D1*
X7232990Y11832040D1*
X7234473Y11822683D1*
X7236927Y11813533D1*
X7240320Y11804690D1*
X7244623Y11796250D1*
X7249783Y11788307D1*
X7255743Y11780943D1*
X7262443Y11774247D1*
X7269803Y11768287D1*
X7277750Y11763127D1*
X7286190Y11758827D1*
X7295033Y11755430D1*
X7304183Y11752980D1*
X7313540Y11751497D1*
X7323000Y11751000D1*
X7526000D1*
Y10374000D1*
X7448000D1*
X7438540Y10373510D1*
X7429183Y10372027D1*
X7420033Y10369573D1*
X7411190Y10366180D1*
X7402750Y10361877D1*
X7394807Y10356717D1*
X7387443Y10350757D1*
X7380747Y10344057D1*
X7374787Y10336697D1*
X7369627Y10328750D1*
X7365327Y10320310D1*
X7361930Y10311467D1*
X7359480Y10302317D1*
X7357997Y10292960D1*
X7357500Y10283500D1*
Y9941297D1*
X7358010Y9931850D1*
X7359510Y9922510D1*
X7361977Y9913377D1*
X7365383Y9904553D1*
X7369690Y9896133D1*
X7374853Y9888207D1*
X7380817Y9880863D1*
X7387513Y9874183D1*
X7394870Y9868237D1*
X7402810Y9863093D1*
X7411240Y9858803D1*
X7420073Y9855417D1*
X7429210Y9852973D1*
X7438553Y9851493D1*
X7448000Y9851000D1*
X7651000D1*
Y8474000D1*
X7285420D1*
X6762420Y7951000D1*
X6951000D1*
Y6743707D1*
X7865000Y5829707D1*
Y4241500D1*
X7865490Y4232040D1*
X7866973Y4222683D1*
X7869427Y4213533D1*
X7872820Y4204690D1*
X7877123Y4196250D1*
X7882283Y4188307D1*
X7888243Y4180943D1*
X7894943Y4174247D1*
X7902303Y4168287D1*
X7910250Y4163127D1*
X7918690Y4158827D1*
X7927533Y4155430D1*
X7936683Y4152980D1*
X7946040Y4151497D1*
X7955500Y4151000D1*
X7971000D1*
Y2774000D1*
X7519000D1*
Y4151000D1*
X7534500D1*
X7543960Y4151500D1*
X7553317Y4152983D1*
X7562467Y4155433D1*
X7571310Y4158827D1*
X7579750Y4163127D1*
X7587697Y4168287D1*
X7595057Y4174247D1*
X7601757Y4180943D1*
X7607717Y4188307D1*
X7612877Y4196250D1*
X7617177Y4204690D1*
X7620573Y4213533D1*
X7623023Y4222683D1*
X7624503Y4232040D1*
X7625000Y4241500D1*
Y5741070D1*
X6781293Y6574000D1*
X6124000D1*
Y7951000D1*
X6439580D1*
X6962580Y8474000D1*
X6824000D1*
Y9851000D1*
X7027000D1*
X7036460Y9851500D1*
X7045817Y9852983D1*
X7054967Y9855433D1*
X7063810Y9858827D1*
X7072250Y9863127D1*
X7080197Y9868287D1*
X7087557Y9874247D1*
X7094257Y9880943D1*
X7100217Y9888307D1*
X7105377Y9896250D1*
X7109677Y9904690D1*
X7113070Y9913533D1*
X7115523Y9922683D1*
X7117003Y9932040D1*
X7117500Y9941500D1*
Y10283500D1*
X7117000Y10292960D1*
X7115520Y10302317D1*
X7113067Y10311467D1*
X7109673Y10320310D1*
X7105373Y10328750D1*
X7100213Y10336697D1*
X7094253Y10344057D1*
X7087557Y10350757D1*
X7080193Y10356717D1*
X7072250Y10361877D1*
X7063810Y10366177D1*
X7054967Y10369570D1*
X7045817Y10372023D1*
X7036460Y10373503D1*
X7027000Y10374000D1*
G37*
X2774000Y7985500D2*
D13*
D3*
Y7951000D2*
D3*
Y6051000D2*
D3*
X33324000Y9851000D2*
D3*
X29551000Y4151000D2*
D3*
X28474000D2*
D3*
Y6051000D2*
D3*
X25299000D2*
D3*
X19599000D2*
D3*
X17699000D2*
D3*
X11999000D2*
D3*
X8199000D2*
D3*
X23399000D2*
D3*
X33324000D2*
D3*
X31424000D2*
D3*
Y7951000D2*
D3*
X5324000Y4151000D2*
D3*
X6401000Y6051000D2*
D3*
G36*
X15236000Y14375000D2*
Y13110000D1*
X4939000D1*
Y12235000D1*
X3332500D1*
Y11687500D1*
X3662500D1*
Y10437500D1*
X3332500D1*
Y9787500D1*
X3662500D1*
Y8537500D1*
X3332500D1*
Y7887500D1*
X3662500D1*
Y6637500D1*
X3332500D1*
Y5987500D1*
X3662500D1*
Y4737500D1*
X3332500D1*
Y4075000D1*
X3292500D1*
Y4737500D1*
X2962500D1*
Y5987500D1*
X3292500D1*
Y6637500D1*
X2962500D1*
Y7887500D1*
X3292500D1*
Y8537500D1*
X2962500D1*
Y9787500D1*
X3292500D1*
Y10437500D1*
X2962500D1*
Y11687500D1*
X3292500D1*
Y12275000D1*
X4899000D1*
Y13150000D1*
X14008000D1*
X15196000D1*
Y14375000D1*
X15236000D1*
G37*
G36*
X9032500Y12735000D2*
X16424000D1*
Y14375000D1*
X16384000D1*
Y12775000D1*
X15196000D1*
X8992500D1*
Y11687500D1*
X8662500D1*
Y10437500D1*
X9117500D1*
Y9787500D1*
X8787500D1*
Y8537500D1*
X8824000D1*
Y7887500D1*
X8237500D1*
Y6637500D1*
X8717500D1*
Y5987500D1*
X8387500D1*
Y4737500D1*
X8717500D1*
Y4075000D1*
X8757500D1*
Y4737500D1*
X9087500D1*
Y5987500D1*
X8757500D1*
Y6637500D1*
X8937500D1*
Y7887500D1*
X8864000D1*
Y8537500D1*
X9487500D1*
Y9787500D1*
X9157500D1*
Y10437500D1*
X9362500D1*
Y11687500D1*
X9032500D1*
Y12735000D1*
G37*
G36*
X12832500Y12485000D2*
X17216000D1*
Y14375000D1*
X17176000D1*
Y12525000D1*
X15988000D1*
X12792500D1*
Y11687500D1*
X12462500D1*
Y10437500D1*
X12917500D1*
Y9787500D1*
X12587500D1*
Y8537500D1*
X12624000D1*
Y7887500D1*
X12037500D1*
Y6637500D1*
X12517500D1*
Y5987500D1*
X12187500D1*
Y4737500D1*
X12517500D1*
Y4075000D1*
X12557500D1*
Y4737500D1*
X12887500D1*
Y5987500D1*
X12557500D1*
Y6637500D1*
X12737500D1*
Y7887500D1*
X12664000D1*
Y8537500D1*
X13287500D1*
Y9787500D1*
X12957500D1*
Y10437500D1*
X13162500D1*
Y11687500D1*
X12832500D1*
Y12485000D1*
G37*
G36*
X5064000Y11687500D2*
X5206500D1*
Y10437500D1*
X5064000D1*
Y9787500D1*
X5687500D1*
Y8537500D1*
X5064000D1*
Y5382500D1*
X5512500D1*
Y5987500D1*
X6212500D1*
Y4737500D1*
X5882500D1*
Y4087500D1*
X6212500D1*
Y2837500D1*
X5512500D1*
Y4087500D1*
X5842500D1*
Y4737500D1*
X5512500D1*
Y5342500D1*
X5024000D1*
Y8537500D1*
X4987500D1*
Y9787500D1*
X5024000D1*
Y10437500D1*
X4881500D1*
Y11687500D1*
X5024000D1*
Y13025000D1*
X14404000D1*
X15592000D1*
Y14375000D1*
X15632000D1*
Y12985000D1*
X5064000D1*
Y11687500D1*
G37*
G36*
X33842500D2*
X33512500D1*
Y10437500D1*
X33842500D1*
Y9787500D1*
X33512500D1*
Y8537500D1*
X33842500D1*
Y7887500D1*
X33512500D1*
Y6637500D1*
X33842500D1*
Y5987500D1*
X33512500D1*
Y4737500D1*
X33842500D1*
Y4075000D1*
X33882500D1*
Y4737500D1*
X34212500D1*
Y5987500D1*
X33882500D1*
Y6637500D1*
X34212500D1*
Y7887500D1*
X33882500D1*
Y8537500D1*
X34212500D1*
Y9787500D1*
X33882500D1*
Y10437500D1*
X34212500D1*
Y11687500D1*
X33882500D1*
Y12115000D1*
X32107500D1*
Y13000000D1*
X22364000D1*
Y14375000D1*
X22324000D1*
Y12960000D1*
X32067500D1*
Y12075000D1*
X33842500D1*
Y11687500D1*
G37*
G36*
X14732500Y12360000D2*
X17612000D1*
Y14375000D1*
X17572000D1*
Y12400000D1*
X16384000D1*
X14692500D1*
Y11687500D1*
X14362500D1*
Y10437500D1*
X14817500D1*
Y9787500D1*
X14487500D1*
Y8537500D1*
X14524000D1*
Y7887500D1*
X13937500D1*
Y6637500D1*
X14417500D1*
Y5987500D1*
X14087500D1*
Y4737500D1*
X14417500D1*
Y4075000D1*
X14457500D1*
Y4737500D1*
X14787500D1*
Y5987500D1*
X14457500D1*
Y6637500D1*
X14637500D1*
Y7887500D1*
X14564000D1*
Y8537500D1*
X15187500D1*
Y9787500D1*
X14857500D1*
Y10437500D1*
X15062500D1*
Y11687500D1*
X14732500D1*
Y12360000D1*
G37*
G36*
X21572000Y14375000D2*
Y12750000D1*
X29932500D1*
Y11687500D1*
X30262500D1*
Y10437500D1*
X29639000D1*
Y7887500D1*
X29837500D1*
Y6637500D1*
X29214000D1*
Y5987500D1*
X29362500D1*
Y4737500D1*
X29032500D1*
Y4087500D1*
X29362500D1*
Y2837500D1*
X28662500D1*
Y4087500D1*
X28992500D1*
Y4737500D1*
X28662500D1*
Y5987500D1*
X29174000D1*
Y6637500D1*
X29137500D1*
Y7887500D1*
X29599000D1*
Y10437500D1*
X29562500D1*
Y11687500D1*
X29892500D1*
Y12710000D1*
X21532000D1*
Y14375000D1*
X21572000D1*
G37*
G36*
X20780000D2*
Y12500000D1*
X26132500D1*
Y11687500D1*
X26462500D1*
Y10437500D1*
X26257500D1*
Y9787500D1*
X26587500D1*
Y8537500D1*
X25964000D1*
Y7887500D1*
X26037500D1*
Y6637500D1*
X25857500D1*
Y5987500D1*
X26187500D1*
Y4737500D1*
X26040783D1*
X26675000Y4103283D1*
X26646717Y4075000D1*
X25984217Y4737500D1*
X25487500D1*
Y5987500D1*
X25817500D1*
Y6637500D1*
X25337500D1*
Y7887500D1*
X25924000D1*
Y8537500D1*
X25887500D1*
Y9787500D1*
X26217500D1*
Y10437500D1*
X25762500D1*
Y11687500D1*
X26092500D1*
Y12460000D1*
X20740000D1*
Y14375000D1*
X20780000D1*
G37*
G36*
X22057500Y6637500D2*
X22237500D1*
Y7887500D1*
X22164000D1*
Y8537500D1*
X22787500D1*
Y9787500D1*
X22457500D1*
Y10437500D1*
X22662500D1*
Y11687500D1*
X22332500D1*
Y12250000D1*
X19988000D1*
Y14375000D1*
X19948000D1*
Y12210000D1*
X22292500D1*
Y11687500D1*
X21962500D1*
Y10437500D1*
X22417500D1*
Y9787500D1*
X22087500D1*
Y8537500D1*
X22124000D1*
Y7887500D1*
X21537500D1*
Y6637500D1*
X22017500D1*
Y5987500D1*
X21687500D1*
Y4737500D1*
X22017500D1*
Y4075000D1*
X22057500D1*
Y4737500D1*
X22387500D1*
Y5987500D1*
X22057500D1*
Y6637500D1*
G37*
G36*
X20117500D2*
Y5987500D1*
X19787500D1*
Y4737500D1*
X20117500D1*
Y4075000D1*
X20157500D1*
Y4737500D1*
X20487500D1*
Y5987500D1*
X20157500D1*
Y6637500D1*
X20337500D1*
Y7887500D1*
X20264000D1*
Y8537500D1*
X20887500D1*
Y9787500D1*
X20557500D1*
Y10437500D1*
X20762500D1*
Y11687500D1*
X20432500D1*
Y12125000D1*
X19592000D1*
Y14375000D1*
X19552000D1*
Y12085000D1*
X20392500D1*
Y11687500D1*
X20062500D1*
Y10437500D1*
X20517500D1*
Y9787500D1*
X20187500D1*
Y8537500D1*
X20224000D1*
Y7887500D1*
X19637500D1*
Y6637500D1*
X20117500D1*
G37*
G36*
X17968000Y12275000D2*
X16780000D1*
X16592500D1*
Y11687500D1*
X16262500D1*
Y10437500D1*
X16717500D1*
Y9787500D1*
X16387500D1*
Y8537500D1*
X16424000D1*
Y7887500D1*
X15837500D1*
Y6637500D1*
X16317500D1*
Y5987500D1*
X15987500D1*
Y4737500D1*
X16317500D1*
Y4075000D1*
X16357500D1*
Y4737500D1*
X16687500D1*
Y5987500D1*
X16357500D1*
Y6637500D1*
X16537500D1*
Y7887500D1*
X16464000D1*
Y8537500D1*
X17087500D1*
Y9787500D1*
X16757500D1*
Y10437500D1*
X16962500D1*
Y11687500D1*
X16632500D1*
Y12235000D1*
X18008000D1*
Y14375000D1*
X17968000D1*
Y12275000D1*
G37*
G36*
X16780000Y12650000D2*
X15592000D1*
X10892500D1*
Y11687500D1*
X10562500D1*
Y10437500D1*
X11017500D1*
Y9787500D1*
X10687500D1*
Y8537500D1*
X10724000D1*
Y7887500D1*
X10137500D1*
Y6637500D1*
X10617500D1*
Y5987500D1*
X10287500D1*
Y4737500D1*
X10617500D1*
Y4075000D1*
X10657500D1*
Y4737500D1*
X10987500D1*
Y5987500D1*
X10657500D1*
Y6637500D1*
X10837500D1*
Y7887500D1*
X10764000D1*
Y8537500D1*
X11387500D1*
Y9787500D1*
X11057500D1*
Y10437500D1*
X11262500D1*
Y11687500D1*
X10932500D1*
Y12610000D1*
X16820000D1*
Y14375000D1*
X16780000D1*
Y12650000D1*
G37*
G36*
X23957500Y6637500D2*
X24137500D1*
Y7887500D1*
X24064000D1*
Y8537500D1*
X24687500D1*
Y9787500D1*
X24357500D1*
Y10437500D1*
X24562500D1*
Y11687500D1*
X24232500D1*
Y12375000D1*
X20384000D1*
Y14375000D1*
X20344000D1*
Y12335000D1*
X24192500D1*
Y11687500D1*
X23862500D1*
Y10437500D1*
X24317500D1*
Y9787500D1*
X23987500D1*
Y8537500D1*
X24024000D1*
Y7887500D1*
X23437500D1*
Y6637500D1*
X23917500D1*
Y5987500D1*
X23587500D1*
Y4737500D1*
X23917500D1*
Y4075000D1*
X23957500D1*
Y4737500D1*
X24287500D1*
Y5987500D1*
X23957500D1*
Y6637500D1*
G37*
G36*
X31942500Y11687500D2*
Y12835000D1*
X21928000D1*
Y14375000D1*
X21968000D1*
Y12875000D1*
X31982500D1*
Y11687500D1*
X32312500D1*
Y10437500D1*
X31982500D1*
Y9787500D1*
X32312500D1*
Y8537500D1*
X31982500D1*
Y7887500D1*
X32312500D1*
Y6637500D1*
X31982500D1*
Y5987500D1*
X32312500D1*
Y4737500D1*
X31982500D1*
Y4075000D1*
X31942500D1*
Y4737500D1*
X31612500D1*
Y5987500D1*
X31942500D1*
Y6637500D1*
X31612500D1*
Y7887500D1*
X31942500D1*
Y8537500D1*
X31612500D1*
Y9787500D1*
X31942500D1*
Y10437500D1*
X31612500D1*
Y11687500D1*
X31942500D1*
G37*
G36*
X21176000Y14375000D2*
Y12625000D1*
X28032500D1*
Y11687500D1*
X28362500D1*
Y10437500D1*
X28157500D1*
Y9787500D1*
X28487500D1*
Y8537500D1*
X27864000D1*
Y7887500D1*
X27937500D1*
Y6637500D1*
X27314000D1*
Y3442500D1*
X25862500D1*
Y2837500D1*
X25162500D1*
Y4087500D1*
X25862500D1*
Y3482500D1*
X27274000D1*
Y6637500D1*
X27237500D1*
Y7887500D1*
X27824000D1*
Y8537500D1*
X27787500D1*
Y9787500D1*
X28117500D1*
Y10437500D1*
X27662500D1*
Y11687500D1*
X27992500D1*
Y12585000D1*
X21136000D1*
Y14375000D1*
X21176000D1*
G37*
G36*
X7092500Y12900000D2*
X14800000D1*
X15988000D1*
Y14375000D1*
X16028000D1*
Y12860000D1*
X7132500D1*
Y11687500D1*
X7462500D1*
Y10437500D1*
X7257500D1*
Y9787500D1*
X7587500D1*
Y8537500D1*
X7207500D1*
X6557500Y7887500D1*
X6887500D1*
Y6665783D1*
X7570000Y5983283D1*
X7765000Y5788283D1*
Y4087500D1*
X7907500D1*
Y2837500D1*
X7582500D1*
Y4087500D1*
X7725000D1*
Y5771717D1*
X6859217Y6637500D1*
X6187500D1*
Y7887500D1*
X6517500D1*
X7167500Y8537500D1*
X6887500D1*
Y9787500D1*
X7217500D1*
Y10437500D1*
X6762500D1*
Y11687500D1*
X7092500D1*
Y12900000D1*
G37*
G36*
X18217500Y6637500D2*
Y5987500D1*
X17887500D1*
Y4737500D1*
X18217500D1*
Y4075000D1*
X18257500D1*
Y4737500D1*
X18587500D1*
Y5987500D1*
X18257500D1*
Y6637500D1*
X18437500D1*
Y7887500D1*
X18364000D1*
Y8537500D1*
X18987500D1*
Y9787500D1*
X18657500D1*
Y10437500D1*
X18862500D1*
Y11687500D1*
X18532500D1*
Y12085000D1*
X19196000D1*
Y14375000D1*
X19156000D1*
Y12125000D1*
X18492500D1*
Y11687500D1*
X18162500D1*
Y10437500D1*
X18617500D1*
Y9787500D1*
X18287500D1*
Y8537500D1*
X18324000D1*
Y7887500D1*
X17737500D1*
Y6637500D1*
X18217500D1*
G37*
M02*
